<svg width="49" height="60" viewBox="0 0 49 60" fill="none" xmlns="http://www.w3.org/2000/svg">
<path d="M21.2844 32.0101L17.0734 27.7623C16.4609 27.1555 15.7341 26.8521 14.8929 26.8521C14.0518 26.8521 13.3239 27.1555 12.7094 27.7623C12.0969 28.3692 11.7774 29.0903 11.7508 29.9257C11.7243 30.7611 12.0183 31.4812 12.6328 32.086L19.1406 38.5335C19.7531 39.1403 20.4677 39.4437 21.2844 39.4437C22.101 39.4437 22.8156 39.1403 23.4281 38.5335L36.4437 25.6384C37.0562 25.0316 37.3625 24.3115 37.3625 23.4781C37.3625 22.6448 37.0562 21.9236 36.4437 21.3148C35.8312 20.708 35.1034 20.4046 34.2602 20.4046C33.417 20.4046 32.6901 20.708 32.0797 21.3148L21.2844 32.0101ZM24.5 60H23.7344C23.4792 60 23.2495 59.9494 23.0453 59.8483C16.3589 57.775 10.8464 53.6657 6.50781 47.5206C2.16927 41.3755 0 34.5871 0 27.1555V12.8192C0 11.555 0.370562 10.4172 1.11169 9.40582C1.85281 8.39444 2.80933 7.66119 3.98125 7.20607L22.3562 0.379267C23.0708 0.126422 23.7854 0 24.5 0C25.2146 0 25.9292 0.126422 26.6437 0.379267L45.0187 7.20607C46.1927 7.66119 47.1502 8.39444 47.8914 9.40582C48.6325 10.4172 49.002 11.555 49 12.8192V27.1555C49 34.5891 46.8307 41.3785 42.4922 47.5236C38.1536 53.6688 32.6411 57.777 25.9547 59.8483C25.6995 59.9494 25.2146 60 24.5 60ZM24.5 53.8559C29.8083 52.1871 34.1979 48.8496 37.6687 43.8432C41.1396 38.8369 42.875 33.2743 42.875 27.1555V12.8192L24.5 5.99241L6.125 12.8192V27.1555C6.125 33.2743 7.86041 38.8369 11.3312 43.8432C14.8021 48.8496 19.1917 52.1871 24.5 53.8559Z" fill="#64B5F6"/>
</svg>
