<svg width="32" height="32" viewBox="0 0 32 32" fill="none" xmlns="http://www.w3.org/2000/svg">
<g id="Frame">
<path id="Vector" d="M8.29289 8H21V9.24337H8.29289V8ZM8.29289 14.2168H14.7147V15.4602H8.29289V14.2168ZM20.506 11.1084H8.29289V12.3518H19.2361L20.506 11.1084ZM12.0995 24.2197C12.3131 24.4594 12.5842 24.6434 12.8885 24.7552C13.1928 24.867 13.5207 24.903 13.8427 24.8601H20.0398C20.1873 24.8601 20.3287 24.8028 20.4329 24.7007C20.5372 24.5987 20.5958 24.4604 20.5958 24.3161C20.5958 24.1718 20.5372 24.0335 20.4329 23.9315C20.3287 23.8294 20.1873 23.7721 20.0398 23.7721H13.8427C13.1192 23.7597 13.2479 23.145 13.3495 22.9546C13.4821 22.7312 13.5853 22.4923 13.6569 22.2436C13.7044 22.0435 13.682 21.8336 13.5933 21.6474C13.5046 21.4611 13.3548 21.3094 13.1677 21.2162C12.867 21.0837 12.5303 21.0512 12.209 21.1238C11.8877 21.1963 11.5995 21.3699 11.3887 21.618C11.1155 21.8939 10.7358 22.3158 10.3721 22.7261C10.5968 21.8643 10.8883 20.7585 11.1742 19.6799C11.2562 19.4341 11.2398 19.1671 11.1286 18.9326C11.0173 18.6982 10.8194 18.5137 10.5746 18.4163C10.3036 18.3253 10.0073 18.3383 9.74568 18.4527C9.48405 18.5671 9.27649 18.7743 9.16491 19.0326C8.82182 19.6783 6.10567 24.1319 6.07867 24.177C6.04123 24.2383 6.0165 24.3063 6.0059 24.377C5.99529 24.4476 5.99902 24.5197 6.01687 24.589C6.03471 24.6582 6.06633 24.7234 6.10991 24.7807C6.15349 24.838 6.20819 24.8864 6.27087 24.923C6.39746 24.997 6.5489 25.0188 6.69189 24.9835C6.83487 24.9482 6.95768 24.8588 7.03329 24.735C7.13495 24.5679 9.3031 21.0142 9.9869 19.8275C9.47227 21.7703 8.90521 23.9322 8.87185 24.1265C8.83431 24.2693 8.84558 24.4203 8.90394 24.5562C8.96231 24.6922 9.06457 24.8057 9.19509 24.8795C9.34047 24.9501 9.50571 24.9712 9.66476 24.9397C9.82381 24.9082 9.9676 24.8258 10.0735 24.7054C10.1735 24.6168 10.361 24.4062 10.8335 23.8693C11.2738 23.3626 11.7247 22.8649 12.186 22.3764C12.3592 22.1977 12.464 22.277 12.3623 22.4526C12.1635 22.6985 12.0345 22.9914 11.9885 23.3017C11.9425 23.612 11.9802 23.9287 12.0995 24.2197Z" fill="currentColor"/>
<path id="Vector_2" d="M23.5 18.7712V26.5H5.5V5.5H23.5V9.24475L24.4975 8.24725C24.6511 8.0958 24.8194 7.96012 25 7.84225V4.75C25 4.55109 24.921 4.36032 24.7803 4.21967C24.6397 4.07902 24.4489 4 24.25 4H4.75C4.55109 4 4.36032 4.07902 4.21967 4.21967C4.07902 4.36032 4 4.55109 4 4.75V27.25C4 27.4489 4.07902 27.6397 4.21967 27.7803C4.36032 27.921 4.55109 28 4.75 28H24.25C24.4489 28 24.6397 27.921 24.7803 27.7803C24.921 27.6397 25 27.4489 25 27.25V18.5702C24.54 18.814 24.008 18.8853 23.5 18.7712Z" fill="#D51E03"/>
<path id="Vector_3" d="M28.5671 11.4797L28.1749 11.1021C28.3753 10.847 28.4768 10.5326 28.4618 10.2131C28.4467 9.89359 28.316 9.58925 28.0924 9.35276C27.8021 9.10645 27.4224 8.98054 27.0361 9.00245C26.6498 9.02435 26.2881 9.1923 26.0299 9.46972L16.6362 18.5108L16.0085 20.7792C15.9985 20.8089 15.9973 20.8407 16.005 20.871C16.0126 20.9013 16.0288 20.9289 16.0518 20.9509C16.0748 20.9729 16.1037 20.9883 16.1352 20.9955C16.1667 21.0026 16.1997 21.0013 16.2305 20.9915L18.5787 20.38L27.3476 11.9388L27.7181 12.2962C27.744 12.3211 27.7645 12.3506 27.7785 12.3831C27.7925 12.4157 27.7998 12.4505 27.7998 12.4857C27.7998 12.5209 27.7925 12.5558 27.7785 12.5883C27.7645 12.6208 27.744 12.6504 27.7181 12.6752L24.0304 16.2251C23.9179 16.3335 23.8548 16.4804 23.8548 16.6336C23.8549 16.7868 23.9182 16.9337 24.0308 17.042C24.1434 17.1503 24.296 17.2111 24.4552 17.211C24.6143 17.2109 24.7669 17.15 24.8794 17.0417L28.5671 13.4918C28.8443 13.2248 29 12.8628 29 12.4854C29 12.1079 28.8443 11.7459 28.5671 11.4789V11.4797Z" fill="#D51E03"/>
</g>
</svg>
