<svg width="55" height="39" viewBox="0 0 55 39" fill="none" xmlns="http://www.w3.org/2000/svg">
<path id="Vector" d="M22.5 12.0339C22.5 11.6559 22.3642 11.2669 22.0925 10.8671C21.8208 10.4672 21.52 10.2051 21.19 10.0808C19.9817 9.66074 18.7733 9.34571 17.565 9.1357C16.3567 8.92568 15.085 8.82067 13.75 8.82067C12.9167 8.82067 12.0933 8.8736 11.28 8.97944C10.4667 9.08529 9.66502 9.22138 8.87502 9.38771C8.50002 9.47172 8.17669 9.68174 7.90502 10.0178C7.63335 10.3538 7.49835 10.7318 7.50002 11.1518C7.50002 11.8659 7.72918 12.3909 8.18752 12.727C8.64585 13.063 9.22919 13.147 9.93752 12.979C10.5209 12.853 11.135 12.7581 11.78 12.6942C12.425 12.6304 13.0817 12.5993 13.75 12.601C14.8333 12.601 15.8958 12.706 16.9375 12.916C17.9792 13.126 18.9792 13.399 19.9375 13.735C20.6875 14.0291 21.3017 14.0081 21.78 13.672C22.2583 13.336 22.4983 12.79 22.5 12.0339ZM22.5 25.895C22.5 25.5169 22.3642 25.128 22.0925 24.7281C21.8208 24.3283 21.5192 24.0662 21.1875 23.9418C19.9792 23.5218 18.7708 23.2068 17.5625 22.9968C16.3542 22.7867 15.0833 22.6817 13.75 22.6817C12.9167 22.6817 12.0933 22.7347 11.28 22.8405C10.4667 22.9463 9.66502 23.0824 8.87502 23.2488C8.50002 23.3328 8.17669 23.5428 7.90502 23.8788C7.63335 24.2148 7.49835 24.5929 7.50002 25.0129C7.50002 25.727 7.72918 26.252 8.18752 26.588C8.64585 26.9241 9.22919 27.0081 9.93752 26.84C10.5209 26.714 11.135 26.6191 11.78 26.5553C12.425 26.4914 13.0817 26.4603 13.75 26.462C14.8333 26.462 15.8958 26.5569 16.9375 26.7468C17.9792 26.9367 18.9792 27.1988 19.9375 27.5331C20.6875 27.8271 21.3025 27.8162 21.7825 27.5003C22.2625 27.1845 22.5017 26.6502 22.5 25.8975V25.895ZM22.5 18.9644C22.5 18.5864 22.3642 18.1975 22.0925 17.7976C21.8208 17.3977 21.5192 17.1356 21.1875 17.0113C19.9792 16.5913 18.7708 16.2762 17.5625 16.0662C16.3542 15.8562 15.0833 15.7512 13.75 15.7512C12.9167 15.7512 12.0933 15.8041 11.28 15.91C10.4667 16.0158 9.66502 16.1519 8.87502 16.3182C8.50002 16.4022 8.17669 16.6123 7.90502 16.9483C7.63335 17.2843 7.49835 17.6623 7.50002 18.0824C7.50002 18.7964 7.72918 19.3215 8.18752 19.6575C8.64585 19.9935 9.22919 20.0775 9.93752 19.9095C10.5209 19.7835 11.135 19.6886 11.78 19.6247C12.425 19.5609 13.0817 19.5298 13.75 19.5315C14.8333 19.5315 15.8958 19.6365 16.9375 19.8465C17.9792 20.0565 18.9792 20.3295 19.9375 20.6656C20.6875 20.9596 21.3017 20.9386 21.78 20.6026C22.2583 20.2665 22.4983 19.7205 22.5 18.9644ZM41.25 30.2423C39.2917 30.2423 37.385 30.4632 35.53 30.9051C33.675 31.347 31.8317 32.0081 30 32.8885V8.06461C31.7083 7.05654 33.5208 6.30048 35.4375 5.79644C37.3542 5.2924 39.2917 5.04038 41.25 5.04038C42.75 5.04038 44.24 5.1874 45.72 5.48142C47.2 5.77544 48.6267 6.21647 50 6.80452V31.7544C48.5417 31.2504 47.0933 30.8723 45.655 30.6203C44.2167 30.3683 42.7483 30.2423 41.25 30.2423ZM25 32.8885C23.1667 32.0064 21.3233 31.3445 19.47 30.9026C17.6167 30.4607 15.71 30.2406 13.75 30.2423C12.25 30.2423 10.7808 30.3683 9.34252 30.6203C7.90418 30.8723 6.45669 31.2504 5.00002 31.7544V6.80452C6.37502 6.21647 7.80252 5.77544 9.28252 5.48142C10.7625 5.1874 12.2517 5.04038 13.75 5.04038C15.7083 5.04038 17.6458 5.2924 19.5625 5.79644C21.4792 6.30048 23.2917 7.05654 25 8.06461V32.8885ZM27.5 39C28.0833 39 28.6358 38.926 29.1575 38.7782C29.6792 38.6303 30.1683 38.4312 30.625 38.1809C32.25 37.2148 33.9583 36.4907 35.75 36.0085C37.5417 35.5263 39.375 35.2844 41.25 35.2827C43 35.2827 44.7192 35.5137 46.4075 35.9757C48.0958 36.4378 49.71 37.0888 51.25 37.9289C52.125 38.3909 52.9683 38.3699 53.78 37.8659C54.5917 37.3618 54.9983 36.6268 55 35.6607V5.2924C55 4.83037 54.885 4.38933 54.655 3.9693C54.425 3.54927 54.0817 3.23425 53.625 3.02423C51.7083 2.01615 49.7083 1.2601 47.625 0.756058C45.5417 0.25202 43.4167 0 41.25 0C38.8333 0 36.4683 0.315024 34.155 0.945072C31.8417 1.57512 29.6233 2.52019 27.5 3.78029C25.375 2.52019 23.1558 1.57512 20.8425 0.945072C18.5292 0.315024 16.165 0 13.75 0C11.5833 0 9.45835 0.25202 7.37502 0.756058C5.29169 1.2601 3.29168 2.01615 1.37502 3.02423C0.916685 3.23425 0.572519 3.54927 0.342519 3.9693C0.112519 4.38933 -0.00164569 4.83037 2.09808e-05 5.2924V35.6607C2.09808e-05 36.6268 0.405853 37.3618 1.21752 37.8659C2.02919 38.3699 2.87335 38.3909 3.75002 37.9289C5.29169 37.0888 6.90585 36.4378 8.59252 35.9757C10.2792 35.5137 11.9983 35.2827 13.75 35.2827C15.625 35.2827 17.4583 35.5246 19.25 36.0085C21.0417 36.4924 22.75 37.2165 24.375 38.1809C24.8333 38.4329 25.3233 38.6329 25.845 38.7807C26.3667 38.9286 26.9183 39.0017 27.5 39Z" fill="white" fill-opacity="0.1"/>
</svg>
