<svg width="32" height="32" viewBox="0 0 32 32" fill="none" xmlns="http://www.w3.org/2000/svg">
<path d="M29.0002 29H3.00017" stroke="#DF237D" stroke-width="2" stroke-linecap="round"/>
<path d="M23.0002 29V8.2C23.0002 5.7482 23.0002 4.5236 22.2384 3.7618C21.4766 3 20.252 3 17.8002 3H15.2002C12.7484 3 11.5238 3 10.762 3.7618C10.0002 4.5236 10.0002 5.7482 10.0002 8.2V29" stroke="#DF237D" stroke-width="2"/>
<path d="M27.0002 15.4746C27.0002 15.7308 27.1055 15.9765 27.2931 16.1577C27.4806 16.3389 27.735 16.4407 28.0002 16.4407C28.2654 16.4407 28.5197 16.3389 28.7073 16.1577C28.8948 15.9765 29.0002 15.7308 29.0002 15.4746H27.0002ZM29.0002 20.6271C29.0002 20.3709 28.8948 20.1252 28.7073 19.944C28.5197 19.7628 28.2654 19.661 28.0002 19.661C27.735 19.661 27.4806 19.7628 27.2931 19.944C27.1055 20.1252 27.0002 20.3709 27.0002 20.6271H29.0002ZM23.3335 11.9322C24.2908 11.9322 24.9335 11.9322 25.4228 11.9812C25.8962 12.0275 26.1148 12.11 26.2602 12.204L27.3708 10.5964C26.8428 10.2563 26.2575 10.1211 25.6255 10.0593C25.0108 9.99871 24.2495 10 23.3335 10V11.9322ZM29.0002 15.4746C29.0002 14.5896 29.0002 13.8541 28.9388 13.2603C28.8748 12.651 28.7348 12.0842 28.3815 11.5741L26.7188 12.6484C26.8162 12.7875 26.9015 12.9988 26.9495 13.4561C26.9988 13.9288 27.0002 14.551 27.0002 15.4746H29.0002ZM26.2602 12.2027C26.4415 12.3212 26.5975 12.4719 26.7188 12.6484L28.3815 11.5741C28.1148 11.1877 27.7708 10.8553 27.3708 10.5964L26.2602 12.204V12.2027ZM27.0002 20.6271V29H29.0002V20.6271H27.0002ZM5.00017 26.4237C5.00017 26.1675 4.89481 25.9218 4.70728 25.7406C4.51974 25.5594 4.26539 25.4576 4.00017 25.4576C3.73495 25.4576 3.4806 25.5594 3.29306 25.7406C3.10553 25.9218 3.00017 26.1675 3.00017 26.4237H5.00017ZM3.00017 21.2712C3.00017 21.5274 3.10553 21.7731 3.29306 21.9543C3.4806 22.1355 3.73495 22.2373 4.00017 22.2373C4.26539 22.2373 4.51974 22.1355 4.70728 21.9543C4.89481 21.7731 5.00017 21.5274 5.00017 21.2712H3.00017ZM8.66684 10C7.75084 10 6.9895 10 6.37484 10.0593C5.74417 10.1211 5.1575 10.2563 4.6295 10.5964L5.7415 12.204C5.8855 12.11 6.10417 12.0275 6.5775 11.9812C7.06684 11.9335 7.71084 11.9322 8.66684 11.9322V10ZM5.00017 15.4746C5.00017 14.5497 5.00017 13.9288 5.05084 13.4561C5.09884 12.9988 5.18417 12.7875 5.2815 12.6484L3.6175 11.5741C3.2655 12.0842 3.1255 12.651 3.0615 13.2603C2.99884 13.8541 3.00017 14.5896 3.00017 15.4746H5.00017ZM4.6295 10.5964C4.22906 10.8556 3.88522 11.1869 3.6175 11.5741L5.2815 12.6484C5.40313 12.4725 5.55944 12.3215 5.7415 12.204L4.6295 10.5964ZM3.00017 26.4237V29H5.00017V26.4237H3.00017ZM3.00017 15.4746V21.2712H5.00017V15.4746H3.00017Z" fill="currentColor"/>
<path d="M16.0002 29V25.1176M14.0002 7H18.0002M14.0002 18.6471H14.5002M18.0002 18.6471H16.5002M18.0002 10.8824H17.5002M14.0002 10.8824H15.5002M14.0002 14.7647H18.0002" stroke="#DF237D" stroke-width="2" stroke-linecap="round"/>
</svg>
