<svg width="51" height="53" viewBox="0 0 51 53" fill="none" xmlns="http://www.w3.org/2000/svg">
<path d="M22.95 23.85H38.25C38.9725 23.85 39.5785 23.5956 40.0681 23.0868C40.5577 22.578 40.8017 21.9491 40.8 21.2C40.8 20.4492 40.5552 19.8193 40.0656 19.3105C39.576 18.8017 38.9708 18.5482 38.25 18.55H22.95C22.2275 18.55 21.6215 18.8044 21.1318 19.3132C20.6423 19.822 20.3983 20.4509 20.4 21.2C20.4 21.9508 20.6448 22.5806 21.1344 23.0894C21.624 23.5982 22.2292 23.8518 22.95 23.85ZM22.95 31.8H28.05C28.7725 31.8 29.3785 31.5456 29.8681 31.0368C30.3577 30.528 30.6017 29.8991 30.6 29.15C30.6 28.3992 30.3552 27.7693 29.8656 27.2605C29.376 26.7517 28.7708 26.4982 28.05 26.5H22.95C22.2275 26.5 21.6215 26.7544 21.1318 27.2632C20.6423 27.772 20.3983 28.4009 20.4 29.15C20.4 29.9008 20.6448 30.5306 21.1344 31.0394C21.624 31.5482 22.2292 31.8018 22.95 31.8ZM22.95 15.9H38.25C38.9725 15.9 39.5785 15.6456 40.0681 15.1368C40.5577 14.628 40.8017 13.9991 40.8 13.25C40.8 12.4992 40.5552 11.8694 40.0656 11.3606C39.576 10.8518 38.9708 10.5982 38.25 10.6H22.95C22.2275 10.6 21.6215 10.8544 21.1318 11.3632C20.6423 11.872 20.3983 12.5009 20.4 13.25C20.4 14.0008 20.6448 14.6306 21.1344 15.1395C21.624 15.6482 22.2292 15.9018 22.95 15.9ZM15.3 42.4C13.8975 42.4 12.6965 41.8806 11.6969 40.8418C10.6973 39.803 10.1983 38.5557 10.2 37.1V5.3C10.2 3.8425 10.6998 2.59435 11.6994 1.55555C12.699 0.516754 13.8992 -0.00176217 15.3 4.49915e-06H45.9C47.3025 4.49915e-06 48.5035 0.519404 49.5031 1.5582C50.5027 2.597 51.0017 3.84427 51 5.3V37.1C51 38.5575 50.5002 39.8056 49.5006 40.8444C48.501 41.8832 47.3008 42.4018 45.9 42.4H15.3ZM15.3 37.1H45.9V5.3H15.3V37.1ZM5.1 53C3.6975 53 2.49645 52.4806 1.49685 51.4418C0.497254 50.403 -0.00169567 49.1557 4.32937e-06 47.7V13.25C4.32937e-06 12.4992 0.244805 11.8694 0.734404 11.3606C1.224 10.8518 1.8292 10.5982 2.55 10.6C3.2725 10.6 3.87855 10.8544 4.36815 11.3632C4.85775 11.872 5.1017 12.5009 5.1 13.25V47.7H38.25C38.9725 47.7 39.5785 47.9544 40.0681 48.4632C40.5577 48.972 40.8017 49.6009 40.8 50.35C40.8 51.1008 40.5552 51.7306 40.0656 52.2394C39.576 52.7482 38.9708 53.0018 38.25 53H5.1Z" fill="white" fill-opacity="0.1"/>
</svg>
