<svg width="25" height="24" viewBox="0 0 25 24" fill="none" xmlns="http://www.w3.org/2000/svg">
<g id="home">
<path id="Vector" d="M22.25 10.7685V20.1299C22.25 20.5595 22.0788 20.9716 21.774 21.2755C21.4693 21.5793 21.056 21.75 20.625 21.75H16.5625C16.1315 21.75 15.7182 21.5793 15.4134 21.2755C15.1087 20.9716 14.9375 20.5595 14.9375 20.1299V16.0795C14.9375 15.8647 14.8519 15.6586 14.6995 15.5067C14.5471 15.3548 14.3405 15.2694 14.125 15.2694H10.875C10.6595 15.2694 10.4528 15.3548 10.3005 15.5067C10.1481 15.6586 10.0625 15.8647 10.0625 16.0795V20.1299C10.0625 20.5595 9.89129 20.9716 9.58654 21.2755C9.28179 21.5793 8.86847 21.75 8.43749 21.75H4.375C3.94402 21.75 3.5307 21.5793 3.22595 21.2755C2.9212 20.9716 2.75 20.5595 2.75 20.1299V10.7685C2.74997 10.5443 2.79662 10.3225 2.887 10.1172C2.97738 9.91183 3.10953 9.72745 3.27508 9.57568L11.4001 1.93268L11.4112 1.92154C11.7104 1.6503 12.1002 1.5 12.5046 1.5C12.9089 1.5 13.2987 1.6503 13.5979 1.92154C13.6013 1.9255 13.6051 1.92922 13.609 1.93268L21.734 9.57568C21.8979 9.72825 22.0284 9.913 22.1172 10.1183C22.206 10.3236 22.2512 10.5449 22.25 10.7685Z" fill="currentColor"/>
</g>
</svg>
