<svg width="20" height="20" viewBox="0 0 20 20" fill="none" xmlns="http://www.w3.org/2000/svg">
<path d="M8.59417 9.6384L15.2108 3.02173L16.9783 4.78923L15.8 5.96756L17.5675 7.73506L14.6217 10.6817L12.8542 8.91423L10.3625 11.4059C10.8213 12.2886 10.9492 13.3064 10.7232 14.2752C10.4972 15.2441 9.93213 16.1001 9.13008 16.6887C8.32804 17.2773 7.34191 17.5596 6.34989 17.4847C5.35786 17.4098 4.42535 16.9825 3.72083 16.2801C3.01596 15.5763 2.58651 14.6434 2.5103 13.6502C2.43409 12.6571 2.71616 11.6695 3.3054 10.8665C3.89464 10.0634 4.75206 9.49804 5.72229 9.27275C6.69251 9.04745 7.71135 9.17717 8.59417 9.6384ZM7.845 14.5117C8.00418 14.358 8.13115 14.1741 8.2185 13.9707C8.30585 13.7674 8.35183 13.5487 8.35375 13.3274C8.35567 13.1061 8.3135 12.8866 8.2297 12.6818C8.1459 12.477 8.02215 12.2909 7.86566 12.1344C7.70917 11.9779 7.52308 11.8542 7.31826 11.7704C7.11343 11.6866 6.89396 11.6444 6.67266 11.6463C6.45137 11.6482 6.23267 11.6942 6.02933 11.7816C5.82599 11.8689 5.64208 11.9959 5.48833 12.1551C5.18474 12.4694 5.01675 12.8904 5.02054 13.3274C5.02434 13.7644 5.19962 14.1824 5.50864 14.4914C5.81765 14.8004 6.23567 14.9757 6.67266 14.9795C7.10966 14.9833 7.53066 14.8153 7.845 14.5117Z" fill="#1E88E5"/>
</svg>
