<svg width="50" height="50" viewBox="0 0 50 50" fill="none" xmlns="http://www.w3.org/2000/svg">
<rect width="50" height="50" rx="25" fill="#EE8373"/>
<path d="M34.8 13.8H32V12.4C32 12.0287 31.8525 11.6726 31.59 11.4101C31.3274 11.1475 30.9713 11 30.6 11C30.2287 11 29.8726 11.1475 29.6101 11.4101C29.3475 11.6726 29.2 12.0287 29.2 12.4V13.8H20.8V12.4C20.8 12.0287 20.6525 11.6726 20.3899 11.4101C20.1274 11.1475 19.7713 11 19.4 11C19.0287 11 18.6726 11.1475 18.4101 11.4101C18.1475 11.6726 18 12.0287 18 12.4V13.8H15.2C14.0861 13.8 13.0178 14.2425 12.2302 15.0302C11.4425 15.8178 11 16.8861 11 18V34.8C11 35.9139 11.4425 36.9822 12.2302 37.7698C13.0178 38.5575 14.0861 39 15.2 39H34.8C35.9139 39 36.9822 38.5575 37.7698 37.7698C38.5575 36.9822 39 35.9139 39 34.8V18C39 16.8861 38.5575 15.8178 37.7698 15.0302C36.9822 14.2425 35.9139 13.8 34.8 13.8ZM36.2 34.8C36.2 35.1713 36.0525 35.5274 35.7899 35.7899C35.5274 36.0525 35.1713 36.2 34.8 36.2H15.2C14.8287 36.2 14.4726 36.0525 14.2101 35.7899C13.9475 35.5274 13.8 35.1713 13.8 34.8V25H36.2V34.8ZM36.2 22.2H13.8V18C13.8 17.6287 13.9475 17.2726 14.2101 17.0101C14.4726 16.7475 14.8287 16.6 15.2 16.6H18V18C18 18.3713 18.1475 18.7274 18.4101 18.9899C18.6726 19.2525 19.0287 19.4 19.4 19.4C19.7713 19.4 20.1274 19.2525 20.3899 18.9899C20.6525 18.7274 20.8 18.3713 20.8 18V16.6H29.2V18C29.2 18.3713 29.3475 18.7274 29.6101 18.9899C29.8726 19.2525 30.2287 19.4 30.6 19.4C30.9713 19.4 31.3274 19.2525 31.59 18.9899C31.8525 18.7274 32 18.3713 32 18V16.6H34.8C35.1713 16.6 35.5274 16.7475 35.7899 17.0101C36.0525 17.2726 36.2 17.6287 36.2 18V22.2Z" fill="white"/>
</svg>
