<svg width="32" height="32" viewBox="0 0 32 32" fill="none" xmlns="http://www.w3.org/2000/svg">
<g id="Frame">
<path id="Vector" d="M27.333 19.333V21.333H25.333V19.333H27.333ZM24.6663 12.6663H22.6663V11.9997C22.6663 10.9388 23.0878 9.92139 23.8379 9.17125C24.5881 8.4211 25.6055 7.99967 26.6663 7.99967C27.7272 7.99967 28.7446 8.4211 29.4948 9.17125C30.2449 9.92139 30.6663 10.9388 30.6663 11.9997C30.6663 13.293 29.9997 14.5063 28.9463 15.213L28.5463 15.4663C27.7863 15.9997 27.333 16.813 27.333 17.733V17.9997H25.333V17.733C25.333 16.1463 26.133 14.6663 27.453 13.7997L27.8397 13.5463C28.3597 13.1997 28.6663 12.6263 28.6663 11.9997C28.6663 11.4692 28.4556 10.9605 28.0806 10.5855C27.7055 10.2104 27.1968 9.99967 26.6663 9.99967C26.1359 9.99967 25.6272 10.2104 25.2521 10.5855C24.8771 10.9605 24.6663 11.4692 24.6663 11.9997V12.6663ZM11.9997 17.333C15.5597 17.333 22.6663 19.1197 22.6663 22.6663V26.6663H1.33301V22.6663C1.33301 19.1197 8.43967 17.333 11.9997 17.333ZM11.9997 5.33301C13.4142 5.33301 14.7707 5.89491 15.7709 6.8951C16.7711 7.8953 17.333 9.25185 17.333 10.6663C17.333 12.0808 16.7711 13.4374 15.7709 14.4376C14.7707 15.4378 13.4142 15.9997 11.9997 15.9997C10.5852 15.9997 9.22863 15.4378 8.22844 14.4376C7.22824 13.4374 6.66634 12.0808 6.66634 10.6663C6.66634 9.25185 7.22824 7.8953 8.22844 6.8951C9.22863 5.89491 10.5852 5.33301 11.9997 5.33301ZM11.9997 19.8663C8.03967 19.8663 3.86634 21.813 3.86634 22.6663V24.133H20.133V22.6663C20.133 21.813 15.9597 19.8663 11.9997 19.8663ZM11.9997 7.86634C11.2571 7.86634 10.5449 8.16134 10.0198 8.68644C9.49467 9.21154 9.19967 9.92374 9.19967 10.6663C9.19967 11.4089 9.49467 12.1211 10.0198 12.6462C10.5449 13.1713 11.2571 13.4663 11.9997 13.4663C12.7423 13.4663 13.4545 13.1713 13.9796 12.6462C14.5047 12.1211 14.7997 11.4089 14.7997 10.6663C14.7997 9.92374 14.5047 9.21154 13.9796 8.68644C13.4545 8.16134 12.7423 7.86634 11.9997 7.86634Z" fill="white"/>
</g>
</svg>
