<svg width="50" height="50" viewBox="0 0 50 50" fill="none" xmlns="http://www.w3.org/2000/svg">
<rect width="50" height="50" rx="25" fill="#F99725"/>
<path d="M35.834 12.5L35.834 37.5L14.584 37.5L14.584 12.5L35.834 12.5ZM16.2507 14.1667L16.2507 35.8333L34.1673 35.8333L34.1673 14.1667L16.2507 14.1667Z" fill="white"/>
<path d="M18.334 15.833L18.334 17.4997L31.6673 17.4997L31.6673 15.833L18.334 15.833ZM18.334 19.1663L18.334 20.833L28.334 20.833L28.334 19.1663L18.334 19.1663ZM18.334 22.4997L18.334 24.1663L31.6673 24.1663L31.6673 22.4997L18.334 22.4997ZM18.334 25.833L18.334 27.4997L28.334 27.4997L28.334 25.833L18.334 25.833ZM18.334 29.1663L18.334 30.833L28.334 30.833L28.334 29.1663L18.334 29.1663ZM18.334 32.4997L18.334 34.1663L31.6673 34.1663L31.6673 32.4997L18.334 32.4997ZM30.0007 19.1663L30.0007 20.833L31.6673 20.833L31.6673 19.1663L30.0007 19.1663ZM30.0007 25.833L30.0007 27.4997L31.6673 27.4997L31.6673 25.833L30.0007 25.833ZM30.0007 29.1663L30.0007 30.833L31.6673 30.833L31.6673 29.1663L30.0007 29.1663Z" fill="white"/>
</svg>
