<svg width="90" height="90" viewBox="0 0 90 90" fill="none" xmlns="http://www.w3.org/2000/svg">
<g id="warning">
<path id="Vector" d="M45 8.4375C37.7686 8.4375 30.6997 10.5819 24.687 14.5994C18.6743 18.6169 13.988 24.3272 11.2207 31.0081C8.45334 37.6891 7.72928 45.0406 9.14005 52.133C10.5508 59.2254 14.0331 65.7402 19.1464 70.8536C24.2598 75.9669 30.7746 79.4492 37.867 80.86C44.9595 82.2707 52.311 81.5467 58.9919 78.7793C65.6728 76.012 71.3831 71.3257 75.4006 65.313C79.4182 59.3004 81.5625 52.2314 81.5625 45C81.5523 35.3062 77.6969 26.0123 70.8423 19.1577C63.9877 12.3031 54.6939 8.44774 45 8.4375ZM45 75.9375C38.8812 75.9375 32.8997 74.123 27.8121 70.7236C22.7244 67.3241 18.7591 62.4924 16.4175 56.8393C14.0759 51.1862 13.4632 44.9657 14.657 38.9644C15.8507 32.9631 18.7972 27.4506 23.1239 23.1239C27.4506 18.7972 32.9631 15.8507 38.9644 14.657C44.9657 13.4632 51.1862 14.0759 56.8393 16.4175C62.4924 18.7591 67.3242 22.7244 70.7236 27.812C74.1231 32.8997 75.9375 38.8811 75.9375 45C75.9282 53.2023 72.6657 61.0659 66.8659 66.8658C61.066 72.6657 53.2023 75.9282 45 75.9375ZM42.1875 47.8125V28.125C42.1875 27.3791 42.4838 26.6637 43.0113 26.1363C43.5387 25.6088 44.2541 25.3125 45 25.3125C45.7459 25.3125 46.4613 25.6088 46.9888 26.1363C47.5162 26.6637 47.8125 27.3791 47.8125 28.125V47.8125C47.8125 48.5584 47.5162 49.2738 46.9888 49.8012C46.4613 50.3287 45.7459 50.625 45 50.625C44.2541 50.625 43.5387 50.3287 43.0113 49.8012C42.4838 49.2738 42.1875 48.5584 42.1875 47.8125ZM49.2188 60.4688C49.2188 61.3031 48.9713 62.1188 48.5078 62.8126C48.0442 63.5063 47.3853 64.0471 46.6145 64.3664C45.8436 64.6857 44.9953 64.7692 44.177 64.6064C43.3586 64.4437 42.6069 64.0419 42.0169 63.4519C41.4269 62.8619 41.0251 62.1101 40.8623 61.2918C40.6995 60.4734 40.7831 59.6252 41.1024 58.8543C41.4217 58.0834 41.9624 57.4246 42.6562 56.961C43.35 56.4974 44.1656 56.25 45 56.25C46.1189 56.25 47.192 56.6945 47.9831 57.4856C48.7743 58.2768 49.2188 59.3499 49.2188 60.4688Z" fill="#D51E03"/>
</g>
</svg>
