<svg width="25" height="24" viewBox="0 0 25 24" fill="none" xmlns="http://www.w3.org/2000/svg">
<g id="Icon/book">
<path id="Vector" d="M14.1517 10.1464V8.66355C14.6517 8.46002 15.1632 8.30737 15.6862 8.20561C16.2093 8.10384 16.7583 8.05296 17.3335 8.05296C17.7274 8.05296 18.1138 8.08204 18.4926 8.14019C18.8714 8.19834 19.2426 8.27103 19.6062 8.35826V9.75389C19.2426 9.62305 18.875 9.52478 18.5035 9.45907C18.132 9.39335 17.742 9.36079 17.3335 9.36137C16.7577 9.36137 16.2047 9.43057 15.6744 9.56897C15.1441 9.70737 14.6365 9.89985 14.1517 10.1464ZM14.1517 14.9439V13.4611C14.6517 13.2575 15.1632 13.1049 15.6862 13.0031C16.2093 12.9014 16.7583 12.8505 17.3335 12.8505C17.7274 12.8505 18.1138 12.8795 18.4926 12.9377C18.8714 12.9958 19.2426 13.0685 19.6062 13.1558V14.5514C19.2426 14.4206 18.875 14.3223 18.5035 14.2566C18.132 14.1909 17.742 14.1583 17.3335 14.1589C16.7577 14.1589 16.2047 14.2243 15.6744 14.3551C15.1441 14.486 14.6365 14.6822 14.1517 14.9439ZM14.1517 12.5452V11.0623C14.6517 10.8588 15.1632 10.7061 15.6862 10.6044C16.2093 10.5026 16.7583 10.4517 17.3335 10.4517C17.7274 10.4517 18.1138 10.4808 18.4926 10.5389C18.8714 10.5971 19.2426 10.6698 19.6062 10.757V12.1526C19.2426 12.0218 18.875 11.9235 18.5035 11.8578C18.132 11.7921 17.742 11.7595 17.3335 11.7601C16.7577 11.7601 16.2047 11.8293 15.6744 11.9677C15.1441 12.1061 14.6365 12.2986 14.1517 12.5452ZM7.3335 15.4673C8.04562 15.4673 8.73895 15.5438 9.4135 15.6967C10.088 15.8496 10.7583 16.0785 11.4244 16.3832V7.79128C10.8032 7.44237 10.1441 7.18069 9.44713 7.00623C8.75016 6.83178 8.04562 6.74455 7.3335 6.74455C6.78804 6.74455 6.24622 6.79543 5.70804 6.8972C5.16986 6.99896 4.65107 7.15161 4.15168 7.35514V15.9907C4.68198 15.8162 5.20865 15.6854 5.73168 15.5981C6.25471 15.5109 6.78865 15.4673 7.3335 15.4673ZM13.2426 16.3832C13.9093 16.0779 14.5796 15.8488 15.2535 15.6958C15.9274 15.5429 16.6208 15.4667 17.3335 15.4673C17.879 15.4673 18.4132 15.5109 18.9362 15.5981C19.4593 15.6854 19.9856 15.8162 20.5153 15.9907V7.35514C20.0153 7.15161 19.4962 6.99896 18.958 6.8972C18.4199 6.79543 17.8783 6.74455 17.3335 6.74455C16.6214 6.74455 15.9168 6.83178 15.2199 7.00623C14.5229 7.18069 13.8638 7.44237 13.2426 7.79128V16.3832ZM12.3335 18.9564C11.6062 18.4039 10.8183 17.9751 9.96986 17.6698C9.12137 17.3645 8.24259 17.2118 7.3335 17.2118C6.53047 17.2118 5.68956 17.3572 4.81077 17.648C3.93198 17.9387 3.10622 18.3894 2.3335 19V6.35203C3.00016 5.91589 3.78441 5.58152 4.68622 5.34891C5.58804 5.1163 6.47047 5 7.3335 5C8.21228 5 9.07228 5.10903 9.9135 5.3271C10.7547 5.54517 11.5614 5.87227 12.3335 6.30841C13.1062 5.87227 13.9132 5.54517 14.7544 5.3271C15.5956 5.10903 16.4553 5 17.3335 5C18.1971 5 19.0799 5.1163 19.9817 5.34891C20.8835 5.58152 21.6674 5.91589 22.3335 6.35203V19C21.5759 18.3894 20.7538 17.9387 19.8671 17.648C18.9805 17.3572 18.1359 17.2118 17.3335 17.2118C16.4244 17.2118 15.5456 17.3645 14.6971 17.6698C13.8486 17.9751 13.0608 18.4039 12.3335 18.9564Z" fill="#525252"/>
</g>
</svg>
