<svg width="50" height="50" viewBox="0 0 50 50" fill="none" xmlns="http://www.w3.org/2000/svg">
<rect width="50" height="50" rx="25" fill="#D33AC4"/>
<path d="M24.9993 30.967C27.1993 29.1892 28.8607 27.4781 29.9833 25.8337C31.106 24.1892 31.6669 22.6448 31.666 21.2003C31.666 19.9559 31.438 18.8945 30.982 18.0163C30.526 17.1381 29.9651 16.427 29.2993 15.883C28.6327 15.339 27.9105 14.9448 27.1327 14.7003C26.3549 14.4559 25.6438 14.3337 24.9993 14.3337C24.3549 14.3337 23.6438 14.4559 22.866 14.7003C22.0882 14.9448 21.366 15.3394 20.6993 15.8843C20.0327 16.4283 19.4718 17.1394 19.0167 18.0177C18.5616 18.8959 18.3336 19.9568 18.3327 21.2003C18.3327 22.6448 18.894 24.1892 20.0167 25.8337C21.1393 27.4781 22.8002 29.1892 24.9993 30.967ZM24.9993 34.3337C21.866 32.0225 19.5273 29.7781 17.9833 27.6003C16.4393 25.4225 15.6669 23.2892 15.666 21.2003C15.666 19.6225 15.9496 18.239 16.5167 17.0497C17.0838 15.8603 17.8109 14.8661 18.698 14.067C19.5869 13.267 20.5869 12.667 21.698 12.267C22.8091 11.867 23.9096 11.667 24.9993 11.667C26.0882 11.667 27.1882 11.867 28.2993 12.267C29.4105 12.667 30.4105 13.267 31.2993 14.067C32.1882 14.867 32.9162 15.8617 33.4834 17.051C34.0505 18.2403 34.3336 19.6234 34.3327 21.2003C34.3327 23.2892 33.5602 25.4225 32.0153 27.6003C30.4705 29.7781 28.1318 32.0225 24.9993 34.3337ZM24.9993 23.667C25.7327 23.667 26.3607 23.4057 26.8833 22.883C27.406 22.3603 27.6669 21.7328 27.666 21.0003C27.666 20.267 27.4047 19.639 26.882 19.1163C26.3593 18.5937 25.7318 18.3328 24.9993 18.3337C24.266 18.3337 23.638 18.595 23.1153 19.1177C22.5927 19.6403 22.3318 20.2679 22.3327 21.0003C22.3327 21.7337 22.594 22.3617 23.1167 22.8843C23.6393 23.407 24.2669 23.6679 24.9993 23.667ZM15.666 38.3337V35.667H34.3327V38.3337H15.666Z" fill="white"/>
</svg>
