<svg width="18" height="18" viewBox="0 0 18 18" fill="none" xmlns="http://www.w3.org/2000/svg">
<g id="Icon/copy">
<path id="Vector" d="M4.1875 15.875C3.80938 15.875 3.48556 15.7403 3.21606 15.4708C2.94656 15.2013 2.81204 14.8777 2.8125 14.5V4.875H4.1875V14.5H11.75V15.875H4.1875ZM6.9375 13.125C6.55938 13.125 6.23556 12.9903 5.96606 12.7208C5.69656 12.4513 5.56204 12.1277 5.5625 11.75V3.5C5.5625 3.12188 5.69725 2.79806 5.96675 2.52856C6.23625 2.25906 6.55983 2.12454 6.9375 2.125H13.125C13.5031 2.125 13.8269 2.25975 14.0964 2.52925C14.3659 2.79875 14.5005 3.12233 14.5 3.5V11.75C14.5 12.1281 14.3653 12.4519 14.0958 12.7214C13.8263 12.9909 13.5027 13.1255 13.125 13.125H6.9375ZM6.9375 11.75H13.125V3.5H6.9375V11.75Z" fill="#EEFAFF"/>
</g>
</svg>
