<svg width="24" height="24" viewBox="0 0 24 24" fill="none" xmlns="http://www.w3.org/2000/svg">
<path d="M10.2607 8.35015C10.8381 8.35015 11.3043 8.83899 11.3043 9.44456C11.3043 10.0501 10.8381 10.539 10.2607 10.539C9.68321 10.539 9.21707 10.0501 9.21707 9.44456C9.21707 8.83899 9.68321 8.35015 10.2607 8.35015ZM13.7393 13.4574C14.3168 13.4574 14.7829 13.9462 14.7829 14.5518C14.7829 15.1574 14.3168 15.6462 13.7393 15.6462C13.1619 15.6462 12.6957 15.1574 12.6957 14.5518C12.6957 13.9462 13.1619 13.4574 13.7393 13.4574ZM9.50232 15.6462L8.52134 14.6175L14.4977 8.35015L15.4787 9.3789L9.50232 15.6462ZM16.6266 5.3223L17.051 8.13857L19.493 9.44456L18.2616 11.9982L19.5 14.5518L17.0371 15.8578L16.6127 18.6741L13.9063 18.229L11.9791 20.25L10.045 18.1998L7.35946 18.6668L6.92811 15.8286L4.5 14.5299L5.7384 11.9763L4.50696 9.44456L6.94898 8.12398L7.37338 5.33689L10.0659 5.79654L12 3.75L13.9202 5.76736L16.6266 5.3223ZM17.6354 10.0793L15.8265 9.07976L15.4787 6.9712L13.461 7.27764L12 5.79654L10.539 7.27764L8.52134 6.9712L8.17347 9.07976L6.36456 10.0793L7.26902 11.9982L6.36456 13.917L8.17347 14.9166L8.52134 17.0251L10.539 16.7187L12 18.1998L13.461 16.7187L15.4787 17.0251L15.8265 14.9166L17.6354 13.917L16.731 11.9982L17.6354 10.0793Z" fill="#0288D1"/>
</svg>
