<svg width="14" height="14" viewBox="0 0 14 14" fill="none" xmlns="http://www.w3.org/2000/svg">
<g id="Frame">
<path id="Vector" d="M7.00038 12.5555C6.30594 12.5555 5.65538 12.4235 5.04871 12.1594C4.44205 11.8953 3.91427 11.539 3.46538 11.0905C3.01649 10.6413 2.66019 10.1135 2.39649 9.5072C2.13279 8.9009 2.00075 8.25034 2.00038 7.55553C2.00038 6.86108 2.13242 6.21053 2.39649 5.60386C2.66057 4.9972 3.01686 4.46942 3.46538 4.02053C3.91464 3.57164 4.44242 3.21534 5.04871 2.95164C5.65501 2.68794 6.30557 2.5559 7.00038 2.55553C7.69482 2.55553 8.34538 2.68757 8.95205 2.95164C9.55871 3.21571 10.0865 3.5722 10.5354 4.02108C10.9843 4.46997 11.3408 4.99775 11.6048 5.60442C11.8689 6.21108 12.0008 6.86145 12.0004 7.55553C12.0004 8.24997 11.8683 8.90053 11.6043 9.5072C11.3402 10.1139 10.9839 10.6416 10.5354 11.0905C10.0861 11.5394 9.55834 11.8959 8.95205 12.16C8.34575 12.424 7.6952 12.5559 7.00038 12.5555ZM6.44482 5.33331V7.54164C6.44482 7.61571 6.45871 7.68757 6.48649 7.7572C6.51427 7.82683 6.55594 7.88923 6.61149 7.94442L8.18094 9.51386C8.28279 9.61571 8.40779 9.66664 8.55594 9.66664C8.70408 9.66664 8.83371 9.61108 8.94482 9.49997C9.04668 9.39812 9.0976 9.26849 9.0976 9.11108C9.0976 8.95368 9.04668 8.82405 8.94482 8.7222L7.55594 7.33331V5.31942C7.55594 5.16201 7.5026 5.03238 7.39594 4.93053C7.28927 4.82868 7.15742 4.77775 7.00038 4.77775C6.84297 4.77775 6.71094 4.83108 6.60427 4.93775C6.4976 5.04442 6.44445 5.17627 6.44482 5.33331ZM2.23649 4.40275C2.13464 4.5046 2.00964 4.55553 1.86149 4.55553C1.71334 4.55553 1.58371 4.49997 1.4726 4.38886C1.37075 4.28701 1.31982 4.15738 1.31982 3.99997C1.31982 3.84257 1.37075 3.71294 1.4726 3.61108L3.06982 2.01386C3.17168 1.91201 3.29668 1.86108 3.44482 1.86108C3.59297 1.86108 3.7226 1.91664 3.83371 2.02775C3.93557 2.1296 3.98649 2.25923 3.98649 2.41664C3.98649 2.57405 3.93557 2.70368 3.83371 2.80553L2.23649 4.40275ZM11.7504 4.38886L10.1532 2.79164C10.0513 2.68979 10.0004 2.56479 10.0004 2.41664C10.0004 2.26849 10.0559 2.13886 10.167 2.02775C10.2689 1.9259 10.3985 1.87497 10.5559 1.87497C10.7133 1.87497 10.843 1.9259 10.9448 2.02775L12.542 3.62497C12.6439 3.72682 12.6948 3.85182 12.6948 3.99997C12.6948 4.14812 12.6393 4.27775 12.5282 4.38886C12.4263 4.49071 12.2967 4.54164 12.1393 4.54164C11.9819 4.54164 11.8522 4.49071 11.7504 4.38886ZM7.00038 11.4444C8.08371 11.4444 9.00279 11.067 9.7576 10.3122C10.5124 9.55738 10.8896 8.63849 10.8893 7.55553C10.8893 6.4722 10.5119 5.55312 9.75705 4.79831C9.00223 4.04349 8.08334 3.66627 7.00038 3.66664C5.91705 3.66664 4.99797 4.04405 4.24316 4.79886C3.48834 5.55368 3.11112 6.47257 3.11149 7.55553C3.11149 8.63886 3.4889 9.55794 4.24371 10.3128C4.99853 11.0676 5.91742 11.4448 7.00038 11.4444Z" fill="#0288D1"/>
</g>
</svg>
