<svg width="25" height="24" viewBox="0 0 25 24" fill="none" xmlns="http://www.w3.org/2000/svg">
<path d="M6.66651 22C6.11651 22 5.64551 21.804 5.25351 21.412C4.86151 21.02 4.66584 20.5493 4.66651 20V8C4.66651 7.45 4.86251 6.979 5.25451 6.587C5.64651 6.195 6.11717 5.99933 6.66651 6H8.66651C8.66651 4.9 9.05817 3.95833 9.84151 3.175C10.6248 2.39167 11.5665 2 12.6665 2C13.7665 2 14.7082 2.39167 15.4915 3.175C16.2748 3.95833 16.6665 4.9 16.6665 6H18.6665C19.2165 6 19.6875 6.196 20.0795 6.588C20.4715 6.98 20.6672 7.45067 20.6665 8V20C20.6665 20.55 20.4705 21.021 20.0785 21.413C19.6865 21.805 19.2158 22.0007 18.6665 22H6.66651ZM6.66651 20H18.6665V8H16.6665V10C16.6665 10.2833 16.5705 10.521 16.3785 10.713C16.1865 10.905 15.9492 11.0007 15.6665 11C15.3832 11 15.1455 10.904 14.9535 10.712C14.7615 10.52 14.6658 10.2827 14.6665 10V8H10.6665V10C10.6665 10.2833 10.5705 10.521 10.3785 10.713C10.1865 10.905 9.94917 11.0007 9.66651 11C9.38317 11 9.14551 10.904 8.95351 10.712C8.76151 10.52 8.66584 10.2827 8.66651 10V8H6.66651V20ZM10.6665 6H14.6665C14.6665 5.45 14.4705 4.979 14.0785 4.587C13.6865 4.195 13.2158 3.99933 12.6665 4C12.1165 4 11.6455 4.196 11.2535 4.588C10.8615 4.98 10.6658 5.45067 10.6665 6Z" fill="currentColor"/>
</svg>
