<svg width="25" height="24" viewBox="0 0 25 24" fill="none" xmlns="http://www.w3.org/2000/svg">
<g id="Frame">
<path id="Vector" d="M16.5 21C15.95 21 15.479 20.804 15.087 20.412C14.695 20.02 14.4993 19.5493 14.5 19V15C14.5 14.45 14.696 13.979 15.088 13.587C15.48 13.195 15.9507 12.9993 16.5 13H20.5C21.05 13 21.521 13.196 21.913 13.588C22.305 13.98 22.5007 14.4507 22.5 15V19C22.5 19.55 22.304 20.021 21.912 20.413C21.52 20.805 21.0493 21.0007 20.5 21H16.5ZM16.5 19H20.5V15H16.5V19ZM3.5 18C3.21667 18 2.979 17.904 2.787 17.712C2.595 17.52 2.49934 17.2827 2.5 17C2.5 16.7167 2.596 16.479 2.788 16.287C2.98 16.095 3.21734 15.9993 3.5 16H10.5C10.7833 16 11.021 16.096 11.213 16.288C11.405 16.48 11.5007 16.7173 11.5 17C11.5 17.2833 11.404 17.521 11.212 17.713C11.02 17.905 10.7827 18.0007 10.5 18H3.5ZM16.5 11C15.95 11 15.479 10.804 15.087 10.412C14.695 10.02 14.4993 9.54934 14.5 9V5C14.5 4.45 14.696 3.979 15.088 3.587C15.48 3.195 15.9507 2.99934 16.5 3H20.5C21.05 3 21.521 3.196 21.913 3.588C22.305 3.98 22.5007 4.45067 22.5 5V9C22.5 9.55 22.304 10.021 21.912 10.413C21.52 10.805 21.0493 11.0007 20.5 11H16.5ZM16.5 9H20.5V5H16.5V9ZM3.5 8C3.21667 8 2.979 7.904 2.787 7.712C2.595 7.52 2.49934 7.28267 2.5 7C2.5 6.71667 2.596 6.479 2.788 6.287C2.98 6.095 3.21734 5.99934 3.5 6H10.5C10.7833 6 11.021 6.096 11.213 6.288C11.405 6.48 11.5007 6.71734 11.5 7C11.5 7.28334 11.404 7.521 11.212 7.713C11.02 7.905 10.7827 8.00067 10.5 8H3.5Z" fill="currentColor"/>
</g>
</svg>
