<svg width="25" height="24" viewBox="0 0 25 24" fill="none" xmlns="http://www.w3.org/2000/svg">
<g id="Frame 41174">
<g id="Group">
<path id="Vector" d="M17.3765 0L15.0517 5.77707H10.2402L12.3777 0H17.3765Z" fill="#8E2323"/>
<path id="Vector_2" d="M15.2747 4.78125H10.0631C9.72243 4.78125 9.44141 5.06707 9.44141 5.41352V8.79142H15.8964V5.41352C15.8964 5.05841 15.6154 4.78125 15.2747 4.78125ZM15.4365 6.01981H9.78204V5.75997C9.78204 5.48281 10.0034 5.24896 10.2845 5.24896H14.9426C15.2151 5.24896 15.4451 5.47415 15.4451 5.75997V6.01981H15.4365Z" fill="#C95506"/>
<path id="Vector_3" d="M7.99219 0L10.2404 5.77707H15.0518L12.8632 0H7.99219Z" fill="#FA352C"/>
<g id="Group_2">
<path id="Vector_4" d="M11.3043 5.77707L8.88579 0H8.61328L11.0233 5.77707H11.3043Z" fill="#7F0B0B"/>
<path id="Vector_5" d="M12.189 5.77707L9.77055 0H9.49805L11.908 5.77707H12.189Z" fill="#7F0B0B"/>
<path id="Vector_6" d="M13.1949 5.77707L10.7849 0H10.5039L12.9224 5.77707H13.1949Z" fill="#7F0B0B"/>
<path id="Vector_7" d="M14.1656 5.77707L11.7556 0H11.4746L13.8931 5.77707H14.1656Z" fill="#7F0B0B"/>
</g>
<path id="Vector_8" d="M19.4408 14.9721C20.0601 11.0908 17.4686 7.43377 13.6525 6.80386C9.83638 6.17395 6.24073 8.80972 5.6214 12.691C5.00207 16.5723 7.59358 20.2294 11.4097 20.8593C15.2258 21.4892 18.8215 18.8534 19.4408 14.9721Z" fill="#FFB839"/>
<path id="Vector_9" d="M17.368 8.6875C18.5688 9.96937 19.3096 11.7016 19.3096 13.6071C19.3096 17.5393 16.1758 20.7267 12.3096 20.7267C10.4362 20.7267 8.72448 19.9731 7.47266 18.7519C8.75003 20.1031 10.5383 20.9519 12.5311 20.9519C16.3972 20.9519 19.5311 17.7645 19.5311 13.8323C19.5311 11.8142 18.705 9.98669 17.368 8.6875Z" fill="#EA7603"/>
<path id="Vector_10" d="M18.1624 14.7615C18.6672 11.5979 16.5549 8.61707 13.4444 8.10364C10.334 7.5902 7.40322 9.73859 6.89841 12.9022C6.3936 16.0658 8.5059 19.0466 11.6164 19.56C14.7268 20.0735 17.6576 17.9251 18.1624 14.7615Z" fill="#FF9B50"/>
<g id="Group_3" opacity="0.69">
<g id="Group_4">
<path id="Vector_11" d="M11.9674 17.9379C12.1888 18.1198 12.2485 18.4143 12.2485 18.4143C12.2485 18.4143 11.9504 18.423 11.7205 18.2411C11.4991 18.0592 11.4395 17.7647 11.4395 17.7647C11.4395 17.7647 11.746 17.7561 11.9674 17.9379Z" fill="#FFB448"/>
<path id="Vector_12" d="M11.6953 18.3971C11.9678 18.3019 12.2489 18.4058 12.2489 18.4058C12.2489 18.4058 12.0956 18.6656 11.8231 18.7609C11.5506 18.8562 11.2695 18.7523 11.2695 18.7523C11.2695 18.7523 11.4313 18.4924 11.6953 18.3971Z" fill="#FFB448"/>
</g>
<g id="Group_5">
<path id="Vector_13" d="M11.0994 17.6952C11.2953 17.903 11.3123 18.2062 11.3123 18.2062C11.3123 18.2062 11.0142 18.1715 10.8184 17.9637C10.6225 17.7558 10.6055 17.4526 10.6055 17.4526C10.6055 17.4526 10.9035 17.4873 11.0994 17.6952Z" fill="#FFB448"/>
<path id="Vector_14" d="M10.7672 18.1196C11.0482 18.059 11.3122 18.2062 11.3122 18.2062C11.3122 18.2062 11.1249 18.4401 10.8438 18.5007C10.5628 18.5613 10.2988 18.4141 10.2988 18.4141C10.2988 18.4141 10.4862 18.1716 10.7672 18.1196Z" fill="#FFB448"/>
<path id="Vector_15" d="M10.4114 17.3483C10.5732 17.5822 10.5391 17.8853 10.5391 17.8853C10.5391 17.8853 10.2496 17.8073 10.0878 17.5648C9.92596 17.331 9.96002 17.0278 9.96002 17.0278C9.96002 17.0278 10.2496 17.1144 10.4114 17.3483Z" fill="#FFB448"/>
<path id="Vector_16" d="M10.0188 17.7122C10.3083 17.7036 10.5467 17.8854 10.5467 17.8854C10.5467 17.8854 10.3253 18.0933 10.0358 18.102C9.74626 18.1106 9.50781 17.9287 9.50781 17.9287C9.50781 17.9287 9.72922 17.7295 10.0188 17.7122Z" fill="#FFB448"/>
<path id="Vector_17" d="M9.77027 16.8288C9.87246 17.0973 9.77027 17.3831 9.77027 17.3831C9.77027 17.3831 9.50628 17.2359 9.41261 16.9674C9.31042 16.6989 9.41261 16.4131 9.41261 16.4131C9.41261 16.4131 9.66808 16.5603 9.77027 16.8288Z" fill="#FFB448"/>
<path id="Vector_18" d="M9.30282 17.08C9.58385 17.1406 9.77119 17.3745 9.77119 17.3745C9.77119 17.3745 9.5072 17.5217 9.22618 17.4611C8.94516 17.4005 8.75781 17.1666 8.75781 17.1666C8.75781 17.1666 9.0218 17.0281 9.30282 17.08Z" fill="#FFB448"/>
<path id="Vector_19" d="M9.28686 16.2139C9.32092 16.4997 9.1506 16.7509 9.1506 16.7509C9.1506 16.7509 8.92919 16.543 8.89513 16.2572C8.86107 15.9714 9.03138 15.7202 9.03138 15.7202C9.03138 15.7202 9.25279 15.9367 9.28686 16.2139Z" fill="#FFB448"/>
<path id="Vector_20" d="M8.76642 16.3609C9.02189 16.4822 9.14963 16.7594 9.14963 16.7594C9.14963 16.7594 8.86009 16.8373 8.5961 16.7161C8.34063 16.5948 8.21289 16.3176 8.21289 16.3176C8.21289 16.3176 8.51094 16.2397 8.76642 16.3609Z" fill="#FFB448"/>
</g>
<g id="Group_6">
<path id="Vector_21" d="M8.8773 15.4517C8.85175 15.7375 8.63886 15.954 8.63886 15.954C8.63886 15.954 8.46854 15.7029 8.48557 15.4257C8.51112 15.1399 8.72402 14.9233 8.72402 14.9233C8.72402 14.9233 8.89433 15.1659 8.8773 15.4517Z" fill="#FFB448"/>
<path id="Vector_22" d="M8.34048 15.4865C8.57041 15.6597 8.63853 15.9542 8.63853 15.9542C8.63853 15.9542 8.34048 15.9715 8.11055 15.7983C7.88063 15.625 7.8125 15.3306 7.8125 15.3306C7.8125 15.3306 8.11055 15.3132 8.34048 15.4865Z" fill="#FFB448"/>
<path id="Vector_23" d="M8.66401 14.7244C8.59588 15.0015 8.34892 15.1834 8.34892 15.1834C8.34892 15.1834 8.21267 14.9149 8.28079 14.6378C8.34892 14.3606 8.59588 14.1787 8.59588 14.1787C8.59588 14.1787 8.73213 14.4472 8.66401 14.7244Z" fill="#FFB448"/>
<path id="Vector_24" d="M8.12743 14.6723C8.3233 14.8802 8.34884 15.1833 8.34884 15.1833C8.34884 15.1833 8.05079 15.1487 7.84641 14.9495C7.64203 14.7503 7.625 14.4385 7.625 14.4385C7.625 14.4385 7.92305 14.4645 8.12743 14.6723Z" fill="#FFB448"/>
<path id="Vector_25" d="M8.6382 13.9099C8.50195 14.1611 8.22092 14.2737 8.22092 14.2737C8.22092 14.2737 8.16131 13.9792 8.28905 13.728C8.4253 13.4769 8.70633 13.3643 8.70633 13.3643C8.70633 13.3643 8.77445 13.6501 8.6382 13.9099Z" fill="#FFB448"/>
<path id="Vector_26" d="M8.1279 13.7283C8.27267 13.9795 8.22157 14.2739 8.22157 14.2739C8.22157 14.2739 7.94055 14.17 7.79578 13.9275C7.65101 13.6763 7.70211 13.3818 7.70211 13.3818C7.70211 13.3818 7.99165 13.4771 8.1279 13.7283Z" fill="#FFB448"/>
<path id="Vector_27" d="M8.78228 13.0871C8.59493 13.3036 8.29688 13.3469 8.29688 13.3469C8.29688 13.3469 8.30539 13.0438 8.49274 12.8272C8.68009 12.6107 8.97814 12.5674 8.97814 12.5674C8.97814 12.5674 8.96962 12.8705 8.78228 13.0871Z" fill="#FFB448"/>
<path id="Vector_28" d="M8.3317 12.7928C8.41686 13.07 8.28912 13.3471 8.28912 13.3471C8.28912 13.3471 8.03365 13.1826 7.95701 12.9054C7.87185 12.6282 7.99959 12.3511 7.99959 12.3511C7.99959 12.3511 8.24655 12.5156 8.3317 12.7928Z" fill="#FFB448"/>
</g>
<path id="Vector_29" d="M9.07165 12.4117C8.84173 12.5763 8.53516 12.5503 8.53516 12.5503C8.53516 12.5503 8.6118 12.2558 8.84173 12.0912C9.07165 11.9267 9.37822 11.9527 9.37822 11.9527C9.37822 11.9527 9.30158 12.2472 9.07165 12.4117Z" fill="#FFB448"/>
<path id="Vector_30" d="M8.69686 12.0219C8.71389 12.3077 8.53505 12.5502 8.53505 12.5502C8.53505 12.5502 8.33068 12.3337 8.31364 12.0479C8.29661 11.762 8.47544 11.5195 8.47544 11.5195C8.47544 11.5195 8.67982 11.7361 8.69686 12.0219Z" fill="#FFB448"/>
<path id="Vector_31" d="M9.44025 11.797C9.18477 11.9269 8.88672 11.8489 8.88672 11.8489C8.88672 11.8489 9.00594 11.5718 9.26141 11.4419C9.51689 11.3119 9.81494 11.3899 9.81494 11.3899C9.81494 11.3899 9.69572 11.6757 9.44025 11.797Z" fill="#FFB448"/>
<path id="Vector_32" d="M9.13262 11.3549C9.10707 11.6407 8.88566 11.8486 8.88566 11.8486C8.88566 11.8486 8.71535 11.5974 8.74089 11.3116C8.76644 11.0257 8.98785 10.8179 8.98785 10.8179C8.98785 10.8179 9.15817 11.069 9.13262 11.3549Z" fill="#FFB448"/>
<g id="Group_7">
<path id="Vector_33" d="M13.5193 17.8944C13.2979 18.0763 13.2383 18.3708 13.2383 18.3708C13.2383 18.3708 13.5363 18.3794 13.7663 18.1976C13.9877 18.0157 14.0473 17.7212 14.0473 17.7212C14.0473 17.7212 13.7407 17.7212 13.5193 17.8944Z" fill="#FFB448"/>
<path id="Vector_34" d="M13.7918 18.362C13.5193 18.2667 13.2383 18.3706 13.2383 18.3706C13.2383 18.3706 13.3916 18.6305 13.6641 18.7258C13.9366 18.821 14.2176 18.7171 14.2176 18.7171C14.2176 18.7171 14.0558 18.4573 13.7918 18.362Z" fill="#FFB448"/>
</g>
<g id="Group_8">
<path id="Vector_35" d="M14.2754 17.6952C14.0795 17.903 14.0625 18.2062 14.0625 18.2062C14.0625 18.2062 14.3606 18.1715 14.5564 17.9637C14.7523 17.7558 14.7693 17.4526 14.7693 17.4526C14.7693 17.4526 14.4713 17.4873 14.2754 17.6952Z" fill="#FFB448"/>
<path id="Vector_36" d="M14.6075 18.1196C14.3265 18.059 14.0625 18.2062 14.0625 18.2062C14.0625 18.2062 14.2498 18.4401 14.5309 18.5007C14.8119 18.5613 15.0759 18.4141 15.0759 18.4141C15.0759 18.4141 14.8885 18.1716 14.6075 18.1196Z" fill="#FFB448"/>
<path id="Vector_37" d="M14.9647 17.3229C14.8029 17.5568 14.837 17.8599 14.837 17.8599C14.837 17.8599 15.1265 17.782 15.2883 17.5394C15.4501 17.3056 15.416 17.0024 15.416 17.0024C15.416 17.0024 15.1265 17.0891 14.9647 17.3229Z" fill="#FFB448"/>
<path id="Vector_38" d="M15.3561 17.6863C15.0666 17.6777 14.8281 17.8596 14.8281 17.8596C14.8281 17.8596 15.0495 18.0674 15.3391 18.0761C15.6286 18.0848 15.8671 17.9029 15.8671 17.9029C15.8671 17.9029 15.6371 17.695 15.3561 17.6863Z" fill="#FFB448"/>
<path id="Vector_39" d="M15.5786 16.8117C15.4764 17.0802 15.5786 17.3661 15.5786 17.3661C15.5786 17.3661 15.8426 17.2188 15.9363 16.9503C16.0385 16.6818 15.9363 16.396 15.9363 16.396C15.9363 16.396 15.6808 16.5432 15.5786 16.8117Z" fill="#FFB448"/>
<path id="Vector_40" d="M16.0465 17.0718C15.7655 17.1324 15.5781 17.3663 15.5781 17.3663C15.5781 17.3663 15.8421 17.5135 16.1231 17.4529C16.4042 17.3922 16.5915 17.1584 16.5915 17.1584C16.5915 17.1584 16.3275 17.0111 16.0465 17.0718Z" fill="#FFB448"/>
<path id="Vector_41" d="M16.0885 16.1622C16.0544 16.448 16.2247 16.6991 16.2247 16.6991C16.2247 16.6991 16.4462 16.4913 16.4802 16.2055C16.5143 15.9196 16.344 15.6685 16.344 15.6685C16.344 15.6685 16.1226 15.8763 16.0885 16.1622Z" fill="#FFB448"/>
<path id="Vector_42" d="M16.6098 16.3004C16.3543 16.4217 16.2266 16.6988 16.2266 16.6988C16.2266 16.6988 16.5161 16.7768 16.7801 16.6555C17.0356 16.5342 17.1633 16.2571 17.1633 16.2571C17.1633 16.2571 16.8652 16.1791 16.6098 16.3004Z" fill="#FFB448"/>
</g>
<g id="Group_9">
<path id="Vector_43" d="M16.4556 15.4346C16.4812 15.7204 16.6941 15.9369 16.6941 15.9369C16.6941 15.9369 16.8644 15.6858 16.8473 15.4086C16.8218 15.1228 16.6089 14.9062 16.6089 14.9062C16.6089 14.9062 16.4301 15.1488 16.4556 15.4346Z" fill="#FFB448"/>
<path id="Vector_44" d="M16.9914 15.4695C16.7615 15.6427 16.6934 15.9372 16.6934 15.9372C16.6934 15.9372 16.9914 15.9545 17.2213 15.7813C17.4513 15.608 17.5194 15.3136 17.5194 15.3136C17.5194 15.3136 17.2213 15.3049 16.9914 15.4695Z" fill="#FFB448"/>
<path id="Vector_45" d="M16.6675 14.7068C16.7356 14.984 16.9826 15.1658 16.9826 15.1658C16.9826 15.1658 17.1189 14.8973 17.0507 14.6202C16.9826 14.343 16.7356 14.1611 16.7356 14.1611C16.7356 14.1611 16.5994 14.4296 16.6675 14.7068Z" fill="#FFB448"/>
<path id="Vector_46" d="M17.2038 14.6552C17.008 14.8631 16.9824 15.1663 16.9824 15.1663C16.9824 15.1663 17.2805 15.1316 17.4849 14.9324C17.6807 14.7245 17.7063 14.4214 17.7063 14.4214C17.7063 14.4214 17.3997 14.4474 17.2038 14.6552Z" fill="#FFB448"/>
<path id="Vector_47" d="M16.6926 13.9187C16.8288 14.1699 17.1099 14.2825 17.1099 14.2825C17.1099 14.2825 17.1695 13.988 17.0417 13.7368C16.9055 13.4856 16.6245 13.373 16.6245 13.373C16.6245 13.373 16.5563 13.6675 16.6926 13.9187Z" fill="#FFB448"/>
<path id="Vector_48" d="M17.1962 13.7371C17.0514 13.9883 17.1025 14.2827 17.1025 14.2827C17.1025 14.2827 17.3835 14.1788 17.5283 13.9363C17.6731 13.6851 17.622 13.3906 17.622 13.3906C17.622 13.3906 17.3409 13.4946 17.1962 13.7371Z" fill="#FFB448"/>
<path id="Vector_49" d="M16.5396 13.0958C16.727 13.3124 17.025 13.3557 17.025 13.3557C17.025 13.3557 17.0165 13.0525 16.8292 12.836C16.6418 12.6195 16.3438 12.5762 16.3438 12.5762C16.3438 12.5762 16.3523 12.8793 16.5396 13.0958Z" fill="#FFB448"/>
<path id="Vector_50" d="M16.9902 12.8016C16.9051 13.0787 17.0328 13.3559 17.0328 13.3559C17.0328 13.3559 17.2883 13.1913 17.3649 12.9142C17.4501 12.637 17.3223 12.3599 17.3223 12.3599C17.3223 12.3599 17.0669 12.5331 16.9902 12.8016Z" fill="#FFB448"/>
</g>
<path id="Vector_51" d="M16.2597 12.4288C16.4896 12.5934 16.7962 12.5674 16.7962 12.5674C16.7962 12.5674 16.7195 12.2729 16.4896 12.1083C16.2597 11.9438 15.9531 11.9698 15.9531 11.9698C15.9531 11.9698 16.0213 12.2642 16.2597 12.4288Z" fill="#FFB448"/>
<path id="Vector_52" d="M16.6261 12.0478C16.6091 12.3336 16.7879 12.5761 16.7879 12.5761C16.7879 12.5761 16.9923 12.3596 17.0094 12.0737C17.0264 11.7879 16.8476 11.5454 16.8476 11.5454C16.8476 11.5454 16.6432 11.7619 16.6261 12.0478Z" fill="#FFB448"/>
<path id="Vector_53" d="M15.8669 11.8229C16.1224 11.9528 16.4204 11.8748 16.4204 11.8748C16.4204 11.8748 16.3012 11.5977 16.0457 11.4677C15.7902 11.3378 15.4922 11.4158 15.4922 11.4158C15.4922 11.4158 15.6114 11.7016 15.8669 11.8229Z" fill="#FFB448"/>
<path id="Vector_54" d="M16.1745 11.3812C16.2 11.6671 16.4214 11.8749 16.4214 11.8749C16.4214 11.8749 16.5918 11.6238 16.5662 11.3379C16.5407 11.0521 16.3193 10.8442 16.3193 10.8442C16.3193 10.8442 16.1489 11.0954 16.1745 11.3812Z" fill="#FFB448"/>
<path id="Vector_55" d="M15.6638 10.9565C15.6553 10.9652 15.6383 10.9825 15.6213 10.9912C15.6127 10.9912 15.6127 10.9998 15.6042 10.9998C16.4984 11.7794 17.0604 12.8967 17.0604 14.1439C17.0604 16.4824 15.0848 18.3793 12.6492 18.3793C10.2137 18.3793 8.23805 16.4824 8.23805 14.1439C8.23805 12.9486 8.75751 11.8746 9.58355 11.1038C9.558 11.0951 9.53245 11.0865 9.51542 11.0778C8.68939 11.8573 8.16992 12.9486 8.16992 14.1439C8.16992 16.5171 10.1797 18.4485 12.6492 18.4485C15.1188 18.4485 17.1286 16.5171 17.1286 14.1439C17.1371 12.8793 16.5665 11.7447 15.6638 10.9565Z" fill="#FFB448"/>
<path id="Vector_56" d="M10.0352 11.2597C9.75422 11.3204 9.49023 11.1818 9.49023 11.1818C9.49023 11.1818 9.67758 10.9393 9.9586 10.8786C10.2396 10.818 10.5036 10.9566 10.5036 10.9566C10.5036 10.9566 10.3078 11.1991 10.0352 11.2597Z" fill="#FFB448"/>
<path id="Vector_57" d="M9.83931 10.7574C9.74563 11.0259 9.48164 11.1818 9.48164 11.1818C9.48164 11.1818 9.37945 10.896 9.47313 10.6275C9.5668 10.359 9.83079 10.2031 9.83079 10.2031C9.83079 10.2031 9.9415 10.4889 9.83931 10.7574Z" fill="#FFB448"/>
<path id="Vector_58" d="M15.3063 11.2597C15.5873 11.3204 15.8513 11.1818 15.8513 11.1818C15.8513 11.1818 15.6639 10.9393 15.3829 10.8786C15.1019 10.818 14.8379 10.9566 14.8379 10.9566C14.8379 10.9566 15.0252 11.1991 15.3063 11.2597Z" fill="#FFB448"/>
<path id="Vector_59" d="M15.4927 10.7574C15.5863 11.0259 15.8503 11.1818 15.8503 11.1818C15.8503 11.1818 15.9525 10.896 15.8588 10.6275C15.7652 10.359 15.5012 10.2031 15.5012 10.2031C15.5012 10.2031 15.399 10.4889 15.4927 10.7574Z" fill="#FFB448"/>
</g>
<path id="Vector_60" d="M13.3987 13.8967C14.0844 14.0882 14.5 14.5243 14.5 15.2582C14.5 17.0026 12.1104 17.2578 10.5 16.8005L10.5831 15.5773C11.2065 15.907 12.2247 16.0346 12.7442 15.6836C13.1701 15.3965 13.1286 14.854 12.8169 14.6306C12.474 14.386 11.9442 14.4817 11.4455 14.4605V13.4287H12.0792C13.3156 13.4287 13.3468 12.0992 12.0481 12.0992C11.6117 12.0992 11.1649 12.1949 10.7494 12.3545L10.687 11.2589C10.9571 11.1738 11.2377 11.11 11.5182 11.0675C14.5935 10.5995 14.7078 12.6948 14.1468 13.3968C13.9805 13.6415 13.7312 13.801 13.3987 13.8967Z" fill="white"/>
</g>
</g>
</svg>
