<svg width="47" height="50" viewBox="0 0 47 50" fill="none" xmlns="http://www.w3.org/2000/svg">
<path d="M23.5 30C22.7602 30 22.1396 29.76 21.6383 29.28C21.1369 28.8 20.8871 28.2067 20.8889 27.5C20.8889 26.7917 21.1396 26.1975 21.6409 25.7175C22.1422 25.2375 22.7619 24.9983 23.5 25C24.2398 25 24.8604 25.24 25.3617 25.72C25.8631 26.2 26.1129 26.7933 26.1111 27.5C26.1111 28.2083 25.8604 28.8025 25.3591 29.2825C24.8578 29.7625 24.2381 30.0017 23.5 30ZM13.0556 30C12.3157 30 11.6952 29.76 11.1938 29.28C10.6925 28.8 10.4427 28.2067 10.4444 27.5C10.4444 26.7917 10.6951 26.1975 11.1964 25.7175C11.6978 25.2375 12.3175 24.9983 13.0556 25C13.7954 25 14.4159 25.24 14.9173 25.72C15.4186 26.2 15.6684 26.7933 15.6667 27.5C15.6667 28.2083 15.416 28.8025 14.9147 29.2825C14.4133 29.7625 13.7936 30.0017 13.0556 30ZM33.9444 30C33.2046 30 32.5841 29.76 32.0827 29.28C31.5814 28.8 31.3316 28.2067 31.3333 27.5C31.3333 26.7917 31.584 26.1975 32.0853 25.7175C32.5867 25.2375 33.2064 24.9983 33.9444 25C34.6843 25 35.3048 25.24 35.8062 25.72C36.3075 26.2 36.5573 26.7933 36.5555 27.5C36.5555 28.2083 36.3049 28.8025 35.8036 29.2825C35.3022 29.7625 34.6825 30.0017 33.9444 30ZM23.5 40C22.7602 40 22.1396 39.76 21.6383 39.28C21.1369 38.8 20.8871 38.2067 20.8889 37.5C20.8889 36.7917 21.1396 36.1975 21.6409 35.7175C22.1422 35.2375 22.7619 34.9983 23.5 35C24.2398 35 24.8604 35.24 25.3617 35.72C25.8631 36.2 26.1129 36.7933 26.1111 37.5C26.1111 38.2083 25.8604 38.8025 25.3591 39.2825C24.8578 39.7625 24.2381 40.0017 23.5 40ZM13.0556 40C12.3157 40 11.6952 39.76 11.1938 39.28C10.6925 38.8 10.4427 38.2067 10.4444 37.5C10.4444 36.7917 10.6951 36.1975 11.1964 35.7175C11.6978 35.2375 12.3175 34.9983 13.0556 35C13.7954 35 14.4159 35.24 14.9173 35.72C15.4186 36.2 15.6684 36.7933 15.6667 37.5C15.6667 38.2083 15.416 38.8025 14.9147 39.2825C14.4133 39.7625 13.7936 40.0017 13.0556 40ZM33.9444 40C33.2046 40 32.5841 39.76 32.0827 39.28C31.5814 38.8 31.3316 38.2067 31.3333 37.5C31.3333 36.7917 31.584 36.1975 32.0853 35.7175C32.5867 35.2375 33.2064 34.9983 33.9444 35C34.6843 35 35.3048 35.24 35.8062 35.72C36.3075 36.2 36.5573 36.7933 36.5555 37.5C36.5555 38.2083 36.3049 38.8025 35.8036 39.2825C35.3022 39.7625 34.6825 40.0017 33.9444 40ZM5.22223 50C3.78611 50 2.55628 49.51 1.53273 48.53C0.509171 47.55 -0.00173631 46.3733 4.43313e-06 45V10C4.43313e-06 8.625 0.511782 7.4475 1.53534 6.4675C2.55889 5.4875 3.78786 4.99833 5.22223 5H7.83334V0H13.0556V5H33.9444V0H39.1667V5H41.7778C43.2139 5 44.4437 5.49 45.4673 6.47C46.4908 7.45 47.0017 8.62667 47 10V45C47 46.375 46.4882 47.5525 45.4647 48.5325C44.4411 49.5125 43.2121 50.0017 41.7778 50H5.22223ZM5.22223 45H41.7778V20H5.22223V45Z" fill="white" fill-opacity="0.15"/>
</svg>
