<svg width="46" height="16" viewBox="0 0 46 16" fill="none" xmlns="http://www.w3.org/2000/svg">
<path d="M6.14062 9.28711H7.26562C7.20703 9.82617 7.05273 10.3086 6.80273 10.7344C6.55273 11.1602 6.19922 11.498 5.74219 11.748C5.28516 11.9941 4.71484 12.1172 4.03125 12.1172C3.53125 12.1172 3.07617 12.0234 2.66602 11.8359C2.25977 11.6484 1.91016 11.3828 1.61719 11.0391C1.32422 10.6914 1.09766 10.2754 0.9375 9.79102C0.78125 9.30273 0.703125 8.75977 0.703125 8.16211V7.3125C0.703125 6.71484 0.78125 6.17383 0.9375 5.68945C1.09766 5.20117 1.32617 4.7832 1.62305 4.43555C1.92383 4.08789 2.28516 3.82031 2.70703 3.63281C3.12891 3.44531 3.60352 3.35156 4.13086 3.35156C4.77539 3.35156 5.32031 3.47266 5.76562 3.71484C6.21094 3.95703 6.55664 4.29297 6.80273 4.72266C7.05273 5.14844 7.20703 5.64258 7.26562 6.20508H6.14062C6.08594 5.80664 5.98438 5.46484 5.83594 5.17969C5.6875 4.89062 5.47656 4.66797 5.20312 4.51172C4.92969 4.35547 4.57227 4.27734 4.13086 4.27734C3.75195 4.27734 3.41797 4.34961 3.12891 4.49414C2.84375 4.63867 2.60352 4.84375 2.4082 5.10938C2.2168 5.375 2.07227 5.69336 1.97461 6.06445C1.87695 6.43555 1.82812 6.84766 1.82812 7.30078V8.16211C1.82812 8.58008 1.87109 8.97266 1.95703 9.33984C2.04688 9.70703 2.18164 10.0293 2.36133 10.3066C2.54102 10.584 2.76953 10.8027 3.04688 10.9629C3.32422 11.1191 3.65234 11.1973 4.03125 11.1973C4.51172 11.1973 4.89453 11.1211 5.17969 10.9688C5.46484 10.8164 5.67969 10.5977 5.82422 10.3125C5.97266 10.0273 6.07812 9.68555 6.14062 9.28711ZM8.35547 8.90039V8.76562C8.35547 8.30859 8.42188 7.88477 8.55469 7.49414C8.6875 7.09961 8.87891 6.75781 9.12891 6.46875C9.37891 6.17578 9.68164 5.94922 10.0371 5.78906C10.3926 5.625 10.791 5.54297 11.2324 5.54297C11.6777 5.54297 12.0781 5.625 12.4336 5.78906C12.793 5.94922 13.0977 6.17578 13.3477 6.46875C13.6016 6.75781 13.7949 7.09961 13.9277 7.49414C14.0605 7.88477 14.127 8.30859 14.127 8.76562V8.90039C14.127 9.35742 14.0605 9.78125 13.9277 10.1719C13.7949 10.5625 13.6016 10.9043 13.3477 11.1973C13.0977 11.4863 12.7949 11.7129 12.4395 11.877C12.0879 12.0371 11.6895 12.1172 11.2441 12.1172C10.7988 12.1172 10.3984 12.0371 10.043 11.877C9.6875 11.7129 9.38281 11.4863 9.12891 11.1973C8.87891 10.9043 8.6875 10.5625 8.55469 10.1719C8.42188 9.78125 8.35547 9.35742 8.35547 8.90039ZM9.43945 8.76562V8.90039C9.43945 9.2168 9.47656 9.51562 9.55078 9.79688C9.625 10.0742 9.73633 10.3203 9.88477 10.5352C10.0371 10.75 10.2266 10.9199 10.4531 11.0449C10.6797 11.166 10.9434 11.2266 11.2441 11.2266C11.541 11.2266 11.8008 11.166 12.0234 11.0449C12.25 10.9199 12.4375 10.75 12.5859 10.5352C12.7344 10.3203 12.8457 10.0742 12.9199 9.79688C12.998 9.51562 13.0371 9.2168 13.0371 8.90039V8.76562C13.0371 8.45312 12.998 8.1582 12.9199 7.88086C12.8457 7.59961 12.7324 7.35156 12.5801 7.13672C12.4316 6.91797 12.2441 6.74609 12.0176 6.62109C11.7949 6.49609 11.5332 6.43359 11.2324 6.43359C10.9355 6.43359 10.6738 6.49609 10.4473 6.62109C10.2246 6.74609 10.0371 6.91797 9.88477 7.13672C9.73633 7.35156 9.625 7.59961 9.55078 7.88086C9.47656 8.1582 9.43945 8.45312 9.43945 8.76562ZM16.5703 6.87891V14.4375H15.4805V5.66016H16.4766L16.5703 6.87891ZM20.8418 8.77734V8.90039C20.8418 9.36133 20.7871 9.78906 20.6777 10.1836C20.5684 10.5742 20.4082 10.9141 20.1973 11.2031C19.9902 11.4922 19.7344 11.7168 19.4297 11.877C19.125 12.0371 18.7754 12.1172 18.3809 12.1172C17.9785 12.1172 17.623 12.0508 17.3145 11.918C17.0059 11.7852 16.7441 11.5918 16.5293 11.3379C16.3145 11.084 16.1426 10.7793 16.0137 10.4238C15.8887 10.0684 15.8027 9.66797 15.7559 9.22266V8.56641C15.8027 8.09766 15.8906 7.67773 16.0195 7.30664C16.1484 6.93555 16.3184 6.61914 16.5293 6.35742C16.7441 6.0918 17.0039 5.89062 17.3086 5.75391C17.6133 5.61328 17.9648 5.54297 18.3633 5.54297C18.7617 5.54297 19.1152 5.62109 19.4238 5.77734C19.7324 5.92969 19.9922 6.14844 20.2031 6.43359C20.4141 6.71875 20.5723 7.06055 20.6777 7.45898C20.7871 7.85352 20.8418 8.29297 20.8418 8.77734ZM19.752 8.90039V8.77734C19.752 8.46094 19.7188 8.16406 19.6523 7.88672C19.5859 7.60547 19.4824 7.35938 19.3418 7.14844C19.2051 6.93359 19.0293 6.76562 18.8145 6.64453C18.5996 6.51953 18.3438 6.45703 18.0469 6.45703C17.7734 6.45703 17.5352 6.50391 17.332 6.59766C17.1328 6.69141 16.9629 6.81836 16.8223 6.97852C16.6816 7.13477 16.5664 7.31445 16.4766 7.51758C16.3906 7.7168 16.3262 7.92383 16.2832 8.13867V9.65625C16.3613 9.92969 16.4707 10.1875 16.6113 10.4297C16.752 10.668 16.9395 10.8613 17.1738 11.0098C17.4082 11.1543 17.7031 11.2266 18.0586 11.2266C18.3516 11.2266 18.6035 11.166 18.8145 11.0449C19.0293 10.9199 19.2051 10.75 19.3418 10.5352C19.4824 10.3203 19.5859 10.0742 19.6523 9.79688C19.7188 9.51562 19.752 9.2168 19.752 8.90039ZM23.9355 11.3438L25.6992 5.66016H26.8594L24.3164 12.9785C24.2578 13.1348 24.1797 13.3027 24.082 13.4824C23.9883 13.666 23.8672 13.8398 23.7188 14.0039C23.5703 14.168 23.3906 14.3008 23.1797 14.4023C22.9727 14.5078 22.7246 14.5605 22.4355 14.5605C22.3496 14.5605 22.2402 14.5488 22.1074 14.5254C21.9746 14.502 21.8809 14.4824 21.8262 14.4668L21.8203 13.5879C21.8516 13.5918 21.9004 13.5957 21.9668 13.5996C22.0371 13.6074 22.0859 13.6113 22.1133 13.6113C22.3594 13.6113 22.5684 13.5781 22.7402 13.5117C22.9121 13.4492 23.0566 13.3418 23.1738 13.1895C23.2949 13.041 23.3984 12.8359 23.4844 12.5742L23.9355 11.3438ZM22.6406 5.66016L24.2871 10.582L24.5684 11.7246L23.7891 12.123L21.457 5.66016H22.6406Z" fill="#0288D1"/>
<path d="M33.7222 14.1111C33.3861 14.1111 33.0983 13.9913 32.8587 13.7518C32.6192 13.5122 32.4996 13.2246 32.5 12.8889V4.33333H33.7222V12.8889H40.4444V14.1111H33.7222ZM36.1667 11.6667C35.8306 11.6667 35.5427 11.5469 35.3032 11.3073C35.0636 11.0678 34.944 10.7801 34.9444 10.4444V3.11111C34.9444 2.775 35.0642 2.48716 35.3038 2.24761C35.5433 2.00805 35.831 1.88848 36.1667 1.88889H41.6667C42.0028 1.88889 42.2906 2.00866 42.5302 2.24822C42.7697 2.48778 42.8893 2.77541 42.8889 3.11111V10.4444C42.8889 10.7806 42.7691 11.0684 42.5296 11.3079C42.29 11.5475 42.0024 11.6671 41.6667 11.6667H36.1667ZM36.1667 10.4444H41.6667V3.11111H36.1667V10.4444Z" fill="#0288D1"/>
</svg>
