<svg width="25" height="24" viewBox="0 0 25 24" fill="none" xmlns="http://www.w3.org/2000/svg">
<g id="Frame">
<path id="Vector" d="M17.5 13C17.4389 12.9989 17.3793 13.0193 17.3318 13.0577C17.2842 13.0961 17.2517 13.15 17.24 13.21L17.05 14.53C16.75 14.66 16.46 14.82 16.2 15L14.96 14.5C14.85 14.5 14.72 14.5 14.65 14.63L13.65 16.36C13.59 16.47 13.61 16.6 13.71 16.68L14.77 17.5C14.7301 17.8321 14.7301 18.1679 14.77 18.5L13.71 19.32C13.6651 19.3585 13.6346 19.4113 13.6237 19.4694C13.6128 19.5276 13.6221 19.5878 13.65 19.64L14.65 21.37C14.71 21.5 14.84 21.5 14.96 21.5L16.2 21C16.46 21.18 16.74 21.35 17.05 21.47L17.24 22.79C17.26 22.91 17.36 23 17.5 23H19.5C19.61 23 19.72 22.91 19.74 22.79L19.93 21.47C20.23 21.34 20.5 21.18 20.77 21L22 21.5C22.13 21.5 22.26 21.5 22.33 21.37L23.33 19.64C23.3579 19.5878 23.3672 19.5276 23.3563 19.4694C23.3454 19.4113 23.3149 19.3585 23.27 19.32L22.2 18.5C22.22 18.33 22.24 18.17 22.24 18C22.24 17.83 22.23 17.67 22.2 17.5L23.26 16.68C23.3049 16.6415 23.3354 16.5887 23.3463 16.5306C23.3572 16.4724 23.3479 16.4122 23.32 16.36L22.32 14.63C22.26 14.5 22.13 14.5 22 14.5L20.77 15C20.5 14.82 20.23 14.65 19.92 14.53L19.73 13.21C19.7237 13.153 19.6969 13.1003 19.6546 13.0617C19.6122 13.023 19.5573 13.0011 19.5 13H17.5ZM18.5 16.5C19.33 16.5 20 17.17 20 18C20 18.83 19.33 19.5 18.5 19.5C17.66 19.5 17 18.83 17 18C17 17.17 17.67 16.5 18.5 16.5ZM10.5 5H12.5V7H10.5V5ZM16.5 7H14.5V5H16.5V7ZM14.5 9H16.5V11H14.5V9ZM10.5 9H12.5V11H10.5V9ZM13.61 23H2.5V1H20.5V11.29C19.87 11.11 19.2 11 18.5 11V3H4.5V21H10.5V17.5H11.53C11.5 17.67 11.5 17.83 11.5 18C11.5 19.96 12.31 21.73 13.61 23ZM8.5 15H6.5V13H8.5V15ZM8.5 11H6.5V9H8.5V11ZM8.5 7H6.5V5H8.5V7ZM6.5 17H8.5V19H6.5V17ZM10.5 13H12.5V14.41C12.39 14.6 12.28 14.8 12.18 15H10.5V13Z" fill="currentColor"/>
</g>
</svg>
