<svg width="50" height="50" viewBox="0 0 50 50" fill="none" xmlns="http://www.w3.org/2000/svg">
<rect width="50" height="50" rx="25" fill="#41AF38"/>
<path d="M14.3327 35.6663C13.5994 35.6663 12.9714 35.405 12.4487 34.8823C11.926 34.3597 11.6651 33.7321 11.666 32.9997V16.9997C11.666 16.2663 11.9274 15.6383 12.45 15.1157C12.9727 14.593 13.6002 14.3321 14.3327 14.333H35.666C36.3994 14.333 37.0274 14.5943 37.55 15.117C38.0727 15.6397 38.3336 16.2672 38.3327 16.9997V32.9997C38.3327 33.733 38.0714 34.361 37.5487 34.8837C37.026 35.4063 36.3985 35.6672 35.666 35.6663H14.3327ZM35.666 19.6663L25.6994 25.8997C25.5882 25.9663 25.4714 26.0166 25.3487 26.0503C25.226 26.0841 25.1096 26.1006 24.9994 26.0997C24.8882 26.0997 24.7714 26.0832 24.6487 26.0503C24.526 26.0175 24.4096 25.9672 24.2994 25.8997L14.3327 19.6663V32.9997H35.666V19.6663ZM24.9994 23.6663L35.666 16.9997H14.3327L24.9994 23.6663ZM14.3327 19.9997V18.033V18.0663V18.0503V19.9997Z" fill="white"/>
</svg>
