<svg width="24" height="24" viewBox="0 0 24 24" fill="none" xmlns="http://www.w3.org/2000/svg">
<g id="Icon">
<path id="Vector" d="M7.99996 17.3337C7.4444 17.3337 6.97218 17.1392 6.58329 16.7503C6.1944 16.3614 5.99996 15.8892 5.99996 15.3337H4.66663V8.00033C4.66663 7.63366 4.79729 7.31966 5.05863 7.05833C5.31996 6.79699 5.63374 6.66655 5.99996 6.66699H15.3333V9.33366H17.3333L19.3333 12.0003V15.3337H18C18 15.8892 17.8055 16.3614 17.4166 16.7503C17.0277 17.1392 16.5555 17.3337 16 17.3337C15.4444 17.3337 14.9722 17.1392 14.5833 16.7503C14.1944 16.3614 14 15.8892 14 15.3337H9.99996C9.99996 15.8892 9.80552 16.3614 9.41663 16.7503C9.02774 17.1392 8.55551 17.3337 7.99996 17.3337ZM7.99996 16.0003C8.18885 16.0003 8.34729 15.9363 8.47529 15.8083C8.60329 15.6803 8.66707 15.5221 8.66663 15.3337C8.66663 15.1448 8.60263 14.9863 8.47463 14.8583C8.34663 14.7303 8.1884 14.6665 7.99996 14.667C7.81107 14.667 7.65263 14.731 7.52463 14.859C7.39663 14.987 7.33285 15.1452 7.33329 15.3337C7.33329 15.5225 7.39729 15.681 7.52529 15.809C7.65329 15.937 7.81151 16.0008 7.99996 16.0003ZM5.99996 14.0003H6.53329C6.72218 13.8003 6.93885 13.6392 7.18329 13.517C7.42774 13.3948 7.69996 13.3337 7.99996 13.3337C8.29996 13.3337 8.57218 13.3948 8.81663 13.517C9.06107 13.6392 9.27774 13.8003 9.46663 14.0003H14V8.00033H5.99996V14.0003ZM16 16.0003C16.1888 16.0003 16.3473 15.9363 16.4753 15.8083C16.6033 15.6803 16.6671 15.5221 16.6666 15.3337C16.6666 15.1448 16.6026 14.9863 16.4746 14.8583C16.3466 14.7303 16.1884 14.6665 16 14.667C15.8111 14.667 15.6526 14.731 15.5246 14.859C15.3966 14.987 15.3328 15.1452 15.3333 15.3337C15.3333 15.5225 15.3973 15.681 15.5253 15.809C15.6533 15.937 15.8115 16.0008 16 16.0003ZM15.3333 12.667H18.1666L16.6666 10.667H15.3333V12.667Z" fill="#0288D1"/>
</g>
</svg>
