<svg width="16" height="17" viewBox="0 0 16 17" fill="none" xmlns="http://www.w3.org/2000/svg">
<path d="M8.00004 1.83337C11.682 1.83337 14.6667 4.81804 14.6667 8.50004C14.6667 12.182 11.682 15.1667 8.00004 15.1667C4.31804 15.1667 1.33337 12.182 1.33337 8.50004C1.33337 4.81804 4.31804 1.83337 8.00004 1.83337ZM8.00004 3.16671C6.58555 3.16671 5.229 3.72861 4.2288 4.7288C3.22861 5.729 2.66671 7.08555 2.66671 8.50004C2.66671 9.91453 3.22861 11.2711 4.2288 12.2713C5.229 13.2715 6.58555 13.8334 8.00004 13.8334C9.41453 13.8334 10.7711 13.2715 11.7713 12.2713C12.7715 11.2711 13.3334 9.91453 13.3334 8.50004C13.3334 7.08555 12.7715 5.729 11.7713 4.7288C10.7711 3.72861 9.41453 3.16671 8.00004 3.16671ZM8.00004 10.5C8.17685 10.5 8.34642 10.5703 8.47145 10.6953C8.59647 10.8203 8.66671 10.9899 8.66671 11.1667C8.66671 11.3435 8.59647 11.5131 8.47145 11.6381C8.34642 11.7631 8.17685 11.8334 8.00004 11.8334C7.82323 11.8334 7.65366 11.7631 7.52864 11.6381C7.40361 11.5131 7.33337 11.3435 7.33337 11.1667C7.33337 10.9899 7.40361 10.8203 7.52864 10.6953C7.65366 10.5703 7.82323 10.5 8.00004 10.5ZM8.00004 4.50004C8.17685 4.50004 8.34642 4.57028 8.47145 4.6953C8.59647 4.82033 8.66671 4.9899 8.66671 5.16671V9.16671C8.66671 9.34352 8.59647 9.51309 8.47145 9.63811C8.34642 9.76314 8.17685 9.83337 8.00004 9.83337C7.82323 9.83337 7.65366 9.76314 7.52864 9.63811C7.40361 9.51309 7.33337 9.34352 7.33337 9.16671V5.16671C7.33337 4.9899 7.40361 4.82033 7.52864 4.6953C7.65366 4.57028 7.82323 4.50004 8.00004 4.50004Z" fill="#D51E03"/>
</svg>
