<svg width="24" height="24" viewBox="0 0 24 24" fill="none" xmlns="http://www.w3.org/2000/svg">
<g id="Frame">
<path id="Vector" d="M19.8638 9.97661C19.5608 9.66 19.2474 9.33375 19.1293 9.04688C19.02 8.78411 19.0136 8.34857 19.0071 7.9267C18.9951 7.14241 18.9822 6.25366 18.3643 5.63571C17.7463 5.01777 16.8576 5.00491 16.0733 4.99286C15.6514 4.98643 15.2159 4.98 14.9531 4.87071C14.6671 4.75259 14.34 4.4392 14.0234 4.13625C13.4689 3.60348 12.8389 3 12 3C11.1611 3 10.5319 3.60348 9.97661 4.13625C9.66 4.4392 9.33375 4.75259 9.04688 4.87071C8.78571 4.98 8.34857 4.98643 7.9267 4.99286C7.14241 5.00491 6.25366 5.01777 5.63571 5.63571C5.01777 6.25366 5.00893 7.14241 4.99286 7.9267C4.98643 8.34857 4.98 8.78411 4.87071 9.04688C4.75259 9.33295 4.4392 9.66 4.13625 9.97661C3.60348 10.5311 3 11.1611 3 12C3 12.8389 3.60348 13.4681 4.13625 14.0234C4.4392 14.34 4.75259 14.6663 4.87071 14.9531C4.98 15.2159 4.98643 15.6514 4.99286 16.0733C5.00491 16.8576 5.01777 17.7463 5.63571 18.3643C6.25366 18.9822 7.14241 18.9951 7.9267 19.0071C8.34857 19.0136 8.78411 19.02 9.04688 19.1293C9.33295 19.2474 9.66 19.5608 9.97661 19.8638C10.5311 20.3965 11.1611 21 12 21C12.8389 21 13.4681 20.3965 14.0234 19.8638C14.34 19.5608 14.6663 19.2474 14.9531 19.1293C15.2159 19.02 15.6514 19.0136 16.0733 19.0071C16.8576 18.9951 17.7463 18.9822 18.3643 18.3643C18.9822 17.7463 18.9951 16.8576 19.0071 16.0733C19.0136 15.6514 19.02 15.2159 19.1293 14.9531C19.2474 14.6671 19.5608 14.34 19.8638 14.0234C20.3965 13.4689 21 12.8389 21 12C21 11.1611 20.3965 10.5319 19.8638 9.97661ZM18.9356 13.1338C18.5507 13.5356 18.1521 13.9511 17.9408 14.4613C17.7383 14.9515 17.7295 15.5116 17.7214 16.054C17.7134 16.6165 17.7046 17.2055 17.4546 17.4546C17.2047 17.7038 16.6197 17.7134 16.054 17.7214C15.5116 17.7295 14.9515 17.7383 14.4613 17.9408C13.9511 18.1521 13.5356 18.5507 13.1338 18.9356C12.7321 19.3205 12.3214 19.7143 12 19.7143C11.6786 19.7143 11.2647 19.3189 10.8662 18.9356C10.4676 18.5523 10.0489 18.1521 9.53866 17.9408C9.04848 17.7383 8.48839 17.7295 7.94598 17.7214C7.38348 17.7134 6.79446 17.7046 6.54536 17.4546C6.29625 17.2047 6.28661 16.6197 6.27857 16.054C6.27054 15.5116 6.2617 14.9515 6.0592 14.4613C5.84786 13.9511 5.44929 13.5356 5.06437 13.1338C4.67946 12.7321 4.28571 12.3214 4.28571 12C4.28571 11.6786 4.68107 11.2647 5.06437 10.8662C5.44768 10.4676 5.84786 10.0489 6.0592 9.53866C6.2617 9.04848 6.27054 8.48839 6.27857 7.94598C6.28661 7.38348 6.29545 6.79446 6.54536 6.54536C6.79527 6.29625 7.38027 6.28661 7.94598 6.27857C8.48839 6.27054 9.04848 6.2617 9.53866 6.0592C10.0489 5.84786 10.4644 5.44929 10.8662 5.06437C11.2679 4.67946 11.6786 4.28571 12 4.28571C12.3214 4.28571 12.7353 4.68107 13.1338 5.06437C13.5324 5.44768 13.9511 5.84786 14.4613 6.0592C14.9515 6.2617 15.5116 6.27054 16.054 6.27857C16.6165 6.28661 17.2055 6.29545 17.4546 6.54536C17.7038 6.79527 17.7134 7.38027 17.7214 7.94598C17.7295 8.48839 17.7383 9.04848 17.9408 9.53866C18.1521 10.0489 18.5507 10.4644 18.9356 10.8662C19.3205 11.2679 19.7143 11.6786 19.7143 12C19.7143 12.3214 19.3189 12.7353 18.9356 13.1338ZM11.3571 12.6429V8.14286C11.3571 7.97236 11.4249 7.80885 11.5454 7.68829C11.666 7.56773 11.8295 7.5 12 7.5C12.1705 7.5 12.334 7.56773 12.4546 7.68829C12.5751 7.80885 12.6429 7.97236 12.6429 8.14286V12.6429C12.6429 12.8134 12.5751 12.9769 12.4546 13.0974C12.334 13.218 12.1705 13.2857 12 13.2857C11.8295 13.2857 11.666 13.218 11.5454 13.0974C11.4249 12.9769 11.3571 12.8134 11.3571 12.6429ZM12.9643 15.5357C12.9643 15.7264 12.9077 15.9129 12.8018 16.0714C12.6958 16.23 12.5452 16.3536 12.369 16.4266C12.1928 16.4996 11.9989 16.5187 11.8119 16.4815C11.6248 16.4443 11.453 16.3524 11.3181 16.2176C11.1833 16.0827 11.0914 15.9109 11.0542 15.7238C11.017 15.5368 11.0361 15.3429 11.1091 15.1667C11.1821 14.9905 11.3057 14.8399 11.4643 14.7339C11.6228 14.628 11.8093 14.5714 12 14.5714C12.2557 14.5714 12.501 14.673 12.6819 14.8539C12.8627 15.0347 12.9643 15.28 12.9643 15.5357Z" fill="currentColor"/>
</g>
</svg>
