<svg width="51" height="50" viewBox="0 0 51 50" fill="none" xmlns="http://www.w3.org/2000/svg">
<rect x="0.5" width="50" height="50" rx="25" fill="#ED5938"/>
<path d="M12.5 37H38.5M14.5 13V37M28.5 13V37M36.5 19V37M18.5 18H19.5M18.5 22H19.5M18.5 26H19.5M23.5 18H24.5M23.5 22H24.5M23.5 26H24.5M18.5 37V32.5C18.5 31.672 19.172 31 20 31H23C23.828 31 24.5 31.672 24.5 32.5V37M13.5 13H29.5M28.5 19H37.5M32.5 24H32.5107V24.0107H32.5V24ZM32.5 28H32.5107V28.0107H32.5V28ZM32.5 32H32.5107V32.0107H32.5V32Z" stroke="white" stroke-width="2" stroke-linecap="round" stroke-linejoin="round"/>
</svg>
