<svg width="32" height="32" viewBox="0 0 32 32" fill="none" xmlns="http://www.w3.org/2000/svg">
<path d="M27.8165 18.4895L26.7091 19.5947L24.4942 17.3842L25.6016 16.2789C25.7124 16.1684 25.8231 16.0579 26.0446 16.0579C26.1554 16.0579 26.3768 16.1684 26.4876 16.2789L27.9273 17.7158C28.038 17.9368 28.038 18.2684 27.8165 18.4895ZM17.0744 24.6789V27H19.4L26.1554 20.2579L23.9405 18.0474L17.0744 24.6789ZM15.0921 20.1805L12.9215 17.5721L9.87603 21.4737H17.2073L20.0202 18.7658L18.1375 16.2679L15.0921 20.1805ZM14.8595 24.6789V23.7395L14.9149 23.6842H8.21487V8.21053H23.719V15.1847L25.9339 13.0516V8.21053C25.9339 7.62426 25.7005 7.062 25.2851 6.64745C24.8698 6.23289 24.3064 6 23.719 6H8.21487C6.99669 6 6 6.99474 6 8.21053V23.6842C6 24.2705 6.23335 24.8327 6.64872 25.2473C7.06409 25.6618 7.62745 25.8947 8.21487 25.8947H14.8595V24.6789Z" fill="#0288D1"/>
</svg>
