<svg width="25" height="24" viewBox="0 0 25 24" fill="none" xmlns="http://www.w3.org/2000/svg">
<path d="M21.667 7.5L17.667 9.5M17.667 9.5L17.167 9.75L12.667 12M17.667 9.5V13M17.667 9.5L8.16699 4.5M12.667 12L3.66699 7.5M12.667 12V21.5M16.245 3.382L18.245 4.432C20.396 5.561 21.472 6.125 22.07 7.14C22.667 8.154 22.667 9.417 22.667 11.94V12.057C22.667 14.582 22.667 15.845 22.07 16.859C21.472 17.874 20.396 18.439 18.245 19.568L16.245 20.617C14.489 21.539 13.611 22 12.667 22C11.723 22 10.845 21.54 9.08899 20.618L7.08899 19.568C4.93799 18.439 3.86199 17.875 3.26399 16.86C2.66699 15.846 2.66699 14.583 2.66699 12.06V11.943C2.66699 9.418 2.66699 8.155 3.26399 7.141C3.86199 6.126 4.93799 5.561 7.08899 4.433L9.08899 3.383C10.845 2.461 11.723 2 12.667 2C13.611 2 14.489 2.46 16.245 3.382Z" stroke="#525252" stroke-width="2" stroke-linecap="round"/>
</svg>
