<svg width="25" height="24" viewBox="0 0 25 24" fill="none" xmlns="http://www.w3.org/2000/svg">
<g clip-path="url(#clip0_797_31412)">
<path d="M12.5 22C6.977 22 2.5 17.523 2.5 12C2.5 6.477 6.977 2 12.5 2C14.0527 1.99884 15.5842 2.35978 16.9729 3.05414C18.3617 3.74851 19.5693 4.75718 20.5 6H17.79C16.6352 4.98176 15.2112 4.31836 13.6887 4.0894C12.1663 3.86044 10.6101 4.07566 9.20689 4.70922C7.80371 5.34277 6.61315 6.36776 5.77807 7.66119C4.94299 8.95462 4.49887 10.4615 4.499 12.0011C4.49913 13.5407 4.9435 15.0475 5.77879 16.3408C6.61409 17.6341 7.80482 18.6589 9.2081 19.2922C10.6114 19.9255 12.1676 20.1405 13.69 19.9113C15.2125 19.6821 16.6364 19.0184 17.791 18H20.501C19.5702 19.243 18.3624 20.2517 16.9735 20.9461C15.5846 21.6405 14.0528 22.0013 12.5 22ZM19.5 16V13H11.5V11H19.5V8L24.5 12L19.5 16Z" fill="#0288D1"/>
</g>
<defs>
<clipPath id="clip0_797_31412">
<rect width="24" height="24" fill="white" transform="translate(0.5)"/>
</clipPath>
</defs>
</svg>
