<svg width="24" height="24" viewBox="0 0 24 24" fill="none" xmlns="http://www.w3.org/2000/svg">
<path d="M8.00033 17.3332C7.44477 17.3332 6.97255 17.1387 6.58366 16.7498C6.19477 16.3609 6.00033 15.8887 6.00033 15.3332H4.66699V7.99984C4.66699 7.63317 4.79766 7.31917 5.05899 7.05784C5.32033 6.7965 5.6341 6.66606 6.00033 6.66651H15.3337V9.33317H17.3337L19.3337 11.9998V15.3332H18.0003C18.0003 15.8887 17.8059 16.3609 17.417 16.7498C17.0281 17.1387 16.5559 17.3332 16.0003 17.3332C15.4448 17.3332 14.9725 17.1387 14.5837 16.7498C14.1948 16.3609 14.0003 15.8887 14.0003 15.3332H10.0003C10.0003 15.8887 9.80588 16.3609 9.41699 16.7498C9.0281 17.1387 8.55588 17.3332 8.00033 17.3332ZM8.00033 15.9998C8.18921 15.9998 8.34766 15.9358 8.47566 15.8078C8.60366 15.6798 8.66744 15.5216 8.66699 15.3332C8.66699 15.1443 8.60299 14.9858 8.47499 14.8578C8.34699 14.7298 8.18877 14.6661 8.00033 14.6665C7.81144 14.6665 7.65299 14.7305 7.52499 14.8585C7.39699 14.9865 7.33321 15.1447 7.33366 15.3332C7.33366 15.5221 7.39766 15.6805 7.52566 15.8085C7.65366 15.9365 7.81188 16.0003 8.00033 15.9998ZM6.00033 13.9998H6.53366C6.72255 13.7998 6.93921 13.6387 7.18366 13.5165C7.4281 13.3943 7.70033 13.3332 8.00033 13.3332C8.30033 13.3332 8.57255 13.3943 8.81699 13.5165C9.06144 13.6387 9.2781 13.7998 9.46699 13.9998H14.0003V7.99984H6.00033V13.9998ZM16.0003 15.9998C16.1892 15.9998 16.3477 15.9358 16.4757 15.8078C16.6037 15.6798 16.6674 15.5216 16.667 15.3332C16.667 15.1443 16.603 14.9858 16.475 14.8578C16.347 14.7298 16.1888 14.6661 16.0003 14.6665C15.8114 14.6665 15.653 14.7305 15.525 14.8585C15.397 14.9865 15.3332 15.1447 15.3337 15.3332C15.3337 15.5221 15.3977 15.6805 15.5257 15.8085C15.6537 15.9365 15.8119 16.0003 16.0003 15.9998ZM15.3337 12.6665H18.167L16.667 10.6665H15.3337V12.6665Z" fill="#0288D1"/>
</svg>
