<svg width="50" height="50" viewBox="0 0 50 50" fill="none" xmlns="http://www.w3.org/2000/svg">
<rect width="50" height="50" rx="25" fill="#8C64FF"/>
<path d="M25.0003 30.9665C27.2003 29.1887 28.8617 27.4776 29.9843 25.8332C31.107 24.1887 31.6679 22.6443 31.667 21.1998C31.667 19.9554 31.439 18.8941 30.983 18.0158C30.527 17.1376 29.9661 16.4265 29.3003 15.8825C28.6337 15.3385 27.9114 14.9443 27.1337 14.6998C26.3559 14.4554 25.6448 14.3332 25.0003 14.3332C24.3559 14.3332 23.6448 14.4554 22.867 14.6998C22.0892 14.9443 21.367 15.3389 20.7003 15.8838C20.0337 16.4278 19.4728 17.1389 19.0177 18.0172C18.5626 18.8954 18.3346 19.9563 18.3337 21.1998C18.3337 22.6443 18.895 24.1887 20.0177 25.8332C21.1403 27.4776 22.8012 29.1887 25.0003 30.9665ZM25.0003 33.8665C24.8003 33.8665 24.6114 33.8389 24.4337 33.7838C24.2559 33.7287 24.0892 33.6452 23.9337 33.5332C21.1559 31.3776 19.0834 29.2776 17.7163 27.2332C16.3492 25.1887 15.6661 23.1776 15.667 21.1998C15.667 19.6221 15.9506 18.2385 16.5177 17.0492C17.0848 15.8598 17.8119 14.8656 18.699 14.0665C19.5879 13.2665 20.5879 12.6665 21.699 12.2665C22.8101 11.8665 23.9106 11.6665 25.0003 11.6665C26.0892 11.6665 27.1892 11.8665 28.3003 12.2665C29.4114 12.6665 30.4114 13.2665 31.3003 14.0665C32.1892 14.8665 32.9172 15.8612 33.4843 17.0505C34.0514 18.2398 34.3346 19.6229 34.3337 21.1998C34.3337 23.1776 33.6501 25.1887 32.283 27.2332C30.9159 29.2776 28.8439 31.3776 26.067 33.5332C25.9337 33.6443 25.7723 33.7278 25.583 33.7838C25.3937 33.8398 25.1994 33.8674 25.0003 33.8665ZM25.0003 23.6665C25.7337 23.6665 26.3617 23.4056 26.8843 22.8838C27.407 22.3621 27.6679 21.7341 27.667 20.9998C27.667 20.2665 27.4057 19.6385 26.883 19.1158C26.3603 18.5932 25.7328 18.3323 25.0003 18.3332C24.267 18.3332 23.639 18.5945 23.1163 19.1172C22.5937 19.6398 22.3328 20.2674 22.3337 20.9998C22.3337 21.7332 22.595 22.3612 23.1177 22.8838C23.6403 23.4065 24.2679 23.6674 25.0003 23.6665ZM17.0003 38.3332C16.6226 38.3332 16.3057 38.2052 16.0497 37.9492C15.7937 37.6932 15.6661 37.3767 15.667 36.9998C15.667 36.6221 15.795 36.3052 16.051 36.0492C16.307 35.7932 16.6234 35.6656 17.0003 35.6665H33.0003C33.3781 35.6665 33.695 35.7945 33.951 36.0505C34.207 36.3065 34.3346 36.6229 34.3337 36.9998C34.3337 37.3776 34.2057 37.6945 33.9497 37.9505C33.6937 38.2065 33.3772 38.3341 33.0003 38.3332H17.0003Z" fill="white"/>
</svg>
