<svg width="18" height="18" viewBox="0 0 18 18" fill="none" xmlns="http://www.w3.org/2000/svg">
<g clip-path="url(#clip0_1168_27084)">
<rect width="18" height="18" rx="9" fill="white"/>
<path d="M13.2105 9.97811C13.4199 9.97811 13.6207 10.0576 13.7688 10.199C13.9168 10.3404 14 10.5322 14 10.7322V12.7432C14 13.0765 13.8614 13.3962 13.6146 13.6319C13.3679 13.8676 13.0332 14 12.6842 14H5.31579C4.96682 14 4.63214 13.8676 4.38539 13.6319C4.13863 13.3962 4 13.0765 4 12.7432V10.7322C4 10.5322 4.08318 10.3404 4.23123 10.199C4.37929 10.0576 4.58009 9.97811 4.78947 9.97811C4.99886 9.97811 5.19966 10.0576 5.34772 10.199C5.49577 10.3404 5.57895 10.5322 5.57895 10.7322V12.4918H12.4211V10.7322C12.4211 10.5322 12.5042 10.3404 12.6523 10.199C12.8003 10.0576 13.0011 9.97811 13.2105 9.97811ZM9.65105 4.25696L11.7911 6.30159C11.8665 6.37116 11.9266 6.45437 11.968 6.54637C12.0094 6.63838 12.0311 6.73733 12.032 6.83746C12.033 6.93759 12.013 7.03689 11.9733 7.12957C11.9336 7.22224 11.875 7.30644 11.8008 7.37724C11.7267 7.44805 11.6386 7.50404 11.5415 7.54196C11.4445 7.57988 11.3406 7.59896 11.2357 7.59809C11.1309 7.59722 11.0273 7.57641 10.931 7.53689C10.8347 7.49737 10.7476 7.43992 10.6747 7.3679L9.78947 6.52229V10.7322C9.78947 10.9322 9.7063 11.124 9.55824 11.2654C9.41019 11.4069 9.20938 11.4863 9 11.4863C8.79062 11.4863 8.58981 11.4069 8.44176 11.2654C8.2937 11.124 8.21053 10.9322 8.21053 10.7322V6.52229L7.32526 7.3679C7.25244 7.43992 7.16532 7.49737 7.069 7.53689C6.97268 7.57641 6.86909 7.59722 6.76426 7.59809C6.65944 7.59896 6.55548 7.57988 6.45846 7.54196C6.36143 7.50404 6.27329 7.44805 6.19916 7.37724C6.12504 7.30644 6.06642 7.22224 6.02672 7.12957C5.98702 7.03689 5.96705 6.93759 5.96796 6.83746C5.96887 6.73733 5.99065 6.63838 6.03203 6.54637C6.0734 6.45437 6.13354 6.37116 6.20895 6.30159L8.34895 4.25746C8.52166 4.09261 8.75583 4 9 4C9.24417 4 9.47834 4.09261 9.65105 4.25746V4.25696Z" fill="#0288D1"/>
</g>
<defs>
<clipPath id="clip0_1168_27084">
<rect width="18" height="18" rx="9" fill="white"/>
</clipPath>
</defs>
</svg>
