<svg width="16" height="16" viewBox="0 0 16 16" fill="none" xmlns="http://www.w3.org/2000/svg">
<path d="M8 9.33301C7.81111 9.33301 7.65267 9.26901 7.52467 9.14101C7.39667 9.01301 7.33289 8.85479 7.33333 8.66634C7.33333 8.47746 7.39733 8.31901 7.52533 8.19101C7.65333 8.06301 7.81156 7.99923 8 7.99968C8.18889 7.99968 8.34733 8.06368 8.47533 8.19168C8.60333 8.31968 8.66711 8.4779 8.66667 8.66634C8.66667 8.85523 8.60267 9.01368 8.47467 9.14168C8.34667 9.26968 8.18845 9.33346 8 9.33301ZM5.33333 9.33301C5.14445 9.33301 4.986 9.26901 4.858 9.14101C4.73 9.01301 4.66622 8.85479 4.66667 8.66634C4.66667 8.47746 4.73067 8.31901 4.85867 8.19101C4.98667 8.06301 5.14489 7.99923 5.33333 7.99968C5.52222 7.99968 5.68067 8.06368 5.80867 8.19168C5.93667 8.31968 6.00045 8.4779 6 8.66634C6 8.85523 5.936 9.01368 5.808 9.14168C5.68 9.26968 5.52178 9.33346 5.33333 9.33301ZM10.6667 9.33301C10.4778 9.33301 10.3193 9.26901 10.1913 9.14101C10.0633 9.01301 9.99956 8.85479 10 8.66634C10 8.47746 10.064 8.31901 10.192 8.19101C10.32 8.06301 10.4782 7.99923 10.6667 7.99968C10.8556 7.99968 11.014 8.06368 11.142 8.19168C11.27 8.31968 11.3338 8.4779 11.3333 8.66634C11.3333 8.85523 11.2693 9.01368 11.1413 9.14168C11.0133 9.26968 10.8551 9.33346 10.6667 9.33301ZM8 11.9997C7.81111 11.9997 7.65267 11.9357 7.52467 11.8077C7.39667 11.6797 7.33289 11.5215 7.33333 11.333C7.33333 11.1441 7.39733 10.9857 7.52533 10.8577C7.65333 10.7297 7.81156 10.6659 8 10.6663C8.18889 10.6663 8.34733 10.7303 8.47533 10.8583C8.60333 10.9863 8.66711 11.1446 8.66667 11.333C8.66667 11.5219 8.60267 11.6803 8.47467 11.8083C8.34667 11.9363 8.18845 12.0001 8 11.9997ZM5.33333 11.9997C5.14445 11.9997 4.986 11.9357 4.858 11.8077C4.73 11.6797 4.66622 11.5215 4.66667 11.333C4.66667 11.1441 4.73067 10.9857 4.85867 10.8577C4.98667 10.7297 5.14489 10.6659 5.33333 10.6663C5.52222 10.6663 5.68067 10.7303 5.80867 10.8583C5.93667 10.9863 6.00045 11.1446 6 11.333C6 11.5219 5.936 11.6803 5.808 11.8083C5.68 11.9363 5.52178 12.0001 5.33333 11.9997ZM10.6667 11.9997C10.4778 11.9997 10.3193 11.9357 10.1913 11.8077C10.0633 11.6797 9.99956 11.5215 10 11.333C10 11.1441 10.064 10.9857 10.192 10.8577C10.32 10.7297 10.4782 10.6659 10.6667 10.6663C10.8556 10.6663 11.014 10.7303 11.142 10.8583C11.27 10.9863 11.3338 11.1446 11.3333 11.333C11.3333 11.5219 11.2693 11.6803 11.1413 11.8083C11.0133 11.9363 10.8551 12.0001 10.6667 11.9997ZM3.33333 14.6663C2.96667 14.6663 2.65267 14.5357 2.39133 14.2743C2.13 14.013 1.99956 13.6992 2 13.333V3.99968C2 3.63301 2.13067 3.31901 2.392 3.05768C2.65333 2.79634 2.96711 2.6659 3.33333 2.66634H4V1.99968C4 1.81079 4.064 1.65234 4.192 1.52434C4.32 1.39634 4.47822 1.33257 4.66667 1.33301C4.85556 1.33301 5.014 1.39701 5.142 1.52501C5.27 1.65301 5.33378 1.81123 5.33333 1.99968V2.66634H10.6667V1.99968C10.6667 1.81079 10.7307 1.65234 10.8587 1.52434C10.9867 1.39634 11.1449 1.33257 11.3333 1.33301C11.5222 1.33301 11.6807 1.39701 11.8087 1.52501C11.9367 1.65301 12.0004 1.81123 12 1.99968V2.66634H12.6667C13.0333 2.66634 13.3473 2.79701 13.6087 3.05834C13.87 3.31968 14.0004 3.63345 14 3.99968V13.333C14 13.6997 13.8693 14.0137 13.608 14.275C13.3467 14.5363 13.0329 14.6668 12.6667 14.6663H3.33333ZM3.33333 13.333H12.6667V6.66634H3.33333V13.333ZM3.33333 5.33301H12.6667V3.99968H3.33333V5.33301Z" fill="#0288D1"/>
</svg>
