<svg width="24" height="24" viewBox="0 0 24 24" fill="none" xmlns="http://www.w3.org/2000/svg">
<rect width="24" height="24" rx="12" fill="white"/>
<path fill-rule="evenodd" clip-rule="evenodd" d="M11.5597 4.80733C9.1737 4.80733 7.2714 6.95102 7.53081 9.31087C7.55484 9.52939 7.49893 9.74921 7.37342 9.9297C7.24791 10.1102 7.06129 10.2391 6.84807 10.2926C6.21121 10.4558 5.65563 10.8455 5.28526 11.3887C4.91489 11.9319 4.75511 12.5914 4.83582 13.2438C4.91652 13.8963 5.23217 14.497 5.72373 14.9336C6.21528 15.3702 6.84906 15.6127 7.50649 15.6158H8.4072C8.64608 15.6158 8.87518 15.7107 9.04409 15.8796C9.21301 16.0486 9.3079 16.2777 9.3079 16.5165C9.3079 16.7554 9.21301 16.9845 9.04409 17.1534C8.87518 17.3223 8.64608 17.4172 8.4072 17.4172H7.50649C6.47132 17.4179 5.46751 17.062 4.66403 16.4093C3.86055 15.7566 3.30644 14.847 3.09498 13.8337C2.88351 12.8203 3.0276 11.7651 3.50298 10.8455C3.97837 9.92597 4.75603 9.19825 5.70507 8.78486C5.72134 7.41932 6.21446 6.10244 7.0991 5.06207C7.98374 4.02171 9.20424 3.32332 10.5494 3.08776C11.8946 2.85221 13.2797 3.0943 14.4653 3.77215C15.6508 4.44999 16.5621 5.52095 17.0414 6.7997C18.3017 7.14728 19.3934 7.93983 20.1143 9.03057C20.8351 10.1213 21.1363 11.4363 20.9619 12.7321C20.7876 14.0278 20.1496 15.2164 19.1661 16.0779C18.1826 16.9393 16.9203 17.4151 15.6129 17.4172C15.374 17.4172 15.1449 17.3223 14.976 17.1534C14.807 16.9845 14.7122 16.7554 14.7122 16.5165C14.7122 16.2777 14.807 16.0486 14.976 15.8796C15.1449 15.7107 15.374 15.6158 15.6129 15.6158C16.5181 15.6172 17.3907 15.2777 18.057 14.665C18.7233 14.0522 19.1346 13.2111 19.209 12.3089C19.2833 11.4068 19.0153 10.5097 18.4583 9.79608C17.9013 9.08251 17.0961 8.60477 16.2028 8.4579C16.0308 8.42946 15.8706 8.3522 15.7413 8.23531C15.6119 8.11842 15.5189 7.96683 15.4732 7.79858C15.2397 6.93954 14.73 6.18121 14.0227 5.64062C13.3154 5.10002 12.4499 4.8072 11.5597 4.80733ZM12.9107 12.3877L14.0754 13.5514C14.1591 13.635 14.2585 13.7013 14.3679 13.7466C14.4772 13.7918 14.5944 13.815 14.7128 13.8149C14.8311 13.8148 14.9483 13.7914 15.0576 13.7461C15.1669 13.7007 15.2662 13.6342 15.3499 13.5505C15.4335 13.4668 15.4998 13.3674 15.545 13.258C15.5902 13.1486 15.6134 13.0314 15.6134 12.9131C15.6133 12.7947 15.5899 12.6775 15.5445 12.5682C15.4991 12.4589 15.4327 12.3596 15.349 12.276L12.8054 9.73691C12.5943 9.52625 12.3082 9.40794 12.01 9.40794C11.7118 9.40794 11.4258 9.52625 11.2147 9.73691L8.6711 12.2769C8.5021 12.4458 8.4071 12.6749 8.40701 12.9138C8.40693 13.1528 8.50176 13.3819 8.67065 13.551C8.83954 13.72 9.06866 13.815 9.30759 13.815C9.54652 13.8151 9.7757 13.7203 9.94471 13.5514L11.1093 12.3877V20.1194C11.1093 20.3582 11.2042 20.5873 11.3731 20.7563C11.542 20.9252 11.7711 21.0201 12.01 21.0201C12.2489 21.0201 12.478 20.9252 12.6469 20.7563C12.8158 20.5873 12.9107 20.3582 12.9107 20.1194V12.3877Z" fill="url(#paint0_linear_1168_29920)"/>
<defs>
<linearGradient id="paint0_linear_1168_29920" x1="12.0051" y1="3" x2="12.0051" y2="21.0201" gradientUnits="userSpaceOnUse">
<stop stop-color="#3EB9FF"/>
<stop offset="1" stop-color="#59E1FF"/>
</linearGradient>
</defs>
</svg>
