<svg width="50" height="50" viewBox="0 0 50 50" fill="none" xmlns="http://www.w3.org/2000/svg">
<g id="Frame">
<rect width="50" height="50" rx="25" fill="#43D540"/>
<g id="Vector">
<path d="M12 30.5H38V32.3333H12V30.5ZM12 34.1667H38V36H12V34.1667ZM32.4286 19.5C32.0613 19.5 31.7022 19.6075 31.3968 19.809C31.0914 20.0104 30.8534 20.2967 30.7128 20.6317C30.5722 20.9667 30.5355 21.3354 30.6071 21.691C30.6788 22.0466 30.8556 22.3733 31.1154 22.6297C31.3751 22.8861 31.706 23.0607 32.0663 23.1314C32.4265 23.2022 32.7999 23.1659 33.1393 23.0271C33.4786 22.8884 33.7687 22.6534 33.9727 22.3519C34.1768 22.0504 34.2857 21.6959 34.2857 21.3333C34.2857 20.8471 34.09 20.3808 33.7418 20.037C33.3935 19.6932 32.9211 19.5 32.4286 19.5ZM25 25C24.2654 25 23.5473 24.785 22.9365 24.3821C22.3256 23.9792 21.8496 23.4065 21.5684 22.7365C21.2873 22.0665 21.2138 21.3293 21.3571 20.618C21.5004 19.9067 21.8542 19.2534 22.3736 18.7406C22.8931 18.2278 23.5549 17.8786 24.2754 17.7371C24.9959 17.5956 25.7427 17.6683 26.4214 17.9458C27.1001 18.2233 27.6802 18.6933 28.0883 19.2962C28.4964 19.8992 28.7143 20.6081 28.7143 21.3333C28.7131 22.3054 28.3213 23.2373 27.625 23.9247C26.9287 24.6121 25.9847 24.9988 25 25ZM25 19.5C24.6327 19.5 24.2736 19.6075 23.9682 19.809C23.6628 20.0104 23.4248 20.2967 23.2842 20.6317C23.1437 20.9667 23.1069 21.3354 23.1785 21.691C23.2502 22.0466 23.4271 22.3733 23.6868 22.6297C23.9465 22.8861 24.2774 23.0607 24.6377 23.1314C24.9979 23.2022 25.3713 23.1659 25.7107 23.0271C26.05 22.8884 26.3401 22.6534 26.5442 22.3519C26.7482 22.0504 26.8571 21.6959 26.8571 21.3333C26.8567 20.8473 26.6608 20.3812 26.3127 20.0375C25.9645 19.6938 25.4924 19.5005 25 19.5ZM17.5714 19.5C17.2041 19.5 16.8451 19.6075 16.5397 19.809C16.2342 20.0104 15.9962 20.2967 15.8557 20.6317C15.7151 20.9667 15.6783 21.3354 15.75 21.691C15.8216 22.0466 15.9985 22.3733 16.2582 22.6297C16.518 22.8861 16.8489 23.0607 17.2091 23.1314C17.5694 23.2022 17.9428 23.1659 18.2821 23.0271C18.6215 22.8884 18.9115 22.6534 19.1156 22.3519C19.3197 22.0504 19.4286 21.6959 19.4286 21.3333C19.4286 20.8471 19.2329 20.3808 18.8846 20.037C18.5363 19.6932 18.064 19.5 17.5714 19.5Z" fill="white"/>
<path d="M36.1429 28.6667H13.8571C13.365 28.6655 12.8933 28.4719 12.5453 28.1284C12.1973 27.7848 12.0012 27.3192 12 26.8333V15.8333C12.0012 15.3475 12.1973 14.8819 12.5453 14.5383C12.8933 14.1948 13.365 14.0012 13.8571 14H36.1429C36.635 14.0012 37.1067 14.1948 37.4547 14.5383C37.8027 14.8819 37.9988 15.3475 38 15.8333V26.8333C37.9993 27.3193 37.8034 27.7852 37.4552 28.1289C37.1071 28.4726 36.6352 28.6659 36.1429 28.6667ZM36.1429 15.8333H13.8571V26.8333H36.1429V15.8333Z" fill="white"/>
</g>
</g>
</svg>
