<svg width="20" height="20" viewBox="0 0 20 20" fill="none" xmlns="http://www.w3.org/2000/svg">
<path d="M4.5 15.625C4.12188 15.625 3.79806 15.4872 3.52856 15.2116C3.25906 14.9359 3.12454 14.605 3.125 14.2187V5.78125C3.125 5.39453 3.25975 5.06336 3.52925 4.78774C3.79875 4.51211 4.12233 4.37453 4.5 4.375H15.5C15.8781 4.375 16.2019 4.51281 16.4714 4.78844C16.7409 5.06406 16.8755 5.395 16.875 5.78125V14.2187C16.875 14.6055 16.7402 14.9366 16.4707 15.2123C16.2012 15.4879 15.8777 15.6255 15.5 15.625H4.5ZM15.5 7.1875L10.3609 10.4746C10.3036 10.5098 10.2434 10.5362 10.1801 10.5541C10.1169 10.5719 10.0568 10.5805 10 10.5801C9.94271 10.5801 9.88244 10.5714 9.81919 10.5541C9.75594 10.5367 9.6959 10.5102 9.63906 10.4746L4.5 7.1875V14.2187H15.5V7.1875ZM10 9.29688L15.5 5.78125H4.5L10 9.29688ZM4.5 7.36328V6.32617V6.34375V6.33531V7.36328Z" fill="#0288D1"/>
</svg>
