<svg width="20" height="20" viewBox="0 0 20 20" fill="none" xmlns="http://www.w3.org/2000/svg">
<path d="M9.6875 15.5953C11.1966 14.2536 12.3161 13.0346 13.0459 11.9383C13.7757 10.842 14.1406 9.86879 14.1406 9.01875C14.1406 7.71302 13.7107 6.644 12.8507 5.81169C11.9908 4.97937 10.9364 4.56298 9.6875 4.5625C8.43815 4.5625 7.3835 4.9789 6.52355 5.81169C5.66361 6.64448 5.23388 7.7135 5.23438 9.01875C5.23438 9.86927 5.59928 10.8427 6.3291 11.939C7.05892 13.0354 8.17839 14.2541 9.6875 15.5953ZM9.6875 17.5C7.69596 15.8589 6.20862 14.3346 5.22547 12.9273C4.24232 11.52 3.75049 10.2171 3.75 9.01875C3.75 7.22187 4.34697 5.79036 5.5409 4.72422C6.73483 3.65807 8.11703 3.125 9.6875 3.125C11.2585 3.125 12.6409 3.65807 13.8348 4.72422C15.0288 5.79036 15.6255 7.22187 15.625 9.01875C15.625 10.2167 15.1332 11.5195 14.1495 12.9273C13.1659 14.3351 11.6785 15.8593 9.6875 17.5ZM7.46094 11.0312H8.94531V9.05469H10.4297V11.0312H11.9141V7.61719L9.6875 6.17969L7.46094 7.61719V11.0312Z" fill="#1E88E5"/>
</svg>
