<svg width="24" height="24" viewBox="0 0 24 24" fill="none" xmlns="http://www.w3.org/2000/svg">
<path d="M13.8182 10.1464V8.66355C14.3182 8.46002 14.8297 8.30737 15.3527 8.20561C15.8758 8.10384 16.4248 8.05296 17 8.05296C17.3939 8.05296 17.7803 8.08204 18.1591 8.14019C18.5379 8.19834 18.9091 8.27103 19.2727 8.35826V9.75389C18.9091 9.62305 18.5415 9.52478 18.17 9.45907C17.7985 9.39335 17.4085 9.36079 17 9.36137C16.4242 9.36137 15.8712 9.43057 15.3409 9.56897C14.8106 9.70737 14.303 9.89985 13.8182 10.1464ZM13.8182 14.9439V13.4611C14.3182 13.2575 14.8297 13.1049 15.3527 13.0031C15.8758 12.9014 16.4248 12.8505 17 12.8505C17.3939 12.8505 17.7803 12.8795 18.1591 12.9377C18.5379 12.9958 18.9091 13.0685 19.2727 13.1558V14.5514C18.9091 14.4206 18.5415 14.3223 18.17 14.2566C17.7985 14.1909 17.4085 14.1583 17 14.1589C16.4242 14.1589 15.8712 14.2243 15.3409 14.3551C14.8106 14.486 14.303 14.6822 13.8182 14.9439ZM13.8182 12.5452V11.0623C14.3182 10.8588 14.8297 10.7061 15.3527 10.6044C15.8758 10.5026 16.4248 10.4517 17 10.4517C17.3939 10.4517 17.7803 10.4808 18.1591 10.5389C18.5379 10.5971 18.9091 10.6698 19.2727 10.757V12.1526C18.9091 12.0218 18.5415 11.9235 18.17 11.8578C17.7985 11.7921 17.4085 11.7595 17 11.7601C16.4242 11.7601 15.8712 11.8293 15.3409 11.9677C14.8106 12.1061 14.303 12.2986 13.8182 12.5452ZM7 15.4673C7.71212 15.4673 8.40545 15.5438 9.08 15.6967C9.75455 15.8496 10.4248 16.0785 11.0909 16.3832V7.79128C10.4697 7.44237 9.81061 7.18069 9.11364 7.00623C8.41667 6.83178 7.71212 6.74455 7 6.74455C6.45455 6.74455 5.91273 6.79543 5.37455 6.8972C4.83636 6.99896 4.31758 7.15161 3.81818 7.35514V15.9907C4.34848 15.8162 4.87515 15.6854 5.39818 15.5981C5.92121 15.5109 6.45515 15.4673 7 15.4673ZM12.9091 16.3832C13.5758 16.0779 14.2461 15.8488 14.92 15.6958C15.5939 15.5429 16.2873 15.4667 17 15.4673C17.5455 15.4673 18.0797 15.5109 18.6027 15.5981C19.1258 15.6854 19.6521 15.8162 20.1818 15.9907V7.35514C19.6818 7.15161 19.1627 6.99896 18.6245 6.8972C18.0864 6.79543 17.5448 6.74455 17 6.74455C16.2879 6.74455 15.5833 6.83178 14.8864 7.00623C14.1894 7.18069 13.5303 7.44237 12.9091 7.79128V16.3832ZM12 18.9564C11.2727 18.4039 10.4848 17.9751 9.63636 17.6698C8.78788 17.3645 7.90909 17.2118 7 17.2118C6.19697 17.2118 5.35606 17.3572 4.47727 17.648C3.59848 17.9387 2.77273 18.3894 2 19V6.35203C2.66667 5.91589 3.45091 5.58152 4.35273 5.34891C5.25455 5.1163 6.13697 5 7 5C7.87879 5 8.73879 5.10903 9.58 5.3271C10.4212 5.54517 11.2279 5.87227 12 6.30841C12.7727 5.87227 13.5797 5.54517 14.4209 5.3271C15.2621 5.10903 16.1218 5 17 5C17.8636 5 18.7464 5.1163 19.6482 5.34891C20.55 5.58152 21.3339 5.91589 22 6.35203V19C21.2424 18.3894 20.4203 17.9387 19.5336 17.648C18.647 17.3572 17.8024 17.2118 17 17.2118C16.0909 17.2118 15.2121 17.3645 14.3636 17.6698C13.5152 17.9751 12.7273 18.4039 12 18.9564Z" fill="#0288D1"/>
</svg>
