<svg width="24" height="24" viewBox="0 0 24 24" fill="none" xmlns="http://www.w3.org/2000/svg">
<g id="Frame">
<path id="Vector" d="M13.125 19.2996L19.725 12.6996C19.825 12.5996 19.896 12.4912 19.938 12.3746C19.98 12.2579 20.0007 12.1329 20 11.9996C20 11.8662 19.979 11.7412 19.937 11.6246C19.895 11.5079 19.8243 11.3996 19.725 11.2996L13.125 4.69957C12.9417 4.51624 12.7123 4.42057 12.437 4.41257C12.1617 4.40457 11.9243 4.50024 11.725 4.69957C11.525 4.88291 11.4207 5.11224 11.412 5.38757C11.4033 5.66291 11.4993 5.90024 11.7 6.09957L16.6 10.9996H5.42498C5.14165 10.9996 4.90399 11.0956 4.71198 11.2876C4.51998 11.4796 4.42432 11.7169 4.42498 11.9996C4.42498 12.2829 4.52065 12.5206 4.71198 12.7126C4.90332 12.9046 5.14098 13.0002 5.42498 12.9996H16.6L11.7 17.8996C11.5167 18.0829 11.4207 18.3162 11.412 18.5996C11.4033 18.8829 11.4993 19.1162 11.7 19.2996C11.8833 19.4996 12.1167 19.5996 12.4 19.5996C12.6833 19.5996 12.925 19.4996 13.125 19.2996Z" fill="white"/>
</g>
</svg>
