<svg width="15" height="14" viewBox="0 0 15 14" fill="none" xmlns="http://www.w3.org/2000/svg">
<path d="M7.49989 12.5555C6.80545 12.5555 6.15489 12.4235 5.54823 12.1594C4.94156 11.8953 4.41378 11.539 3.96489 11.0905C3.516 10.6413 3.15971 10.1135 2.896 9.5072C2.6323 8.9009 2.50026 8.25034 2.49989 7.55553C2.49989 6.86108 2.63193 6.21053 2.896 5.60386C3.16008 4.9972 3.51637 4.46942 3.96489 4.02053C4.41415 3.57164 4.94193 3.21534 5.54823 2.95164C6.15452 2.68794 6.80508 2.5559 7.49989 2.55553C8.19434 2.55553 8.84489 2.68757 9.45156 2.95164C10.0582 3.21571 10.586 3.5722 11.0349 4.02108C11.4838 4.46997 11.8403 4.99775 12.1043 5.60442C12.3684 6.21108 12.5003 6.86145 12.4999 7.55553C12.4999 8.24997 12.3679 8.90053 12.1038 9.5072C11.8397 10.1139 11.4834 10.6416 11.0349 11.0905C10.5856 11.5394 10.0579 11.8959 9.45156 12.16C8.84526 12.424 8.19471 12.5559 7.49989 12.5555ZM6.94434 5.33331V7.54164C6.94434 7.61571 6.95823 7.68757 6.986 7.7572C7.01378 7.82682 7.05545 7.88923 7.111 7.94442L8.68045 9.51386C8.7823 9.61571 8.9073 9.66664 9.05545 9.66664C9.2036 9.66664 9.33323 9.61108 9.44434 9.49997C9.54619 9.39812 9.59711 9.26849 9.59711 9.11108C9.59711 8.95368 9.54619 8.82405 9.44434 8.7222L8.05545 7.33331V5.31942C8.05545 5.16201 8.00211 5.03238 7.89545 4.93053C7.78878 4.82868 7.65693 4.77775 7.49989 4.77775C7.34248 4.77775 7.21045 4.83108 7.10378 4.93775C6.99711 5.04442 6.94397 5.17627 6.94434 5.33331ZM2.736 4.40275C2.63415 4.5046 2.50915 4.55553 2.361 4.55553C2.21285 4.55553 2.08322 4.49997 1.97211 4.38886C1.87026 4.28701 1.81934 4.15738 1.81934 3.99997C1.81934 3.84257 1.87026 3.71294 1.97211 3.61108L3.56934 2.01386C3.67119 1.91201 3.79619 1.86108 3.94434 1.86108C4.09248 1.86108 4.22211 1.91664 4.33322 2.02775C4.43508 2.1296 4.486 2.25923 4.486 2.41664C4.486 2.57405 4.43508 2.70368 4.33322 2.80553L2.736 4.40275ZM12.2499 4.38886L10.6527 2.79164C10.5508 2.68979 10.4999 2.56479 10.4999 2.41664C10.4999 2.26849 10.5554 2.13886 10.6666 2.02775C10.7684 1.9259 10.898 1.87497 11.0554 1.87497C11.2129 1.87497 11.3425 1.9259 11.4443 2.02775L13.0416 3.62497C13.1434 3.72682 13.1943 3.85182 13.1943 3.99997C13.1943 4.14812 13.1388 4.27775 13.0277 4.38886C12.9258 4.49071 12.7962 4.54164 12.6388 4.54164C12.4814 4.54164 12.3517 4.49071 12.2499 4.38886ZM7.49989 11.4444C8.58323 11.4444 9.5023 11.067 10.2571 10.3122C11.0119 9.55738 11.3892 8.63849 11.3888 7.55553C11.3888 6.4722 11.0114 5.55312 10.2566 4.79831C9.50174 4.04349 8.58285 3.66627 7.49989 3.66664C6.41656 3.66664 5.49748 4.04405 4.74267 4.79886C3.98785 5.55368 3.61063 6.47257 3.611 7.55553C3.611 8.63886 3.98841 9.55794 4.74322 10.3128C5.49804 11.0676 6.41693 11.4448 7.49989 11.4444Z" fill="#323232"/>
</svg>
