<svg width="25" height="24" viewBox="0 0 25 24" fill="none" xmlns="http://www.w3.org/2000/svg">
<g id="Frame 41168">
<path id="Vector" d="M11.2888 2.21385C11.7184 1.92872 12.2807 1.92872 12.7102 2.21385L13.4053 2.67085C13.6396 2.82319 13.913 2.8974 14.1902 2.88178L15.022 2.831C15.5374 2.79975 16.0217 3.08098 16.252 3.54189L16.6269 4.28793C16.7519 4.53792 16.9549 4.73712 17.201 4.86211L17.9546 5.241C18.4154 5.47145 18.6966 5.95579 18.6653 6.47138L18.6145 7.30336C18.5989 7.58068 18.6731 7.85801 18.8254 8.08846L19.2862 8.78373C19.5713 9.21339 19.5713 9.77585 19.2862 10.2055L18.8254 10.9047C18.6731 11.139 18.5989 11.4125 18.6145 11.6898L18.6653 12.5218C18.6966 13.0374 18.4154 13.5217 17.9546 13.7521L17.2088 14.1271C16.9588 14.2521 16.7597 14.4552 16.6347 14.7013L16.256 15.4552C16.0256 15.9161 15.5413 16.1973 15.0259 16.1661L14.1941 16.1153C13.9169 16.0996 13.6396 16.1739 13.4092 16.3262L12.7142 16.7871C12.2846 17.0722 11.7223 17.0722 11.2927 16.7871L10.5938 16.3262C10.3595 16.1739 10.0861 16.0996 9.80886 16.1153L8.97711 16.1661C8.46165 16.1973 7.97744 15.9161 7.74704 15.4552L7.37217 14.7091C7.24721 14.4591 7.04415 14.2599 6.79814 14.1349L6.04448 13.7561C5.58369 13.5256 5.30254 13.0413 5.33378 12.5257L5.38454 11.6937C5.40016 11.4164 5.32597 11.139 5.17367 10.9086L4.71679 10.2094C4.43173 9.77976 4.43173 9.21729 4.71679 8.78763L5.17367 8.09237C5.32597 7.85801 5.40016 7.58459 5.38454 7.30726L5.33378 6.47529C5.30254 5.9597 5.58369 5.47535 6.04448 5.2449L6.79033 4.86993C7.04024 4.74103 7.2433 4.53792 7.36826 4.28793L7.74314 3.54189C7.97353 3.08098 8.45775 2.79975 8.9732 2.831L9.80496 2.88178C10.0822 2.8974 10.3595 2.82319 10.5899 2.67085L11.2888 2.21385ZM15.1235 9.49853C15.1235 8.66978 14.7944 7.87498 14.2085 7.28896C13.6227 6.70295 12.8281 6.37373 11.9995 6.37373C11.171 6.37373 10.3764 6.70295 9.79057 7.28896C9.20471 7.87498 8.87558 8.66978 8.87558 9.49853C8.87558 10.3273 9.20471 11.1221 9.79057 11.7081C10.3764 12.2941 11.171 12.6233 11.9995 12.6233C12.8281 12.6233 13.6227 12.2941 14.2085 11.7081C14.7944 11.1221 15.1235 10.3273 15.1235 9.49853ZM4.55278 19.2557L6.23582 15.252C6.24363 15.256 6.24754 15.2599 6.25144 15.2677L6.62632 16.0137C7.0832 16.9199 8.0321 17.4707 9.04739 17.4121L9.87915 17.3613C9.88696 17.3613 9.89868 17.3613 9.90649 17.3691L10.6016 17.83C10.8007 17.9589 11.0116 18.0605 11.2303 18.1308L9.762 21.6188C9.67219 21.8336 9.47304 21.9782 9.24264 21.9977C9.01225 22.0172 8.78967 21.9118 8.66471 21.7165L7.40731 19.7908L5.21663 20.115C4.99404 20.1463 4.77146 20.0564 4.63088 19.8806C4.4903 19.7049 4.46297 19.4627 4.54888 19.2557H4.55278ZM14.2371 21.6149L12.7688 18.1308C12.9875 18.0605 13.1984 17.9628 13.3975 17.83L14.0926 17.3691C14.1004 17.3652 14.1082 17.3613 14.1199 17.3613L14.9517 17.4121C15.967 17.4707 16.9159 16.9199 17.3728 16.0137L17.7476 15.2677C17.7516 15.2599 17.7555 15.256 17.7633 15.252L19.4502 19.2557C19.5361 19.4627 19.5049 19.701 19.3682 19.8806C19.2315 20.0603 19.005 20.1502 18.7825 20.115L16.5918 19.7908L15.3344 21.7126C15.2094 21.9079 14.9868 22.0133 14.7564 21.9938C14.5261 21.9743 14.3269 21.8258 14.2371 21.6149Z" fill="#525252"/>
</g>
</svg>
