<svg width="25" height="24" viewBox="0 0 25 24" fill="none" xmlns="http://www.w3.org/2000/svg">
<g id="Frame">
<path id="Vector" d="M5.8 19.2C5.305 19.2 4.8811 19.0236 4.5283 18.6708C4.1755 18.318 3.9994 17.8944 4 17.4V4.8C4 4.305 4.1764 3.8811 4.5292 3.5283C4.882 3.1755 5.3056 2.9994 5.8 3H18.4C18.895 3 19.3189 3.1764 19.6717 3.5292C20.0245 3.882 20.2006 4.3056 20.2 4.8V10.83C19.915 10.695 19.6225 10.5786 19.3225 10.4808C19.0225 10.383 18.715 10.3119 18.4 10.2675V4.8H5.8V17.4H11.245C11.29 17.73 11.3614 18.045 11.4592 18.345C11.557 18.645 11.6731 18.93 11.8075 19.2H5.8ZM5.8 16.5V17.4V4.8V10.2675V10.2V16.5ZM7.6 15.6H11.2675C11.3125 15.285 11.3839 14.9775 11.4817 14.6775C11.5795 14.3775 11.6881 14.085 11.8075 13.8H7.6V15.6ZM7.6 12H13.09C13.57 11.55 14.1064 11.175 14.6992 10.875C15.292 10.575 15.9256 10.3725 16.6 10.2675V10.2H7.6V12ZM7.6 8.4H16.6V6.6H7.6V8.4ZM17.5 21C16.255 21 15.1936 20.5611 14.3158 19.6833C13.438 18.8055 12.9994 17.7444 13 16.5C13 15.255 13.4389 14.1936 14.3167 13.3158C15.1945 12.438 16.2556 11.9994 17.5 12C18.745 12 19.8064 12.4389 20.6842 13.3167C21.562 14.1945 22.0006 15.2556 22 16.5C22 17.745 21.5611 18.8064 20.6833 19.6842C19.8055 20.562 18.7444 21.0006 17.5 21ZM17.05 19.2H17.95V16.95H20.2V16.05H17.95V13.8H17.05V16.05H14.8V16.95H17.05V19.2Z" fill="currentColor"/>
</g>
</svg>
