<svg width="61" height="60" viewBox="0 0 61 60" fill="none" xmlns="http://www.w3.org/2000/svg">
<g clip-path="url(#clip0_971_25429)">
<path fill-rule="evenodd" clip-rule="evenodd" d="M29.2504 10.0008C22.6279 10.0008 17.3479 15.9508 18.0679 22.5008C18.1346 23.1073 17.9794 23.7175 17.631 24.2184C17.2827 24.7194 16.7647 25.0772 16.1729 25.2258C14.4052 25.6788 12.8631 26.7603 11.8351 28.2679C10.8072 29.7756 10.3637 31.6062 10.5877 33.4171C10.8117 35.2281 11.6878 36.8955 13.0522 38.1072C14.4165 39.319 16.1756 39.9922 18.0004 40.0008H20.5004C21.1634 40.0008 21.7993 40.2642 22.2681 40.733C22.737 41.2019 23.0004 41.8378 23.0004 42.5008C23.0004 43.1638 22.737 43.7997 22.2681 44.2686C21.7993 44.7374 21.1634 45.0008 20.5004 45.0008H18.0004C15.1272 45.0027 12.341 44.0147 10.1109 42.2031C7.88072 40.3915 6.34274 37.8669 5.7558 35.0543C5.16886 32.2417 5.56878 29.3127 6.88826 26.7604C8.20774 24.2081 10.3662 22.1882 13.0004 21.0408C13.0455 17.2506 14.4142 13.5955 16.8696 10.7079C19.325 7.82022 22.7126 5.88179 26.4463 5.22797C30.1799 4.57416 34.0246 5.24611 37.3151 7.12754C40.6057 9.00897 43.135 11.9815 44.4654 15.5308C47.9636 16.4955 50.9937 18.6953 52.9945 21.7228C54.9953 24.7502 55.8311 28.4002 55.3472 31.9966C54.8634 35.5931 53.0926 38.8923 50.3628 41.2833C47.633 43.6742 44.1292 44.995 40.5004 45.0008C39.8373 45.0008 39.2015 44.7374 38.7326 44.2686C38.2638 43.7997 38.0004 43.1638 38.0004 42.5008C38.0004 41.8378 38.2638 41.2019 38.7326 40.733C39.2015 40.2642 39.8373 40.0008 40.5004 40.0008C43.0129 40.0046 45.4349 39.0624 47.2843 37.3617C49.1338 35.6609 50.2753 33.3263 50.4817 30.8222C50.6881 28.3182 49.9442 25.8281 48.3982 23.8475C46.8521 21.867 44.6172 20.5409 42.1379 20.1333C41.6605 20.0544 41.2158 19.8399 40.8568 19.5155C40.4978 19.191 40.2396 18.7703 40.1129 18.3033C39.4647 15.9189 38.0499 13.8141 36.0868 12.3137C34.1236 10.8132 31.7213 10.0004 29.2504 10.0008ZM33.0004 31.0408L36.2329 34.2708C36.4653 34.5029 36.7412 34.687 37.0448 34.8125C37.3483 34.9379 37.6737 35.0024 38.0021 35.0022C38.3306 35.002 38.6559 34.937 38.9593 34.8111C39.2626 34.6852 39.5383 34.5007 39.7704 34.2683C40.0025 34.0359 40.1865 33.76 40.312 33.4564C40.4375 33.1528 40.502 32.8275 40.5018 32.499C40.5015 32.1705 40.4366 31.8453 40.3107 31.5419C40.1848 31.2385 40.0003 30.9629 39.7679 30.7308L32.7079 23.6833C32.122 23.0986 31.3281 22.7702 30.5004 22.7702C29.6727 22.7702 28.8787 23.0986 28.2929 23.6833L21.2329 30.7333C20.7638 31.2021 20.5001 31.838 20.4999 32.5012C20.4996 33.1643 20.7629 33.8004 21.2316 34.2695C21.7004 34.7387 22.3363 35.0023 22.9995 35.0026C23.6627 35.0028 24.2988 34.7396 24.7679 34.2708L28.0004 31.0408V52.5008C28.0004 53.1638 28.2638 53.7997 28.7326 54.2686C29.2015 54.7374 29.8373 55.0008 30.5004 55.0008C31.1634 55.0008 31.7993 54.7374 32.2681 54.2686C32.737 53.7997 33.0004 53.1638 33.0004 52.5008V31.0408Z" fill="url(#paint0_linear_971_25429)"/>
</g>
<defs>
<linearGradient id="paint0_linear_971_25429" x1="30.4867" y1="4.98437" x2="30.4867" y2="55.0008" gradientUnits="userSpaceOnUse">
<stop stop-color="#3EB9FF"/>
<stop offset="1" stop-color="#59E1FF"/>
</linearGradient>
<clipPath id="clip0_971_25429">
<rect width="60" height="60" fill="white" transform="translate(0.5)"/>
</clipPath>
</defs>
</svg>
