<svg width="162" height="162" viewBox="0 0 162 162" fill="none" xmlns="http://www.w3.org/2000/svg">
<g id="Icon/verified">
<path id="Vector" d="M64.3091 135L54.9818 118.543L37.3091 114.429L39.0273 95.4L27 81L39.0273 66.6L37.3091 47.5714L54.9818 43.4571L64.3091 27L81 34.4571L97.6909 27L107.018 43.4571L124.691 47.5714L122.973 66.6L135 81L122.973 95.4L124.691 114.429L107.018 118.543L97.6909 135L81 127.543L64.3091 135ZM68.4818 121.886L81 116.229L93.7636 121.886L100.636 109.543L114.136 106.2L112.909 91.8L121.991 81L112.909 69.9429L114.136 55.5429L100.636 52.4571L93.5182 40.1143L81 45.7714L68.2364 40.1143L61.3636 52.4571L47.8636 55.5429L49.0909 69.9429L40.0091 81L49.0909 91.8L47.8636 106.457L61.3636 109.543L68.4818 121.886ZM75.8455 99.2571L103.582 70.2L96.7091 62.7429L75.8455 84.6L65.2909 73.8L58.4182 81L75.8455 99.2571Z" fill="#009C10"/>
</g>
</svg>
