<svg width="90" height="90" viewBox="0 0 90 90" fill="none" xmlns="http://www.w3.org/2000/svg">
<g id="Icon/verified">
<path id="Vector" d="M35.7273 75L30.5455 65.8571L20.7273 63.5714L21.6818 53L15 45L21.6818 37L20.7273 26.4286L30.5455 24.1429L35.7273 15L45 19.1429L54.2727 15L59.4545 24.1429L69.2727 26.4286L68.3182 37L75 45L68.3182 53L69.2727 63.5714L59.4545 65.8571L54.2727 75L45 70.8571L35.7273 75ZM38.0455 67.7143L45 64.5714L52.0909 67.7143L55.9091 60.8571L63.4091 59L62.7273 51L67.7727 45L62.7273 38.8571L63.4091 30.8571L55.9091 29.1429L51.9545 22.2857L45 25.4286L37.9091 22.2857L34.0909 29.1429L26.5909 30.8571L27.2727 38.8571L22.2273 45L27.2727 51L26.5909 59.1429L34.0909 60.8571L38.0455 67.7143ZM42.1364 55.1429L57.5455 39L53.7273 34.8571L42.1364 47L36.2727 41L32.4545 45L42.1364 55.1429Z" fill="#009C10"/>
</g>
</svg>
