<svg width="16" height="17" viewBox="0 0 16 17" fill="none" xmlns="http://www.w3.org/2000/svg">
<g id="Icon/Tooltip">
<path id="Vector" d="M8 10.8667L8 8.2M8 2.5C8.78793 2.5 9.56815 2.65519 10.2961 2.95672C11.0241 3.25825 11.6855 3.70021 12.2426 4.25736C12.7998 4.81451 13.2417 5.47595 13.5433 6.2039C13.8448 6.93185 14 7.71207 14 8.5C14 9.28793 13.8448 10.0681 13.5433 10.7961C13.2417 11.5241 12.7998 12.1855 12.2426 12.7426C11.6855 13.2998 11.0241 13.7417 10.2961 14.0433C9.56815 14.3448 8.78793 14.5 8 14.5C6.4087 14.5 4.88258 13.8679 3.75736 12.7426C2.63214 11.6174 2 10.0913 2 8.5C2 6.9087 2.63214 5.38258 3.75736 4.25736C4.88258 3.13214 6.4087 2.5 8 2.5ZM7.96667 6.2L7.96667 6.13333L8.03333 6.13333L8.03333 6.2L7.96667 6.2Z" stroke="#323232" stroke-linecap="round" stroke-linejoin="round"/>
</g>
</svg>
