<svg width="32" height="32" viewBox="0 0 32 32" fill="none" xmlns="http://www.w3.org/2000/svg">
<g clip-path="url(#clip0_1367_27662)">
<path d="M16.5 14V15.8382M12.75 15.8382L14.13 17.0809M12 19.8824L13.815 19.2206M14.5425 23L15.375 21.3529M20.25 15.8382L18.87 17.0809M21 19.8824L19.185 19.2206M18.4575 23L17.625 21.3529" stroke="#525252" stroke-width="1.5" stroke-linecap="round" stroke-linejoin="round"/>
<path d="M26.667 4C27.3398 3.99979 27.9877 4.25388 28.4811 4.71133C28.9744 5.16878 29.2765 5.79579 29.327 6.46667L29.3337 6.66667V12H28.0003V25.3333C28.0005 26.0061 27.7465 26.6541 27.289 27.1474C26.8315 27.6407 26.2045 27.9429 25.5337 27.9933L25.3337 28H6.66699C5.99422 28.0002 5.34624 27.7461 4.85293 27.2887C4.35962 26.8312 4.05745 26.2042 4.00699 25.5333L4.00033 25.3333V12H2.66699V6.66667C2.66678 5.9939 2.92087 5.34591 3.37832 4.8526C3.83578 4.35929 4.46279 4.05712 5.13366 4.00667L5.33366 4H26.667ZM25.3337 12H6.66699V25.3333H25.3337V12ZM26.667 6.66667H5.33366V9.33333H26.667V6.66667Z" fill="#525252"/>
</g>
<defs>
<clipPath id="clip0_1367_27662">
<rect width="32" height="32" fill="white"/>
</clipPath>
</defs>
</svg>
