<svg width="25" height="24" viewBox="0 0 25 24" fill="none" xmlns="http://www.w3.org/2000/svg">
<g id="Frame" clip-path="url(#clip0_81_20780)">
<path id="Vector" d="M14.7501 7.50006C14.7501 7.2017 14.8686 6.91555 15.0796 6.70457C15.2906 6.49359 15.5767 6.37506 15.8751 6.37506H23.3751C23.6735 6.37506 23.9596 6.49359 24.1706 6.70457C24.3816 6.91555 24.5001 7.2017 24.5001 7.50006C24.5001 7.79843 24.3816 8.08458 24.1706 8.29556C23.9596 8.50654 23.6735 8.62506 23.3751 8.62506H15.8751C15.5767 8.62506 15.2906 8.50654 15.0796 8.29556C14.8686 8.08458 14.7501 7.79843 14.7501 7.50006ZM23.3751 10.8751H15.8751C15.5767 10.8751 15.2906 10.9936 15.0796 11.2046C14.8686 11.4155 14.7501 11.7017 14.7501 12.0001C14.7501 12.2984 14.8686 12.5846 15.0796 12.7956C15.2906 13.0065 15.5767 13.1251 15.8751 13.1251H23.3751C23.6735 13.1251 23.9596 13.0065 24.1706 12.7956C24.3816 12.5846 24.5001 12.2984 24.5001 12.0001C24.5001 11.7017 24.3816 11.4155 24.1706 11.2046C23.9596 10.9936 23.6735 10.8751 23.3751 10.8751ZM23.3751 15.3751H18.1251C17.8267 15.3751 17.5406 15.4936 17.3296 15.7046C17.1186 15.9155 17.0001 16.2017 17.0001 16.5001C17.0001 16.7984 17.1186 17.0846 17.3296 17.2956C17.5406 17.5065 17.8267 17.6251 18.1251 17.6251H23.3751C23.6735 17.6251 23.9596 17.5065 24.1706 17.2956C24.3816 17.0846 24.5001 16.7984 24.5001 16.5001C24.5001 16.2017 24.3816 15.9155 24.1706 15.7046C23.9596 15.4936 23.6735 15.3751 23.3751 15.3751ZM15.0895 17.7188C15.1264 17.8619 15.1348 18.0108 15.1142 18.1571C15.0936 18.3034 15.0443 18.4442 14.9693 18.5715C14.8942 18.6988 14.7949 18.81 14.6768 18.8989C14.5588 18.9878 14.4244 19.0525 14.2813 19.0894C14.1383 19.1264 13.9894 19.1348 13.8431 19.1141C13.6967 19.0935 13.5559 19.0443 13.4287 18.9692C13.3014 18.8942 13.1901 18.7948 13.1013 18.6768C13.0124 18.5588 12.9477 18.4244 12.9107 18.2813C12.3745 16.1973 10.2632 14.6251 8.0001 14.6251C5.73697 14.6251 3.62572 16.1963 3.08947 18.2813C3.05254 18.4244 2.98779 18.5588 2.89892 18.6768C2.81005 18.7948 2.6988 18.8942 2.57153 18.9692C2.44425 19.0443 2.30344 19.0935 2.15714 19.1141C2.01084 19.1348 1.8619 19.1264 1.71885 19.0894C1.57579 19.0525 1.4414 18.9878 1.32337 18.8989C1.20533 18.81 1.10596 18.6988 1.03092 18.5715C0.955876 18.4442 0.906638 18.3034 0.886014 18.1571C0.865391 18.0108 0.873786 17.8619 0.91072 17.7188C1.4151 15.7594 2.79416 14.1413 4.57728 13.2188C3.88838 12.5399 3.417 11.6714 3.22311 10.7238C3.02922 9.77624 3.12159 8.7924 3.48846 7.89746C3.85533 7.00252 4.48013 6.23694 5.28336 5.69812C6.08658 5.1593 7.03194 4.87158 7.99916 4.87158C8.96637 4.87158 9.91173 5.1593 10.715 5.69812C11.5182 6.23694 12.143 7.00252 12.5099 7.89746C12.8767 8.7924 12.9691 9.77624 12.7752 10.7238C12.5813 11.6714 12.1099 12.5399 11.421 13.2188C13.206 14.1423 14.5851 15.7604 15.0895 17.7188ZM8.0001 12.3751C8.51927 12.3751 9.02679 12.2211 9.45847 11.9327C9.89015 11.6442 10.2266 11.2343 10.4253 10.7546C10.624 10.275 10.6759 9.74715 10.5747 9.23795C10.4734 8.72875 10.2234 8.26102 9.85625 7.89391C9.48914 7.5268 9.02141 7.27679 8.51221 7.1755C8.00301 7.07422 7.47521 7.1262 6.99555 7.32488C6.5159 7.52356 6.10593 7.86001 5.81749 8.29169C5.52905 8.72337 5.3751 9.23089 5.3751 9.75006C5.3751 10.0948 5.44299 10.4361 5.57491 10.7546C5.70683 11.0731 5.90019 11.3625 6.14394 11.6062C6.63622 12.0985 7.3039 12.3751 8.0001 12.3751Z" fill="#525252"/>
</g>
<defs>
<clipPath id="clip0_81_20780">
<rect width="24" height="24" fill="white" transform="translate(0.5)"/>
</clipPath>
</defs>
</svg>
