<svg width="20" height="20" viewBox="0 0 20 20" fill="none" xmlns="http://www.w3.org/2000/svg">
<path d="M3.56098 18C3.13171 18 2.7641 17.8475 2.45815 17.5424C2.1522 17.2374 1.99948 16.8702 2 16.4409V5.5274C2 5.09866 2.15298 4.7315 2.45893 4.42592C2.76488 4.12034 3.13223 3.96781 3.56098 3.96833H10.5268L8.96585 5.5274H3.56098V16.4409H14.4878V11.0231L16.0488 9.46407V16.4409C16.0488 16.8697 15.8958 17.2368 15.5899 17.5424C15.2839 17.848 14.9166 18.0005 14.4878 18H3.56098ZM12.2829 4.41656L13.3951 5.50792L8.2439 10.6529V11.7637H9.33659L14.5073 6.59927L15.6195 7.69062L10 13.3228H6.68293V10.0097L12.2829 4.41656ZM15.6195 7.69062L12.2829 4.41656L14.2341 2.46772C14.5463 2.15591 14.9205 2 15.3565 2C15.7925 2 16.1599 2.15591 16.4585 2.46772L17.5512 3.57856C17.8504 3.87738 18 4.24117 18 4.66991C18 5.09866 17.8504 5.46244 17.5512 5.76127L15.6195 7.69062Z" fill="#C2C2C2"/>
</svg>
