<svg width="24" height="24" viewBox="0 0 24 24" fill="none" xmlns="http://www.w3.org/2000/svg">
<g id="Frame">
<path id="Vector" d="M11 14H13C13.2833 14 13.521 13.904 13.713 13.712C13.905 13.52 14.0007 13.2827 14 13C14 12.7167 13.904 12.479 13.712 12.287C13.52 12.095 13.2827 11.9993 13 12H11C10.7167 12 10.479 12.096 10.287 12.288C10.095 12.48 9.99934 12.7173 10 13C10 13.2833 10.096 13.521 10.288 13.713C10.48 13.905 10.7173 14.0007 11 14ZM11 11H17C17.2833 11 17.521 10.904 17.713 10.712C17.905 10.52 18.0007 10.2827 18 10C18 9.71667 17.904 9.479 17.712 9.287C17.52 9.095 17.2827 8.99934 17 9H11C10.7167 9 10.479 9.096 10.287 9.288C10.095 9.48 9.99934 9.71734 10 10C10 10.2833 10.096 10.521 10.288 10.713C10.48 10.905 10.7173 11.0007 11 11ZM11 8H17C17.2833 8 17.521 7.904 17.713 7.712C17.905 7.52 18.0007 7.28267 18 7C18 6.71667 17.904 6.479 17.712 6.287C17.52 6.095 17.2827 5.99934 17 6H11C10.7167 6 10.479 6.096 10.287 6.288C10.095 6.48 9.99934 6.71734 10 7C10 7.28334 10.096 7.521 10.288 7.713C10.48 7.905 10.7173 8.00067 11 8ZM8 18C7.45 18 6.979 17.804 6.587 17.412C6.195 17.02 5.99934 16.5493 6 16V4C6 3.45 6.196 2.979 6.588 2.587C6.98 2.195 7.45067 1.99934 8 2H20C20.55 2 21.021 2.196 21.413 2.588C21.805 2.98 22.0007 3.45067 22 4V16C22 16.55 21.804 17.021 21.412 17.413C21.02 17.805 20.5493 18.0007 20 18H8ZM4 22C3.45 22 2.979 21.804 2.587 21.412C2.195 21.02 1.99934 20.5493 2 20V7C2 6.71667 2.096 6.479 2.288 6.287C2.48 6.095 2.71733 5.99934 3 6C3.28333 6 3.521 6.096 3.713 6.288C3.905 6.48 4.00067 6.71734 4 7V20H17C17.2833 20 17.521 20.096 17.713 20.288C17.905 20.48 18.0007 20.7173 18 21C18 21.2833 17.904 21.521 17.712 21.713C17.52 21.905 17.2827 22.0007 17 22H4Z" fill="currentColor"/>
</g>
</svg>
