<svg width="16" height="17" viewBox="0 0 16 17" fill="none" xmlns="http://www.w3.org/2000/svg">
<g clip-path="url(#clip0_1145_25617)">
<path d="M8.00004 1.83325C11.682 1.83325 14.6667 4.81792 14.6667 8.49992C14.6667 12.1819 11.682 15.1666 8.00004 15.1666C4.31804 15.1666 1.33337 12.1819 1.33337 8.49992C1.33337 4.81792 4.31804 1.83325 8.00004 1.83325ZM8.00004 3.16659C6.58555 3.16659 5.229 3.72849 4.2288 4.72868C3.22861 5.72888 2.66671 7.08543 2.66671 8.49992C2.66671 9.91441 3.22861 11.271 4.2288 12.2712C5.229 13.2713 6.58555 13.8333 8.00004 13.8333C9.41453 13.8333 10.7711 13.2713 11.7713 12.2712C12.7715 11.271 13.3334 9.91441 13.3334 8.49992C13.3334 7.08543 12.7715 5.72888 11.7713 4.72868C10.7711 3.72849 9.41453 3.16659 8.00004 3.16659ZM8.00004 10.4999C8.17685 10.4999 8.34642 10.5702 8.47145 10.6952C8.59647 10.8202 8.66671 10.9898 8.66671 11.1666C8.66671 11.3434 8.59647 11.513 8.47145 11.638C8.34642 11.763 8.17685 11.8333 8.00004 11.8333C7.82323 11.8333 7.65366 11.763 7.52864 11.638C7.40361 11.513 7.33337 11.3434 7.33337 11.1666C7.33337 10.9898 7.40361 10.8202 7.52864 10.6952C7.65366 10.5702 7.82323 10.4999 8.00004 10.4999ZM8.00004 4.49992C8.17685 4.49992 8.34642 4.57016 8.47145 4.69518C8.59647 4.82021 8.66671 4.98977 8.66671 5.16659V9.16659C8.66671 9.3434 8.59647 9.51297 8.47145 9.63799C8.34642 9.76301 8.17685 9.83325 8.00004 9.83325C7.82323 9.83325 7.65366 9.76301 7.52864 9.63799C7.40361 9.51297 7.33337 9.3434 7.33337 9.16659V5.16659C7.33337 4.98977 7.40361 4.82021 7.52864 4.69518C7.65366 4.57016 7.82323 4.49992 8.00004 4.49992Z" fill="currentColor"/>
</g>
<defs>
<clipPath id="clip0_1145_25617">
<rect width="16" height="16" fill="white" transform="translate(0 0.5)"/>
</clipPath>
</defs>
</svg>
