<svg width="25" height="24" viewBox="0 0 25 24" fill="none" xmlns="http://www.w3.org/2000/svg">
<g id="Frame">
<g id="Vector">
<path d="M6.52688 2.42641C6.63837 2.29268 6.77677 2.18532 6.93257 2.11171C7.08836 2.0381 7.25785 1.99999 7.42938 2H17.5706C17.7421 1.99999 17.9116 2.0381 18.0674 2.11171C18.2232 2.18532 18.3616 2.29268 18.4731 2.42641L21.5713 6.13496C21.8479 6.46613 22 6.88789 22 7.32403V7.6347C22.0001 8.23774 21.8165 8.82573 21.4749 9.31649C21.1333 9.80725 20.6508 10.1763 20.0949 10.3719C19.5389 10.5676 18.9372 10.5802 18.3739 10.4079C17.8106 10.2356 17.3139 9.88708 16.9531 9.411C16.6897 9.75916 16.352 10.0408 15.9661 10.2345C15.5802 10.4281 15.1562 10.5286 14.7266 10.5282C14.2969 10.5287 13.8729 10.4283 13.487 10.2346C13.101 10.041 12.7634 9.75922 12.5 9.411C12.2366 9.75922 11.899 10.041 11.513 10.2346C11.1271 10.4283 10.7031 10.5287 10.2734 10.5282C9.84381 10.5287 9.41977 10.4283 9.03383 10.2346C8.64788 10.041 8.31027 9.75922 8.04688 9.411C7.6861 9.88708 7.18936 10.2356 6.62608 10.4079C6.06279 10.5802 5.46111 10.5676 4.90514 10.3719C4.34916 10.1763 3.86666 9.80725 3.52509 9.31649C3.18352 8.82573 2.99994 8.23774 3 7.6347V7.32403C3.00001 6.88789 3.15207 6.46613 3.42869 6.13496L6.52806 2.42519L6.52688 2.42641ZM8.64062 7.6347C8.64062 8.07899 8.81265 8.50507 9.11886 8.81923C9.42508 9.13339 9.84039 9.30988 10.2734 9.30988C10.7065 9.30988 11.1218 9.13339 11.428 8.81923C11.7342 8.50507 11.9062 8.07899 11.9062 7.6347C11.9062 7.47314 11.9688 7.3182 12.0802 7.20396C12.1915 7.08972 12.3425 7.02554 12.5 7.02554C12.6575 7.02554 12.8085 7.08972 12.9198 7.20396C13.0312 7.3182 13.0938 7.47314 13.0938 7.6347C13.0938 8.07899 13.2658 8.50507 13.572 8.81923C13.8782 9.13339 14.2935 9.30988 14.7266 9.30988C15.1596 9.30988 15.5749 9.13339 15.8811 8.81923C16.1873 8.50507 16.3594 8.07899 16.3594 7.6347C16.3594 7.47314 16.4219 7.3182 16.5333 7.20396C16.6446 7.08972 16.7957 7.02554 16.9531 7.02554C17.1106 7.02554 17.2616 7.08972 17.373 7.20396C17.4843 7.3182 17.5469 7.47314 17.5469 7.6347C17.5469 8.07899 17.7189 8.50507 18.0251 8.81923C18.3313 9.13339 18.7466 9.30988 19.1797 9.30988C19.6127 9.30988 20.028 9.13339 20.3343 8.81923C20.6405 8.50507 20.8125 8.07899 20.8125 7.6347V7.32403C20.8125 7.17884 20.762 7.03842 20.67 6.92808L17.5706 3.21831H7.42938L4.33 6.92808C4.23802 7.03842 4.18749 7.17884 4.1875 7.32403V7.6347C4.1875 8.07899 4.35953 8.50507 4.66574 8.81923C4.97195 9.13339 5.38726 9.30988 5.82031 9.30988C6.25336 9.30988 6.66867 9.13339 6.97489 8.81923C7.2811 8.50507 7.45312 8.07899 7.45312 7.6347C7.45312 7.47314 7.51568 7.3182 7.62703 7.20396C7.73838 7.08972 7.8894 7.02554 8.04688 7.02554C8.20435 7.02554 8.35537 7.08972 8.46672 7.20396C8.57807 7.3182 8.64062 7.47314 8.64062 7.6347ZM4.78125 12.8626C4.93872 12.8626 5.08975 12.9268 5.20109 13.0411C5.31244 13.1553 5.375 13.3102 5.375 13.4718V20.7817H19.625V13.4718C19.625 13.3102 19.6876 13.1553 19.7989 13.0411C19.9103 12.9268 20.0613 12.8626 20.2188 12.8626C20.3762 12.8626 20.5272 12.9268 20.6386 13.0411C20.7499 13.1553 20.8125 13.3102 20.8125 13.4718V20.7817H21.4062C21.5637 20.7817 21.7147 20.8459 21.8261 20.9601C21.9374 21.0743 22 21.2293 22 21.3908C22 21.5524 21.9374 21.7073 21.8261 21.8216C21.7147 21.9358 21.5637 22 21.4062 22H3.59375C3.43628 22 3.28526 21.9358 3.17391 21.8216C3.06256 21.7073 3 21.5524 3 21.3908C3 21.2293 3.06256 21.0743 3.17391 20.9601C3.28526 20.8459 3.43628 20.7817 3.59375 20.7817H4.1875V13.4718C4.1875 13.3102 4.25006 13.1553 4.36141 13.0411C4.47276 12.9268 4.62378 12.8626 4.78125 12.8626ZM7.15625 14.1141C7.31372 14.1141 7.46475 14.1783 7.57609 14.2925C7.68744 14.4068 7.75 14.5617 7.75 14.7233V18.9874H17.25V14.7233C17.25 14.5617 17.3126 14.4068 17.4239 14.2925C17.5353 14.1783 17.6863 14.1141 17.8438 14.1141C18.0012 14.1141 18.1522 14.1783 18.2636 14.2925C18.3749 14.4068 18.4375 14.5617 18.4375 14.7233V18.9874C18.4375 19.3105 18.3124 19.6204 18.0897 19.8489C17.867 20.0773 17.5649 20.2057 17.25 20.2057H7.75C7.43506 20.2057 7.13301 20.0773 6.91031 19.8489C6.68761 19.6204 6.5625 19.3105 6.5625 18.9874V14.7233C6.5625 14.5617 6.62506 14.4068 6.73641 14.2925C6.84776 14.1783 6.99878 14.1141 7.15625 14.1141Z" fill="currentColor"/>
<path d="M11.5385 12V17.2308C11.5385 17.6556 11.1941 18 10.7692 18C10.3444 18 10 17.6556 10 17.2308V13C10 12.4477 10.4477 12 11 12H11.5385ZM13.9897 14.25C14.3197 14.25 14.5872 14.5175 14.5872 14.8475C14.5872 15.1775 14.3197 15.4451 13.9897 15.4451H11.3147V14.25H13.9897ZM14.25 12C14.6642 12 15 12.3358 15 12.75C15 13.1642 14.6642 13.5 14.25 13.5H11.3147V12H14.25Z" fill="#525252"/>
</g>
</g>
</svg>
