<svg width="50" height="50" viewBox="0 0 50 50" fill="none" xmlns="http://www.w3.org/2000/svg">
<g id="Frame">
<rect width="50" height="50" rx="25" fill="#2565C4"/>
<path id="Vector" d="M34.3333 25C34.3333 22.4 33.4276 20.1942 31.616 18.3827C29.8044 16.5711 27.5991 15.6658 25 15.6667V13C26.6667 13 28.228 13.3169 29.684 13.9507C31.14 14.5844 32.4067 15.4396 33.484 16.516C34.5613 17.5942 35.4169 18.8609 36.0507 20.316C36.6844 21.7711 37.0009 23.3324 37 25H34.3333ZM29 25C29 23.8889 28.6111 22.9444 27.8333 22.1667C27.0556 21.3889 26.1111 21 25 21V18.3333C26.8444 18.3333 28.4169 18.9836 29.7173 20.284C31.0178 21.5844 31.6676 23.1564 31.6667 25H29ZM35.6 37C32.7333 37 29.9387 36.3609 27.216 35.0827C24.4933 33.8044 22.0822 32.1156 19.9827 30.016C17.8831 27.9164 16.1942 25.5053 14.916 22.7827C13.6378 20.06 12.9991 17.2658 13 14.4C13 14 13.1333 13.6667 13.4 13.4C13.6667 13.1333 14 13 14.4 13H19.8C20.1111 13 20.3889 13.1 20.6333 13.3C20.8778 13.5 21.0222 13.7556 21.0667 14.0667L21.9333 18.7333C21.9778 19.0444 21.972 19.328 21.916 19.584C21.86 19.84 21.7324 20.0676 21.5333 20.2667L18.3 23.5333C19.2333 25.1333 20.4058 26.6333 21.8173 28.0333C23.2289 29.4333 24.7787 30.6444 26.4667 31.6667L29.6 28.5333C29.8 28.3333 30.0613 28.1831 30.384 28.0827C30.7067 27.9822 31.0231 27.9547 31.3333 28L35.9333 28.9333C36.2444 29 36.5 29.1502 36.7 29.384C36.9 29.6178 37 29.8898 37 30.2V35.6C37 36 36.8667 36.3333 36.6 36.6C36.3333 36.8667 36 37 35.6 37ZM17.0333 21L19.2333 18.8L18.6667 15.6667H15.7C15.8111 16.5778 15.9667 17.4778 16.1667 18.3667C16.3667 19.2556 16.6556 20.1333 17.0333 21ZM28.9667 32.9333C29.8333 33.3111 30.7169 33.6111 31.6173 33.8333C32.5178 34.0556 33.4231 34.2 34.3333 34.2667V31.3333L31.2 30.7L28.9667 32.9333Z" fill="white"/>
</g>
</svg>
