<svg width="50" height="50" viewBox="0 0 50 50" fill="none" xmlns="http://www.w3.org/2000/svg">
<rect width="50" height="50" rx="25" fill="#ED5938"/>
<path d="M12 37H38M14 13V37M28 13V37M36 19V37M18 18H19M18 22H19M18 26H19M23 18H24M23 22H24M23 26H24M18 37V32.5C18 31.672 18.672 31 19.5 31H22.5C23.328 31 24 31.672 24 32.5V37M13 13H29M28 19H37M32 24H32.0107V24.0107H32V24ZM32 28H32.0107V28.0107H32V28ZM32 32H32.0107V32.0107H32V32Z" stroke="white" stroke-width="2" stroke-linecap="round" stroke-linejoin="round"/>
</svg>
