<svg width="24" height="24" viewBox="0 0 24 24" fill="none" xmlns="http://www.w3.org/2000/svg">
<g id="Frame">
<g id="Vector">
<path d="M12.486 5.41368C12.3373 5.33102 12.1701 5.28764 12 5.28764C11.8299 5.28764 11.6626 5.33102 11.514 5.41368L5.05998 8.99968L11.515 12.5857C11.6636 12.6683 11.8309 12.7117 12.001 12.7117C12.1711 12.7117 12.3383 12.6683 12.487 12.5857L18.94 8.99968L12.485 5.41368H12.486ZM10.543 3.66468C10.9887 3.41705 11.4901 3.28711 12 3.28711C12.5098 3.28711 13.0113 3.41705 13.457 3.66468L21.486 8.12468C21.6423 8.21116 21.7726 8.33792 21.8633 8.4918C21.954 8.64568 22.0019 8.82105 22.0019 8.99968C22.0019 9.17831 21.954 9.35368 21.8633 9.50755C21.7726 9.66143 21.6423 9.7882 21.486 9.87468L13.456 14.3347C13.0104 14.5821 12.5092 14.712 11.9995 14.712C11.4898 14.712 10.9886 14.5821 10.543 14.3347L2.51398 9.87468C2.35768 9.7882 2.2274 9.66143 2.13668 9.50755C2.04596 9.35368 1.99811 9.17831 1.99811 8.99968C1.99811 8.82105 2.04596 8.64568 2.13668 8.4918C2.2274 8.33792 2.35768 8.21116 2.51398 8.12468L10.543 3.66468Z" fill="#0288D1"/>
<path d="M21 7.99968C21.2652 7.99968 21.5196 8.10503 21.7071 8.29257C21.8946 8.48011 22 8.73446 22 8.99968V15.9997C22 16.2649 21.8946 16.5192 21.7071 16.7068C21.5196 16.8943 21.2652 16.9997 21 16.9997C20.7348 16.9997 20.4804 16.8943 20.2929 16.7068C20.1053 16.5192 20 16.2649 20 15.9997V8.99968C20 8.73446 20.1053 8.48011 20.2929 8.29257C20.4804 8.10503 20.7348 7.99968 21 7.99968ZM5.99998 9.99968C6.2652 9.99968 6.51956 10.105 6.70709 10.2926C6.89463 10.4801 6.99998 10.7345 6.99998 10.9997V16.3817L11.553 18.6577C11.6918 18.727 11.8448 18.7631 12 18.7631C12.1551 18.7631 12.3082 18.727 12.447 18.6577L17 16.3817V10.9997C17 10.7345 17.1053 10.4801 17.2929 10.2926C17.4804 10.105 17.7348 9.99968 18 9.99968C18.2652 9.99968 18.5196 10.105 18.7071 10.2926C18.8946 10.4801 19 10.7345 19 10.9997V16.9997C18.9999 17.1853 18.9481 17.3673 18.8504 17.5252C18.7528 17.6831 18.6131 17.8107 18.447 17.8937L13.342 20.4467C12.9253 20.6551 12.4659 20.7636 12 20.7636C11.5341 20.7636 11.0746 20.6551 10.658 20.4467L5.55298 17.8937C5.3869 17.8107 5.24721 17.6831 5.14954 17.5252C5.05187 17.3673 5.00008 17.1853 4.99998 16.9997V10.9997C4.99998 10.7345 5.10534 10.4801 5.29288 10.2926C5.48041 10.105 5.73477 9.99968 5.99998 9.99968Z" fill="#0288D1"/>
</g>
</g>
</svg>
