<svg width="50" height="50" viewBox="0 0 50 50" fill="none" xmlns="http://www.w3.org/2000/svg">
<rect width="50" height="50" rx="25" fill="#16A9BD"/>
<path d="M36.8331 38.3337C33.3664 38.3337 30.1051 37.6781 27.0491 36.367C23.9931 35.0559 21.3264 33.2612 19.0491 30.983C16.7718 28.7057 14.9718 26.039 13.6491 22.983C12.3264 19.927 11.6656 16.6554 11.6664 13.1683C11.6442 12.7683 11.7776 12.4181 12.0664 12.1177C12.3553 11.8172 12.7109 11.667 13.1331 11.667H18.3331C18.7331 11.667 19.0776 11.8172 19.3664 12.1177C19.6553 12.4181 19.7998 12.779 19.7998 13.2003C19.7998 14.1781 19.8664 15.1003 19.9998 15.967C20.1331 16.8337 20.3442 17.6559 20.6331 18.4337C20.7442 18.6781 20.7664 18.9279 20.6998 19.183C20.6331 19.4381 20.4998 19.6772 20.2998 19.9003L16.9664 23.2337C17.922 25.1892 19.2776 27.0448 21.0331 28.8003C22.7887 30.5559 24.6776 31.9559 26.6998 33.0003L30.0331 29.667C30.2331 29.467 30.4664 29.3337 30.7331 29.267C30.9998 29.2003 31.2664 29.2225 31.5331 29.3337C32.3553 29.6003 33.2056 29.8061 34.0838 29.951C34.962 30.0959 35.8673 30.1679 36.7998 30.167C37.222 30.167 37.5833 30.3225 37.8838 30.6337C38.1842 30.9448 38.334 31.3225 38.3331 31.767V36.867C38.3331 37.267 38.1887 37.6114 37.8998 37.9003C37.6109 38.1892 37.2553 38.3337 36.8331 38.3337ZM29.1664 34.3337C30.1664 34.7114 31.2109 35.0114 32.2998 35.2337C33.3887 35.4559 34.5109 35.6003 35.6664 35.667V32.8003C34.9776 32.7559 34.2718 32.6781 33.5491 32.567C32.8264 32.4559 32.11 32.2892 31.3998 32.067L29.1664 34.3337ZM35.6664 25.0003C35.6664 22.0225 34.6331 19.5003 32.5664 17.4337C30.4998 15.367 27.9776 14.3337 24.9998 14.3337V11.667C26.8442 11.667 28.5776 12.0172 30.1998 12.7177C31.822 13.4181 33.2331 14.3679 34.4331 15.567C35.6331 16.767 36.5833 18.1781 37.2838 19.8003C37.9842 21.4225 38.334 23.1559 38.3331 25.0003H35.6664ZM30.3331 25.0003C30.3331 23.5337 29.8109 22.2781 28.7664 21.2337C27.722 20.1892 26.4664 19.667 24.9998 19.667V17.0003C27.222 17.0003 29.1109 17.7781 30.6664 19.3337C32.222 20.8892 32.9998 22.7781 32.9998 25.0003H30.3331ZM15.6664 20.767L17.8664 18.5337C17.6887 17.8892 17.5384 17.2114 17.4158 16.5003C17.2931 15.7892 17.21 15.067 17.1664 14.3337H14.3664C14.4109 15.4003 14.5442 16.467 14.7664 17.5337C14.9887 18.6003 15.2887 19.6781 15.6664 20.767Z" fill="white"/>
</svg>
