<svg width="22" height="22" viewBox="0 0 22 22" fill="none" xmlns="http://www.w3.org/2000/svg">
<g id="Write">
<path id="Vector" d="M18.4479 13.75L16.5 11.8021L17.1646 11.1375C17.3326 10.9694 17.5465 10.8854 17.8062 10.8854C18.066 10.8854 18.2799 10.9694 18.4479 11.1375L19.1125 11.8021C19.2806 11.9701 19.3646 12.184 19.3646 12.4437C19.3646 12.7035 19.2806 12.9174 19.1125 13.0854L18.4479 13.75ZM11 19.25V17.3021L15.8583 12.4437L17.8062 14.3917L12.9479 19.25H11ZM2.75 14.6667V12.8333H9.16667V14.6667H2.75ZM2.75 11V9.16667H12.8333V11H2.75ZM2.75 7.33333V5.5H12.8333V7.33333H2.75Z" fill="#0288D1"/>
</g>
</svg>
