<svg width="32" height="32" viewBox="0 0 32 32" fill="none" xmlns="http://www.w3.org/2000/svg">
<g id="Frame">
<rect width="32" height="32" rx="8" fill="#007DD3"/>
<path id="Vector" d="M15.8891 5.81836C21.0471 5.81836 25.2333 10.0046 25.2333 15.1626C25.2333 20.3206 21.0471 24.5068 15.8891 24.5068C10.7311 24.5068 6.54492 20.3206 6.54492 15.1626C6.54492 10.0046 10.7311 5.81836 15.8891 5.81836ZM15.8891 22.4303C19.904 22.4303 23.1568 19.1775 23.1568 15.1626C23.1568 11.1466 19.904 7.89485 15.8891 7.89485C11.8732 7.89485 8.62141 11.1466 8.62141 15.1626C8.62141 19.1775 11.8732 22.4303 15.8891 22.4303ZM24.6986 22.504L27.6358 25.4402L26.1667 26.9093L23.2306 23.9721L24.6986 22.504Z" fill="white"/>
</g>
</svg>
