<svg width="19" height="18" viewBox="0 0 19 18" fill="none" xmlns="http://www.w3.org/2000/svg">
<path fill-rule="evenodd" clip-rule="evenodd" d="M2.55515 15.7887C2.3937 15.7887 2.23886 15.7237 2.1247 15.6079C2.01053 15.4922 1.94639 15.3352 1.94639 15.1715V2.82868C1.94639 2.665 2.01053 2.50803 2.1247 2.39229C2.23886 2.27656 2.3937 2.21154 2.55515 2.21154H13.8172C14.0594 2.21154 14.2916 2.11401 14.4629 1.9404C14.6341 1.7668 14.7303 1.53134 14.7303 1.28582C14.7303 1.04031 14.6341 0.804848 14.4629 0.631243C14.2916 0.457638 14.0594 0.360107 13.8172 0.360107H2.55515C1.90934 0.360107 1.28998 0.620188 0.833323 1.08314C0.376665 1.54608 0.120117 2.17397 0.120117 2.82868V15.1715C0.120117 15.8262 0.376665 16.4541 0.833323 16.9171C1.28998 17.38 1.90934 17.6401 2.55515 17.6401H14.7303C15.3762 17.6401 15.9955 17.38 16.4522 16.9171C16.9088 16.4541 17.1654 15.8262 17.1654 15.1715V11.1601C17.1654 10.9146 17.0692 10.6791 16.8979 10.5055C16.7267 10.3319 16.4944 10.2344 16.2522 10.2344C16.0101 10.2344 15.7778 10.3319 15.6066 10.5055C15.4353 10.6791 15.3391 10.9146 15.3391 11.1601V15.1715C15.3391 15.3352 15.275 15.4922 15.1608 15.6079C15.0466 15.7237 14.8918 15.7887 14.7303 15.7887H2.55515ZM18.115 4.90228C18.2763 4.72679 18.3641 4.49469 18.36 4.25487C18.3558 4.01504 18.26 3.78623 18.0927 3.61662C17.9254 3.44701 17.6997 3.34986 17.4631 3.34563C17.2265 3.3414 16.9976 3.43042 16.8245 3.59394L10.0575 10.4529L7.77709 8.06328C7.69389 7.97515 7.59433 7.90456 7.48412 7.85556C7.37392 7.80657 7.25525 7.78014 7.13494 7.77779C7.01463 7.77544 6.89505 7.79723 6.78307 7.84189C6.67109 7.88656 6.56892 7.95322 6.48244 8.03804C6.39596 8.12287 6.32687 8.22419 6.27914 8.33617C6.23141 8.44816 6.20599 8.56861 6.20433 8.69059C6.20267 8.81257 6.22482 8.93367 6.26948 9.04695C6.31415 9.16023 6.38046 9.26344 6.46461 9.35064L9.3903 12.4166C9.47448 12.5051 9.57521 12.5757 9.68661 12.6244C9.79801 12.673 9.91785 12.6986 10.0391 12.6997C10.1604 12.7009 10.2807 12.6775 10.393 12.631C10.5052 12.5846 10.6072 12.5159 10.693 12.429L18.115 4.90228Z" fill="white"/>
</svg>
