<svg width="24" height="24" viewBox="0 0 24 24" fill="none" xmlns="http://www.w3.org/2000/svg">
<path d="M9.52727 20L8.14545 17.5619L5.52727 16.9524L5.78182 14.1333L4 12L5.78182 9.86667L5.52727 7.04762L8.14545 6.4381L9.52727 4L12 5.10476L14.4727 4L15.8545 6.4381L18.4727 7.04762L18.2182 9.86667L20 12L18.2182 14.1333L18.4727 16.9524L15.8545 17.5619L14.4727 20L12 18.8952L9.52727 20ZM10.1455 18.0571L12 17.219L13.8909 18.0571L14.9091 16.2286L16.9091 15.7333L16.7273 13.6L18.0727 12L16.7273 10.3619L16.9091 8.22857L14.9091 7.77143L13.8545 5.94286L12 6.78095L10.1091 5.94286L9.09091 7.77143L7.09091 8.22857L7.27273 10.3619L5.92727 12L7.27273 13.6L7.09091 15.7714L9.09091 16.2286L10.1455 18.0571ZM11.2364 14.7048L15.3455 10.4L14.3273 9.29524L11.2364 12.5333L9.67273 10.9333L8.65455 12L11.2364 14.7048Z" fill="#0288D1"/>
</svg>
