<svg width="32" height="32" viewBox="0 0 32 32" fill="none" xmlns="http://www.w3.org/2000/svg">
<g id="Frame">
<path id="Vector" d="M15.9997 20.7666C15.8219 20.7666 15.6552 20.739 15.4997 20.6839C15.3441 20.6288 15.1997 20.5341 15.0663 20.3999L10.2663 15.5999C10.0219 15.3555 9.89968 15.0444 9.89968 14.6666C9.89968 14.2888 10.0219 13.9777 10.2663 13.7333C10.5108 13.4888 10.8277 13.3613 11.217 13.3506C11.6063 13.3399 11.9228 13.4564 12.1663 13.6999L14.6663 16.1999V6.66659C14.6663 6.28881 14.7943 5.97192 15.0503 5.71592C15.3063 5.45992 15.6228 5.33237 15.9997 5.33326C16.3775 5.33326 16.6943 5.46126 16.9503 5.71726C17.2063 5.97326 17.3339 6.2897 17.333 6.66659V16.1999L19.833 13.6999C20.0775 13.4555 20.3943 13.3386 20.7837 13.3493C21.173 13.3599 21.4895 13.4879 21.733 13.7333C21.9775 13.9777 22.0997 14.2888 22.0997 14.6666C22.0997 15.0444 21.9775 15.3555 21.733 15.5999L16.933 20.3999C16.7997 20.5333 16.6552 20.6279 16.4997 20.6839C16.3441 20.7399 16.1775 20.7675 15.9997 20.7666ZM7.99968 26.6666C7.26634 26.6666 6.63834 26.4053 6.11568 25.8826C5.59301 25.3599 5.33212 24.7324 5.33301 23.9999V21.3333C5.33301 20.9555 5.46101 20.6386 5.71701 20.3826C5.97301 20.1266 6.28945 19.999 6.66634 19.9999C7.04412 19.9999 7.36101 20.1279 7.61701 20.3839C7.87301 20.6399 8.00057 20.9564 7.99968 21.3333V23.9999H23.9997V21.3333C23.9997 20.9555 24.1277 20.6386 24.3837 20.3826C24.6397 20.1266 24.9561 19.999 25.333 19.9999C25.7108 19.9999 26.0277 20.1279 26.2837 20.3839C26.5397 20.6399 26.6672 20.9564 26.6663 21.3333V23.9999C26.6663 24.7333 26.405 25.3613 25.8823 25.8839C25.3597 26.4066 24.7321 26.6675 23.9997 26.6666H7.99968Z" fill="currentColor"/>
</g>
</svg>
