<svg width="50" height="50" viewBox="0 0 50 50" fill="none" xmlns="http://www.w3.org/2000/svg">
<g id="Frame">
<rect width="50" height="50" rx="25" fill="#D33AC4"/>
<path id="Vector" d="M14.6676 35.3333C13.9343 35.3333 13.3063 35.072 12.7836 34.5493C12.261 34.0267 12.0001 33.3991 12.001 32.6667V16.6667C12.001 15.9333 12.2623 15.3053 12.785 14.7827C13.3076 14.26 13.9352 13.9991 14.6676 14H36.001C36.7343 14 37.3623 14.2613 37.885 14.784C38.4076 15.3067 38.6685 15.9342 38.6676 16.6667V32.6667C38.6676 33.4 38.4063 34.028 37.8836 34.5507C37.361 35.0733 36.7334 35.3342 36.001 35.3333H14.6676ZM25.3343 26L14.6676 19.3333V32.6667H36.001V19.3333L25.3343 26ZM25.3343 23.3333L36.001 16.6667H14.6676L25.3343 23.3333ZM14.6676 19.3333V16.6667V32.6667V19.3333Z" fill="white"/>
</g>
</svg>
