<svg width="50" height="50" viewBox="0 0 50 50" fill="none" xmlns="http://www.w3.org/2000/svg">
<rect width="50" height="50" rx="25" fill="#2EBEA4"/>
<g clip-path="url(#clip0_2280_33331)">
<path d="M9 33V30.9C9 29.9444 9.48889 29.1667 10.4667 28.5667C11.4444 27.9667 12.7333 27.6667 14.3333 27.6667C14.6222 27.6667 14.9 27.6724 15.1667 27.684C15.4333 27.6956 15.6889 27.7231 15.9333 27.7667C15.6222 28.2333 15.3889 28.7222 15.2333 29.2333C15.0778 29.7444 15 30.2778 15 30.8333V33H9ZM17 33V30.8333C17 30.1222 17.1947 29.472 17.584 28.8827C17.9733 28.2933 18.5231 27.7769 19.2333 27.3333C19.9444 26.8889 20.7947 26.5556 21.784 26.3333C22.7733 26.1111 23.8453 26 25 26C26.1778 26 27.2613 26.1111 28.2507 26.3333C29.24 26.5556 30.0898 26.8889 30.8 27.3333C31.5111 27.7778 32.0556 28.2947 32.4333 28.884C32.8111 29.4733 33 30.1231 33 30.8333V33H17ZM35 33V30.8333C35 30.2556 34.9276 29.7111 34.7827 29.2C34.6378 28.6889 34.4213 28.2111 34.1333 27.7667C34.3778 27.7222 34.628 27.6947 34.884 27.684C35.14 27.6733 35.4009 27.6676 35.6667 27.6667C37.2667 27.6667 38.5556 27.9613 39.5333 28.5507C40.5111 29.14 41 29.9231 41 30.9V33H35ZM19.8333 30.3333H30.2C29.9778 29.8889 29.3609 29.5 28.3493 29.1667C27.3378 28.8333 26.2213 28.6667 25 28.6667C23.7778 28.6667 22.6609 28.8333 21.6493 29.1667C20.6378 29.5 20.0329 29.8889 19.8347 30.3333H19.8333ZM14.3333 26.3333C13.6 26.3333 12.972 26.072 12.4493 25.5493C11.9267 25.0267 11.6658 24.3991 11.6667 23.6667C11.6667 22.9111 11.928 22.2778 12.4507 21.7667C12.9733 21.2556 13.6009 21 14.3333 21C15.0889 21 15.7222 21.2556 16.2333 21.7667C16.7444 22.2778 17 22.9111 17 23.6667C17 24.4 16.7444 25.028 16.2333 25.5507C15.7222 26.0733 15.0889 26.3342 14.3333 26.3333ZM35.6667 26.3333C34.9333 26.3333 34.3053 26.072 33.7827 25.5493C33.26 25.0267 32.9991 24.3991 33 23.6667C33 22.9111 33.2613 22.2778 33.784 21.7667C34.3067 21.2556 34.9342 21 35.6667 21C36.4222 21 37.0556 21.2556 37.5667 21.7667C38.0778 22.2778 38.3333 22.9111 38.3333 23.6667C38.3333 24.4 38.0778 25.028 37.5667 25.5507C37.0556 26.0733 36.4222 26.3342 35.6667 26.3333ZM25 25C23.8889 25 22.9444 24.6111 22.1667 23.8333C21.3889 23.0556 21 22.1111 21 21C21 19.8667 21.3889 18.9164 22.1667 18.1493C22.9444 17.3822 23.8889 16.9991 25 17C26.1333 17 27.0836 17.3836 27.8507 18.1507C28.6178 18.9178 29.0009 19.8676 29 21C29 22.1111 28.6164 23.0556 27.8493 23.8333C27.0822 24.6111 26.1324 25 25 25ZM25 22.3333C25.3778 22.3333 25.6947 22.2053 25.9507 21.9493C26.2067 21.6933 26.3342 21.3769 26.3333 21C26.3333 20.6222 26.2053 20.3053 25.9493 20.0493C25.6933 19.7933 25.3769 19.6658 25 19.6667C24.6222 19.6667 24.3053 19.7947 24.0493 20.0507C23.7933 20.3067 23.6658 20.6231 23.6667 21C23.6667 21.3778 23.7947 21.6947 24.0507 21.9507C24.3067 22.2067 24.6231 22.3342 25 22.3333Z" fill="white"/>
</g>
<defs>
<clipPath id="clip0_2280_33331">
<rect width="32" height="32" fill="white" transform="translate(9 9)"/>
</clipPath>
</defs>
</svg>
