<svg width="61" height="60" viewBox="0 0 61 60" fill="none" xmlns="http://www.w3.org/2000/svg">
<g clip-path="url(#clip0_916_23797)">
<path fill-rule="evenodd" clip-rule="evenodd" d="M29.2504 10.0001C22.6279 10.0001 17.3479 15.9501 18.0679 22.5001C18.1346 23.1066 17.9794 23.7167 17.631 24.2177C17.2827 24.7186 16.7647 25.0765 16.1729 25.2251C14.4052 25.678 12.8631 26.7595 11.8351 28.2672C10.8072 29.7749 10.3637 31.6054 10.5877 33.4164C10.8117 35.2274 11.6878 36.8947 13.0522 38.1065C14.4165 39.3183 16.1756 39.9914 18.0004 40.0001H20.5004C21.1634 40.0001 21.7993 40.2635 22.2681 40.7323C22.737 41.2011 23.0004 41.837 23.0004 42.5001C23.0004 43.1631 22.737 43.799 22.2681 44.2678C21.7993 44.7367 21.1634 45.0001 20.5004 45.0001H18.0004C15.1272 45.0019 12.341 44.0139 10.1109 42.2024C7.88072 40.3908 6.34274 37.8662 5.7558 35.0536C5.16886 32.2409 5.56878 29.312 6.88826 26.7597C8.20774 24.2073 10.3662 22.1875 13.0004 21.0401C13.0455 17.2499 14.4142 13.5948 16.8696 10.7071C19.325 7.81949 22.7126 5.88106 26.4463 5.22724C30.1799 4.57343 34.0246 5.24537 37.3151 7.12681C40.6057 9.00824 43.135 11.9808 44.4654 15.5301C47.9636 16.4948 50.9937 18.6946 52.9945 21.7221C54.9953 24.7495 55.8311 28.3994 55.3472 31.9959C54.8634 35.5923 53.0926 38.8916 50.3628 41.2825C47.633 43.6735 44.1292 44.9942 40.5004 45.0001C39.8373 45.0001 39.2015 44.7367 38.7326 44.2678C38.2638 43.799 38.0004 43.1631 38.0004 42.5001C38.0004 41.837 38.2638 41.2011 38.7326 40.7323C39.2015 40.2635 39.8373 40.0001 40.5004 40.0001C43.0129 40.0039 45.4349 39.0617 47.2843 37.3609C49.1338 35.6602 50.2753 33.3256 50.4817 30.8215C50.6881 28.3174 49.9442 25.8274 48.3982 23.8468C46.8521 21.8662 44.6172 20.5402 42.1379 20.1326C41.6605 20.0536 41.2158 19.8392 40.8568 19.5147C40.4978 19.1903 40.2396 18.7696 40.1129 18.3026C39.4647 15.9182 38.0499 13.8134 36.0868 12.3129C34.1236 10.8125 31.7213 9.9997 29.2504 10.0001ZM33.0004 31.0401L36.2329 34.2701C36.4653 34.5022 36.7412 34.6862 37.0448 34.8117C37.3483 34.9372 37.6737 35.0017 38.0021 35.0015C38.3306 35.0012 38.6559 34.9363 38.9593 34.8104C39.2626 34.6845 39.5383 34.5 39.7704 34.2676C40.0025 34.0351 40.1865 33.7592 40.312 33.4557C40.4375 33.1521 40.502 32.8268 40.5018 32.4983C40.5015 32.1698 40.4366 31.8446 40.3107 31.5412C40.1848 31.2378 40.0003 30.9622 39.7679 30.7301L32.7079 23.6826C32.122 23.0979 31.3281 22.7695 30.5004 22.7695C29.6727 22.7695 28.8787 23.0979 28.2929 23.6826L21.2329 30.7326C20.7638 31.2013 20.5001 31.8373 20.4999 32.5004C20.4996 33.1636 20.7629 33.7997 21.2316 34.2688C21.7004 34.7379 22.3363 35.0016 22.9995 35.0018C23.6627 35.0021 24.2988 34.7388 24.7679 34.2701L28.0004 31.0401V52.5001C28.0004 53.1631 28.2638 53.799 28.7326 54.2678C29.2015 54.7367 29.8373 55.0001 30.5004 55.0001C31.1634 55.0001 31.7993 54.7367 32.2681 54.2678C32.737 53.799 33.0004 53.1631 33.0004 52.5001V31.0401Z" fill="url(#paint0_linear_916_23797)"/>
</g>
<defs>
<linearGradient id="paint0_linear_916_23797" x1="30.4867" y1="4.98364" x2="30.4867" y2="55.0001" gradientUnits="userSpaceOnUse">
<stop stop-color="#3EB9FF"/>
<stop offset="1" stop-color="#59E1FF"/>
</linearGradient>
<clipPath id="clip0_916_23797">
<rect width="60" height="60" fill="white" transform="translate(0.5)"/>
</clipPath>
</defs>
</svg>
