<svg width="50" height="50" viewBox="0 0 50 50" fill="none" xmlns="http://www.w3.org/2000/svg">
<g id="Frame">
<rect width="50" height="50" rx="25" fill="#29A8E0"/>
<g id="Group">
<path id="Vector" d="M32.2187 22.8853C33 22.104 33 20.848 33 18.3333C33 15.8187 33 14.5627 32.2187 13.7813M32.2187 22.8853C31.4373 23.6667 30.1813 23.6667 27.6667 23.6667H22.3333C19.8187 23.6667 18.5627 23.6667 17.7813 22.8853M32.2187 13.7813C31.4373 13 30.1813 13 27.6667 13H22.3333C19.8187 13 18.5627 13 17.7813 13.7813M17.7813 13.7813C17 14.5627 17 15.8187 17 18.3333C17 20.848 17 22.104 17.7813 22.8853M26.3333 18.3333C26.3333 18.687 26.1929 19.0261 25.9428 19.2761C25.6928 19.5262 25.3536 19.6667 25 19.6667C24.6464 19.6667 24.3072 19.5262 24.0572 19.2761C23.8071 19.0261 23.6667 18.687 23.6667 18.3333C23.6667 17.9797 23.8071 17.6406 24.0572 17.3905C24.3072 17.1405 24.6464 17 25 17C25.3536 17 25.6928 17.1405 25.9428 17.3905C26.1929 17.6406 26.3333 17.9797 26.3333 18.3333Z" stroke="white" stroke-width="2"/>
<path id="Vector_2" d="M33.0003 17C31.9395 17 30.922 16.5786 30.1719 15.8284C29.4218 15.0783 29.0003 14.0609 29.0003 13M33.0003 19.6667C31.9395 19.6667 30.922 20.0881 30.1719 20.8382C29.4218 21.5884 29.0003 22.6058 29.0003 23.6667M17.0003 17C18.0612 17 19.0786 16.5786 19.8288 15.8284C20.5789 15.0783 21.0003 14.0609 21.0003 13M17.0003 19.6667C18.0612 19.6667 19.0786 20.0881 19.8288 20.8382C20.5789 21.5884 21.0003 22.6058 21.0003 23.6667M15.667 36.184H18.6803C20.027 36.184 21.391 36.3253 22.7017 36.5947C25.0417 37.0754 27.4493 37.1287 29.8083 36.752C30.9657 36.5653 32.1017 36.2787 33.131 35.7827C34.059 35.3333 35.1963 34.7027 35.9603 33.9947C36.723 33.288 37.5177 32.132 38.0803 31.228C38.5657 30.452 38.331 29.5013 37.5657 28.924C37.1356 28.6112 36.6175 28.4427 36.0857 28.4427C35.5539 28.4427 35.0357 28.6112 34.6057 28.924L32.1963 30.744C31.263 31.4507 30.243 32.1 29.0283 32.2933C28.8817 32.316 28.7283 32.3373 28.5683 32.356M28.5683 32.356C28.5195 32.3617 28.4706 32.367 28.4217 32.372M28.5683 32.356C28.7817 32.2983 28.9774 32.1883 29.1377 32.036C29.3386 31.8622 29.5026 31.6499 29.6202 31.4116C29.7377 31.1734 29.8063 30.914 29.822 30.6488C29.8377 30.3836 29.8 30.1179 29.7114 29.8675C29.6227 29.6171 29.4847 29.3869 29.3057 29.1907C29.1319 28.9978 28.9296 28.8327 28.7057 28.7013C24.9763 26.476 19.1723 28.1707 15.667 30.6573M28.5683 32.356C28.5201 32.3665 28.471 32.3719 28.4217 32.372M28.4217 32.372C27.6175 32.4528 26.8075 32.4546 26.003 32.3773" stroke="white" stroke-width="2" stroke-linecap="round"/>
<path id="Vector_3" d="M15.667 29.6665C15.667 28.5619 14.7716 27.6665 13.667 27.6665C12.5624 27.6665 11.667 28.5619 11.667 29.6665V36.3332C11.667 37.4377 12.5624 38.3332 13.667 38.3332C14.7716 38.3332 15.667 37.4377 15.667 36.3332V29.6665Z" stroke="white" stroke-width="2"/>
</g>
</g>
</svg>
