<svg width="20" height="20" viewBox="0 0 20 20" fill="none" xmlns="http://www.w3.org/2000/svg">
<path d="M7.1875 10C7.68478 10 8.16169 9.80246 8.51333 9.45083C8.86496 9.09919 9.0625 8.62228 9.0625 8.125C9.0625 7.62772 8.86496 7.15081 8.51333 6.79917C8.16169 6.44754 7.68478 6.25 7.1875 6.25C6.69022 6.25 6.21331 6.44754 5.86167 6.79917C5.51004 7.15081 5.3125 7.62772 5.3125 8.125C5.3125 8.62228 5.51004 9.09919 5.86167 9.45083C6.21331 9.80246 6.69022 10 7.1875 10ZM10.9375 7.65625C10.9375 7.53193 10.9869 7.4127 11.0748 7.32479C11.1627 7.23689 11.2819 7.1875 11.4062 7.1875H15.1562C15.2806 7.1875 15.3998 7.23689 15.4877 7.32479C15.5756 7.4127 15.625 7.53193 15.625 7.65625C15.625 7.78057 15.5756 7.8998 15.4877 7.98771C15.3998 8.07561 15.2806 8.125 15.1562 8.125H11.4062C11.2819 8.125 11.1627 8.07561 11.0748 7.98771C10.9869 7.8998 10.9375 7.78057 10.9375 7.65625ZM10.9375 10C10.9375 9.87568 10.9869 9.75645 11.0748 9.66854C11.1627 9.58064 11.2819 9.53125 11.4062 9.53125H15.1562C15.2806 9.53125 15.3998 9.58064 15.4877 9.66854C15.5756 9.75645 15.625 9.87568 15.625 10C15.625 10.1243 15.5756 10.2435 15.4877 10.3315C15.3998 10.4194 15.2806 10.4688 15.1562 10.4688H11.4062C11.2819 10.4688 11.1627 10.4194 11.0748 10.3315C10.9869 10.2435 10.9375 10.1243 10.9375 10ZM11.875 12.3438C11.875 12.2194 11.9244 12.1002 12.0123 12.0123C12.1002 11.9244 12.2194 11.875 12.3438 11.875H15.1562C15.2806 11.875 15.3998 11.9244 15.4877 12.0123C15.5756 12.1002 15.625 12.2194 15.625 12.3438C15.625 12.4681 15.5756 12.5873 15.4877 12.6752C15.3998 12.7631 15.2806 12.8125 15.1562 12.8125H12.3438C12.2194 12.8125 12.1002 12.7631 12.0123 12.6752C11.9244 12.5873 11.875 12.4681 11.875 12.3438Z" fill="currentColor"/>
<path d="M4.375 4.375C3.87772 4.375 3.40081 4.57254 3.04917 4.92417C2.69754 5.27581 2.5 5.75272 2.5 6.25L2.5 13.75C2.5 14.2473 2.69754 14.7242 3.04917 15.0758C3.40081 15.4275 3.87772 15.625 4.375 15.625H15.625C16.1223 15.625 16.5992 15.4275 16.9508 15.0758C17.3025 14.7242 17.5 14.2473 17.5 13.75V6.25C17.5 5.75272 17.3025 5.27581 16.9508 4.92417C16.5992 4.57254 16.1223 4.375 15.625 4.375H4.375ZM3.4375 6.25C3.4375 6.00136 3.53627 5.7629 3.71209 5.58709C3.8879 5.41127 4.12636 5.3125 4.375 5.3125H15.625C15.8736 5.3125 16.1121 5.41127 16.2879 5.58709C16.4637 5.7629 16.5625 6.00136 16.5625 6.25V13.75C16.5625 13.9986 16.4637 14.2371 16.2879 14.4129C16.1121 14.5887 15.8736 14.6875 15.625 14.6875H10.9C10.9244 14.5347 10.9375 14.3781 10.9375 14.2188C10.9375 12.4066 9.25938 10.9375 7.1875 10.9375C5.23188 10.9375 3.625 12.2481 3.4525 13.9197C3.44239 13.8637 3.43737 13.8069 3.4375 13.75V6.25Z" fill="#0288D1"/>
</svg>
