<svg width="32" height="32" viewBox="0 0 32 32" fill="none" xmlns="http://www.w3.org/2000/svg">
<g id="Frame">
<path id="Vector" d="M21.1614 19.1274C19.9829 19.1255 18.8446 19.5646 17.9622 20.3615L13.4741 17.4221C13.7527 16.4859 13.7527 15.4864 13.4741 14.5501L17.9622 11.6108C18.8358 12.394 19.9575 12.8285 21.1205 12.8344C22.2835 12.8402 23.4093 12.4169 24.2904 11.6425C25.1715 10.8682 25.7485 9.79493 25.9149 8.62073C26.0812 7.44653 25.8259 6.25056 25.1958 5.25333C24.5658 4.25611 23.6035 3.52489 22.4865 3.19451C21.3695 2.86413 20.1731 2.95686 19.1178 3.45561C18.0626 3.95436 17.2197 4.82549 16.7446 5.90838C16.2694 6.99126 16.1941 8.21287 16.5325 9.34794L12.0433 12.2839C11.3452 11.6545 10.4838 11.2441 9.56264 11.102C8.64146 10.9599 7.69963 11.092 6.85028 11.4826C6.00093 11.8732 5.28017 12.5056 4.77456 13.3039C4.26895 14.1022 4 15.0324 4 15.9828C4 16.9332 4.26895 17.8634 4.77456 18.6617C5.28017 19.4599 6.00093 20.0924 6.85028 20.4829C7.69963 20.8735 8.64146 21.0057 9.56264 20.8635C10.4838 20.7214 11.3452 20.311 12.0433 19.6816L16.5314 22.6277C16.2353 23.6212 16.2538 24.6847 16.5844 25.6668C16.915 26.649 17.5408 27.4997 18.3728 28.0981C19.2047 28.6965 20.2005 29.0119 21.2184 28.9997C22.2362 28.9874 23.2244 28.6479 24.0422 28.0296C24.8601 27.4113 25.4659 26.5457 25.7736 25.5558C26.0813 24.566 26.0752 23.5024 25.7561 22.5163C25.437 21.5302 24.8212 20.6719 23.9963 20.0635C23.1713 19.455 22.1793 19.1275 21.1614 19.1274ZM21.1614 5.66479C21.5964 5.66479 22.0217 5.79639 22.3834 6.04294C22.7451 6.28948 23.027 6.63991 23.1935 7.04991C23.36 7.4599 23.4035 7.91105 23.3186 8.3463C23.2338 8.78155 23.0243 9.18135 22.7167 9.49515C22.4091 9.80894 22.0172 10.0226 21.5905 10.1092C21.1638 10.1958 20.7216 10.1514 20.3197 9.98154C19.9178 9.81171 19.5743 9.52412 19.3326 9.15513C19.0909 8.78615 18.9619 8.35234 18.9619 7.90856C18.9619 7.31348 19.1936 6.74277 19.6061 6.32198C20.0186 5.90119 20.5781 5.66479 21.1614 5.66479ZM8.84412 18.2299C8.4091 18.2299 7.98385 18.0983 7.62214 17.8518C7.26043 17.6052 6.97852 17.2548 6.81204 16.8448C6.64556 16.4348 6.60201 15.9836 6.68687 15.5484C6.77174 15.1131 6.98123 14.7133 7.28883 14.3995C7.59644 14.0858 7.98836 13.8721 8.41502 13.7855C8.84168 13.6989 9.28393 13.7433 9.68584 13.9132C10.0878 14.083 10.4313 14.3706 10.673 14.7396C10.9146 15.1085 11.0436 15.5424 11.0436 15.9861C11.0436 16.5812 10.8119 17.1519 10.3994 17.5727C9.98693 17.9935 9.42747 18.2299 8.84412 18.2299ZM21.1614 26.3075C20.7264 26.3075 20.3011 26.1759 19.9394 25.9293C19.5777 25.6828 19.2958 25.3324 19.1293 24.9224C18.9628 24.5124 18.9193 24.0612 19.0041 23.626C19.089 23.1907 19.2985 22.7909 19.6061 22.4771C19.9137 22.1633 20.3056 21.9496 20.7323 21.8631C21.159 21.7765 21.6012 21.8209 22.0031 21.9907C22.405 22.1606 22.7485 22.4481 22.9902 22.8171C23.2319 23.1861 23.3609 23.6199 23.3609 24.0637C23.3609 24.6588 23.1292 25.2295 22.7167 25.6503C22.3042 26.0711 21.7447 26.3075 21.1614 26.3075Z" fill="currentColor"/>
</g>
</svg>
