<svg width="25" height="24" viewBox="0 0 25 24" fill="none" xmlns="http://www.w3.org/2000/svg">
<path d="M15.293 15.88L16.713 14.46L18.833 16.59L20.953 14.46L22.373 15.88L20.243 18L22.373 20.12L20.953 21.54L18.833 19.41L16.713 21.54L15.293 20.12L17.423 18L15.293 15.88ZM5.83301 3H19.833C20.943 3 21.833 3.89 21.833 5V12.8C21.223 12.45 20.553 12.2 19.833 12.08V5H5.83301V19H12.913C13.033 19.72 13.283 20.39 13.633 21H5.83301C4.72301 21 3.83301 20.11 3.83301 19V5C3.83301 3.89 4.72301 3 5.83301 3ZM7.83301 7H17.833V9H7.83301V7ZM7.83301 11H17.833V12.08C16.983 12.22 16.203 12.54 15.513 13H7.83301V11ZM7.83301 15H12.833V17H7.83301V15Z" fill="#525252"/>
</svg>
