<svg width="25" height="24" viewBox="0 0 25 24" fill="none" xmlns="http://www.w3.org/2000/svg">
<g id="Frame 41167">
<g id="Group">
<path id="Vector" d="M22.0819 6.18118C21.6638 5.62369 21.1063 5.41463 20.061 5.13589L19.6429 4.99652C19.6429 4.36934 19.5035 3.88153 19.0854 3.39373C18.4582 2.62718 17.7613 2.4878 16.6463 2.34843C15.3223 2.13937 13.9286 2 12.4652 2C11.0714 2 9.6777 2.13937 8.28397 2.34843C7.16899 2.4878 6.47213 2.62718 5.84495 3.39373C5.49652 3.88153 5.35714 4.36934 5.28746 4.99652L4.86934 5.13589C3.89373 5.41463 3.26655 5.62369 2.91812 6.18118C2.5 6.73868 2.5 7.36585 2.5 8.48084C2.5 9.31707 2.5 9.87456 2.77875 10.3624C3.05749 10.8502 3.5453 11.1289 4.31185 11.547L6.68118 12.8711C7.58711 14.6829 9.12021 16.1463 11.7683 16.3554V18.2369H10.4443C9.6777 18.2369 8.98084 18.7944 8.84146 19.561L8.6324 20.6063H6.89024C6.47213 20.6063 6.19338 20.885 6.19338 21.3031C6.19338 21.7213 6.47213 22 6.89024 22H9.1899H15.7404H18.0401C18.4582 22 18.7369 21.7213 18.7369 21.3031C18.7369 20.885 18.4582 20.6063 18.0401 20.6063H16.2979L16.0888 19.561C15.9495 18.7944 15.2526 18.2369 14.4861 18.2369H13.162V16.3554C15.8101 16.1463 17.3432 14.6829 18.2491 12.8711L20.6882 11.547C21.4547 11.1289 21.8728 10.8502 22.1516 10.3624C22.4303 9.87456 22.4303 9.31707 22.4303 8.41115C22.5 7.36585 22.5 6.73868 22.0819 6.18118ZM14.7648 19.8397L14.9042 20.6063H10.0958L10.2352 19.8397C10.2352 19.7003 10.3746 19.6307 10.4443 19.6307H14.4861C14.6254 19.6307 14.6951 19.7003 14.7648 19.8397ZM4.93902 10.2927C4.38153 10.0139 4.0331 9.80488 3.96341 9.6655C3.89373 9.52613 3.89373 9.10801 3.89373 8.41115C3.89373 7.6446 3.89373 7.15679 4.0331 7.01742C4.17247 6.80836 4.59059 6.66899 5.35714 6.45993C5.42683 7.50523 5.49652 9.1777 5.98432 10.8502L4.93902 10.2927ZM12.4652 15.0314C8.77178 15.0314 6.95993 12.1742 6.68118 6.1115C6.68118 4.99652 6.68118 4.5784 6.95993 4.29965C7.23868 3.95122 7.51742 3.88153 8.56272 3.74216C9.81707 3.5331 11.0714 3.39373 12.3955 3.39373C13.7892 3.39373 15.1829 3.46341 16.4373 3.67247C17.4826 3.81185 17.7613 3.88153 18.0401 4.22996C18.3188 4.5784 18.3188 4.92683 18.2491 6.04181C18.0401 12.1742 16.1585 15.0314 12.4652 15.0314ZM20.9669 9.6655C20.8972 9.80488 20.5488 10.0139 19.9913 10.2927L19.0157 10.8502C19.5035 9.1777 19.5732 7.50523 19.6429 6.45993C20.3397 6.66899 20.8275 6.87805 20.9669 7.01742C21.1063 7.22648 21.1063 7.6446 21.1063 8.48084C21.1063 9.10801 21.1063 9.52613 20.9669 9.6655Z" fill="#525252"/>
<path id="Vector_2" d="M14.2774 6.39039L14.0683 6.3207C13.9986 6.3207 13.9986 6.3207 13.9986 6.3207C13.9986 6.3207 13.9986 6.25101 13.9289 6.25101L13.8592 6.11164C13.4411 5.34509 13.1624 4.7876 12.4655 4.7876C11.7686 4.7876 11.4899 5.34509 11.0718 6.11164L11.0021 6.25101C11.0021 6.3207 10.9324 6.3207 10.9324 6.3207H10.8627L10.6537 6.39039C9.81742 6.59944 9.25993 6.73882 9.05087 7.36599C8.84181 7.99317 9.25993 8.48098 9.81742 9.10816L9.95679 9.24753L10.0265 9.31721C10.0265 9.31721 10.0265 9.3869 10.0265 9.45659V9.66565C9.95679 10.5019 9.88711 11.1291 10.3749 11.5472C10.584 11.6866 10.793 11.7562 11.0021 11.7562C11.3505 11.7562 11.7686 11.5472 12.2564 11.3381L12.3958 11.2684C12.3958 11.2684 12.4655 11.2684 12.4655 11.1987C12.4655 11.1987 12.5352 11.1987 12.5352 11.2684L12.6746 11.3381C13.4411 11.6866 13.9986 11.9653 14.5561 11.5472C15.1136 11.1291 15.0439 10.5019 14.9045 9.66565V9.45659C14.9045 9.3869 14.9045 9.3869 14.9045 9.31721L14.9742 9.24753L15.1136 9.10816C15.6711 8.48098 16.0892 7.99317 15.8801 7.36599C15.7408 6.73882 15.1136 6.59944 14.2774 6.39039ZM14.138 8.20223L13.9986 8.3416C13.7895 8.55066 13.7199 8.69004 13.6502 8.96878C13.5805 9.17784 13.5805 9.3869 13.6502 9.66565V9.87471C13.6502 10.0141 13.6502 10.1535 13.7199 10.2928C13.5805 10.2231 13.5108 10.2231 13.3714 10.1535L13.2321 10.0838C13.023 10.0141 12.8139 9.87471 12.6049 9.87471C12.3958 9.87471 12.1868 9.94439 11.908 10.0838L11.7686 10.1535C11.6293 10.2231 11.5596 10.2928 11.4202 10.2928C11.4202 10.1535 11.4202 10.0141 11.4899 9.87471V9.66565C11.4899 9.3869 11.5596 9.24753 11.4899 8.96878C11.4202 8.75972 11.2808 8.62035 11.1415 8.41129L10.8627 8.20223C10.793 8.06286 10.6537 7.99317 10.584 7.8538C10.7233 7.8538 10.8627 7.78411 11.0021 7.78411L11.2111 7.71443C11.4202 7.64474 11.6293 7.64474 11.8383 7.43568C12.0474 7.29631 12.1171 7.08725 12.2564 6.87819L12.3261 6.73882C12.3958 6.59944 12.4655 6.52976 12.5352 6.39039C12.6049 6.46007 12.6746 6.59944 12.7442 6.73882L12.8139 6.87819C12.9533 7.08725 13.023 7.29631 13.2321 7.43568C13.4411 7.57505 13.6502 7.64474 13.8592 7.71443L14.0683 7.78411C14.2077 7.78411 14.347 7.8538 14.4864 7.8538C14.347 7.99317 14.2077 8.13255 14.138 8.20223Z" fill="#525252"/>
</g>
</g>
</svg>
