<svg width="50" height="50" viewBox="0 0 50 50" fill="none" xmlns="http://www.w3.org/2000/svg">
<g id="Frame">
<rect width="50" height="50" rx="25" fill="#5E75C9"/>
<path id="Vector" d="M17.6735 11.667H32.3402C32.5472 11.667 32.7513 11.7152 32.9365 11.8078C33.1216 11.9003 33.2826 12.0347 33.4068 12.2003L37.0068 17.0003V37.0003C37.0068 37.3539 36.8664 37.6931 36.6163 37.9431C36.3663 38.1932 36.0271 38.3337 35.6735 38.3337H14.3402C13.9865 38.3337 13.6474 38.1932 13.3974 37.9431C13.1473 37.6931 13.0068 37.3539 13.0068 37.0003V17.0003L16.6068 12.2003C16.731 12.0347 16.8921 11.9003 17.0772 11.8078C17.2624 11.7152 17.4665 11.667 17.6735 11.667ZM34.3402 19.667H15.6735V35.667H34.3402V19.667ZM33.6735 17.0003L31.6735 14.3337H18.3402L16.3402 17.0003H33.6735ZM21.0068 22.3337V25.0003C21.0068 26.0612 21.4283 27.0786 22.1784 27.8288C22.9286 28.5789 23.946 29.0003 25.0068 29.0003C26.0677 29.0003 27.0851 28.5789 27.8353 27.8288C28.5854 27.0786 29.0068 26.0612 29.0068 25.0003V22.3337H31.6735V25.0003C31.6735 26.7684 30.9711 28.4641 29.7209 29.7144C28.4706 30.9646 26.7749 31.667 25.0068 31.667C23.2387 31.667 21.543 30.9646 20.2928 29.7144C19.0425 28.4641 18.3402 26.7684 18.3402 25.0003V22.3337H21.0068Z" fill="white"/>
</g>
</svg>
