<svg width="22" height="22" viewBox="0 0 22 22" fill="none" xmlns="http://www.w3.org/2000/svg">
<g id="Icon/shoping">
<rect width="22" height="22" rx="11" fill="#0288D1"/>
<path id="Vector" d="M14.6233 14.4375C14.2516 14.4375 13.8951 14.5824 13.6323 14.8402C13.3694 15.0981 13.2218 15.4478 13.2218 15.8125C13.2218 16.1772 13.3694 16.5269 13.6323 16.7848C13.8951 17.0426 14.2516 17.1875 14.6233 17.1875C14.995 17.1875 15.3515 17.0426 15.6143 16.7848C15.8772 16.5269 16.0248 16.1772 16.0248 15.8125C16.0248 15.4478 15.8772 15.0981 15.6143 14.8402C15.3515 14.5824 14.995 14.4375 14.6233 14.4375ZM14.6233 14.4375H9.22316C8.9001 14.4375 8.73822 14.4375 8.60507 14.3811C8.48777 14.3315 8.38649 14.2514 8.31215 14.1494C8.22806 14.0346 8.19512 13.8813 8.12925 13.5788L6.40325 5.6815C6.33598 5.37144 6.30164 5.21606 6.21755 5.10056C6.14309 4.9983 6.04155 4.91795 5.92392 4.86819C5.79148 4.8125 5.6303 4.8125 5.30795 4.8125H4.8125M6.91481 6.875H15.9358C16.4418 6.875 16.6941 6.875 16.8644 6.97813C17.0131 7.06879 17.1219 7.2108 17.1692 7.37619C17.2232 7.56456 17.1538 7.80313 17.0136 8.27956L16.0431 11.5796C15.959 11.8649 15.9169 12.0072 15.8328 12.1131C15.7575 12.2065 15.6587 12.2792 15.5462 12.3241C15.4201 12.375 15.2687 12.375 14.9681 12.375H8.12715M8.31636 17.1875C7.94464 17.1875 7.58816 17.0426 7.32532 16.7848C7.06248 16.5269 6.91481 16.1772 6.91481 15.8125C6.91481 15.4478 7.06248 15.0981 7.32532 14.8402C7.58816 14.5824 7.94464 14.4375 8.31636 14.4375C8.68807 14.4375 9.04456 14.5824 9.3074 14.8402C9.57024 15.0981 9.7179 15.4478 9.7179 15.8125C9.7179 16.1772 9.57024 16.5269 9.3074 16.7848C9.04456 17.0426 8.68807 17.1875 8.31636 17.1875Z" stroke="white" stroke-width="1.5" stroke-linecap="round" stroke-linejoin="round"/>
</g>
</svg>
