<svg width="32" height="32" viewBox="0 0 32 32" fill="none" xmlns="http://www.w3.org/2000/svg">
<g clip-path="url(#clip0_1168_26478)">
<rect width="32" height="32" rx="16" fill="white"/>
<path d="M24.4211 17.9562C24.8398 17.9562 25.2414 18.1151 25.5375 18.3979C25.8336 18.6808 26 19.0644 26 19.4644V23.4863C26 24.153 25.7227 24.7924 25.2292 25.2638C24.7357 25.7352 24.0664 26 23.3684 26H8.63158C7.93364 26 7.26429 25.7352 6.77077 25.2638C6.27725 24.7924 6 24.153 6 23.4863V19.4644C6 19.0644 6.16635 18.6808 6.46246 18.3979C6.75857 18.1151 7.16018 17.9562 7.57895 17.9562C7.99771 17.9562 8.39932 18.1151 8.69543 18.3979C8.99154 18.6808 9.15789 19.0644 9.15789 19.4644V22.9836H22.8421V19.4644C22.8421 19.0644 23.0085 18.6808 23.3046 18.3979C23.6007 18.1151 24.0023 17.9562 24.4211 17.9562Z" fill="#0288D1"/>
<path d="M21.5818 16.3695L17.3018 20.4587C16.9564 20.7884 16.488 20.9726 15.9997 20.9726C15.5114 20.9726 15.043 20.7874 14.6976 20.4577L10.4176 16.3695C10.2668 16.2303 10.1465 16.0639 10.0637 15.8799C9.98099 15.6959 9.93743 15.498 9.93561 15.2977C9.93378 15.0975 9.97373 14.8989 10.0531 14.7135C10.1325 14.5282 10.2498 14.3598 10.398 14.2182C10.5463 14.0765 10.7226 13.9646 10.9166 13.8887C11.1106 13.8129 11.3186 13.7747 11.5282 13.7765C11.7379 13.7782 11.9451 13.8198 12.1377 13.8989C12.3303 13.9779 12.5046 14.0928 12.6502 14.2368L14.4207 15.9281V7.50821C14.4207 7.10821 14.5871 6.72459 14.8832 6.44175C15.1793 6.1589 15.5809 6 15.9997 6C16.4184 6 16.8201 6.1589 17.1162 6.44175C17.4123 6.72459 17.5786 7.10821 17.5786 7.50821V15.9281L19.3492 14.2368C19.4948 14.0928 19.669 13.9779 19.8617 13.8989C20.0543 13.8198 20.2615 13.7782 20.4712 13.7765C20.6808 13.7747 20.8887 13.8129 21.0828 13.8887C21.2768 13.9646 21.4531 14.0765 21.6014 14.2182C21.7496 14.3598 21.8669 14.5282 21.9462 14.7135C22.0256 14.8989 22.0656 15.0975 22.0638 15.2977C22.0619 15.498 22.0184 15.6959 21.9356 15.8799C21.8529 16.0639 21.7326 16.2303 21.5818 16.3695Z" fill="#0288D1"/>
</g>
<defs>
<clipPath id="clip0_1168_26478">
<rect width="32" height="32" rx="16" fill="white"/>
</clipPath>
</defs>
</svg>
