<svg width="17" height="16" viewBox="0 0 17 16" fill="none" xmlns="http://www.w3.org/2000/svg">
<g id="Frame">
<path id="Vector" d="M8.51704 14C8.32816 14 8.16971 13.936 8.04171 13.808C7.91371 13.68 7.84993 13.5218 7.85038 13.3333V12.5667C7.35038 12.4556 6.91149 12.2611 6.53371 11.9833C6.15593 11.7056 5.85038 11.3167 5.61704 10.8167C5.53927 10.6611 5.5366 10.4971 5.60904 10.3247C5.68149 10.1522 5.81193 10.0273 6.00038 9.95C6.15593 9.88334 6.31705 9.88622 6.48371 9.95867C6.65038 10.0311 6.77816 10.1504 6.86705 10.3167C7.05593 10.65 7.29482 10.9027 7.58371 11.0747C7.8726 11.2467 8.22816 11.3329 8.65038 11.3333C9.10593 11.3333 9.49193 11.2304 9.80838 11.0247C10.1248 10.8189 10.2833 10.4996 10.2837 10.0667C10.2837 9.67778 10.1615 9.36956 9.91705 9.142C9.6726 8.91445 9.10593 8.656 8.21704 8.36667C7.26149 8.06667 6.60593 7.70822 6.25038 7.29134C5.89482 6.87445 5.71704 6.36622 5.71704 5.76667C5.71704 5.04445 5.95038 4.48334 6.41704 4.08334C6.88371 3.68334 7.36149 3.45556 7.85038 3.4V2.66667C7.85038 2.47778 7.91438 2.31934 8.04238 2.19134C8.17038 2.06334 8.32838 1.99956 8.51638 2C8.70527 2 8.86371 2.064 8.99171 2.192C9.11971 2.32 9.18349 2.47822 9.18305 2.66667V3.4C9.60527 3.46667 9.97193 3.60289 10.283 3.80867C10.5942 4.01445 10.8497 4.26711 11.0497 4.56667C11.1497 4.71111 11.1693 4.87222 11.1084 5.05C11.0475 5.22778 10.9224 5.35556 10.733 5.43334C10.5775 5.5 10.4164 5.50289 10.2497 5.442C10.083 5.38111 9.92749 5.27267 9.78304 5.11667C9.6386 4.96111 9.46905 4.84178 9.27438 4.75867C9.07971 4.67556 8.83816 4.63378 8.54971 4.63334C8.06082 4.63334 7.6886 4.74178 7.43304 4.95867C7.17749 5.17556 7.04993 5.44489 7.05038 5.76667C7.05038 6.13334 7.21704 6.42222 7.55038 6.63334C7.88371 6.84445 8.46149 7.06667 9.28371 7.3C10.0504 7.52222 10.631 7.87511 11.0257 8.35867C11.4204 8.84223 11.6175 9.40045 11.617 10.0333C11.617 10.8222 11.3837 11.4222 10.917 11.8333C10.4504 12.2444 9.8726 12.5 9.18371 12.6V13.3333C9.18371 13.5222 9.11971 13.6807 8.99171 13.8087C8.86371 13.9367 8.70549 14.0004 8.51704 14Z" fill="white"/>
</g>
</svg>
