<svg width="25" height="24" viewBox="0 0 25 24" fill="none" xmlns="http://www.w3.org/2000/svg">
<g id="Frame 41172" clip-path="url(#clip0_2433_40193)">
<g id="Group">
<path id="Vector" d="M17.9036 0L15.3886 6.1765H10.1836L12.4959 0H17.9036Z" fill="#AB322F"/>
<path id="Vector_2" d="M15.6269 5.11133H9.98892C9.62042 5.11133 9.31641 5.41691 9.31641 5.78732V9.39876H16.2995V5.78732C16.2995 5.40765 15.9954 5.11133 15.6269 5.11133ZM15.802 6.43553H9.6849V6.15772C9.6849 5.8614 9.92443 5.61137 10.2284 5.61137H15.2677C15.5625 5.61137 15.8112 5.85214 15.8112 6.15772V6.43553H15.802Z" fill="#8A4C00"/>
<path id="Vector_3" d="M7.75 0L10.1821 6.1765H15.3871L13.0195 0H7.75Z" fill="#FA352C"/>
<g id="Group_2">
<path id="Vector_4" d="M11.3883 6.1765L8.72589 0H8.42188L11.0843 6.1765H11.3883Z" fill="#FCE0E0"/>
<path id="Vector_5" d="M12.5133 6.1765L9.85089 0H9.54688L12.2093 6.1765H12.5133Z" fill="#FCE0E0"/>
<path id="Vector_6" d="M13.756 6.1765L11.0936 0H10.7988L13.4612 6.1765H13.756Z" fill="#FCE0E0"/>
<path id="Vector_7" d="M14.8609 6.1765L12.1985 0H11.8945L14.5569 6.1765H14.8609Z" fill="#FCE0E0"/>
</g>
<path id="Vector_8" d="M19.4324 18.1919C21.3027 14.4319 19.7866 9.85986 16.046 7.97988C12.3053 6.0999 7.75679 7.62392 5.88649 11.3839C4.01618 15.1438 5.53236 19.7159 9.27298 21.5959C13.0136 23.4759 17.5621 21.9519 19.4324 18.1919Z" fill="#FFE70F"/>
<path id="Vector_9" d="M18.7482 10.2603C19.5129 11.4455 19.9551 12.8623 19.9551 14.381C19.9551 18.5851 16.5649 21.9928 12.3824 21.9928C9.88583 21.9928 7.67484 20.7798 6.29297 18.9092C7.63799 21.0113 9.98717 22.4003 12.6588 22.4003C16.8412 22.4003 20.2314 18.9925 20.2314 14.7885C20.2314 13.0939 19.6787 11.5289 18.7482 10.2603Z" fill="#8A4C00"/>
<path id="Vector_10" d="M18.1803 17.5625C19.7047 14.4978 18.4689 10.7712 15.42 9.23884C12.3711 7.70649 8.66364 8.9487 7.13918 12.0134C5.61472 15.0781 6.85054 18.8047 9.89946 20.3371C12.9484 21.8694 16.6558 20.6272 18.1803 17.5625Z" fill="#FFDC01"/>
<g id="Group_3">
<g id="Group_4">
<path id="Vector_11" d="M11.9052 19.011C12.1447 19.2054 12.2092 19.5203 12.2092 19.5203C12.2092 19.5203 11.8867 19.5295 11.638 19.3351C11.3985 19.1406 11.334 18.8258 11.334 18.8258C11.334 18.8258 11.6656 18.8165 11.9052 19.011Z" fill="#FFF375"/>
<path id="Vector_12" d="M11.611 19.5108C11.9058 19.4089 12.2098 19.52 12.2098 19.52C12.2098 19.52 12.044 19.7978 11.7492 19.8997C11.4544 20.0015 11.1504 19.8904 11.1504 19.8904C11.1504 19.8904 11.3254 19.6126 11.611 19.5108Z" fill="#FFF375"/>
</g>
<g id="Group_5">
<path id="Vector_13" d="M10.9679 18.7515C11.1798 18.9737 11.1982 19.2978 11.1982 19.2978C11.1982 19.2978 10.8758 19.2608 10.6639 19.0385C10.452 18.8163 10.4336 18.4922 10.4336 18.4922C10.4336 18.4922 10.756 18.5292 10.9679 18.7515Z" fill="#FFF375"/>
<path id="Vector_14" d="M10.6082 19.2051C10.9123 19.1403 11.1978 19.2977 11.1978 19.2977C11.1978 19.2977 10.9952 19.5477 10.6912 19.6126C10.3871 19.6774 10.1016 19.52 10.1016 19.52C10.1016 19.52 10.3042 19.2699 10.6082 19.2051Z" fill="#FFF375"/>
<path id="Vector_15" d="M10.22 18.3905C10.395 18.6405 10.3582 18.9646 10.3582 18.9646C10.3582 18.9646 10.045 18.8813 9.86994 18.622C9.6949 18.372 9.73175 18.0479 9.73175 18.0479C9.73175 18.0479 10.045 18.1312 10.22 18.3905Z" fill="#FFF375"/>
<path id="Vector_16" d="M9.79689 18.7791C10.1101 18.7699 10.3681 18.9643 10.3681 18.9643C10.3681 18.9643 10.1285 19.1866 9.81531 19.1958C9.50209 19.2051 9.24414 19.0106 9.24414 19.0106C9.24414 19.0106 9.48366 18.7884 9.79689 18.7791Z" fill="#FFF375"/>
<path id="Vector_17" d="M9.52981 17.8253C9.64036 18.1124 9.52981 18.418 9.52981 18.418C9.52981 18.418 9.24422 18.2606 9.14288 17.9735C9.03233 17.6864 9.14288 17.3809 9.14288 17.3809C9.14288 17.3809 9.41926 17.5383 9.52981 17.8253Z" fill="#FFF375"/>
<path id="Vector_18" d="M9.02319 18.1031C9.3272 18.1679 9.52988 18.4179 9.52988 18.4179C9.52988 18.4179 9.24429 18.5753 8.94028 18.5105C8.63627 18.4457 8.43359 18.1957 8.43359 18.1957C8.43359 18.1957 8.71918 18.0382 9.02319 18.1031Z" fill="#FFF375"/>
<path id="Vector_19" d="M9.00482 17.1772C9.04167 17.4828 8.85742 17.7514 8.85742 17.7514C8.85742 17.7514 8.61789 17.5291 8.58104 17.2235C8.54419 16.918 8.72844 16.6494 8.72844 16.6494C8.72844 16.6494 8.96797 16.8717 9.00482 17.1772Z" fill="#FFF375"/>
<path id="Vector_20" d="M8.44256 17.3256C8.71893 17.4552 8.85712 17.7516 8.85712 17.7516C8.85712 17.7516 8.5439 17.8349 8.25831 17.7053C7.98194 17.5756 7.84375 17.2793 7.84375 17.2793C7.84375 17.2793 8.16619 17.196 8.44256 17.3256Z" fill="#FFF375"/>
</g>
<g id="Group_6">
<path id="Vector_21" d="M8.56179 16.353C8.53415 16.6585 8.30384 16.89 8.30384 16.89C8.30384 16.89 8.11959 16.6215 8.13801 16.3252C8.16565 16.0196 8.39596 15.7881 8.39596 15.7881C8.39596 15.7881 8.58021 16.0474 8.56179 16.353Z" fill="#FFF375"/>
<path id="Vector_22" d="M7.98133 16.3903C8.23007 16.5755 8.30377 16.8904 8.30377 16.8904C8.30377 16.8904 7.98133 16.9089 7.73259 16.7237C7.48386 16.5385 7.41016 16.2237 7.41016 16.2237C7.41016 16.2237 7.73259 16.2051 7.98133 16.3903Z" fill="#FFF375"/>
<path id="Vector_23" d="M8.33168 15.5751C8.25798 15.8714 7.99082 16.0659 7.99082 16.0659C7.99082 16.0659 7.84342 15.7788 7.91712 15.4825C7.99082 15.1862 8.25798 14.9917 8.25798 14.9917C8.25798 14.9917 8.40538 15.2788 8.33168 15.5751Z" fill="#FFF375"/>
<path id="Vector_24" d="M7.75057 15.5196C7.96245 15.7418 7.99009 16.0659 7.99009 16.0659C7.99009 16.0659 7.66765 16.0289 7.44656 15.8159C7.23467 15.5936 7.20703 15.2695 7.20703 15.2695C7.20703 15.2695 7.52947 15.2973 7.75057 15.5196Z" fill="#FFF375"/>
<path id="Vector_25" d="M8.30238 14.705C8.15498 14.9735 7.85097 15.0939 7.85097 15.0939C7.85097 15.0939 7.78648 14.7791 7.92467 14.5105C8.07207 14.242 8.37608 14.1216 8.37608 14.1216C8.37608 14.1216 8.44978 14.4364 8.30238 14.705Z" fill="#FFF375"/>
<path id="Vector_26" d="M7.75134 14.5101C7.90795 14.7786 7.85267 15.0934 7.85267 15.0934C7.85267 15.0934 7.54866 14.9823 7.39205 14.723C7.23544 14.4545 7.29071 14.1396 7.29071 14.1396C7.29071 14.1396 7.60394 14.2508 7.75134 14.5101Z" fill="#FFF375"/>
<path id="Vector_27" d="M8.4587 13.8251C8.25603 14.0566 7.93359 14.1029 7.93359 14.1029C7.93359 14.1029 7.94281 13.7788 8.14548 13.5473C8.34815 13.3158 8.67059 13.2695 8.67059 13.2695C8.67059 13.2695 8.66138 13.5936 8.4587 13.8251Z" fill="#FFF375"/>
<path id="Vector_28" d="M7.97217 13.5104C8.0643 13.8067 7.92611 14.103 7.92611 14.103C7.92611 14.103 7.64974 13.9271 7.56682 13.6307C7.4747 13.3344 7.61289 13.0381 7.61289 13.0381C7.61289 13.0381 7.88005 13.2233 7.97217 13.5104Z" fill="#FFF375"/>
</g>
<path id="Vector_29" d="M8.77374 13.1027C8.52501 13.2787 8.19336 13.2509 8.19336 13.2509C8.19336 13.2509 8.27627 12.9361 8.52501 12.7601C8.77374 12.5842 9.10539 12.612 9.10539 12.612C9.10539 12.612 9.02248 12.9268 8.77374 13.1027Z" fill="#FFF375"/>
<path id="Vector_30" d="M8.36892 12.6865C8.38735 12.9921 8.19389 13.2514 8.19389 13.2514C8.19389 13.2514 7.97279 13.0199 7.95436 12.7143C7.93594 12.4087 8.1294 12.1494 8.1294 12.1494C8.1294 12.1494 8.3505 12.3809 8.36892 12.6865Z" fill="#FFF375"/>
<path id="Vector_31" d="M9.16912 12.4454C8.89275 12.5843 8.57031 12.5009 8.57031 12.5009C8.57031 12.5009 8.69929 12.2046 8.97566 12.0657C9.25204 11.9268 9.57447 12.0101 9.57447 12.0101C9.57447 12.0101 9.4455 12.3157 9.16912 12.4454Z" fill="#FFF375"/>
<path id="Vector_32" d="M8.83676 11.9735C8.80912 12.2791 8.56959 12.5014 8.56959 12.5014C8.56959 12.5014 8.38534 12.2328 8.41298 11.9272C8.44062 11.6217 8.68014 11.3994 8.68014 11.3994C8.68014 11.3994 8.86439 11.6772 8.83676 11.9735Z" fill="#FFF375"/>
<g id="Group_7">
<path id="Vector_33" d="M13.5814 18.9738C13.3418 19.1683 13.2773 19.4832 13.2773 19.4832C13.2773 19.4832 13.5998 19.4924 13.8485 19.298C14.088 19.1035 14.1525 18.7886 14.1525 18.7886C14.1525 18.7886 13.8209 18.7794 13.5814 18.9738Z" fill="#FFF375"/>
<path id="Vector_34" d="M13.8762 19.4644C13.5814 19.3625 13.2773 19.4736 13.2773 19.4736C13.2773 19.4736 13.4432 19.7514 13.738 19.8533C14.0328 19.9552 14.3368 19.844 14.3368 19.844C14.3368 19.844 14.1617 19.5662 13.8762 19.4644Z" fill="#FFF375"/>
</g>
<g id="Group_8">
<path id="Vector_35" d="M14.4022 18.7515C14.1903 18.9737 14.1719 19.2978 14.1719 19.2978C14.1719 19.2978 14.4943 19.2608 14.7062 19.0385C14.9181 18.8163 14.9365 18.4922 14.9365 18.4922C14.9365 18.4922 14.6141 18.5292 14.4022 18.7515Z" fill="#FFF375"/>
<path id="Vector_36" d="M14.7615 19.2051C14.4575 19.1403 14.1719 19.2977 14.1719 19.2977C14.1719 19.2977 14.3745 19.5477 14.6786 19.6126C14.9826 19.6774 15.2682 19.52 15.2682 19.52C15.2682 19.52 15.0655 19.2699 14.7615 19.2051Z" fill="#FFF375"/>
<path id="Vector_37" d="M15.1492 18.3534C14.9742 18.6034 15.011 18.9275 15.011 18.9275C15.011 18.9275 15.3243 18.8442 15.4993 18.5849C15.6743 18.3348 15.6375 18.0107 15.6375 18.0107C15.6375 18.0107 15.3243 18.1033 15.1492 18.3534Z" fill="#FFF375"/>
<path id="Vector_38" d="M15.5712 18.742C15.2579 18.7328 15 18.9272 15 18.9272C15 18.9272 15.2395 19.1495 15.5527 19.1587C15.866 19.168 16.1239 18.9735 16.1239 18.9735C16.1239 18.9735 15.8752 18.7605 15.5712 18.742Z" fill="#FFF375"/>
<path id="Vector_39" d="M15.8109 17.8068C15.7003 18.0939 15.8109 18.3994 15.8109 18.3994C15.8109 18.3994 16.0964 18.242 16.1978 17.955C16.3083 17.6679 16.1978 17.3623 16.1978 17.3623C16.1978 17.3623 15.9214 17.5197 15.8109 17.8068Z" fill="#FFF375"/>
<path id="Vector_40" d="M16.327 18.0845C16.023 18.1493 15.8203 18.3993 15.8203 18.3993C15.8203 18.3993 16.1059 18.5568 16.4099 18.4919C16.7139 18.4271 16.9166 18.1771 16.9166 18.1771C16.9166 18.1771 16.6218 18.0197 16.327 18.0845Z" fill="#FFF375"/>
<path id="Vector_41" d="M16.3642 17.1123C16.3274 17.4179 16.5116 17.6864 16.5116 17.6864C16.5116 17.6864 16.7512 17.4642 16.788 17.1586C16.8249 16.853 16.6406 16.5845 16.6406 16.5845C16.6406 16.5845 16.4011 16.8067 16.3642 17.1123Z" fill="#FFF375"/>
<path id="Vector_42" d="M16.9263 17.2607C16.6499 17.3903 16.5117 17.6866 16.5117 17.6866C16.5117 17.6866 16.8249 17.77 17.1105 17.6403C17.3869 17.5107 17.5251 17.2144 17.5251 17.2144C17.5251 17.2144 17.2027 17.131 16.9263 17.2607Z" fill="#FFF375"/>
</g>
<g id="Group_9">
<path id="Vector_43" d="M16.7605 16.3437C16.7882 16.6493 17.0185 16.8808 17.0185 16.8808C17.0185 16.8808 17.2027 16.6122 17.1843 16.3159C17.1567 16.0103 16.9263 15.7788 16.9263 15.7788C16.9263 15.7788 16.7329 16.0381 16.7605 16.3437Z" fill="#FFF375"/>
<path id="Vector_44" d="M17.342 16.3718C17.0932 16.557 17.0195 16.8719 17.0195 16.8719C17.0195 16.8719 17.342 16.8904 17.5907 16.7052C17.8394 16.52 17.9131 16.2052 17.9131 16.2052C17.9131 16.2052 17.5907 16.1959 17.342 16.3718Z" fill="#FFF375"/>
<path id="Vector_45" d="M16.9894 15.557C17.0631 15.8533 17.3302 16.0478 17.3302 16.0478C17.3302 16.0478 17.4776 15.7607 17.4039 15.4644C17.3302 15.1681 17.0631 14.9736 17.0631 14.9736C17.0631 14.9736 16.9157 15.2607 16.9894 15.557Z" fill="#FFF375"/>
<path id="Vector_46" d="M17.5716 15.5015C17.3597 15.7237 17.332 16.0478 17.332 16.0478C17.332 16.0478 17.6545 16.0108 17.8756 15.7978C18.0875 15.5756 18.1151 15.2515 18.1151 15.2515C18.1151 15.2515 17.7834 15.2792 17.5716 15.5015Z" fill="#FFF375"/>
<path id="Vector_47" d="M17.0179 14.7142C17.1653 14.9828 17.4693 15.1032 17.4693 15.1032C17.4693 15.1032 17.5338 14.7883 17.3956 14.5198C17.2482 14.2512 16.9442 14.1309 16.9442 14.1309C16.9442 14.1309 16.8705 14.4457 17.0179 14.7142Z" fill="#FFF375"/>
<path id="Vector_48" d="M17.562 14.5291C17.4054 14.7976 17.4606 15.1125 17.4606 15.1125C17.4606 15.1125 17.7646 15.0014 17.9213 14.7421C18.0779 14.4735 18.0226 14.1587 18.0226 14.1587C18.0226 14.1587 17.7186 14.2606 17.562 14.5291Z" fill="#FFF375"/>
<path id="Vector_49" d="M16.8525 13.8344C17.0552 14.0659 17.3776 14.1122 17.3776 14.1122C17.3776 14.1122 17.3684 13.7881 17.1657 13.5566C16.9631 13.3251 16.6406 13.2788 16.6406 13.2788C16.6406 13.2788 16.6498 13.6122 16.8525 13.8344Z" fill="#FFF375"/>
<path id="Vector_50" d="M17.3403 13.5196C17.2481 13.816 17.3863 14.1123 17.3863 14.1123C17.3863 14.1123 17.6627 13.9363 17.7456 13.64C17.8377 13.3437 17.6995 13.0474 17.6995 13.0474C17.6995 13.0474 17.4232 13.2326 17.3403 13.5196Z" fill="#FFF375"/>
</g>
<path id="Vector_51" d="M16.5484 13.1306C16.7972 13.3065 17.1288 13.2787 17.1288 13.2787C17.1288 13.2787 17.0459 12.9639 16.7972 12.7879C16.5484 12.612 16.2168 12.6398 16.2168 12.6398C16.2168 12.6398 16.2905 12.9546 16.5484 13.1306Z" fill="#FFF375"/>
<path id="Vector_52" d="M16.9446 12.7138C16.9262 13.0194 17.1196 13.2787 17.1196 13.2787C17.1196 13.2787 17.3407 13.0472 17.3592 12.7416C17.3776 12.436 17.1841 12.1768 17.1841 12.1768C17.1841 12.1768 16.963 12.4083 16.9446 12.7138Z" fill="#FFF375"/>
<path id="Vector_53" d="M16.1241 12.4825C16.4005 12.6214 16.7229 12.538 16.7229 12.538C16.7229 12.538 16.5939 12.2417 16.3176 12.1028C16.0412 11.9639 15.7188 12.0473 15.7188 12.0473C15.7188 12.0473 15.8477 12.3436 16.1241 12.4825Z" fill="#FFF375"/>
<path id="Vector_54" d="M16.456 12.0102C16.4836 12.3157 16.7231 12.538 16.7231 12.538C16.7231 12.538 16.9074 12.2694 16.8797 11.9639C16.8521 11.6583 16.6126 11.436 16.6126 11.436C16.6126 11.436 16.4283 11.7046 16.456 12.0102Z" fill="#FFF375"/>
<path id="Vector_55" d="M15.9038 11.5474C15.8946 11.5566 15.8762 11.5751 15.8578 11.5844C15.8486 11.5844 15.8486 11.5937 15.8394 11.5937C16.8067 12.4271 17.4147 13.6216 17.4147 14.9551C17.4147 17.4553 15.2774 19.4833 12.6426 19.4833C10.0079 19.4833 7.87057 17.4553 7.87057 14.9551C7.87057 13.6772 8.43254 12.5289 9.32614 11.7048C9.29851 11.6955 9.27087 11.6863 9.25245 11.677C8.35884 12.5104 7.79688 13.6772 7.79688 14.9551C7.79688 17.4924 9.97102 19.5574 12.6426 19.5574C15.3142 19.5574 17.4884 17.4924 17.4884 14.9551C17.4976 13.6031 16.8804 12.39 15.9038 11.5474Z" fill="#FFF375"/>
<path id="Vector_56" d="M9.81421 11.8716C9.5102 11.9364 9.22461 11.7883 9.22461 11.7883C9.22461 11.7883 9.42728 11.529 9.7313 11.4642C10.0353 11.3993 10.3209 11.5475 10.3209 11.5475C10.3209 11.5475 10.109 11.8068 9.81421 11.8716Z" fill="#FFF375"/>
<path id="Vector_57" d="M9.60297 11.3343C9.50163 11.6214 9.21604 11.7881 9.21604 11.7881C9.21604 11.7881 9.10549 11.4825 9.20683 11.1954C9.30817 10.9084 9.59375 10.7417 9.59375 10.7417C9.59375 10.7417 9.71352 11.0473 9.60297 11.3343Z" fill="#FFF375"/>
<path id="Vector_58" d="M15.5184 11.8716C15.8224 11.9364 16.108 11.7883 16.108 11.7883C16.108 11.7883 15.9053 11.529 15.6013 11.4642C15.2973 11.3993 15.0117 11.5475 15.0117 11.5475C15.0117 11.5475 15.2144 11.8068 15.5184 11.8716Z" fill="#FFF375"/>
<path id="Vector_59" d="M15.7185 11.3343C15.8199 11.6214 16.1055 11.7881 16.1055 11.7881C16.1055 11.7881 16.216 11.4825 16.1147 11.1954C16.0133 10.9084 15.7278 10.7417 15.7278 10.7417C15.7278 10.7417 15.6172 11.0473 15.7185 11.3343Z" fill="#FFF375"/>
</g>
<path id="Vector_60" d="M12.3935 12.0659H13.4621V17.2238H12.2093V13.4549L11.2604 14.1124L10.6523 13.2234L12.3935 12.0659Z" fill="#BA7E00"/>
</g>
</g>
<defs>
<clipPath id="clip0_2433_40193">
<rect width="24" height="24" fill="white" transform="translate(0.5)"/>
</clipPath>
</defs>
</svg>
