<svg width="24" height="24" viewBox="0 0 24 24" fill="none" xmlns="http://www.w3.org/2000/svg">
<path d="M7.4668 9.75049H10.6001Z" fill="#0288D1"/>
<path d="M7.4668 9.75049H10.6001" stroke="#0288D1" stroke-width="1.125" stroke-linecap="round" stroke-linejoin="round"/>
<path d="M19.0858 10.5338H17.0476C15.6493 10.5338 14.5166 11.5858 14.5166 12.8838C14.5166 14.1818 15.6501 15.2338 17.0468 15.2338H19.0858C19.1516 15.2338 19.1837 15.2338 19.2111 15.2322C19.6341 15.2064 19.971 14.8938 19.9984 14.5014C19.9999 14.4763 19.9999 14.4458 19.9999 14.3855V11.3822C19.9999 11.3218 19.9999 11.2913 19.9984 11.2662C19.9702 10.8738 19.6341 10.5612 19.2111 10.5354C19.1837 10.5338 19.1516 10.5338 19.0858 10.5338Z" stroke="#0288D1" stroke-width="1.125"/>
<path d="M19.1889 10.5339C19.1278 9.06745 18.932 8.16819 18.2983 7.53525C17.381 6.61719 15.9036 6.61719 12.9497 6.61719H10.5997C7.64572 6.61719 6.16836 6.61719 5.25107 7.53525C4.33301 8.45254 4.33301 9.9299 4.33301 12.8839C4.33301 15.8378 4.33301 17.3152 5.25107 18.2325C6.16836 19.1505 7.64572 19.1505 10.5997 19.1505H12.9497C15.9036 19.1505 17.381 19.1505 18.2983 18.2325C18.932 17.5995 19.1286 16.7003 19.1889 15.2339" stroke="#0288D1" stroke-width="1.125"/>
<path d="M7.4668 6.61714L10.3925 4.67682C10.804 4.40918 11.2843 4.26672 11.7751 4.26672C12.266 4.26672 12.7463 4.40918 13.1577 4.67682L16.0835 6.61714" stroke="#0288D1" stroke-width="1.125" stroke-linecap="round"/>
<path d="M16.8594 12.8838H16.8679" stroke="#0288D1" stroke-width="1.125" stroke-linecap="round" stroke-linejoin="round"/>
</svg>
