<svg width="50" height="50" viewBox="0 0 50 50" fill="none" xmlns="http://www.w3.org/2000/svg">
<g id="Frame">
<rect width="50" height="50" rx="25" fill="#039BE5"/>
<g id="Vector">
<path d="M29.75 25.0565C29.7511 24.1962 29.472 23.359 28.955 22.6715L30.95 20.6915C31.3401 20.8537 31.7575 20.9403 32.18 20.9465C32.5622 20.9585 32.943 20.895 33.3007 20.7598C33.6583 20.6245 33.9858 20.4201 34.2644 20.1582C34.5431 19.8963 34.7673 19.5821 34.9244 19.2334C35.0815 18.8848 35.1684 18.5087 35.18 18.1265C35.18 17.3308 34.8639 16.5677 34.3013 16.0051C33.7387 15.4425 32.9757 15.1265 32.18 15.1265C31.3843 15.1265 30.6213 15.4425 30.0587 16.0051C29.4961 16.5677 29.18 17.3308 29.18 18.1265C29.1819 18.5904 29.3061 19.0457 29.54 19.4465L27.545 21.4415C26.8437 21.0489 26.0537 20.8424 25.25 20.8415C24.2577 20.8278 23.2888 21.1425 22.4939 21.7366C21.699 22.3307 21.1228 23.1709 20.855 24.1265H19.82C19.5935 23.5663 19.203 23.0876 18.6999 22.753C18.1967 22.4184 17.6042 22.2436 17 22.2515C16.2306 22.2272 15.483 22.5087 14.9207 23.0344C14.3585 23.5601 14.0274 24.2872 14 25.0565C14.0116 25.4387 14.0985 25.8148 14.2556 26.1634C14.4127 26.5121 14.637 26.8263 14.9156 27.0882C15.1942 27.3501 15.5217 27.5545 15.8793 27.6898C16.237 27.825 16.6178 27.8885 17 27.8765C17.6042 27.8843 18.1967 27.7095 18.6999 27.3749C19.203 27.0403 19.5935 26.5616 19.82 26.0015H20.855C21.1228 26.957 21.699 27.7972 22.4939 28.3913C23.2888 28.9854 24.2577 29.3001 25.25 29.2865C25.8233 29.3045 26.3945 29.2093 26.931 29.0064C27.4675 28.8035 27.9587 28.4969 28.3767 28.1041C28.7946 27.7112 29.131 27.2399 29.3666 26.7169C29.6023 26.194 29.7325 25.6298 29.75 25.0565ZM32.18 17.1965C32.4523 17.1714 32.7236 17.2551 32.9344 17.4294C33.1451 17.6036 33.2784 17.8542 33.305 18.1265C33.2613 18.3933 33.1241 18.6359 32.9181 18.811C32.712 18.986 32.4504 19.0821 32.18 19.0821C31.9096 19.0821 31.648 18.986 31.4419 18.811C31.2359 18.6359 31.0987 18.3933 31.055 18.1265C31.0853 17.8558 31.2196 17.6075 31.4295 17.434C31.6394 17.2605 31.9085 17.1753 32.18 17.1965ZM17 26.0015C16.7261 26.0224 16.455 25.9351 16.2447 25.7585C16.0344 25.5818 15.9017 25.3298 15.875 25.0565C15.9053 24.7858 16.0396 24.5375 16.2495 24.364C16.4594 24.1905 16.7285 24.1053 17 24.1265C17.2715 24.1053 17.5406 24.1905 17.7505 24.364C17.9604 24.5375 18.0947 24.7858 18.125 25.0565C18.0983 25.3298 17.9656 25.5818 17.7553 25.7585C17.545 25.9351 17.2739 26.0224 17 26.0015ZM25.25 27.4115C24.5904 27.4442 23.9445 27.2152 23.4529 26.7741C22.9613 26.3331 22.6637 25.7158 22.625 25.0565C22.6637 24.3984 22.9617 23.7825 23.4538 23.3438C23.9459 22.9052 24.5918 22.6796 25.25 22.7165C25.9072 22.6836 26.5509 22.9106 27.0421 23.3484C27.5333 23.7863 27.8325 24.3998 27.875 25.0565C27.8325 25.7143 27.5338 26.3294 27.0431 26.7696C26.5524 27.2099 25.9086 27.4403 25.25 27.4115Z" fill="white"/>
<path d="M17 19.6265C17.4234 19.6292 17.8426 19.5423 18.23 19.3715L20.87 22.0565C21.2523 21.546 21.719 21.1046 22.25 20.7515L19.64 18.1265C19.8739 17.7257 19.9981 17.2704 20 16.8065C19.9726 16.0372 19.6415 15.3101 19.0793 14.7844C18.517 14.2587 17.7694 13.9772 17 14.0015C16.2306 13.9772 15.483 14.2587 14.9207 14.7844C14.3585 15.3101 14.0274 16.0372 14 16.8065C14.0116 17.1887 14.0985 17.5648 14.2556 17.9134C14.4127 18.2621 14.637 18.5763 14.9156 18.8382C15.1942 19.1001 15.5217 19.3045 15.8793 19.4398C16.237 19.575 16.6178 19.6385 17 19.6265ZM17 15.8765C17.2715 15.8553 17.5406 15.9405 17.7505 16.114C17.9604 16.2875 18.0947 16.5358 18.125 16.8065C18.0983 17.0798 17.9656 17.3318 17.7553 17.5085C17.545 17.6851 17.2739 17.7724 17 17.7515C16.7261 17.7724 16.455 17.6851 16.2447 17.5085C16.0344 17.3318 15.9017 17.0798 15.875 16.8065C15.9053 16.5358 16.0396 16.2875 16.2495 16.114C16.4594 15.9405 16.7285 15.8553 17 15.8765ZM33.5 30.5015C33.0766 30.4987 32.6574 30.5856 32.27 30.7565L29.63 28.0565C29.2394 28.5521 28.7677 28.9781 28.235 29.3165L30.845 31.9265C30.6157 32.3284 30.4966 32.7837 30.5 33.2465C30.5 34.0421 30.8161 34.8052 31.3787 35.3678C31.9413 35.9304 32.7043 36.2465 33.5 36.2465C34.2957 36.2465 35.0587 35.9304 35.6213 35.3678C36.1839 34.8052 36.5 34.0421 36.5 33.2465C36.4573 32.4878 36.1196 31.776 35.559 31.263C34.9984 30.7501 34.2594 30.4768 33.5 30.5015ZM33.5 34.2515C33.2261 34.2724 32.955 34.1851 32.7447 34.0085C32.5344 33.8318 32.4017 33.5798 32.375 33.3065C32.4187 33.0396 32.5559 32.797 32.7619 32.6219C32.968 32.4469 33.2296 32.3508 33.5 32.3508C33.7704 32.3508 34.032 32.4469 34.2381 32.6219C34.4441 32.797 34.5813 33.0396 34.625 33.3065C34.5983 33.5798 34.4656 33.8318 34.2553 34.0085C34.045 34.1851 33.7739 34.2724 33.5 34.2515Z" fill="white"/>
</g>
</g>
</svg>
