<svg width="50" height="50" viewBox="0 0 50 50" fill="none" xmlns="http://www.w3.org/2000/svg">
<g id="Frame">
<rect width="50" height="50" rx="25" fill="#00C3CF"/>
<path id="Vector" d="M37 15H13C12.4696 15 11.9609 15.2107 11.5858 15.5858C11.2107 15.9609 11 16.4696 11 17V33C11 33.5304 11.2107 34.0391 11.5858 34.4142C11.9609 34.7893 12.4696 35 13 35H37C37.5304 35 38.0391 34.7893 38.4142 34.4142C38.7893 34.0391 39 33.5304 39 33V17C39 16.4696 38.7893 15.9609 38.4142 15.5858C38.0391 15.2107 37.5304 15 37 15ZM37 17V20H13V17H37ZM37 33H13V22H37V33ZM35 30C35 30.2652 34.8946 30.5196 34.7071 30.7071C34.5196 30.8946 34.2652 31 34 31H30C29.7348 31 29.4804 30.8946 29.2929 30.7071C29.1054 30.5196 29 30.2652 29 30C29 29.7348 29.1054 29.4804 29.2929 29.2929C29.4804 29.1054 29.7348 29 30 29H34C34.2652 29 34.5196 29.1054 34.7071 29.2929C34.8946 29.4804 35 29.7348 35 30ZM27 30C27 30.2652 26.8946 30.5196 26.7071 30.7071C26.5196 30.8946 26.2652 31 26 31H24C23.7348 31 23.4804 30.8946 23.2929 30.7071C23.1054 30.5196 23 30.2652 23 30C23 29.7348 23.1054 29.4804 23.2929 29.2929C23.4804 29.1054 23.7348 29 24 29H26C26.2652 29 26.5196 29.1054 26.7071 29.2929C26.8946 29.4804 27 29.7348 27 30Z" fill="white"/>
</g>
</svg>
