<svg width="20" height="20" viewBox="0 0 20 20" fill="none" xmlns="http://www.w3.org/2000/svg">
<g id="Icon/phone">
<path id="Vector" d="M15.5469 16.25C13.9221 16.25 12.3935 15.9427 10.9611 15.3281C9.52872 14.7135 8.27884 13.8723 7.21143 12.8044C6.14403 11.7369 5.30035 10.4869 4.68041 9.05438C4.06046 7.62188 3.7507 6.08833 3.75112 4.45375C3.7407 4.26625 3.80319 4.10208 3.9386 3.96125C4.074 3.82042 4.24066 3.75 4.43855 3.75H6.87584C7.06332 3.75 7.22476 3.82042 7.36017 3.96125C7.49557 4.10208 7.56328 4.27125 7.56328 4.46875C7.56328 4.92708 7.59452 5.35938 7.65702 5.76562C7.71951 6.17188 7.81846 6.55729 7.95387 6.92188C8.00594 7.03646 8.01636 7.15354 7.98511 7.27313C7.95386 7.39271 7.89137 7.50479 7.79763 7.60938L6.23527 9.17188C6.68315 10.0885 7.3185 10.9583 8.14135 11.7812C8.96419 12.6042 9.84953 13.2604 10.7974 13.75L12.3597 12.1875C12.4535 12.0938 12.5628 12.0312 12.6878 12C12.8128 11.9688 12.9378 11.9792 13.0628 12.0312C13.4482 12.1562 13.8467 12.2527 14.2583 12.3206C14.6699 12.3885 15.0943 12.4223 15.5313 12.4219C15.7292 12.4219 15.8986 12.4948 16.0394 12.6406C16.1802 12.7865 16.2504 12.9635 16.25 13.1719V15.5625C16.25 15.75 16.1823 15.9115 16.0469 16.0469C15.9115 16.1823 15.7448 16.25 15.5469 16.25ZM11.9535 14.375C12.4222 14.5521 12.9118 14.6927 13.4221 14.7969C13.9325 14.901 14.4585 14.9688 15.0001 15V13.6562C14.6772 13.6354 14.3464 13.599 14.0077 13.5469C13.669 13.4948 13.3332 13.4167 13.0003 13.3125L11.9535 14.375ZM15.0001 10C15.0001 8.60417 14.5158 7.42187 13.5471 6.45312C12.5785 5.48437 11.3963 5 10.0006 5V3.75C10.8651 3.75 11.6775 3.91417 12.4378 4.2425C13.1982 4.57083 13.8596 5.01604 14.422 5.57813C14.9845 6.14062 15.4299 6.80208 15.7582 7.5625C16.0865 8.32292 16.2504 9.13542 16.25 10H15.0001ZM12.5003 10C12.5003 9.3125 12.2556 8.72396 11.766 8.23438C11.2765 7.74479 10.688 7.5 10.0006 7.5V6.25C11.0421 6.25 11.9275 6.61458 12.6566 7.34375C13.3857 8.07292 13.7502 8.95833 13.7502 10H12.5003ZM5.62595 8.01562L6.65711 6.96875C6.57378 6.66667 6.50337 6.34896 6.44587 6.01562C6.38838 5.68229 6.34943 5.34375 6.32901 5H5.01663C5.03746 5.5 5.09995 6 5.20411 6.5C5.30827 7 5.44888 7.50521 5.62595 8.01562Z" fill="#0288D1"/>
</g>
</svg>
