<svg width="32" height="32" viewBox="0 0 32 32" fill="none" xmlns="http://www.w3.org/2000/svg">
<rect width="32" height="32" rx="16" fill="#D51E03"/>
<path d="M12.22 19.6H16C16.34 19.6 16.6252 19.4848 16.8556 19.2544C17.086 19.024 17.2008 18.7392 17.2 18.4C17.2 18.06 17.0848 17.7748 16.8544 17.5444C16.624 17.314 16.3392 17.1992 16 17.2H12.22L13.27 16.12C13.49 15.9 13.6 15.6248 13.6 15.2944C13.6 14.964 13.48 14.6792 13.24 14.44C13.02 14.22 12.74 14.11 12.4 14.11C12.06 14.11 11.78 14.22 11.56 14.44L8.44 17.56C8.2 17.8 8.08 18.08 8.08 18.4C8.08 18.72 8.2 19 8.44 19.24L11.56 22.36C11.78 22.58 12.0552 22.6952 12.3856 22.7056C12.716 22.716 13.0008 22.6008 13.24 22.36C13.46 22.14 13.5752 21.8648 13.5856 21.5344C13.596 21.204 13.4908 20.9192 13.27 20.68L12.22 19.6ZM19.78 14.8L18.73 15.88C18.51 16.1 18.4 16.3752 18.4 16.7056C18.4 17.036 18.52 17.3208 18.76 17.56C18.98 17.78 19.26 17.89 19.6 17.89C19.94 17.89 20.22 17.78 20.44 17.56L23.56 14.44C23.8 14.2 23.92 13.92 23.92 13.6C23.92 13.28 23.8 13 23.56 12.76L20.44 9.64C20.22 9.42 19.9452 9.3048 19.6156 9.2944C19.286 9.284 19.0008 9.3992 18.76 9.64C18.54 9.86 18.4248 10.1352 18.4144 10.4656C18.404 10.796 18.5092 11.0808 18.73 11.32L19.78 12.4H16C15.66 12.4 15.3748 12.5152 15.1444 12.7456C14.914 12.976 14.7992 13.2608 14.8 13.6C14.8 13.94 14.9152 14.2252 15.1456 14.4556C15.376 14.686 15.6608 14.8008 16 14.8H19.78ZM16 28C14.34 28 12.78 27.6848 11.32 27.0544C9.86 26.424 8.59 25.5692 7.51 24.49C6.43 23.41 5.5752 22.14 4.9456 20.68C4.316 19.22 4.0008 17.66 4 16C4 14.34 4.3152 12.78 4.9456 11.32C5.576 9.86 6.4308 8.59 7.51 7.51C8.59 6.43 9.86 5.5752 11.32 4.9456C12.78 4.316 14.34 4.0008 16 4C17.66 4 19.22 4.3152 20.68 4.9456C22.14 5.576 23.41 6.4308 24.49 7.51C25.57 8.59 26.4252 9.86 27.0556 11.32C27.686 12.78 28.0008 14.34 28 16C28 17.66 27.6848 19.22 27.0544 20.68C26.424 22.14 25.5692 23.41 24.49 24.49C23.41 25.57 22.14 26.4252 20.68 27.0556C19.22 27.686 17.66 28.0008 16 28ZM16 25.6C18.68 25.6 20.95 24.67 22.81 22.81C24.67 20.95 25.6 18.68 25.6 16C25.6 13.32 24.67 11.05 22.81 9.19C20.95 7.33 18.68 6.4 16 6.4C13.32 6.4 11.05 7.33 9.19 9.19C7.33 11.05 6.4 13.32 6.4 16C6.4 18.68 7.33 20.95 9.19 22.81C11.05 24.67 13.32 25.6 16 25.6Z" fill="white"/>
</svg>
