<svg width="25" height="24" viewBox="0 0 25 24" fill="none" xmlns="http://www.w3.org/2000/svg">
<g id="Frame">
<path id="Vector" d="M4.86699 6.15H2.91699V19.8C2.91699 20.8725 3.79449 21.75 4.86699 21.75H18.517V19.8H4.86699V6.15ZM20.467 2.25H8.76699C7.69449 2.25 6.81699 3.1275 6.81699 4.2V15.9C6.81699 16.9725 7.69449 17.85 8.76699 17.85H20.467C21.5395 17.85 22.417 16.9725 22.417 15.9V4.2C22.417 3.1275 21.5395 2.25 20.467 2.25ZM20.467 15.9H8.76699V4.2H20.467V15.9ZM10.717 9.075H18.517V11.025H10.717V9.075ZM10.717 12H14.617V13.95H10.717V12ZM10.717 6.15H18.517V8.1H10.717V6.15Z" fill="#525252"/>
</g>
</svg>
