<svg width="24" height="24" viewBox="0 0 24 24" fill="none" xmlns="http://www.w3.org/2000/svg">
<path d="M4 18.4H20V20H4V18.4ZM5.6 12H7.2V17.6H5.6V12ZM9.6 12H11.2V17.6H9.6V12ZM12.8 12H14.4V17.6H12.8V12ZM16.8 12H18.4V17.6H16.8V12ZM4 8L12 4L20 8V11.2H4V8ZM5.6 8.9888V9.6H18.4V8.9888L12 5.7888L5.6 8.9888ZM12 8.8C11.7878 8.8 11.5843 8.71571 11.4343 8.56569C11.2843 8.41566 11.2 8.21217 11.2 8C11.2 7.78783 11.2843 7.58434 11.4343 7.43431C11.5843 7.28429 11.7878 7.2 12 7.2C12.2122 7.2 12.4157 7.28429 12.5657 7.43431C12.7157 7.58434 12.8 7.78783 12.8 8C12.8 8.21217 12.7157 8.41566 12.5657 8.56569C12.4157 8.71571 12.2122 8.8 12 8.8Z" fill="#0288D1"/>
</svg>
