<svg width="24" height="24" viewBox="0 0 24 24" fill="none" xmlns="http://www.w3.org/2000/svg">
<path d="M18.587 11.706L12.287 5.406C12.0245 5.14566 11.6697 4.99971 11.3 5H6.4C6.0287 5 5.6726 5.1475 5.41005 5.41005C5.1475 5.6726 5 6.0287 5 6.4V11.3C4.99985 11.4847 5.03627 11.6677 5.10715 11.8383C5.17804 12.0089 5.28198 12.1638 5.413 12.294L11.713 18.594C11.9755 18.8543 12.3303 19.0003 12.7 19C13.0707 18.9984 13.4257 18.8499 13.687 18.587L18.587 13.687C18.8499 13.4257 18.9984 13.0707 19 12.7C19.0001 12.5153 18.9637 12.3323 18.8928 12.1617C18.822 11.9911 18.718 11.8362 18.587 11.706ZM12.7 17.6L6.4 11.3V6.4H11.3L17.6 12.7M8.15 7.1C8.35767 7.1 8.56068 7.16158 8.73335 7.27696C8.90602 7.39233 9.0406 7.55632 9.12007 7.74818C9.19955 7.94005 9.22034 8.15116 9.17982 8.35484C9.13931 8.55852 9.03931 8.74562 8.89246 8.89246C8.74562 9.03931 8.55852 9.13931 8.35484 9.17982C8.15116 9.22034 7.94005 9.19955 7.74818 9.12007C7.55632 9.0406 7.39233 8.90602 7.27696 8.73335C7.16158 8.56068 7.1 8.35767 7.1 8.15C7.1 7.87152 7.21062 7.60445 7.40754 7.40754C7.60445 7.21062 7.87152 7.1 8.15 7.1Z" fill="#1E88E5"/>
</svg>
