<svg width="14" height="14" viewBox="0 0 14 14" fill="none" xmlns="http://www.w3.org/2000/svg">
<path d="M7 9.36667L7 6.7M7 1C7.78793 1 8.56815 1.15519 9.2961 1.45672C10.0241 1.75825 10.6855 2.20021 11.2426 2.75736C11.7998 3.31451 12.2417 3.97595 12.5433 4.7039C12.8448 5.43185 13 6.21207 13 7C13 7.78793 12.8448 8.56815 12.5433 9.2961C12.2417 10.0241 11.7998 10.6855 11.2426 11.2426C10.6855 11.7998 10.0241 12.2417 9.2961 12.5433C8.56815 12.8448 7.78793 13 7 13C5.4087 13 3.88258 12.3679 2.75736 11.2426C1.63214 10.1174 0.999999 8.5913 0.999999 7C0.999999 5.4087 1.63214 3.88258 2.75736 2.75736C3.88258 1.63214 5.4087 1 7 1ZM6.96667 4.7L6.96667 4.63333L7.03333 4.63333L7.03333 4.7L6.96667 4.7Z" stroke="#525252" stroke-linecap="round" stroke-linejoin="round"/>
</svg>
