<svg width="25" height="24" viewBox="0 0 25 24" fill="none" xmlns="http://www.w3.org/2000/svg">
<g id="Frame">
<path id="Vector" d="M4.8665 6.15H2.9165V19.8C2.9165 20.8725 3.794 21.75 4.8665 21.75H18.5165V19.8H4.8665V6.15ZM20.4665 2.25H8.7665C7.694 2.25 6.8165 3.1275 6.8165 4.2V15.9C6.8165 16.9725 7.694 17.85 8.7665 17.85H20.4665C21.539 17.85 22.4165 16.9725 22.4165 15.9V4.2C22.4165 3.1275 21.539 2.25 20.4665 2.25ZM20.4665 15.9H8.7665V4.2H20.4665V15.9ZM10.7165 9.075H18.5165V11.025H10.7165V9.075ZM10.7165 12H14.6165V13.95H10.7165V12ZM10.7165 6.15H18.5165V8.1H10.7165V6.15Z" fill="#0288D1"/>
</g>
</svg>
