<svg width="22" height="22" viewBox="0 0 22 22" fill="none" xmlns="http://www.w3.org/2000/svg">
<path fill-rule="evenodd" clip-rule="evenodd" d="M19.1593 3.58825H12.6924V2.0625L2.0625 3.70522V18.1043L12.6924 19.9375V17.676H19.1593C19.3552 17.686 19.547 17.6179 19.6928 17.4866C19.8386 17.3553 19.9266 17.1715 19.9375 16.9755V4.28817C19.9265 4.09223 19.8384 3.90864 19.6926 3.77749C19.5468 3.64635 19.3551 3.57831 19.1593 3.58825ZM19.2614 17.0918H12.6707L12.6598 15.8844H14.2475V14.4782H12.6477L12.64 13.6472H14.2475V12.241H12.6279L12.6202 11.41H14.2475V10.0038H12.6151V9.17287H14.2475V7.76665H12.6151V6.9357H14.2475V5.52948H12.6151V4.25109H19.2614V17.0918Z" fill="white"/>
<path d="M15.46 5.11432H18.432V6.62682H15.46V5.11432ZM15.46 7.52126H18.432V9.03376H15.46V7.52126ZM15.46 9.92819H18.432V11.4407H15.46V9.92819ZM15.46 12.3351H18.432V13.8476H15.46V12.3351ZM15.46 14.7421H18.432V16.2546H15.46V14.7421Z" fill="white"/>
<path fill-rule="evenodd" clip-rule="evenodd" d="M4.3638 7.33767L5.83918 7.2531L6.76662 9.80304L7.86249 7.14792L9.33787 7.06335L7.54624 10.6837L9.33787 14.313L7.77793 14.2079L6.72468 11.4414L5.67074 14.1027L4.2373 13.9762L5.90243 10.7704L4.3638 7.33767Z" fill="#20744A"/>
</svg>
