<svg width="32" height="32" viewBox="0 0 32 32" fill="none" xmlns="http://www.w3.org/2000/svg">
<path d="M16 8C15.0111 8 14.0444 8.29325 13.2222 8.84265C12.3999 9.39206 11.759 10.173 11.3806 11.0866C11.0022 12.0002 10.9031 13.0055 11.0961 13.9755C11.289 14.9454 11.7652 15.8363 12.4645 16.5355C13.1637 17.2348 14.0546 17.711 15.0246 17.9039C15.9945 18.0969 16.9998 17.9978 17.9134 17.6194C18.8271 17.241 19.6079 16.6001 20.1574 15.7779C20.7068 14.9556 21 13.9889 21 13C21 11.6739 20.4732 10.4021 19.5355 9.46447C18.5979 8.52678 17.3261 8 16 8Z" fill="#0288D1"/>
<path d="M16 5C13.8244 5 11.6977 5.64514 9.88873 6.85383C8.07979 8.06253 6.66989 9.78049 5.83733 11.7905C5.00477 13.8005 4.78693 16.0122 5.21137 18.146C5.6358 20.2798 6.68345 22.2398 8.22183 23.7782C9.76021 25.3165 11.7202 26.3642 13.854 26.7886C15.9878 27.2131 18.1995 26.9952 20.2095 26.1627C22.2195 25.3301 23.9375 23.9202 25.1462 22.1113C26.3549 20.3023 27 18.1756 27 16C26.9967 13.0836 25.8367 10.2877 23.7745 8.2255C21.7123 6.16332 18.9164 5.00333 16 5ZM22.2794 23.0133C22.2638 21.9827 21.8439 20.9995 21.1102 20.2755C20.3766 19.5516 19.3879 19.1448 18.3571 19.1429H13.6429C12.6121 19.1448 11.6234 19.5516 10.8898 20.2755C10.1561 20.9995 9.73623 21.9827 9.72058 23.0133C8.29573 21.741 7.29094 20.066 6.83923 18.2099C6.38753 16.3539 6.51023 14.4045 7.19108 12.6197C7.87193 10.835 9.07882 9.29917 10.6519 8.21559C12.2251 7.13201 14.0902 6.55181 16.0004 6.55181C17.9106 6.55181 19.7757 7.13201 21.3489 8.21559C22.922 9.29917 24.1289 10.835 24.8097 12.6197C25.4906 14.4045 25.6133 16.3539 25.1616 18.2099C24.7099 20.066 23.7043 21.741 22.2794 23.0133Z" fill="#0288D1"/>
</svg>
