<svg width="24" height="24" viewBox="0 0 24 24" fill="none" xmlns="http://www.w3.org/2000/svg">
<g id="Frame">
<path id="Vector" d="M15.0157 17.4268L15.1925 17.6036L15.3693 17.4268L16.4268 16.3693L16.6034 16.1927L16.427 16.0159L12.75 12.3316V6V5.75H12.5H11H10.75V6V13.0575V13.1611L10.8232 13.2343L15.0157 17.4268Z" fill="#323232" stroke="#323232" stroke-width="0.5"/>
<path id="Vector_2" d="M12 1.25H12C10.5677 1.2502 9.1501 1.5378 7.83103 2.09577C6.69622 2.5758 5.65421 3.24753 4.75 4.08016V1.5V1.25H4.5H3H2.75V1.5V7.5V7.75H3H9H9.25V7.5V6V5.75H9H5.89704C7.21675 4.46547 8.91244 3.62642 10.7448 3.36082C12.7686 3.06746 14.8312 3.49222 16.5745 4.56134C18.3177 5.63046 19.6315 7.2764 20.2875 9.2133C20.9435 11.1502 20.9004 13.2557 20.1657 15.1641C19.431 17.0725 18.051 18.6633 16.2654 19.6602C14.4799 20.6571 12.4016 20.9971 10.3914 20.6212C8.38132 20.2453 6.56635 19.1771 5.26177 17.6023C3.95718 16.0275 3.24538 14.0455 3.25 12.0006L3.25056 11.75H3H1.5H1.25V12C1.25 14.1261 1.88048 16.2046 3.0617 17.9724C4.24293 19.7402 5.92185 21.1181 7.88615 21.9317C9.85046 22.7453 12.0119 22.9582 14.0972 22.5434C16.1825 22.1287 18.098 21.1048 19.6014 19.6014C21.1048 18.098 22.1287 16.1825 22.5434 14.0972C22.9582 12.0119 22.7453 9.85046 21.9317 7.88615C21.1181 5.92185 19.7402 4.24293 17.9724 3.0617C16.2046 1.88048 14.1261 1.25 12 1.25Z" fill="#323232" stroke="#323232" stroke-width="0.5"/>
</g>
</svg>
