<svg width="24" height="24" viewBox="0 0 24 24" fill="none" xmlns="http://www.w3.org/2000/svg">
<g id="Frame">
<g id="Vector">
<path d="M12.4859 5.41368C12.3373 5.33102 12.17 5.28764 11.9999 5.28764C11.8298 5.28764 11.6626 5.33102 11.5139 5.41368L5.05992 8.99968L11.5149 12.5857C11.6636 12.6683 11.8308 12.7117 12.0009 12.7117C12.171 12.7117 12.3383 12.6683 12.4869 12.5857L18.9399 8.99968L12.4849 5.41368H12.4859ZM10.5429 3.66468C10.9886 3.41705 11.4901 3.28711 11.9999 3.28711C12.5098 3.28711 13.0112 3.41705 13.4569 3.66468L21.4859 8.12468C21.6422 8.21116 21.7725 8.33792 21.8632 8.4918C21.954 8.64568 22.0018 8.82105 22.0018 8.99968C22.0018 9.17831 21.954 9.35368 21.8632 9.50755C21.7725 9.66143 21.6422 9.7882 21.4859 9.87468L13.4559 14.3347C13.0104 14.5821 12.5091 14.712 11.9994 14.712C11.4898 14.712 10.9885 14.5821 10.5429 14.3347L2.51392 9.87468C2.35762 9.7882 2.22734 9.66143 2.13662 9.50755C2.04589 9.35368 1.99805 9.17831 1.99805 8.99968C1.99805 8.82105 2.04589 8.64568 2.13662 8.4918C2.22734 8.33792 2.35762 8.21116 2.51392 8.12468L10.5429 3.66468Z" fill="#525252"/>
<path d="M20.9999 7.99968C21.2651 7.99968 21.5195 8.10503 21.707 8.29257C21.8946 8.48011 21.9999 8.73446 21.9999 8.99968V15.9997C21.9999 16.2649 21.8946 16.5192 21.707 16.7068C21.5195 16.8943 21.2651 16.9997 20.9999 16.9997C20.7347 16.9997 20.4804 16.8943 20.2928 16.7068C20.1053 16.5192 19.9999 16.2649 19.9999 15.9997V8.99968C19.9999 8.73446 20.1053 8.48011 20.2928 8.29257C20.4804 8.10503 20.7347 7.99968 20.9999 7.99968ZM5.99992 9.99968C6.26514 9.99968 6.51949 10.105 6.70703 10.2926C6.89457 10.4801 6.99992 10.7345 6.99992 10.9997V16.3817L11.5529 18.6577C11.6917 18.727 11.8448 18.7631 11.9999 18.7631C12.1551 18.7631 12.3081 18.727 12.4469 18.6577L16.9999 16.3817V10.9997C16.9999 10.7345 17.1053 10.4801 17.2928 10.2926C17.4804 10.105 17.7347 9.99968 17.9999 9.99968C18.2651 9.99968 18.5195 10.105 18.707 10.2926C18.8946 10.4801 18.9999 10.7345 18.9999 10.9997V16.9997C18.9998 17.1853 18.948 17.3673 18.8504 17.5252C18.7527 17.6831 18.613 17.8107 18.4469 17.8937L13.3419 20.4467C12.9253 20.6551 12.4658 20.7636 11.9999 20.7636C11.5341 20.7636 11.0746 20.6551 10.6579 20.4467L5.55292 17.8937C5.38684 17.8107 5.24715 17.6831 5.14948 17.5252C5.05181 17.3673 5.00002 17.1853 4.99992 16.9997V10.9997C4.99992 10.7345 5.10528 10.4801 5.29282 10.2926C5.48035 10.105 5.73471 9.99968 5.99992 9.99968Z" fill="#525252"/>
</g>
</g>
</svg>
