<svg width="16" height="16" viewBox="0 0 16 16" fill="none" xmlns="http://www.w3.org/2000/svg">
<path d="M7.99989 13.5548C7.30545 13.5548 6.65489 13.4228 6.04823 13.1587C5.44156 12.8946 4.91378 12.5383 4.46489 12.0898C4.016 11.6405 3.65971 11.1128 3.396 10.5065C3.1323 9.90017 3.00026 9.24961 2.99989 8.5548C2.99989 7.86035 3.13193 7.2098 3.396 6.60313C3.66008 5.99646 4.01637 5.46869 4.46489 5.0198C4.91415 4.57091 5.44193 4.21461 6.04823 3.95091C6.65452 3.6872 7.30508 3.55517 7.99989 3.5548C8.69434 3.5548 9.34489 3.68683 9.95156 3.95091C10.5582 4.21498 11.086 4.57146 11.5349 5.02035C11.9838 5.46924 12.3403 5.99702 12.6043 6.60369C12.8684 7.21035 13.0003 7.86072 12.9999 8.5548C12.9999 9.24924 12.8679 9.8998 12.6038 10.5065C12.3397 11.1131 11.9834 11.6409 11.5349 12.0898C11.0856 12.5387 10.5579 12.8952 9.95156 13.1592C9.34526 13.4233 8.69471 13.5552 7.99989 13.5548ZM7.44434 6.33257V8.54091C7.44434 8.61498 7.45823 8.68683 7.486 8.75646C7.51378 8.82609 7.55545 8.8885 7.611 8.94369L9.18045 10.5131C9.2823 10.615 9.4073 10.6659 9.55545 10.6659C9.7036 10.6659 9.83323 10.6104 9.94434 10.4992C10.0462 10.3974 10.0971 10.2678 10.0971 10.1104C10.0971 9.95294 10.0462 9.82332 9.94434 9.72146L8.55545 8.33257V6.31869C8.55545 6.16128 8.50211 6.03165 8.39545 5.9298C8.28878 5.82794 8.15693 5.77702 7.99989 5.77702C7.84248 5.77702 7.71045 5.83035 7.60378 5.93702C7.49711 6.04369 7.44397 6.17554 7.44434 6.33257ZM3.236 5.40202C3.13415 5.50387 3.00915 5.5548 2.861 5.5548C2.71285 5.5548 2.58322 5.49924 2.47211 5.38813C2.37026 5.28628 2.31934 5.15665 2.31934 4.99924C2.31934 4.84183 2.37026 4.7122 2.47211 4.61035L4.06934 3.01313C4.17119 2.91128 4.29619 2.86035 4.44434 2.86035C4.59248 2.86035 4.72211 2.91591 4.83323 3.02702C4.93508 3.12887 4.986 3.2585 4.986 3.41591C4.986 3.57331 4.93508 3.70294 4.83323 3.8048L3.236 5.40202ZM12.7499 5.38813L11.1527 3.79091C11.0508 3.68906 10.9999 3.56406 10.9999 3.41591C10.9999 3.26776 11.0554 3.13813 11.1666 3.02702C11.2684 2.92517 11.398 2.87424 11.5554 2.87424C11.7129 2.87424 11.8425 2.92517 11.9443 3.02702L13.5416 4.62424C13.6434 4.72609 13.6943 4.85109 13.6943 4.99924C13.6943 5.14739 13.6388 5.27702 13.5277 5.38813C13.4258 5.48998 13.2962 5.54091 13.1388 5.54091C12.9814 5.54091 12.8517 5.48998 12.7499 5.38813ZM7.99989 12.4437C9.08323 12.4437 10.0023 12.0663 10.7571 11.3115C11.5119 10.5566 11.8892 9.63776 11.8888 8.5548C11.8888 7.47146 11.5114 6.55239 10.7566 5.79757C10.0017 5.04276 9.08285 4.66554 7.99989 4.66591C6.91656 4.66591 5.99748 5.04331 5.24267 5.79813C4.48785 6.55294 4.11063 7.47183 4.111 8.5548C4.111 9.63813 4.48841 10.5572 5.24322 11.312C5.99804 12.0668 6.91693 12.4441 7.99989 12.4437Z" fill="#0288D1"/>
</svg>
