<svg width="24" height="24" viewBox="0 0 24 24" fill="none" xmlns="http://www.w3.org/2000/svg">
<path fill-rule="evenodd" clip-rule="evenodd" d="M5.55515 18.7887C5.3937 18.7887 5.23886 18.7237 5.1247 18.6079C5.01053 18.4922 4.94639 18.3352 4.94639 18.1715V5.82868C4.94639 5.665 5.01053 5.50803 5.1247 5.39229C5.23886 5.27656 5.3937 5.21154 5.55515 5.21154H16.8172C17.0594 5.21154 17.2916 5.11401 17.4629 4.9404C17.6341 4.7668 17.7303 4.53134 17.7303 4.28582C17.7303 4.04031 17.6341 3.80485 17.4629 3.63124C17.2916 3.45764 17.0594 3.36011 16.8172 3.36011H5.55515C4.90934 3.36011 4.28998 3.62019 3.83332 4.08314C3.37667 4.54608 3.12012 5.17397 3.12012 5.82868V18.1715C3.12012 18.8262 3.37667 19.4541 3.83332 19.9171C4.28998 20.38 4.90934 20.6401 5.55515 20.6401H17.7303C18.3762 20.6401 18.9955 20.38 19.4522 19.9171C19.9088 19.4541 20.1654 18.8262 20.1654 18.1715V14.1601C20.1654 13.9146 20.0692 13.6791 19.8979 13.5055C19.7267 13.3319 19.4944 13.2344 19.2522 13.2344C19.0101 13.2344 18.7778 13.3319 18.6066 13.5055C18.4353 13.6791 18.3391 13.9146 18.3391 14.1601V18.1715C18.3391 18.3352 18.275 18.4922 18.1608 18.6079C18.0466 18.7237 17.8918 18.7887 17.7303 18.7887H5.55515ZM21.115 7.90228C21.2763 7.72679 21.3641 7.49469 21.36 7.25487C21.3558 7.01504 21.26 6.78623 21.0927 6.61662C20.9254 6.44701 20.6997 6.34986 20.4631 6.34563C20.2265 6.3414 19.9976 6.43042 19.8245 6.59394L13.0575 13.4529L10.7771 11.0633C10.6939 10.9751 10.5943 10.9046 10.4841 10.8556C10.3739 10.8066 10.2553 10.7801 10.1349 10.7778C10.0146 10.7754 9.89505 10.7972 9.78307 10.8419C9.67109 10.8866 9.56892 10.9532 9.48244 11.038C9.39596 11.1229 9.32687 11.2242 9.27914 11.3362C9.23141 11.4482 9.20599 11.5686 9.20433 11.6906C9.20267 11.8126 9.22482 11.9337 9.26948 12.047C9.31415 12.1602 9.38046 12.2634 9.46461 12.3506L12.3903 15.4166C12.4745 15.5051 12.5752 15.5757 12.6866 15.6244C12.798 15.673 12.9178 15.6986 13.0391 15.6997C13.1604 15.7009 13.2807 15.6775 13.393 15.631C13.5052 15.5846 13.6072 15.5159 13.693 15.429L21.115 7.90228Z" fill="#525252"/>
</svg>
