<svg width="20" height="20" viewBox="0 0 20 20" fill="none" xmlns="http://www.w3.org/2000/svg">
<path d="M9.00238 18C8.71979 18 8.48274 17.904 8.29124 17.712C8.09975 17.52 8.00433 17.2827 8.005 17V11L2.22018 3.6C1.97084 3.26667 1.93327 2.91667 2.10748 2.55C2.28169 2.18333 2.58522 2 3.01809 2H16.9814C17.4136 2 17.7172 2.18333 17.892 2.55C18.0669 2.91667 18.0293 3.26667 17.7793 3.6L11.9945 11V17C11.9945 17.2833 11.8988 17.521 11.7073 17.713C11.5158 17.905 11.2791 18.0007 10.9971 18H9.00238ZM9.99976 10.3L14.9368 4H5.06272L9.99976 10.3Z" fill="#323232"/>
</svg>
