<svg width="20" height="20" viewBox="0 0 20 20" fill="none" xmlns="http://www.w3.org/2000/svg">
<path d="M2.1875 16.7708H17.8125V3.4895H2.1875V16.7708ZM3.22917 4.53117H16.7708V15.7291H3.22917V4.53117Z" fill="#0288D1"/>
<path d="M4.27081 5.83325H5.31248V14.1666H4.27081V5.83325ZM6.35415 5.83325H7.39581V12.0833H6.35415V5.83325ZM8.43748 5.83325H9.47915V14.1666H8.43748V5.83325ZM10.5208 5.83325H11.5625V12.0833H10.5208V5.83325ZM12.6041 5.83325H13.6458V12.0833H12.6041V5.83325ZM14.6875 5.83325H15.7291V14.1666H14.6875V5.83325ZM6.35415 13.1249H7.39581V14.1666H6.35415V13.1249ZM10.5208 13.1249H11.5625V14.1666H10.5208V13.1249ZM12.6041 13.1249H13.6458V14.1666H12.6041V13.1249Z" fill="#0288D1"/>
</svg>
