<svg width="50" height="50" viewBox="0 0 50 50" fill="none" xmlns="http://www.w3.org/2000/svg">
<g id="Frame">
<rect width="50" height="50" rx="25" fill="#F99725"/>
<path id="Vector" d="M14 34.0012V34V32.8C14 32.1317 14.1694 31.5319 14.5091 30.9789C14.8533 30.4186 15.2983 30.0043 15.8534 29.7163C17.3376 28.9748 18.8397 28.4212 20.3607 28.0523C21.8831 27.6831 23.4288 27.499 24.9994 27.5H25C26.5708 27.5 28.1167 27.6846 29.6393 28.0538C31.1603 28.4227 32.6624 28.9758 34.1465 29.7163C34.7029 30.0054 35.1484 30.4204 35.4924 30.9804C35.832 31.5332 36.0008 32.1322 36 32.7988V32.8V34C36 34.5574 35.813 35.0103 35.4109 35.4124C35.0088 35.8145 34.5568 36.0007 34.0012 36H34H16C15.4426 36 14.9897 35.813 14.5876 35.4109C14.1855 35.0088 13.9993 34.5568 14 34.0012ZM25 24C23.6173 24 22.4586 23.5194 21.4696 22.5304C20.4806 21.5414 20 20.3827 20 19C20 17.6173 20.4806 16.4586 21.4696 15.4696C22.4586 14.4806 23.6173 14 25 14C26.3827 14 27.5414 14.4806 28.5304 15.4696C29.5194 16.4586 30 17.6173 30 19C30 20.3827 29.5194 21.5414 28.5304 22.5304C27.5414 23.5194 26.3827 24 25 24Z" stroke="white" stroke-width="2"/>
</g>
</svg>
