<svg width="40" height="40" viewBox="0 0 40 40" fill="none" xmlns="http://www.w3.org/2000/svg">
<g filter="url(#filter0_b_1640_26664)">
<rect width="40" height="40" rx="20" fill="#3D3D3D" fill-opacity="0.4"/>
<path d="M15.3398 31.6667C14.6976 31.6667 14.1475 31.438 13.6898 30.9807C13.232 30.5233 13.0035 29.9742 13.0043 29.3333C13.0043 28.6917 13.2332 28.1422 13.691 27.6848C14.1487 27.2275 14.6983 26.9992 15.3398 27C15.9821 27 16.5321 27.2287 16.9898 27.686C17.4476 28.1433 17.6761 28.6924 17.6753 29.3333C17.6753 29.975 17.4464 30.5245 16.9887 30.9818C16.5309 31.4392 15.9813 31.6674 15.3398 31.6667ZM27.0173 31.6667C26.375 31.6667 25.825 31.438 25.3672 30.9807C24.9095 30.5233 24.681 29.9742 24.6818 29.3333C24.6818 28.6917 24.9107 28.1422 25.3684 27.6848C25.8262 27.2275 26.3758 26.9992 27.0173 27C27.6595 27 28.2095 27.2287 28.6673 27.686C29.1251 28.1433 29.3535 28.6924 29.3528 29.3333C29.3528 29.975 29.1239 30.5245 28.6661 30.9818C28.2084 31.4392 27.6588 31.6674 27.0173 31.6667ZM14.3472 13L17.1498 18.8333H25.324L28.5353 13H14.3472ZM13.2379 10.6667H30.4621C30.9098 10.6667 31.2503 10.8662 31.4839 11.2652C31.7174 11.6642 31.7272 12.0674 31.5131 12.475L27.3676 19.9417C27.1535 20.3306 26.8662 20.6319 26.5058 20.8458C26.1454 21.0597 25.7514 21.1667 25.324 21.1667H16.6243L15.3398 23.5H29.3528V25.8333H15.3398C14.464 25.8333 13.8023 25.4491 13.3546 24.6807C12.907 23.9122 12.8876 23.1492 13.2963 22.3917L14.8727 19.5333L10.6688 10.6667H8.33334V8.33333H12.1285L13.2379 10.6667Z" fill="white"/>
</g>
<defs>
<filter id="filter0_b_1640_26664" x="-8" y="-8" width="56" height="56" filterUnits="userSpaceOnUse" color-interpolation-filters="sRGB">
<feFlood flood-opacity="0" result="BackgroundImageFix"/>
<feGaussianBlur in="BackgroundImageFix" stdDeviation="4"/>
<feComposite in2="SourceAlpha" operator="in" result="effect1_backgroundBlur_1640_26664"/>
<feBlend mode="normal" in="SourceGraphic" in2="effect1_backgroundBlur_1640_26664" result="shape"/>
</filter>
</defs>
</svg>
