<svg width="16" height="22" viewBox="0 0 16 22" fill="none" xmlns="http://www.w3.org/2000/svg">
<g id="Frame" clip-path="url(#clip0_2433_40275)">
<g id="Group">
<path id="Vector" d="M13.1909 0L10.7 6.06614H5.54492L7.83507 0H13.1909Z" fill="#892020"/>
<path id="Vector_2" d="M10.9375 5.02002H5.35356C4.98859 5.02002 4.6875 5.32014 4.6875 5.68393V9.23085H11.6036V5.68393C11.6036 5.31105 11.3025 5.02002 10.9375 5.02002ZM11.1109 6.32056H5.05246V6.04772C5.05246 5.75669 5.28969 5.51113 5.59078 5.51113H10.5817C10.8736 5.51113 11.12 5.74759 11.12 6.04772V6.32056H11.1109Z" fill="#9EA8BA"/>
<path id="Vector_3" d="M3.13672 0L5.54548 6.06614H10.7006L8.3557 0H3.13672Z" fill="#FA352C"/>
<g id="Group_2">
<path id="Vector_4" d="M6.4932 6.06614L4.03882 0H3.64648L6.10086 6.06614H6.4932Z" fill="#FF740D"/>
<path id="Vector_5" d="M7.69828 6.06614L5.2439 0H4.85156L7.30594 6.06614H7.69828Z" fill="#FF740D"/>
<path id="Vector_6" d="M8.85648 6.06614L6.4021 0H6.00977L8.46415 6.06614H8.85648Z" fill="#FF740D"/>
<path id="Vector_7" d="M10.0967 6.06614L7.65146 0H7.25L9.70438 6.06614H10.0967Z" fill="#FF740D"/>
</g>
<path id="Vector_8" d="M15.4346 15.4943C15.9727 11.4006 13.0796 7.64725 8.97264 7.11092C4.86571 6.57459 1.1002 9.4584 0.562141 13.5521C0.0240772 17.6458 2.91721 21.3991 7.02414 21.9355C11.1311 22.4718 14.8966 19.588 15.4346 15.4943Z" fill="#DEDEDE"/>
<path id="Vector_9" d="M8.00023 7.04834C7.92723 7.04834 7.85424 7.04834 7.78125 7.04834C11.8232 7.16657 15.0623 10.4679 15.0623 14.5242C15.0623 18.5804 11.8232 21.8817 7.78125 22C7.85424 22 7.92723 22 8.00023 22C12.1426 22 15.5002 18.6531 15.5002 14.5242C15.5002 10.3952 12.1426 7.04834 8.00023 7.04834Z" fill="#9EA8BA"/>
<path id="Vector_10" d="M14.059 15.3149C14.4976 11.9782 12.1394 8.91886 8.79195 8.48171C5.44445 8.04455 2.37524 10.3951 1.93667 13.7318C1.49811 17.0685 3.85626 20.1278 7.20376 20.565C10.5513 21.0021 13.6205 18.6516 14.059 15.3149Z" fill="#9EA8BA"/>
<path id="Vector_11" d="M7.75376 15.8104H10.1412V16.762H5.85547V15.7727C6.60081 15.2546 8.47581 13.9921 8.47581 13.2006C8.47581 12.8049 8.14972 12.5317 7.61401 12.5317C7.0783 12.5317 6.53093 12.7013 6.05345 12.8991L6.00687 11.8439C9.24444 10.8075 11.0263 12.4657 9.50065 14.2841C9.13963 14.7458 8.55733 15.2451 7.75376 15.8104Z" fill="white"/>
<g id="Group_3">
<g id="Group_4">
<path id="Vector_12" d="M7.24929 18.762C7.48651 18.953 7.55038 19.2622 7.55038 19.2622C7.55038 19.2622 7.23104 19.2713 6.98469 19.0804C6.74746 18.8894 6.68359 18.5801 6.68359 18.5801C6.68359 18.5801 7.01206 18.5711 7.24929 18.762Z" fill="#BAC6D8"/>
<path id="Vector_13" d="M6.95816 19.2532C7.25013 19.1531 7.55122 19.2623 7.55122 19.2623C7.55122 19.2623 7.38699 19.5351 7.09502 19.6351C6.80305 19.7352 6.50195 19.626 6.50195 19.626C6.50195 19.626 6.67531 19.3532 6.95816 19.2532Z" fill="#BAC6D8"/>
</g>
<g id="Group_5">
<path id="Vector_14" d="M6.32021 18.5076C6.53007 18.7259 6.54832 19.0442 6.54832 19.0442C6.54832 19.0442 6.22897 19.0078 6.01912 18.7895C5.80926 18.5712 5.79102 18.2529 5.79102 18.2529C5.79102 18.2529 6.11036 18.2893 6.32021 18.5076Z" fill="#BAC6D8"/>
<path id="Vector_15" d="M5.96472 18.9534C6.26581 18.8897 6.54866 19.0443 6.54866 19.0443C6.54866 19.0443 6.34793 19.2899 6.04683 19.3535C5.74574 19.4172 5.46289 19.2626 5.46289 19.2626C5.46289 19.2626 5.66362 19.017 5.96472 18.9534Z" fill="#BAC6D8"/>
<path id="Vector_16" d="M5.58053 18.1441C5.75389 18.3897 5.71739 18.708 5.71739 18.708C5.71739 18.708 5.40717 18.6261 5.23382 18.3715C5.06046 18.1259 5.09695 17.8076 5.09695 17.8076C5.09695 17.8076 5.40717 17.8986 5.58053 18.1441Z" fill="#BAC6D8"/>
<path id="Vector_17" d="M5.16073 18.535C5.47095 18.5259 5.72642 18.7169 5.72642 18.7169C5.72642 18.7169 5.48919 18.9351 5.17897 18.9442C4.86876 18.9533 4.61328 18.7623 4.61328 18.7623C4.61328 18.7623 4.85051 18.5441 5.16073 18.535Z" fill="#BAC6D8"/>
<path id="Vector_18" d="M4.89672 17.5982C5.00621 17.8801 4.89672 18.1802 4.89672 18.1802C4.89672 18.1802 4.61387 18.0256 4.51351 17.7437C4.40402 17.4617 4.51351 17.1616 4.51351 17.1616C4.51351 17.1616 4.78723 17.3162 4.89672 17.5982Z" fill="#BAC6D8"/>
<path id="Vector_19" d="M4.39449 17.8708C4.69558 17.9345 4.89631 18.1801 4.89631 18.1801C4.89631 18.1801 4.61347 18.3347 4.31237 18.271C4.01128 18.2073 3.81055 17.9618 3.81055 17.9618C3.81055 17.9618 4.09339 17.8072 4.39449 17.8708Z" fill="#BAC6D8"/>
<path id="Vector_20" d="M4.37571 16.9525C4.4122 17.2526 4.22972 17.5163 4.22972 17.5163C4.22972 17.5163 3.99249 17.2981 3.956 16.998C3.9195 16.6978 4.10198 16.4341 4.10198 16.4341C4.10198 16.4341 4.33921 16.6614 4.37571 16.9525Z" fill="#BAC6D8"/>
<path id="Vector_21" d="M3.81963 17.107C4.09335 17.2343 4.23021 17.5254 4.23021 17.5254C4.23021 17.5254 3.91999 17.6072 3.63715 17.4799C3.36342 17.3526 3.22656 17.0615 3.22656 17.0615C3.22656 17.0615 3.54591 16.9797 3.81963 17.107Z" fill="#BAC6D8"/>
</g>
<g id="Group_6">
<path id="Vector_22" d="M3.93857 16.1519C3.9112 16.4521 3.68309 16.6794 3.68309 16.6794C3.68309 16.6794 3.50061 16.4157 3.51886 16.1247C3.54623 15.8245 3.77434 15.5972 3.77434 15.5972C3.77434 15.5972 3.95682 15.8518 3.93857 16.1519Z" fill="#BAC6D8"/>
<path id="Vector_23" d="M3.36452 16.1881C3.61087 16.37 3.68386 16.6792 3.68386 16.6792C3.68386 16.6792 3.36452 16.6974 3.11817 16.5155C2.87182 16.3337 2.79883 16.0244 2.79883 16.0244C2.79883 16.0244 3.11817 16.0062 3.36452 16.1881Z" fill="#BAC6D8"/>
<path id="Vector_24" d="M3.71032 15.3879C3.63733 15.6789 3.37273 15.8699 3.37273 15.8699C3.37273 15.8699 3.22674 15.588 3.29973 15.297C3.37273 15.0059 3.63733 14.8149 3.63733 14.8149C3.63733 14.8149 3.78331 15.0969 3.71032 15.3879Z" fill="#BAC6D8"/>
<path id="Vector_25" d="M3.13598 15.3334C3.34583 15.5517 3.3732 15.87 3.3732 15.87C3.3732 15.87 3.05386 15.8337 2.83488 15.6245C2.62503 15.4062 2.59766 15.0879 2.59766 15.0879C2.59766 15.0879 2.917 15.1152 3.13598 15.3334Z" fill="#BAC6D8"/>
<path id="Vector_26" d="M3.68267 14.5329C3.53668 14.7967 3.23559 14.9149 3.23559 14.9149C3.23559 14.9149 3.17172 14.6057 3.30858 14.3419C3.45457 14.0782 3.75566 13.96 3.75566 13.96C3.75566 13.96 3.82865 14.2692 3.68267 14.5329Z" fill="#BAC6D8"/>
<path id="Vector_27" d="M3.1355 14.3418C3.29061 14.6056 3.23586 14.9148 3.23586 14.9148C3.23586 14.9148 2.93477 14.8056 2.77966 14.551C2.62455 14.2872 2.6793 13.978 2.6793 13.978C2.6793 13.978 2.98951 14.0872 3.1355 14.3418Z" fill="#BAC6D8"/>
<path id="Vector_28" d="M3.83843 13.6692C3.6377 13.8966 3.31836 13.9421 3.31836 13.9421C3.31836 13.9421 3.32748 13.6237 3.52821 13.3964C3.72894 13.169 4.04829 13.1235 4.04829 13.1235C4.04829 13.1235 4.03916 13.4418 3.83843 13.6692Z" fill="#BAC6D8"/>
<path id="Vector_29" d="M3.3547 13.3598C3.44594 13.6509 3.30908 13.9419 3.30908 13.9419C3.30908 13.9419 3.03536 13.7691 2.95324 13.4781C2.862 13.187 2.99886 12.896 2.99886 12.896C2.99886 12.896 3.26346 13.0688 3.3547 13.3598Z" fill="#BAC6D8"/>
</g>
<path id="Vector_30" d="M4.14904 12.9597C3.90269 13.1325 3.57422 13.1052 3.57422 13.1052C3.57422 13.1052 3.65634 12.796 3.90269 12.6232C4.14904 12.4504 4.4775 12.4776 4.4775 12.4776C4.4775 12.4776 4.39539 12.7869 4.14904 12.9597Z" fill="#BAC6D8"/>
<path id="Vector_31" d="M3.74775 12.5504C3.76599 12.8506 3.57439 13.1052 3.57439 13.1052C3.57439 13.1052 3.35541 12.8778 3.33716 12.5777C3.31891 12.2776 3.51052 12.0229 3.51052 12.0229C3.51052 12.0229 3.7295 12.2503 3.74775 12.5504Z" fill="#BAC6D8"/>
<path id="Vector_32" d="M4.54033 12.3141C4.26661 12.4505 3.94727 12.3687 3.94727 12.3687C3.94727 12.3687 4.075 12.0776 4.34873 11.9412C4.62245 11.8048 4.94179 11.8867 4.94179 11.8867C4.94179 11.8867 4.81405 12.1868 4.54033 12.3141Z" fill="#BAC6D8"/>
<path id="Vector_33" d="M4.21352 11.85C4.18615 12.1501 3.94892 12.3684 3.94892 12.3684C3.94892 12.3684 3.76644 12.1047 3.79381 11.8045C3.82119 11.5044 4.05841 11.2861 4.05841 11.2861C4.05841 11.2861 4.24089 11.5499 4.21352 11.85Z" fill="#BAC6D8"/>
<g id="Group_7">
<path id="Vector_34" d="M8.91242 18.7259C8.6752 18.9169 8.61133 19.2261 8.61133 19.2261C8.61133 19.2261 8.93067 19.2352 9.17702 19.0442C9.41425 18.8532 9.47812 18.544 9.47812 18.544C9.47812 18.544 9.14965 18.5349 8.91242 18.7259Z" fill="#BAC6D8"/>
<path id="Vector_35" d="M9.20439 19.2077C8.91242 19.1077 8.61133 19.2168 8.61133 19.2168C8.61133 19.2168 8.77556 19.4897 9.06753 19.5897C9.3595 19.6898 9.6606 19.5806 9.6606 19.5806C9.6606 19.5806 9.48724 19.3078 9.20439 19.2077Z" fill="#BAC6D8"/>
</g>
<g id="Group_8">
<path id="Vector_36" d="M9.7242 18.5076C9.51434 18.7259 9.49609 19.0442 9.49609 19.0442C9.49609 19.0442 9.81544 19.0078 10.0253 18.7895C10.2351 18.5712 10.2534 18.2529 10.2534 18.2529C10.2534 18.2529 9.93405 18.2893 9.7242 18.5076Z" fill="#BAC6D8"/>
<path id="Vector_37" d="M10.08 18.9534C9.77894 18.8897 9.49609 19.0443 9.49609 19.0443C9.49609 19.0443 9.69682 19.2899 9.99792 19.3535C10.299 19.4172 10.5819 19.2626 10.5819 19.2626C10.5819 19.2626 10.3811 19.017 10.08 18.9534Z" fill="#BAC6D8"/>
<path id="Vector_38" d="M10.4623 18.1163C10.289 18.3618 10.3255 18.6802 10.3255 18.6802C10.3255 18.6802 10.6357 18.5983 10.809 18.3437C10.9824 18.0981 10.9459 17.7798 10.9459 17.7798C10.9459 17.7798 10.6357 17.8707 10.4623 18.1163Z" fill="#BAC6D8"/>
<path id="Vector_39" d="M10.8821 18.4984C10.5719 18.4893 10.3164 18.6803 10.3164 18.6803C10.3164 18.6803 10.5536 18.8985 10.8639 18.9076C11.1741 18.9167 11.4295 18.7257 11.4295 18.7257C11.4295 18.7257 11.1832 18.5166 10.8821 18.4984Z" fill="#BAC6D8"/>
<path id="Vector_40" d="M11.1209 17.5801C11.0114 17.862 11.1209 18.1622 11.1209 18.1622C11.1209 18.1622 11.4038 18.0075 11.5041 17.7256C11.6136 17.4437 11.5041 17.1436 11.5041 17.1436C11.5041 17.1436 11.2304 17.2982 11.1209 17.5801Z" fill="#BAC6D8"/>
<path id="Vector_41" d="M11.6307 17.8528C11.3296 17.9164 11.1289 18.162 11.1289 18.162C11.1289 18.162 11.4118 18.3166 11.7128 18.2529C12.0139 18.1893 12.2147 17.9437 12.2147 17.9437C12.2147 17.9437 11.9227 17.7891 11.6307 17.8528Z" fill="#BAC6D8"/>
<path id="Vector_42" d="M11.6669 16.8978C11.6304 17.1979 11.8129 17.4617 11.8129 17.4617C11.8129 17.4617 12.0501 17.2434 12.0866 16.9433C12.1231 16.6431 11.9407 16.3794 11.9407 16.3794C11.9407 16.3794 11.7034 16.5977 11.6669 16.8978Z" fill="#BAC6D8"/>
<path id="Vector_43" d="M12.225 17.0435C11.9513 17.1709 11.8145 17.4619 11.8145 17.4619C11.8145 17.4619 12.1247 17.5437 12.4075 17.4164C12.6812 17.2891 12.8181 16.9981 12.8181 16.9981C12.8181 16.9981 12.4988 16.9162 12.225 17.0435Z" fill="#BAC6D8"/>
</g>
<g id="Group_9">
<path id="Vector_44" d="M12.0593 16.1339C12.0867 16.434 12.3148 16.6614 12.3148 16.6614C12.3148 16.6614 12.4973 16.3976 12.479 16.1066C12.4517 15.8065 12.2236 15.5791 12.2236 15.5791C12.2236 15.5791 12.0319 15.8428 12.0593 16.1339Z" fill="#BAC6D8"/>
<path id="Vector_45" d="M12.6357 16.1701C12.3894 16.352 12.3164 16.6612 12.3164 16.6612C12.3164 16.6612 12.6357 16.6794 12.8821 16.4975C13.1284 16.3156 13.2014 16.0064 13.2014 16.0064C13.2014 16.0064 12.8821 15.9973 12.6357 16.1701Z" fill="#BAC6D8"/>
<path id="Vector_46" d="M12.288 15.3698C12.361 15.6609 12.6256 15.8519 12.6256 15.8519C12.6256 15.8519 12.7716 15.5699 12.6986 15.2789C12.6256 14.9879 12.361 14.7969 12.361 14.7969C12.361 14.7969 12.215 15.0788 12.288 15.3698Z" fill="#BAC6D8"/>
<path id="Vector_47" d="M12.8622 15.3154C12.6524 15.5337 12.625 15.852 12.625 15.852C12.625 15.852 12.9443 15.8156 13.1633 15.6064C13.3732 15.3881 13.4005 15.0698 13.4005 15.0698C13.4005 15.0698 13.0721 15.0971 12.8622 15.3154Z" fill="#BAC6D8"/>
<path id="Vector_48" d="M12.3159 14.5422C12.4618 14.8059 12.7629 14.9242 12.7629 14.9242C12.7629 14.9242 12.8268 14.615 12.6899 14.3512C12.544 14.0875 12.2429 13.9692 12.2429 13.9692C12.2429 13.9692 12.1699 14.2785 12.3159 14.5422Z" fill="#BAC6D8"/>
<path id="Vector_49" d="M12.8539 14.3511C12.6988 14.6148 12.7535 14.9241 12.7535 14.9241C12.7535 14.9241 13.0546 14.8149 13.2097 14.5603C13.3648 14.2965 13.3101 13.9873 13.3101 13.9873C13.3101 13.9873 13.009 14.0964 12.8539 14.3511Z" fill="#BAC6D8"/>
<path id="Vector_50" d="M12.1513 13.6785C12.352 13.9059 12.6713 13.9513 12.6713 13.9513C12.6713 13.9513 12.6622 13.633 12.4615 13.4057C12.2607 13.1783 11.9414 13.1328 11.9414 13.1328C11.9414 13.1328 11.9505 13.4511 12.1513 13.6785Z" fill="#BAC6D8"/>
<path id="Vector_51" d="M12.6349 13.3691C12.5436 13.6601 12.6805 13.9512 12.6805 13.9512C12.6805 13.9512 12.9542 13.7784 13.0363 13.4873C13.1276 13.1963 12.9907 12.9053 12.9907 12.9053C12.9907 12.9053 12.717 13.0872 12.6349 13.3691Z" fill="#BAC6D8"/>
</g>
<path id="Vector_52" d="M11.85 12.9777C12.0963 13.1505 12.4248 13.1232 12.4248 13.1232C12.4248 13.1232 12.3427 12.814 12.0963 12.6412C11.85 12.4684 11.5215 12.4957 11.5215 12.4957C11.5215 12.4957 11.5945 12.8049 11.85 12.9777Z" fill="#BAC6D8"/>
<path id="Vector_53" d="M12.2415 12.5778C12.2232 12.8779 12.4148 13.1326 12.4148 13.1326C12.4148 13.1326 12.6338 12.9052 12.652 12.6051C12.6703 12.3049 12.4787 12.0503 12.4787 12.0503C12.4787 12.0503 12.2597 12.2777 12.2415 12.5778Z" fill="#BAC6D8"/>
<path id="Vector_54" d="M11.4288 12.3414C11.7025 12.4779 12.0219 12.396 12.0219 12.396C12.0219 12.396 11.8941 12.105 11.6204 11.9686C11.3467 11.8321 11.0273 11.914 11.0273 11.914C11.0273 11.914 11.1551 12.2141 11.4288 12.3414Z" fill="#BAC6D8"/>
<path id="Vector_55" d="M11.7587 11.8773C11.786 12.1775 12.0233 12.3957 12.0233 12.3957C12.0233 12.3957 12.2057 12.132 12.1784 11.8319C12.151 11.5317 11.9138 11.3135 11.9138 11.3135C11.9138 11.3135 11.7313 11.5863 11.7587 11.8773Z" fill="#BAC6D8"/>
<path id="Vector_56" d="M11.2108 11.4316C11.2017 11.4407 11.1835 11.4589 11.1652 11.468C11.1561 11.468 11.1561 11.4771 11.147 11.4771C12.105 12.2956 12.7072 13.4688 12.7072 14.7785C12.7072 17.234 10.5904 19.2258 7.98091 19.2258C5.37142 19.2258 3.25463 17.234 3.25463 14.7785C3.25463 13.5234 3.8112 12.3957 4.69624 11.5863C4.66887 11.5772 4.64149 11.5681 4.62325 11.559C3.73821 12.3775 3.18164 13.5234 3.18164 14.7785C3.18164 17.2704 5.33493 19.2985 7.98091 19.2985C10.6269 19.2985 12.7802 17.2704 12.7802 14.7785C12.7893 13.4507 12.178 12.2593 11.2108 11.4316Z" fill="#BAC6D8"/>
<path id="Vector_57" d="M5.17964 11.7503C4.87855 11.8139 4.5957 11.6684 4.5957 11.6684C4.5957 11.6684 4.79643 11.4138 5.09753 11.3501C5.39862 11.2864 5.68147 11.432 5.68147 11.432C5.68147 11.432 5.47162 11.6866 5.17964 11.7503Z" fill="#BAC6D8"/>
<path id="Vector_58" d="M4.96985 11.2227C4.86949 11.5046 4.58664 11.6683 4.58664 11.6683C4.58664 11.6683 4.47715 11.3682 4.57751 11.0863C4.67788 10.8043 4.96073 10.6406 4.96073 10.6406C4.96073 10.6406 5.07934 10.9407 4.96985 11.2227Z" fill="#BAC6D8"/>
<path id="Vector_59" d="M10.828 11.7503C11.1291 11.8139 11.4119 11.6684 11.4119 11.6684C11.4119 11.6684 11.2112 11.4138 10.9101 11.3501C10.609 11.2864 10.3262 11.432 10.3262 11.432C10.3262 11.432 10.5269 11.6866 10.828 11.7503Z" fill="#BAC6D8"/>
<path id="Vector_60" d="M11.0287 11.2227C11.1291 11.5046 11.4119 11.6683 11.4119 11.6683C11.4119 11.6683 11.5214 11.3682 11.421 11.0863C11.3207 10.8043 11.0378 10.6406 11.0378 10.6406C11.0378 10.6406 10.9283 10.9407 11.0287 11.2227Z" fill="#BAC6D8"/>
</g>
</g>
</g>
<defs>
<clipPath id="clip0_2433_40275">
<rect width="15" height="22" fill="white" transform="translate(0.5)"/>
</clipPath>
</defs>
</svg>
