<svg width="50" height="50" viewBox="0 0 50 50" fill="none" xmlns="http://www.w3.org/2000/svg">
<g id="Frame">
<rect width="50" height="50" rx="25" fill="#039BE5"/>
<path id="Vector" d="M15 17.5H12.5V35C12.5 36.375 13.625 37.5 15 37.5H32.5V35H15V17.5ZM35 12.5H20C18.625 12.5 17.5 13.625 17.5 15V30C17.5 31.375 18.625 32.5 20 32.5H35C36.375 32.5 37.5 31.375 37.5 30V15C37.5 13.625 36.375 12.5 35 12.5ZM35 30H20V15H35V30ZM22.5 21.25H32.5V23.75H22.5V21.25ZM22.5 25H27.5V27.5H22.5V25ZM22.5 17.5H32.5V20H22.5V17.5Z" fill="white"/>
</g>
</svg>
