<svg width="25" height="24" viewBox="0 0 25 24" fill="none" xmlns="http://www.w3.org/2000/svg">
<g id="Frame">
<path id="Vector" d="M22.0002 4.125H4.00015C3.50287 4.125 3.02596 4.32254 2.67433 4.67417C2.3227 5.02581 2.12515 5.50272 2.12515 6V18C2.12515 18.4973 2.3227 18.9742 2.67433 19.3258C3.02596 19.6775 3.50287 19.875 4.00015 19.875H22.0002C22.4974 19.875 22.9743 19.6775 23.326 19.3258C23.6776 18.9742 23.8752 18.4973 23.8752 18V6C23.8752 5.50272 23.6776 5.02581 23.326 4.67417C22.9743 4.32254 22.4974 4.125 22.0002 4.125ZM21.6252 6.375V8.25H4.37515V6.375H21.6252ZM4.37515 17.625V10.5H21.6252V17.625H4.37515ZM20.5002 15.375C20.5002 15.6734 20.3816 15.9595 20.1706 16.1705C19.9597 16.3815 19.6735 16.5 19.3752 16.5H16.3752C16.0768 16.5 15.7906 16.3815 15.5797 16.1705C15.3687 15.9595 15.2502 15.6734 15.2502 15.375C15.2502 15.0766 15.3687 14.7905 15.5797 14.5795C15.7906 14.3685 16.0768 14.25 16.3752 14.25H19.3752C19.6735 14.25 19.9597 14.3685 20.1706 14.5795C20.3816 14.7905 20.5002 15.0766 20.5002 15.375ZM14.1252 15.375C14.1252 15.6734 14.0066 15.9595 13.7956 16.1705C13.5847 16.3815 13.2985 16.5 13.0002 16.5H11.8752C11.5768 16.5 11.2906 16.3815 11.0797 16.1705C10.8687 15.9595 10.7502 15.6734 10.7502 15.375C10.7502 15.0766 10.8687 14.7905 11.0797 14.5795C11.2906 14.3685 11.5768 14.25 11.8752 14.25H13.0002C13.2985 14.25 13.5847 14.3685 13.7956 14.5795C14.0066 14.7905 14.1252 15.0766 14.1252 15.375Z" fill="currentColor"/>
</g>
</svg>
