<svg width="32" height="32" viewBox="0 0 32 32" fill="none" xmlns="http://www.w3.org/2000/svg">
<g id="Frame">
<path id="Vector" d="M27.4594 6.54077L25.7913 5.86323V16.7885L28.8163 9.69858C29.3267 8.46449 28.7416 7.04892 27.4594 6.54077ZM3.18468 11.0174L9.35916 25.4755C9.54098 25.9154 9.85112 26.2941 10.2514 26.5649C10.6517 26.8358 11.1248 26.987 11.6124 27C11.936 27 12.2721 26.9395 12.5958 26.8064L21.7704 23.1163C22.704 22.7412 23.2767 21.8459 23.3016 20.9506C23.314 20.636 23.2518 20.2851 23.1397 19.9705L16.9154 5.51236C16.7395 5.06957 16.4305 4.6885 16.0286 4.41876C15.6267 4.14902 15.1506 4.00311 14.6623 4C14.3386 4 14.0149 4.07259 13.7037 4.18148L4.54157 7.87165C3.93254 8.11404 3.44748 8.58158 3.19303 9.17147C2.93858 9.76136 2.93558 10.4253 3.18468 11.0174ZM23.2891 6.41978C23.2891 5.77801 23.0268 5.16253 22.5599 4.70874C22.093 4.25494 21.4597 4 20.7994 4H18.9944L23.2891 14.0905" fill="#1E88E5"/>
</g>
</svg>
