<svg width="32" height="32" viewBox="0 0 32 32" fill="none" xmlns="http://www.w3.org/2000/svg">
<g id="Frame">
<path id="Vector" d="M10.5 12.8485C11.7314 12.8485 12.9123 12.3297 13.783 11.4062C14.6537 10.4827 15.1429 9.23023 15.1429 7.92424C15.1429 6.61825 14.6537 5.36575 13.783 4.44228C12.9123 3.5188 11.7314 3 10.5 3C9.26864 3 8.08771 3.5188 7.217 4.44228C6.3463 5.36575 5.85714 6.61825 5.85714 7.92424C5.85714 9.23023 6.3463 10.4827 7.217 11.4062C8.08771 12.3297 9.26864 12.8485 10.5 12.8485ZM25.1429 9.06061C25.1429 10.0652 24.7666 11.0287 24.0968 11.739C23.427 12.4494 22.5186 12.8485 21.5714 12.8485C20.6242 12.8485 19.7158 12.4494 19.046 11.739C18.3763 11.0287 18 10.0652 18 9.06061C18 8.056 18.3763 7.09254 19.046 6.38217C19.7158 5.67181 20.6242 5.27273 21.5714 5.27273C22.5186 5.27273 23.427 5.67181 24.0968 6.38217C24.7666 7.09254 25.1429 8.056 25.1429 9.06061ZM13.7143 21.1818C13.7143 18.6 14.8214 16.2909 16.5614 14.7621C16.1296 14.5 15.6404 14.3626 15.1429 14.3636H5.85714C5.09938 14.3636 4.37266 14.6829 3.83684 15.2512C3.30102 15.8195 3 16.5903 3 17.3939C3 17.3939 3 23.4545 10.5 23.4545C11.8614 23.4545 12.9757 23.2545 13.8871 22.9288C13.7719 22.3545 13.714 21.769 13.7143 21.1818ZM28 21.1818C28 22.9901 27.3227 24.7243 26.1171 26.003C24.9115 27.2817 23.2764 28 21.5714 28C19.8665 28 18.2313 27.2817 17.0257 26.003C15.8202 24.7243 15.1429 22.9901 15.1429 21.1818C15.1429 19.3735 15.8202 17.6393 17.0257 16.3606C18.2313 15.082 19.8665 14.3636 21.5714 14.3636C23.2764 14.3636 24.9115 15.082 26.1171 16.3606C27.3227 17.6393 28 19.3735 28 21.1818ZM24.9343 18.3727C24.8679 18.3022 24.7891 18.2462 24.7023 18.208C24.6156 18.1698 24.5225 18.1502 24.4286 18.1502C24.3346 18.1502 24.2416 18.1698 24.1548 18.208C24.068 18.2462 23.9892 18.3022 23.9229 18.3727L20.1429 22.3833L19.22 21.403C19.0859 21.2608 18.904 21.1809 18.7143 21.1809C18.5246 21.1809 18.3427 21.2608 18.2086 21.403C18.0744 21.5453 17.9991 21.7382 17.9991 21.9394C17.9991 22.1406 18.0744 22.3335 18.2086 22.4758L19.6371 23.9909C19.7035 24.0615 19.7823 24.1174 19.8691 24.1556C19.9559 24.1938 20.0489 24.2135 20.1429 24.2135C20.2368 24.2135 20.3298 24.1938 20.4166 24.1556C20.5034 24.1174 20.5822 24.0615 20.6486 23.9909L24.9343 19.4455C25.0008 19.3751 25.0536 19.2915 25.0896 19.1994C25.1256 19.1074 25.1441 19.0087 25.1441 18.9091C25.1441 18.8094 25.1256 18.7108 25.0896 18.6187C25.0536 18.5267 25.0008 18.4431 24.9343 18.3727Z" fill="#D51E03"/>
</g>
</svg>
