<svg width="32" height="32" viewBox="0 0 32 32" fill="none" xmlns="http://www.w3.org/2000/svg">
<g id="Frame">
<path id="Vector" d="M5.6 26C4.885 26 4.2727 25.7822 3.7631 25.3467C3.2535 24.9111 2.99914 24.3881 3 23.7778V8.22222C3 7.61111 3.2548 7.08778 3.7644 6.65222C4.274 6.21667 4.88587 5.99926 5.6 6H26.4C27.115 6 27.7273 6.21778 28.2369 6.65334C28.7465 7.08889 29.0009 7.61185 29 8.22222V23.7778C29 24.3889 28.7452 24.9122 28.2356 25.3478C27.726 25.7833 27.1141 26.0007 26.4 26H5.6ZM6.9 21.5556H13.4V19.3333H6.9V21.5556ZM19.315 19.3333L25.75 13.8333L23.8975 12.25L19.315 16.1944L17.4625 14.6111L15.6425 16.1944L19.315 19.3333ZM6.9 17.1111H13.4V14.8889H6.9V17.1111ZM6.9 12.6667H13.4V10.4444H6.9V12.6667Z" fill="#FDB138"/>
</g>
</svg>
