<svg width="20" height="20" viewBox="0 0 20 20" fill="none" xmlns="http://www.w3.org/2000/svg">
<g id="Icon/month">
<path id="Vector" d="M10 11.667C9.76389 11.667 9.56584 11.587 9.40584 11.427C9.24583 11.267 9.16611 11.0692 9.16667 10.8337C9.16667 10.5976 9.24667 10.3995 9.40667 10.2395C9.56667 10.0795 9.76445 9.99977 10 10.0003C10.2361 10.0003 10.4342 10.0803 10.5942 10.2403C10.7542 10.4003 10.8339 10.5981 10.8333 10.8337C10.8333 11.0698 10.7533 11.2678 10.5933 11.4278C10.4333 11.5878 10.2356 11.6676 10 11.667ZM6.66667 11.667C6.43056 11.667 6.2325 11.587 6.0725 11.427C5.9125 11.267 5.83278 11.0692 5.83334 10.8337C5.83334 10.5976 5.91334 10.3995 6.07334 10.2395C6.23334 10.0795 6.43111 9.99977 6.66667 10.0003C6.90278 10.0003 7.10084 10.0803 7.26084 10.2403C7.42084 10.4003 7.50056 10.5981 7.5 10.8337C7.5 11.0698 7.42 11.2678 7.26 11.4278C7.1 11.5878 6.90222 11.6676 6.66667 11.667ZM13.3333 11.667C13.0972 11.667 12.8992 11.587 12.7392 11.427C12.5792 11.267 12.4994 11.0692 12.5 10.8337C12.5 10.5976 12.58 10.3995 12.74 10.2395C12.9 10.0795 13.0978 9.99977 13.3333 10.0003C13.5694 10.0003 13.7675 10.0803 13.9275 10.2403C14.0875 10.4003 14.1672 10.5981 14.1667 10.8337C14.1667 11.0698 14.0867 11.2678 13.9267 11.4278C13.7667 11.5878 13.5689 11.6676 13.3333 11.667ZM10 15.0003C9.76389 15.0003 9.56584 14.9203 9.40584 14.7603C9.24583 14.6003 9.16611 14.4026 9.16667 14.167C9.16667 13.9309 9.24667 13.7328 9.40667 13.5728C9.56667 13.4128 9.76445 13.3331 10 13.3337C10.2361 13.3337 10.4342 13.4137 10.5942 13.5737C10.7542 13.7337 10.8339 13.9314 10.8333 14.167C10.8333 14.4031 10.7533 14.6012 10.5933 14.7612C10.4333 14.9212 10.2356 15.0009 10 15.0003ZM6.66667 15.0003C6.43056 15.0003 6.2325 14.9203 6.0725 14.7603C5.9125 14.6003 5.83278 14.4026 5.83334 14.167C5.83334 13.9309 5.91334 13.7328 6.07334 13.5728C6.23334 13.4128 6.43111 13.3331 6.66667 13.3337C6.90278 13.3337 7.10084 13.4137 7.26084 13.5737C7.42084 13.7337 7.50056 13.9314 7.5 14.167C7.5 14.4031 7.42 14.6012 7.26 14.7612C7.1 14.9212 6.90222 15.0009 6.66667 15.0003ZM13.3333 15.0003C13.0972 15.0003 12.8992 14.9203 12.7392 14.7603C12.5792 14.6003 12.4994 14.4026 12.5 14.167C12.5 13.9309 12.58 13.7328 12.74 13.5728C12.9 13.4128 13.0978 13.3331 13.3333 13.3337C13.5694 13.3337 13.7675 13.4137 13.9275 13.5737C14.0875 13.7337 14.1672 13.9314 14.1667 14.167C14.1667 14.4031 14.0867 14.6012 13.9267 14.7612C13.7667 14.9212 13.5689 15.0009 13.3333 15.0003ZM4.16667 18.3337C3.70833 18.3337 3.31583 18.1703 2.98917 17.8437C2.6625 17.517 2.49945 17.1248 2.5 16.667V5.00033C2.5 4.542 2.66333 4.1495 2.99 3.82283C3.31667 3.49616 3.70889 3.33311 4.16667 3.33366H5V2.50033C5 2.26422 5.08 2.06616 5.24 1.90616C5.4 1.74616 5.59778 1.66644 5.83334 1.667C6.06945 1.667 6.2675 1.747 6.4275 1.907C6.5875 2.067 6.66722 2.26477 6.66667 2.50033V3.33366H13.3333V2.50033C13.3333 2.26422 13.4133 2.06616 13.5733 1.90616C13.7333 1.74616 13.9311 1.66644 14.1667 1.667C14.4028 1.667 14.6008 1.747 14.7608 1.907C14.9208 2.067 15.0006 2.26477 15 2.50033V3.33366H15.8333C16.2917 3.33366 16.6842 3.497 17.0108 3.82366C17.3375 4.15033 17.5006 4.54255 17.5 5.00033V16.667C17.5 17.1253 17.3367 17.5178 17.01 17.8445C16.6833 18.1712 16.2911 18.3342 15.8333 18.3337H4.16667ZM4.16667 16.667H15.8333V8.33366H4.16667V16.667ZM4.16667 6.667H15.8333V5.00033H4.16667V6.667Z" fill="#1E88E5"/>
</g>
</svg>
