<svg width="10" height="14" viewBox="0 0 10 14" fill="none" xmlns="http://www.w3.org/2000/svg">
<path d="M2.70992 10.8027C2.56997 10.6711 2.5 10.5037 2.5 10.3004C2.5 10.0972 2.56997 9.92975 2.70992 9.79821L5.68702 7L2.70992 4.20179C2.56997 4.07025 2.5 3.90284 2.5 3.69955C2.5 3.49626 2.56997 3.32885 2.70992 3.19731C2.84987 3.06577 3.02799 3 3.24427 3C3.46056 3 3.63867 3.06577 3.77862 3.19731L7.29006 6.49776C7.3664 6.56951 7.4206 6.64723 7.45266 6.73094C7.48472 6.81465 7.5005 6.90433 7.49999 7C7.49999 7.09566 7.48396 7.18535 7.4519 7.26906C7.41984 7.35277 7.36589 7.43049 7.29006 7.50224L3.77862 10.8027C3.63867 10.9342 3.46056 11 3.24427 11C3.02799 11 2.84987 10.9342 2.70992 10.8027Z" fill="currentColor"/>
</svg>
