<svg width="190" height="190" viewBox="0 0 190 190" fill="none" xmlns="http://www.w3.org/2000/svg">
<g id="Icon/ Search">
<path id="Vector" d="M110.833 122.708L110.833 116.454L108.696 114.238C99.386 122.264 87.5005 126.675 75.2084 126.667C65.0309 126.667 55.0819 123.649 46.6196 117.994C38.1574 112.34 31.5618 104.303 27.6671 94.9006C23.7723 85.4978 22.7533 75.1513 24.7388 65.1693C26.7243 55.1874 31.6252 46.0184 38.8218 38.8218C46.0184 31.6252 55.1874 26.7243 65.1693 24.7388C75.1513 22.7532 85.4978 23.7723 94.9006 27.6671C104.303 31.5618 112.34 38.1574 117.994 46.6196C123.649 55.0819 126.667 65.0309 126.667 75.2084C126.667 87.9542 121.996 99.6709 114.238 108.696L116.454 110.833L122.708 110.833L162.213 150.417L150.417 162.213L110.833 122.708ZM110.833 75.2084C110.833 55.4959 94.9209 39.5834 75.2084 39.5834C55.4959 39.5834 39.5834 55.4959 39.5834 75.2084C39.5834 94.9209 55.4959 110.833 75.2084 110.833C94.9209 110.833 110.833 94.9209 110.833 75.2084Z" fill="#B3E5FC"/>
</g>
</svg>
