<svg width="40" height="40" viewBox="0 0 40 40" fill="none" xmlns="http://www.w3.org/2000/svg">
<g filter="url(#filter0_b_294_20828)">
<rect width="40" height="40" rx="20" fill="white"/>
<path d="M15.34 31.6668C14.6977 31.6668 14.1477 31.4382 13.6899 30.9808C13.2322 30.5235 13.0037 29.9744 13.0045 29.3335C13.0045 28.6918 13.2334 28.1423 13.6911 27.685C14.1489 27.2277 14.6985 26.9994 15.34 27.0002C15.9822 27.0002 16.5322 27.2288 16.99 27.6862C17.4477 28.1435 17.6762 28.6926 17.6755 29.3335C17.6755 29.9752 17.4466 30.5247 16.9888 30.982C16.5311 31.4393 15.9815 31.6676 15.34 31.6668ZM27.0174 31.6668C26.3752 31.6668 25.8252 31.4382 25.3674 30.9808C24.9096 30.5235 24.6812 29.9744 24.6819 29.3335C24.6819 28.6918 24.9108 28.1423 25.3686 27.685C25.8263 27.2277 26.3759 26.9994 27.0174 27.0002C27.6597 27.0002 28.2097 27.2288 28.6674 27.6862C29.1252 28.1435 29.3537 28.6926 29.3529 29.3335C29.3529 29.9752 29.124 30.5247 28.6663 30.982C28.2085 31.4393 27.6589 31.6676 27.0174 31.6668ZM14.3474 13.0002L17.15 18.8335H25.3242L28.5355 13.0002H14.3474ZM13.238 10.6668H30.4623C30.9099 10.6668 31.2505 10.8663 31.4841 11.2653C31.7176 11.6643 31.7273 12.0676 31.5132 12.4752L27.3677 19.9418C27.1537 20.3307 26.8664 20.6321 26.506 20.846C26.1455 21.0599 25.7516 21.1668 25.3242 21.1668H16.6245L15.34 23.5002H29.3529V25.8335H15.34C14.4642 25.8335 13.8024 25.4493 13.3548 24.6808C12.9072 23.9124 12.8877 23.1494 13.2964 22.3918L14.8729 19.5335L10.669 10.6668H8.3335V8.3335H12.1287L13.238 10.6668Z" fill="#0288D1"/>
</g>
<defs>
<filter id="filter0_b_294_20828" x="-8" y="-8" width="56" height="56" filterUnits="userSpaceOnUse" color-interpolation-filters="sRGB">
<feFlood flood-opacity="0" result="BackgroundImageFix"/>
<feGaussianBlur in="BackgroundImageFix" stdDeviation="4"/>
<feComposite in2="SourceAlpha" operator="in" result="effect1_backgroundBlur_294_20828"/>
<feBlend mode="normal" in="SourceGraphic" in2="effect1_backgroundBlur_294_20828" result="shape"/>
</filter>
</defs>
</svg>
