<svg width="140" height="14" viewBox="0 0 140 14" fill="none" xmlns="http://www.w3.org/2000/svg">
<path d="M0 0H140V14H0V0Z" fill="#525252"/>
<path d="M0 0H72V14H0V0Z" fill="#0288D1"/>
<path d="M50.9346 11H49.416L49.4258 10.0283H50.9346C51.374 10.0283 51.7419 9.93229 52.0381 9.74023C52.3376 9.54818 52.5622 9.27311 52.7119 8.91504C52.8649 8.55697 52.9414 8.13053 52.9414 7.63574V7.25C52.9414 6.86589 52.8975 6.52572 52.8096 6.22949C52.7249 5.93327 52.598 5.68424 52.4287 5.48242C52.2627 5.2806 52.0576 5.1276 51.8135 5.02344C51.5726 4.91927 51.2943 4.86719 50.9785 4.86719H49.3867V3.89062H50.9785C51.4505 3.89062 51.8818 3.97038 52.2725 4.12988C52.6631 4.28613 53 4.51237 53.2832 4.80859C53.5697 5.10482 53.7894 5.45964 53.9424 5.87305C54.0954 6.28646 54.1719 6.7487 54.1719 7.25977V7.63574C54.1719 8.14681 54.0954 8.60905 53.9424 9.02246C53.7894 9.43587 53.5697 9.79069 53.2832 10.0869C52.9967 10.3799 52.6549 10.6061 52.2578 10.7656C51.8639 10.9219 51.4229 11 50.9346 11ZM50.0947 3.89062V11H48.8691V3.89062H50.0947ZM51.3936 6.99609V7.80664H48.1123V6.99609H51.3936ZM58.0635 4.83789L55.9395 11H54.6553L57.3311 3.89062H58.1514L58.0635 4.83789ZM59.8408 11L57.7119 4.83789L57.6191 3.89062H58.4443L61.1299 11H59.8408ZM59.7383 8.36328V9.33496H55.8711V8.36328H59.7383ZM58.9717 2.04492L59.6895 2.09863C59.6895 2.33626 59.6423 2.54948 59.5479 2.73828C59.4535 2.92383 59.3249 3.07031 59.1621 3.17773C58.9993 3.28516 58.8154 3.33887 58.6104 3.33887C58.4508 3.33887 58.3158 3.31608 58.2051 3.27051C58.0944 3.22493 57.9935 3.17285 57.9023 3.11426C57.8112 3.05566 57.7168 3.00521 57.6191 2.96289C57.5247 2.91732 57.4124 2.89453 57.2822 2.89453C57.1585 2.89453 57.0527 2.9401 56.9648 3.03125C56.8802 3.1224 56.8379 3.24447 56.8379 3.39746L56.1152 3.3584C56.1152 3.12402 56.1624 2.91243 56.2568 2.72363C56.3512 2.53483 56.4798 2.38509 56.6426 2.27441C56.8053 2.16374 56.9893 2.1084 57.1943 2.1084C57.3278 2.1084 57.4482 2.13118 57.5557 2.17676C57.6663 2.21908 57.7705 2.26953 57.8682 2.32812C57.9691 2.38672 58.0716 2.4388 58.1758 2.48438C58.2799 2.52995 58.3955 2.55273 58.5225 2.55273C58.6462 2.55273 58.752 2.50553 58.8398 2.41113C58.9277 2.31673 58.9717 2.19466 58.9717 2.04492ZM67.082 7.78711H65.2705L65.2607 6.89355H66.8428C67.1097 6.89355 67.3359 6.85449 67.5215 6.77637C67.7103 6.69499 67.8535 6.57943 67.9512 6.42969C68.0488 6.27669 68.0977 6.09277 68.0977 5.87793C68.0977 5.6403 68.0521 5.44661 67.9609 5.29688C67.8698 5.14714 67.7298 5.03809 67.541 4.96973C67.3555 4.90137 67.1178 4.86719 66.8281 4.86719H65.6416V11H64.416V3.89062H66.8281C67.2188 3.89062 67.5671 3.92806 67.873 4.00293C68.1823 4.0778 68.4443 4.19499 68.6592 4.35449C68.8773 4.51074 69.0417 4.70931 69.1523 4.9502C69.2663 5.19108 69.3232 5.47754 69.3232 5.80957C69.3232 6.10254 69.2533 6.37109 69.1133 6.61523C68.9733 6.85612 68.7666 7.05306 68.4932 7.20605C68.2197 7.35905 67.8796 7.4502 67.4727 7.47949L67.082 7.78711ZM67.0283 11H64.8848L65.4365 10.0283H67.0283C67.305 10.0283 67.5361 9.98275 67.7217 9.8916C67.9072 9.7972 68.0456 9.66862 68.1367 9.50586C68.2311 9.33984 68.2783 9.14616 68.2783 8.9248C68.2783 8.69368 68.2376 8.49349 68.1562 8.32422C68.0749 8.15169 67.9463 8.01986 67.7705 7.92871C67.5947 7.83431 67.3652 7.78711 67.082 7.78711H65.7051L65.7148 6.89355H67.5068L67.7852 7.23047C68.1758 7.24349 68.4964 7.32975 68.7471 7.48926C69.001 7.64876 69.1898 7.85547 69.3135 8.10938C69.4372 8.36328 69.499 8.63672 69.499 8.92969C69.499 9.38216 69.3997 9.76139 69.2012 10.0674C69.0059 10.3734 68.7243 10.6061 68.3564 10.7656C67.9886 10.9219 67.5459 11 67.0283 11ZM73.5029 4.83789L71.3789 11H70.0947L72.7705 3.89062H73.5908L73.5029 4.83789ZM75.2803 11L73.1514 4.83789L73.0586 3.89062H73.8838L76.5693 11H75.2803ZM75.1777 8.36328V9.33496H71.3105V8.36328H75.1777ZM72.751 3.45117L73.7031 1.98145H75.0312L73.7031 3.45117H72.751ZM83.0049 3.89062V11H81.7793L78.5908 5.90723V11H77.3652V3.89062H78.5908L81.7891 8.99316V3.89062H83.0049ZM88.0049 7.69434L87.0674 7.46484L87.4531 3.89062H91.2861V4.88672H88.4297L88.2344 6.62988C88.3451 6.56478 88.498 6.5013 88.6934 6.43945C88.8887 6.37435 89.1117 6.3418 89.3623 6.3418C89.6976 6.3418 89.9971 6.39714 90.2607 6.50781C90.5277 6.61523 90.7539 6.77311 90.9395 6.98145C91.125 7.18652 91.2666 7.43717 91.3643 7.7334C91.4619 8.02637 91.5107 8.35677 91.5107 8.72461C91.5107 9.05339 91.4619 9.361 91.3643 9.64746C91.2699 9.93392 91.1266 10.1862 90.9346 10.4043C90.7425 10.6224 90.5 10.7933 90.207 10.917C89.9173 11.0374 89.5739 11.0977 89.1768 11.0977C88.8805 11.0977 88.5957 11.0553 88.3223 10.9707C88.0521 10.8828 87.8096 10.7542 87.5947 10.585C87.3799 10.4124 87.2074 10.2008 87.0771 9.9502C86.9469 9.69629 86.8721 9.40495 86.8525 9.07617H88.0049C88.0342 9.30729 88.0977 9.50423 88.1953 9.66699C88.2962 9.8265 88.4297 9.94857 88.5957 10.0332C88.7617 10.1178 88.9538 10.1602 89.1719 10.1602C89.3704 10.1602 89.5413 10.126 89.6846 10.0576C89.8278 9.986 89.9466 9.88509 90.041 9.75488C90.1387 9.62142 90.2103 9.46517 90.2559 9.28613C90.3047 9.1071 90.3291 8.90853 90.3291 8.69043C90.3291 8.4821 90.3014 8.29167 90.2461 8.11914C90.194 7.94661 90.1143 7.79688 90.0068 7.66992C89.9027 7.54297 89.7708 7.44531 89.6113 7.37695C89.4518 7.30534 89.2679 7.26953 89.0596 7.26953C88.7796 7.26953 88.5648 7.31022 88.415 7.3916C88.2686 7.47298 88.1318 7.57389 88.0049 7.69434Z" fill="white"/>
</svg>
