<svg width="92" height="46" viewBox="0 0 92 46" fill="none" xmlns="http://www.w3.org/2000/svg">
<path d="M15.3333 26.8333C19.55 26.8333 23 23.3833 23 19.1667C23 14.95 19.55 11.5 15.3333 11.5C11.1167 11.5 7.66667 14.95 7.66667 19.1667C7.66667 23.3833 11.1167 26.8333 15.3333 26.8333ZM19.665 31.05C18.2467 30.82 16.8283 30.6667 15.3333 30.6667C11.5383 30.6667 7.935 31.4717 4.67667 32.89C3.2879 33.4836 2.10421 34.4723 1.27274 35.7331C0.441265 36.9939 -0.00131746 38.4714 2.94589e-06 39.9817V46H17.25V39.8283C17.25 36.6467 18.1317 33.6567 19.665 31.05ZM76.6667 26.8333C80.8833 26.8333 84.3333 23.3833 84.3333 19.1667C84.3333 14.95 80.8833 11.5 76.6667 11.5C72.45 11.5 69 14.95 69 19.1667C69 23.3833 72.45 26.8333 76.6667 26.8333ZM92 39.9817C92 36.8767 90.16 34.1167 87.3233 32.89C83.962 31.4233 80.3341 30.6664 76.6667 30.6667C75.1717 30.6667 73.7533 30.82 72.335 31.05C73.8683 33.6567 74.75 36.6467 74.75 39.8283V46H92V39.9817ZM62.2533 29.325C57.7683 27.3317 52.2483 25.875 46 25.875C39.7517 25.875 34.2317 27.37 29.7467 29.325C27.7267 30.2356 26.0142 31.7125 24.8167 33.5768C23.6192 35.4411 22.9881 37.6126 23 39.8283V46H69V39.8283C69 35.305 66.3933 31.165 62.2533 29.325ZM30.935 38.3333C31.28 37.4517 31.4333 36.8383 34.4233 35.6883C38.1417 34.2317 42.0517 33.5417 46 33.5417C49.9483 33.5417 53.8583 34.2317 57.5767 35.6883C60.5283 36.8383 60.6817 37.4517 61.065 38.3333H30.935ZM46 7.66667C48.1083 7.66667 49.8333 9.39167 49.8333 11.5C49.8333 13.6083 48.1083 15.3333 46 15.3333C43.8917 15.3333 42.1667 13.6083 42.1667 11.5C42.1667 9.39167 43.8917 7.66667 46 7.66667ZM46 0C39.6367 0 34.5 5.13667 34.5 11.5C34.5 17.8633 39.6367 23 46 23C52.3633 23 57.5 17.8633 57.5 11.5C57.5 5.13667 52.3633 0 46 0Z" fill="white" fill-opacity="0.1"/>
</svg>
