<svg width="32" height="32" viewBox="0 0 32 32" fill="none" xmlns="http://www.w3.org/2000/svg">
<path d="M9.33333 9.33333H22.6667V12H9.33333V9.33333ZM16.92 21.08H17.6V20H9.33333V22.6667H13.84L14.28 22.2C14.9067 21.5067 15.8933 21.08 16.92 21.08ZM12 25.3333H6.66667V6.66667H25.3333V18.08L28 19.2667V6.66667C28 5.2 26.8 4 25.3333 4H6.66667C5.2 4 4 5.2 4 6.66667V25.3333C4 26.8 5.2 28 6.66667 28H15.1067L12 25.3333ZM9.33333 17.3333H17.6V15.64C17.6 15.3333 17.6667 14.9867 17.7467 14.6667H9.33333V17.3333ZM20.2667 25.4267L17.1333 23.7467H16.92C16.6667 23.7467 16.3867 23.8533 16.2 24.0533L15.48 24.8133L20.2667 28.92C20.52 29.1867 20.88 29.3333 21.24 29.3333H27.6C28.4 29.3333 29.04 28.6667 29.0667 27.8667V23.6C29.0667 23.04 28.76 22.52 28.24 22.28L23.4 20.1467L22.2267 20V15.64C22.2136 15.3889 22.1046 15.1525 21.9223 14.9794C21.7399 14.8063 21.4981 14.7098 21.2467 14.7098C20.9953 14.7098 20.7534 14.8063 20.5711 14.9794C20.3887 15.1525 20.2798 15.3889 20.2667 15.64V25.4267Z" fill="#1E88E5"/>
</svg>
