<svg width="32" height="32" viewBox="0 0 32 32" fill="none" xmlns="http://www.w3.org/2000/svg">
<path d="M18.1667 14.8889H25.75V9.33333H18.1667V14.8889ZM21.9583 13.5L19.25 11.5556V10.4444L21.9583 12.3889L24.6667 10.4444V11.5556L21.9583 13.5ZM5.16667 26C4.57083 26 4.06058 25.7822 3.63592 25.3467C3.21125 24.9111 2.99928 24.3881 3 23.7778V8.22222C3 7.61111 3.21234 7.08778 3.637 6.65222C4.06167 6.21667 4.57156 5.99926 5.16667 6H26.8333C27.4292 6 27.9394 6.21778 28.3641 6.65334C28.7887 7.08889 29.0007 7.61185 29 8.22222V23.7778C29 24.3889 28.7877 24.9122 28.363 25.3478C27.9383 25.7833 27.4284 26.0007 26.8333 26H5.16667ZM20.225 23.7778H26.8333V8.22222H5.16667V23.7778H5.275C6.03333 22.3889 7.08056 21.3007 8.41667 20.5133C9.75278 19.7259 11.1972 19.3326 12.75 19.3333C14.3028 19.3333 15.7472 19.727 17.0833 20.5144C18.4194 21.3019 19.4667 22.3896 20.225 23.7778ZM12.75 18.2222C13.6528 18.2222 14.4201 17.8981 15.0521 17.25C15.684 16.6019 16 15.8148 16 14.8889C16 13.963 15.684 13.1759 15.0521 12.5278C14.4201 11.8796 13.6528 11.5556 12.75 11.5556C11.8472 11.5556 11.0799 11.8796 10.4479 12.5278C9.81597 13.1759 9.5 13.963 9.5 14.8889C9.5 15.8148 9.81597 16.6019 10.4479 17.25C11.0799 17.8981 11.8472 18.2222 12.75 18.2222ZM7.92917 23.7778H17.5708C16.9569 23.0741 16.23 22.5278 15.3901 22.1389C14.5501 21.75 13.6701 21.5556 12.75 21.5556C11.8292 21.5556 10.9535 21.75 10.1229 22.1389C9.29236 22.5278 8.56111 23.0741 7.92917 23.7778ZM12.75 16C12.4431 16 12.1856 15.8933 11.9776 15.68C11.7696 15.4667 11.6659 15.203 11.6667 14.8889C11.6667 14.5741 11.7707 14.31 11.9787 14.0967C12.1867 13.8833 12.4438 13.777 12.75 13.7778C13.0569 13.7778 13.3144 13.8844 13.5224 14.0978C13.7304 14.3111 13.8341 14.5748 13.8333 14.8889C13.8333 15.2037 13.7293 15.4678 13.5213 15.6811C13.3133 15.8944 13.0562 16.0007 12.75 16Z" fill="currentColor"/>
</svg>
