<svg width="16" height="17" viewBox="0 0 16 17" fill="none" xmlns="http://www.w3.org/2000/svg">
<path d="M9.2067 10.5314V2.58691H10.2704V11.7895H9.2982L9.2067 10.5314ZM5.0433 8.62014V8.49432C5.0433 7.99904 5.10049 7.5497 5.21487 7.14628C5.33306 6.73888 5.49891 6.38938 5.71242 6.09781C5.92974 5.80623 6.18709 5.58256 6.48448 5.42678C6.78568 5.26702 7.12119 5.18713 7.49101 5.18713C7.8799 5.18713 8.21923 5.25903 8.50899 5.40282C8.80256 5.54262 9.05038 5.74832 9.25245 6.01992C9.45833 6.28753 9.62037 6.61106 9.73856 6.99051C9.85675 7.36996 9.93873 7.79933 9.98448 8.27864V8.82983C9.94254 9.30514 9.86057 9.73252 9.73856 10.112C9.62037 10.4914 9.45833 10.8149 9.25245 11.0826C9.05038 11.3502 8.80256 11.5559 8.50899 11.6997C8.21541 11.8395 7.87228 11.9094 7.47958 11.9094C7.11738 11.9094 6.78568 11.8275 6.48448 11.6637C6.18709 11.5 5.92974 11.2703 5.71242 10.9747C5.49891 10.6791 5.33306 10.3316 5.21487 9.93223C5.10049 9.52882 5.0433 9.09145 5.0433 8.62014ZM6.10703 8.49432V8.62014C6.10703 8.94367 6.13753 9.24723 6.19853 9.53081C6.26334 9.8144 6.36247 10.064 6.49592 10.2797C6.62936 10.4954 6.79902 10.6652 7.0049 10.789C7.21078 10.9088 7.4567 10.9687 7.74265 10.9687C8.09341 10.9687 8.38126 10.8908 8.60621 10.7351C8.83497 10.5793 9.01797 10.3736 9.15523 10.118C9.29248 9.86233 9.39924 9.58474 9.47549 9.28517V7.84127C9.42974 7.62159 9.36302 7.4099 9.27533 7.2062C9.19145 6.9985 9.08088 6.81476 8.94363 6.655C8.81019 6.49124 8.64434 6.36142 8.44608 6.26556C8.25163 6.1697 8.02097 6.12177 7.75409 6.12177C7.46433 6.12177 7.2146 6.18568 7.0049 6.31349C6.79902 6.43731 6.62936 6.60906 6.49592 6.82874C6.36247 7.04443 6.26334 7.29606 6.19853 7.58365C6.13753 7.86723 6.10703 8.17079 6.10703 8.49432ZM11.3456 3.4916V4.40227H7.70262V3.4916H11.3456Z" fill="currentColor"/>
<path d="M4.5 12.9878H11.5V13.5869H4.5V12.9878Z" fill="currentColor"/>
</svg>
