<svg width="24" height="24" viewBox="0 0 24 24" fill="none" xmlns="http://www.w3.org/2000/svg">
<g id="Icon/wallet">
<g id="Group">
<g id="Vector">
<path d="M7.4668 9.75049H10.6001Z" fill="#0288D1"/>
<path d="M7.4668 9.75049H10.6001" stroke="#0288D1" stroke-width="1.125" stroke-linecap="round" stroke-linejoin="round"/>
</g>
<path id="Vector_2" d="M19.0858 10.5337H17.0476C15.6493 10.5337 14.5166 11.5857 14.5166 12.8837C14.5166 14.1817 15.6501 15.2337 17.0468 15.2337H19.0858C19.1516 15.2337 19.1837 15.2337 19.2111 15.2321C19.6341 15.2063 19.971 14.8937 19.9984 14.5013C19.9999 14.4762 19.9999 14.4457 19.9999 14.3853V11.382C19.9999 11.3217 19.9999 11.2912 19.9984 11.2661C19.9702 10.8737 19.6341 10.5611 19.2111 10.5353C19.1837 10.5337 19.1516 10.5337 19.0858 10.5337Z" stroke="#0288D1" stroke-width="1.125"/>
<path id="Vector_3" d="M19.1894 10.5339C19.1283 9.06745 18.9325 8.16819 18.2988 7.53525C17.3815 6.61719 15.9041 6.61719 12.9502 6.61719H10.6002C7.64621 6.61719 6.16885 6.61719 5.25156 7.53525C4.3335 8.45254 4.3335 9.9299 4.3335 12.8839C4.3335 15.8378 4.3335 17.3152 5.25156 18.2325C6.16885 19.1505 7.64621 19.1505 10.6002 19.1505H12.9502C15.9041 19.1505 17.3815 19.1505 18.2988 18.2325C18.9325 17.5995 19.1291 16.7003 19.1894 15.2339" stroke="#0288D1" stroke-width="1.125"/>
<path id="Vector_4" d="M7.4668 6.61701L10.3925 4.6767C10.804 4.40906 11.2843 4.2666 11.7751 4.2666C12.266 4.2666 12.7463 4.40906 13.1577 4.6767L16.0835 6.61701" stroke="#0288D1" stroke-width="1.125" stroke-linecap="round"/>
<path id="Vector_5" d="M16.8594 12.8838H16.8679" stroke="#0288D1" stroke-width="1.125" stroke-linecap="round" stroke-linejoin="round"/>
</g>
</g>
</svg>
