<svg width="32" height="32" viewBox="0 0 32 32" fill="none" xmlns="http://www.w3.org/2000/svg">
<path d="M16.4933 10.034C16.8364 10.034 17.1655 10.1702 17.4081 10.4127C17.6508 10.6553 17.7871 10.9842 17.7871 11.3272V16.9311C17.7871 17.274 17.6508 17.603 17.4081 17.8455C17.1655 18.088 16.8364 18.2243 16.4933 18.2243C16.1501 18.2243 15.8211 18.088 15.5784 17.8455C15.3358 17.603 15.1995 17.274 15.1995 16.9311V11.3272C15.1995 10.9842 15.3358 10.6553 15.5784 10.4127C15.8211 10.1702 16.1501 10.034 16.4933 10.034ZM16.4933 19.5175C16.1521 19.5175 15.8186 19.6186 15.5349 19.8081C15.2512 19.9975 15.0301 20.2668 14.8995 20.5819C14.769 20.897 14.7348 21.2437 14.8014 21.5781C14.8679 21.9126 15.0322 22.2199 15.2735 22.461C15.5147 22.7021 15.8221 22.8664 16.1567 22.9329C16.4914 22.9994 16.8382 22.9653 17.1534 22.8348C17.4686 22.7043 17.7381 22.4833 17.9276 22.1997C18.1172 21.9162 18.2183 21.5828 18.2183 21.2418C18.2183 20.7844 18.0366 20.3459 17.7131 20.0225C17.3896 19.6991 16.9508 19.5175 16.4933 19.5175ZM28.9999 16.5C29.0006 16.7824 28.9452 17.0622 28.8372 17.3232C28.7291 17.5842 28.5704 17.8212 28.3703 18.0206L18.0199 28.3727C17.6159 28.7745 17.0691 29 16.4992 29C15.9293 29 15.3825 28.7745 14.9785 28.3727L4.62812 18.0206C4.22584 17.6167 4 17.0699 4 16.5C4 15.9301 4.22584 15.3833 4.62812 14.9794L14.9838 4.62729C15.3879 4.22553 15.9347 4 16.5046 4C17.0745 4 17.6213 4.22553 18.0253 4.62729L28.3821 14.9794C28.5802 15.1798 28.7366 15.4172 28.8427 15.6782C28.9487 15.9391 29.0021 16.2184 28.9999 16.5ZM26.2312 16.5L16.4933 6.76539L6.75533 16.5L16.4933 26.2346L26.2312 16.5Z" fill="#D51E03"/>
</svg>
