<svg width="52" height="52" viewBox="0 0 52 52" fill="none" xmlns="http://www.w3.org/2000/svg">
<path d="M25.986 12.5507C26.6997 12.5507 27.3842 12.8341 27.8889 13.3385C28.3936 13.843 28.6771 14.5271 28.6771 15.2405V26.8966C28.6771 27.61 28.3936 28.2942 27.8889 28.7986C27.3842 29.3031 26.6997 29.5865 25.986 29.5865C25.2723 29.5865 24.5878 29.3031 24.0831 28.7986C23.5784 28.2942 23.2949 27.61 23.2949 26.8966V15.2405C23.2949 14.5271 23.5784 13.843 24.0831 13.3385C24.5878 12.8341 25.2723 12.5507 25.986 12.5507ZM25.986 32.2764C25.2763 32.2764 24.5826 32.4867 23.9926 32.8808C23.4025 33.2749 22.9426 33.835 22.671 34.4904C22.3994 35.1457 22.3284 35.8668 22.4668 36.5625C22.6053 37.2582 22.947 37.8973 23.4488 38.3989C23.9506 38.9005 24.59 39.242 25.286 39.3804C25.982 39.5188 26.7035 39.4478 27.3591 39.1763C28.0148 38.9049 28.5752 38.4452 28.9694 37.8554C29.3637 37.2656 29.5741 36.5722 29.5741 35.8629C29.5741 34.9117 29.1961 33.9994 28.5232 33.3268C27.8503 32.6542 26.9376 32.2764 25.986 32.2764ZM51.9999 26C52.0012 26.5875 51.8861 27.1694 51.6613 27.7123C51.4366 28.2551 51.1065 28.7481 50.6902 29.1628L29.1615 50.6952C28.3211 51.5309 27.1838 52 25.9983 52C24.8129 52 23.6756 51.5309 22.8352 50.6952L1.30648 29.1628C0.469751 28.3227 0 27.1855 0 26C0 24.8145 0.469751 23.6773 1.30648 22.8372L22.8464 1.30477C23.6868 0.469105 24.8241 0 26.0096 0C27.195 0 28.3323 0.469105 29.1727 1.30477L50.7149 22.8372C51.1267 23.2539 51.4522 23.7478 51.6727 24.2906C51.8932 24.8333 52.0044 25.4142 51.9999 26ZM46.2409 26L25.986 5.75202L5.73108 26L25.986 46.248L46.2409 26Z" fill="white" fill-opacity="0.1"/>
</svg>
