<svg width="24" height="24" viewBox="0 0 24 24" fill="none" xmlns="http://www.w3.org/2000/svg">
<path d="M12 11.25C12.4125 11.25 12.7657 11.103 13.0597 10.809C13.3533 10.5155 13.5 10.1625 13.5 9.75C13.5 9.3375 13.3533 8.98425 13.0597 8.69025C12.7657 8.39675 12.4125 8.25 12 8.25C11.5875 8.25 11.2345 8.39675 10.941 8.69025C10.647 8.98425 10.5 9.3375 10.5 9.75C10.5 10.1625 10.647 10.5155 10.941 10.809C11.2345 11.103 11.5875 11.25 12 11.25ZM12 12.75C11.175 12.75 10.4688 12.4563 9.88125 11.8687C9.29375 11.2812 9 10.575 9 9.75C9 8.925 9.29375 8.21875 9.88125 7.63125C10.4688 7.04375 11.175 6.75 12 6.75C12.825 6.75 13.5312 7.04375 14.1187 7.63125C14.7063 8.21875 15 8.925 15 9.75C15 10.575 14.7063 11.2812 14.1187 11.8687C13.5312 12.4563 12.825 12.75 12 12.75ZM12 21C10.7625 21 9.597 20.7655 8.5035 20.2965C7.4095 19.828 6.45325 19.1845 5.63475 18.366C4.81575 17.547 4.172 16.5907 3.7035 15.4972C3.2345 14.4032 3 13.2375 3 12C3 10.7625 3.2345 9.59675 3.7035 8.50275C4.172 7.40925 4.81575 6.453 5.63475 5.634C6.45325 4.8155 7.4095 4.172 8.5035 3.7035C9.597 3.2345 10.7625 3 12 3C13.2375 3 14.4032 3.2345 15.4972 3.7035C16.5907 4.172 17.547 4.8155 18.366 5.634C19.1845 6.453 19.828 7.40925 20.2965 8.50275C20.7655 9.59675 21 10.7625 21 12C21 13.2375 20.7655 14.4032 20.2965 15.4972C19.828 16.5907 19.1845 17.547 18.366 18.366C17.547 19.1845 16.5907 19.828 15.4972 20.2965C14.4032 20.7655 13.2375 21 12 21ZM12 19.5C12.9 19.5 13.7437 19.3562 14.5312 19.0687C15.3188 18.7812 16.0375 18.375 16.6875 17.85C16.275 17.3875 15.6687 16.9845 14.8687 16.641C14.0687 16.297 13.1125 16.125 12 16.125C10.8875 16.125 9.93125 16.297 9.13125 16.641C8.33125 16.9845 7.725 17.3875 7.3125 17.85C7.9625 18.375 8.68125 18.7812 9.46875 19.0687C10.2562 19.3562 11.1 19.5 12 19.5ZM6.225 16.8C6.825 16.15 7.63125 15.625 8.64375 15.225C9.65625 14.825 10.775 14.625 12 14.625C13.225 14.625 14.3407 14.825 15.3472 15.225C16.3532 15.625 17.1562 16.15 17.7562 16.8C18.3062 16.1375 18.7345 15.4 19.041 14.5875C19.347 13.775 19.5 12.9125 19.5 12C19.5 10.9625 19.303 9.99075 18.909 9.08475C18.5155 8.17825 17.978 7.3845 17.2965 6.7035C16.6155 6.022 15.8217 5.48425 14.9152 5.09025C14.0092 4.69675 13.0375 4.5 12 4.5C10.975 4.5 10.0062 4.69675 9.09375 5.09025C8.18125 5.48425 7.3845 6.022 6.7035 6.7035C6.022 7.3845 5.4845 8.17825 5.091 9.08475C4.697 9.99075 4.5 10.9625 4.5 12C4.5 12.9125 4.65 13.7782 4.95 14.5972C5.25 15.4158 5.675 16.15 6.225 16.8Z" fill="#0288D1"/>
</svg>
