<svg width="110" height="110" viewBox="0 0 110 110" fill="none" xmlns="http://www.w3.org/2000/svg">
<path d="M73.1041 98.8854C72.493 98.8854 71.9201 98.7906 71.3854 98.6012C70.8507 98.4117 70.3541 98.0863 69.8958 97.6249L56.8333 84.5624C55.993 83.7222 55.5729 82.6527 55.5729 81.3541C55.5729 80.0555 55.993 78.986 56.8333 78.1458C57.6736 77.3055 58.743 76.8853 60.0416 76.8853C61.3402 76.8853 62.4097 77.3055 63.25 78.1458L73.1041 87.9999L95.7916 65.3124C96.6319 64.4722 97.7014 64.052 99 64.052C100.299 64.052 101.368 64.4722 102.208 65.3124C103.049 66.1527 103.469 67.2221 103.469 68.5208C103.469 69.8194 103.049 70.8888 102.208 71.7291L76.3125 97.6249C75.8541 98.0833 75.3576 98.4087 74.8229 98.6012C74.2882 98.7937 73.7152 98.8884 73.1041 98.8854ZM18.3333 27.4999L55 50.4166L91.6666 27.4999H18.3333ZM18.3333 91.6666C15.8125 91.6666 13.6537 90.7683 11.857 88.9716C10.0604 87.1749 9.16358 85.0177 9.16663 82.4999V27.4999C9.16663 24.9791 10.065 22.8203 11.8616 21.0237C13.6583 19.227 15.8155 18.3302 18.3333 18.3333H91.6666C94.1875 18.3333 96.3462 19.2316 98.1429 21.0283C99.9395 22.8249 100.836 24.9821 100.833 27.4999V47.4374L96.25 52.0208L91.6666 56.6041V36.6666L57.4062 58.0937C57.0243 58.3228 56.6225 58.4955 56.2008 58.6116C55.7791 58.7277 55.3789 58.7842 55 58.7812C54.618 58.7812 54.2162 58.7247 53.7946 58.6116C53.3729 58.4985 52.9726 58.3259 52.5937 58.0937L18.3333 36.6666V82.4999H41.9375L51.1041 91.6666H18.3333Z" fill="#009C10"/>
</svg>
