<svg width="19" height="18" viewBox="0 0 19 18" fill="none" xmlns="http://www.w3.org/2000/svg">
<path d="M16.3224 8.19687L14.463 7.11785C14.6258 6.97534 14.7819 6.79211 14.8973 6.58852C15.4605 5.61808 15.128 4.3694 14.1508 3.80614C13.5672 3.46683 12.8818 3.46683 12.305 3.71113L12.3117 3.70435L11.7146 3.96901L11.6399 3.31753L11.6331 3.32432C11.572 2.70676 11.2124 2.10957 10.6288 1.77026C10.1593 1.50202 9.60294 1.42997 9.08065 1.56975C8.55835 1.70954 8.11235 2.04988 7.83964 2.51675C7.72428 2.72034 7.64963 2.94428 7.60891 3.16145L5.74271 2.08921C5.09123 1.71597 4.26332 1.93313 3.89008 2.58461L2.87215 4.34904C2.82725 4.42593 2.79812 4.51099 2.78645 4.59926C2.77478 4.68753 2.78081 4.77725 2.80418 4.86316C2.82755 4.94908 2.8678 5.02947 2.92259 5.09967C2.97737 5.16986 3.04558 5.22843 3.12324 5.27198L4.29725 5.95061L7.16102 7.60646H2.75V14.3927C2.75 14.7527 2.89299 15.0979 3.14753 15.3525C3.40206 15.607 3.74728 15.75 4.10724 15.75H14.9651C15.7184 15.75 16.3224 15.146 16.3224 14.3927V10.9114L16.8178 10.0495C17.191 9.39804 16.9738 8.57011 16.3224 8.19687ZM12.5493 5.23126C12.7325 4.89195 13.1532 4.79694 13.4722 4.98017C13.7979 5.17018 13.9133 5.57058 13.7233 5.90989C13.5333 6.2492 13.1193 6.34421 12.7936 6.16098C12.4746 5.97097 12.3592 5.57058 12.5493 5.23126ZM10.9409 6.65638L15.6438 9.37089L14.9651 10.5449L10.2623 7.83041L10.9409 6.65638ZM8.85757 14.3927H4.10724V8.96372H8.85757V14.3927ZM9.0883 7.15178L4.38547 4.43727L5.06409 3.26324L9.76692 5.97775L9.0883 7.15178ZM9.27153 4.1251C8.94579 3.93508 8.83721 3.53469 9.02044 3.19538C9.19688 2.85606 9.62441 2.76105 9.95014 2.94428C10.2759 3.1343 10.3845 3.53469 10.1944 3.87401C10.0112 4.21332 9.59726 4.30833 9.27153 4.1251ZM10.2148 14.3927V9.37089L14.9651 12.1126V14.3927H10.2148Z" fill="#0288D1"/>
</svg>
