<svg width="375" height="90" viewBox="0 0 375 90" fill="none" xmlns="http://www.w3.org/2000/svg">
<g clip-path="url(#clip0_368_6083)">
<path d="M0 0H375V78C375 84.6274 369.627 90 363 90H12C5.37259 90 0 84.6274 0 78V0Z" fill="url(#paint0_linear_368_6083)"/>
<g opacity="0.08">
<path opacity="0.4" d="M345.263 55.5916C335.878 57.2452 328.828 64.3709 326.843 73.0835C326.491 73.1244 326.164 73.182 325.817 73.2433C321.891 73.935 318.432 75.7211 315.686 78.2011C311.046 75.3205 305.367 74.073 299.56 75.0961C297.536 75.4528 295.64 76.06 293.866 76.8769C289.297 68.4156 279.67 63.4301 269.672 65.1917C261.391 66.6508 254.915 72.3725 252.136 79.6911C248.888 78.2462 245.191 77.721 241.428 78.3839C235.376 79.4503 230.52 83.3528 228.005 88.4607C225.668 87.4016 223.009 87.0295 220.29 87.5087C213.134 88.7696 208.347 95.5805 209.603 102.713C210.86 109.846 217.687 114.611 224.843 113.35C227.562 112.871 229.93 111.592 231.768 109.818C235.881 113.779 241.755 115.77 247.827 114.7C253.184 113.756 257.583 110.607 260.27 106.351C265.116 109.805 271.276 111.388 277.615 110.271C279.639 109.914 281.534 109.307 283.309 108.49C287.878 116.951 297.505 121.937 307.503 120.175C313.31 119.152 318.221 116.038 321.597 111.746C325.029 113.158 328.886 113.634 332.812 112.942C339.804 111.71 345.306 107.043 347.909 100.995C349.654 101.087 351.427 100.984 353.206 100.671C365.699 98.4696 374.042 86.5985 371.848 74.1467C369.654 61.6949 357.735 53.394 345.263 55.5916Z" fill="white"/>
<path opacity="0.4" d="M324.728 103.37C327.008 89.7555 317.948 76.6331 304.368 73.9171C290.971 71.2348 278.019 79.3838 274.472 92.1984C272.315 90.8361 269.88 89.8436 267.225 89.3579C265.203 88.988 263.187 88.9346 261.248 89.148C260.819 85.2619 259.644 81.5337 257.835 78.1525C254.205 71.3457 259.88 66.2832 254.022 60.1205C250.692 56.6294 242.722 55.0872 241.205 52.3062C239.482 49.151 236.415 46.7598 232.576 46.0574C228.328 45.2803 224.192 46.7746 221.424 49.6762C219.992 48.5095 218.267 47.6681 216.327 47.3131C211.671 46.4613 207.184 48.6066 204.829 52.3622C202.721 50.9666 200.285 49.9741 197.651 49.4922C189.114 47.9304 180.881 52.2093 177.056 59.5035C174.821 58.3373 172.376 57.5114 169.755 57.0739C156.697 54.9586 144.299 63.7767 142.057 76.7249C139.807 89.7137 148.492 102.115 161.522 104.499C174 106.782 185.985 99.0664 189.176 87.049C189.679 87.1832 190.165 87.2932 190.696 87.3903C194.025 87.9993 197.306 87.716 200.298 86.7066C200.283 86.788 200.264 86.8898 200.249 86.9712C197.196 103.663 208.3 119.684 225.046 122.747C232.541 124.119 239.878 122.663 245.987 119.152C248.849 124.157 253.82 127.906 259.946 129.027C269.116 130.704 277.964 125.949 281.81 117.964C285.276 121.165 289.668 123.462 294.672 124.378C308.821 126.987 322.345 117.554 324.728 103.37Z" fill="white"/>
<path d="M240.776 75.9362C231.247 75.9362 223.067 81.7303 219.6 89.9662C219.247 89.9455 218.915 89.9455 218.562 89.9455C214.575 89.9455 210.859 91.1044 207.724 93.0702C203.655 89.4282 198.278 87.214 192.382 87.214C190.326 87.214 188.354 87.483 186.465 87.9797C183.434 78.8539 174.818 72.2734 164.665 72.2734C156.257 72.2734 148.887 76.7846 144.88 83.5099C141.932 81.5234 138.382 80.3645 134.562 80.3645C128.416 80.3645 122.956 83.3651 119.593 87.959C117.475 86.5104 114.921 85.6827 112.16 85.6827C104.894 85.6827 98.9976 91.5596 98.9976 98.8023C98.9976 106.045 104.894 111.922 112.16 111.922C114.921 111.922 117.475 111.073 119.593 109.646C122.956 114.26 128.395 117.24 134.562 117.24C140.001 117.24 144.88 114.902 148.264 111.177C152.437 115.419 158.229 118.047 164.665 118.047C166.721 118.047 168.693 117.778 170.582 117.281C173.613 126.407 182.229 132.988 192.382 132.988C198.278 132.988 203.655 130.773 207.724 127.131C210.859 129.118 214.575 130.256 218.562 130.256C225.662 130.256 231.89 126.614 235.503 121.11C237.205 121.503 238.97 121.71 240.776 121.71C253.461 121.71 263.738 111.467 263.738 98.823C263.738 86.1793 253.461 75.9362 240.776 75.9362Z" fill="white"/>
<path d="M159.263 50.4039C147.752 50.4039 137.871 57.3705 133.683 67.273C133.256 67.2481 132.855 67.2481 132.429 67.2481C127.613 67.2481 123.124 68.6414 119.338 71.0051C114.422 66.6261 107.927 63.9639 100.804 63.9639C98.3215 63.9639 95.939 64.2873 93.6568 64.8845C89.9953 53.9121 79.5877 46 67.3241 46C57.1672 46 48.2643 51.424 43.4241 59.5102C39.8629 57.1217 35.5744 55.7284 30.9599 55.7284C23.5366 55.7284 16.9409 59.3361 12.8781 64.8596C10.3201 63.1179 7.23541 62.1227 3.89994 62.1227C-4.87763 62.1227 -12 69.1888 -12 77.8971C-12 86.6053 -4.87763 93.6714 3.89994 93.6714C7.23541 93.6714 10.3201 92.6513 12.8781 90.9346C16.9409 96.483 23.5115 100.066 30.9599 100.066C37.5306 100.066 43.4241 97.2543 47.5119 92.7757C52.5527 97.8763 59.5497 101.036 67.3241 101.036C69.8069 101.036 72.1894 100.713 74.4716 100.116C78.1331 111.088 88.5408 119 100.804 119C107.927 119 114.422 116.338 119.338 111.959C123.124 114.347 127.613 115.716 132.429 115.716C141.006 115.716 148.529 111.337 152.893 104.718C154.949 105.191 157.081 105.44 159.263 105.44C174.586 105.44 187 93.1241 187 77.922C187 62.7198 174.586 50.4039 159.263 50.4039Z" fill="white"/>
<path opacity="0.4" d="M3.70644 16.2521C13.037 18.1886 19.8688 25.5242 21.5899 34.2928C21.9397 34.3443 22.265 34.4118 22.6105 34.4835C26.5135 35.2935 29.9168 37.1834 32.5868 39.7453C37.3112 37.0062 43.0261 35.9309 48.7993 37.1291C50.8118 37.5468 52.6883 38.211 54.4372 39.0812C59.2596 30.7618 69.033 26.0696 78.9734 28.1326C87.2062 29.8413 93.506 35.7561 96.0626 43.1554C99.3529 41.8093 103.064 41.3961 106.805 42.1724C112.822 43.4213 117.558 47.4688 119.918 52.6503C122.286 51.6623 124.954 51.3708 127.658 51.9319C134.773 53.4086 139.352 60.361 137.88 67.4526C136.408 74.5441 129.441 79.1002 122.326 77.6236C119.622 77.0624 117.294 75.7128 115.511 73.8844C111.28 77.7192 105.349 79.5315 99.3112 78.2785C93.9852 77.1731 89.6833 73.8921 87.1268 69.5573C82.1788 72.8629 75.9732 74.259 69.6715 72.9512C67.659 72.5335 65.7826 71.8693 64.0336 70.9991C59.2112 79.3184 49.4379 84.0107 39.4974 81.9476C33.7243 80.7494 28.9093 77.4887 25.6651 73.0958C22.1918 74.4038 18.3218 74.763 14.4189 73.953C7.46666 72.5101 2.10836 67.6783 -0.310145 61.5547C-2.05694 61.5937 -3.82688 61.4377 -5.59542 61.0706C-18.0159 58.4928 -25.9967 46.375 -23.4273 33.9952C-20.8579 21.6154 -8.714 13.6743 3.70644 16.2521Z" fill="white"/>
<path d="M356.465 95.7797C356.258 81.9773 344.984 70.6994 331.136 70.4718C317.476 70.2441 306.202 80.5908 305.019 93.8345C302.652 92.8826 300.078 92.3446 297.379 92.3446C295.323 92.3446 293.33 92.655 291.462 93.2137C290.341 89.4682 288.514 86.0124 286.126 83.0119C281.206 76.8039 281.621 67.9472 287.226 62.36L290.216 59.3802L288.825 56.6279L283.136 52.3237L273.13 61.2839C273.109 61.3046 273.088 61.3253 273.067 61.3253C270.721 63.436 267.067 63.0843 265.095 60.6218C262.832 57.8075 259.365 56.0071 255.482 56.0071C251.164 56.0071 247.365 58.2213 245.164 61.5736C243.545 60.6838 241.697 60.1665 239.725 60.1665C234.991 60.1665 230.963 63.0843 229.323 67.2022C226.998 66.2089 224.424 65.6709 221.745 65.6709C213.067 65.6709 205.739 71.3616 203.289 79.225C200.88 78.4801 198.327 78.1076 195.669 78.149C182.486 78.3973 171.856 89.3234 172.001 102.464C172.147 115.645 182.901 126.282 196.147 126.282C208.832 126.282 219.233 116.535 220.209 104.14C220.728 104.181 221.226 104.202 221.766 104.202C225.15 104.202 228.327 103.333 231.088 101.801C231.088 101.884 231.088 101.988 231.088 102.07C231.088 119.039 244.894 132.8 261.918 132.8C269.538 132.8 276.493 130.048 281.87 125.495C285.586 129.903 291.15 132.697 297.379 132.697C306.7 132.697 314.548 126.426 316.894 117.88C320.88 120.405 325.614 121.874 330.7 121.874C345.046 121.874 356.673 110.162 356.465 95.7797Z" fill="white"/>
<path d="M303.233 66.0225L302.839 50.1921L292.168 50.6267L292.604 39.9903L276.721 39.5972L275.517 45.2464L291.42 51.3717L297.545 67.2227L303.233 66.0225Z" fill="white"/>
<path opacity="0.2" d="M292.603 39.9901L287.787 39.866C285.607 42.4733 283.759 45.1635 282.285 47.8329L291.441 51.3508L294.846 60.1454C297.565 58.6348 300.306 56.7517 302.963 54.5168L302.86 50.1712L292.188 50.6058L292.603 39.9901Z" fill="white"/>
<path d="M308.859 33.741C303.731 33.0167 296.361 36.2448 290.174 42.4115C287.019 45.5568 284.631 49.0126 283.136 52.3236C284.05 53.6893 285.088 55.0137 286.313 56.2139C287.538 57.4141 288.825 58.4695 290.216 59.38C293.538 57.8901 297.005 55.5103 300.16 52.3649C306.347 46.1776 309.586 38.8315 308.859 33.741Z" fill="white"/>
<path opacity="0.3" d="M308.859 33.741C303.731 33.0167 296.361 36.2448 290.174 42.4115C287.019 45.5568 284.631 49.0126 283.136 52.3236C284.05 53.6893 285.088 55.0137 286.313 56.2139C287.538 57.4141 288.825 58.4695 290.216 59.38C293.538 57.8901 297.005 55.5103 300.16 52.3649C306.347 46.1776 309.586 38.8315 308.859 33.741Z" fill="white"/>
<path opacity="0.3" d="M284.341 49.9438C284.611 51.1233 285.13 52.2615 285.773 53.2961C286.708 54.7653 287.87 56.0483 289.054 57.352C288.784 57.5796 288.514 57.7659 288.223 57.9314C288.867 58.4488 289.531 58.9247 290.196 59.38C291.587 58.7592 293.019 57.9728 294.431 57.0416C294.431 56.5036 294.348 55.9449 294.202 55.4275C293.787 54.0411 292.977 52.8202 292.126 51.6614C291.317 50.5439 290.424 49.4265 289.199 48.8057C288.036 48.2263 286.666 48.247 285.337 48.3504C284.984 48.8678 284.652 49.4058 284.341 49.9438Z" fill="white"/>
<path d="M317.475 25.1324C310.79 24.1805 301.178 28.402 293.102 36.4517C288.97 40.5696 285.856 45.0601 283.925 49.385C285.109 51.1853 286.479 52.8822 288.057 54.4549C289.635 56.0275 291.337 57.414 293.143 58.5728C297.462 56.6276 301.988 53.5237 306.119 49.4264C314.195 41.3767 318.431 31.7957 317.475 25.1324Z" fill="white"/>
<path d="M310.77 32.2716C312.493 33.9891 313.739 35.9757 314.528 38.1071C316.936 33.389 318.016 28.8158 317.476 25.1324C313.697 24.5944 308.964 25.7118 304.105 28.2571C306.555 29.0227 308.839 30.3471 310.77 32.2716Z" fill="white"/>
<path d="M276.534 44.3772C276.057 46.7569 275.642 46.7155 275.123 46.612C274.604 46.5086 274.209 46.3637 274.666 44.0047C275.143 41.625 276.306 37.9415 276.804 38.0243C277.323 38.1485 276.991 42.0181 276.534 44.3772Z" fill="white"/>
<path d="M298.438 66.2085C296.05 66.6844 296.092 67.0983 296.195 67.6156C296.299 68.133 296.445 68.5262 298.811 68.0709C301.199 67.595 304.894 66.4361 304.811 65.9395C304.687 65.4222 300.804 65.7326 298.438 66.2085Z" fill="white"/>
<path opacity="0.1" d="M317.517 25.4636C315.005 32.1683 309.649 40.1352 302.237 47.5227C298.521 51.2268 294.659 54.4136 290.901 56.9795C291.628 57.559 292.375 58.097 293.164 58.5936C297.483 56.6484 302.009 53.5445 306.14 49.4472C314.071 41.5009 318.285 32.1062 317.517 25.4636Z" fill="white"/>
<path d="M304.894 42.5769C307.589 42.5769 309.773 40.3997 309.773 37.714C309.773 35.0283 307.589 32.8511 304.894 32.8511C302.199 32.8511 300.015 35.0283 300.015 37.714C300.015 40.3997 302.199 42.5769 304.894 42.5769Z" fill="white"/>
<g opacity="0.3">
<path d="M309.109 35.2722H300.68C300.161 36.162 299.953 37.176 300.036 38.1486H309.753C309.856 37.1553 309.628 36.1413 309.109 35.2722Z" fill="white"/>
<path d="M308.88 40.5284C309.296 39.949 309.566 39.3282 309.69 38.666H300.119C300.244 39.3282 300.514 39.9697 300.929 40.5284H308.88Z" fill="white"/>
</g>
<path opacity="0.1" d="M308.341 34.279C307.033 32.9753 305.144 32.5614 303.462 33.0581C304.5 33.1822 305.517 33.6375 306.327 34.4445C308.237 36.3483 308.237 39.4316 306.327 41.3354C305.746 41.9148 305.04 42.3287 304.292 42.5563C305.725 42.7219 307.24 42.2666 308.341 41.1699C310.251 39.2661 310.251 36.1828 308.341 34.279Z" fill="white"/>
<path d="M300.929 41.6871C298.728 39.4936 298.728 35.9344 300.929 33.7616C303.13 31.5681 306.7 31.5681 308.88 33.7616C311.081 35.9551 311.081 39.5143 308.88 41.6871C306.68 43.8599 303.109 43.8599 300.929 41.6871ZM307.822 34.7962C306.202 33.1822 303.586 33.1822 301.967 34.7962C300.348 36.4103 300.348 39.0177 301.967 40.6318C303.586 42.2458 306.202 42.2458 307.822 40.6318C309.441 39.0177 309.441 36.4103 307.822 34.7962Z" fill="white"/>
</g>
</g>
<defs>
<linearGradient id="paint0_linear_368_6083" x1="187.5" y1="-1.38026e-08" x2="187.611" y2="90.0046" gradientUnits="userSpaceOnUse">
<stop stop-color="#3DA6FC"/>
<stop offset="0.979167" stop-color="#0069C6"/>
</linearGradient>
<clipPath id="clip0_368_6083">
<path d="M0 0H375V78C375 84.6274 369.627 90 363 90H12C5.37259 90 0 84.6274 0 78V0Z" fill="white"/>
</clipPath>
</defs>
</svg>
