<svg width="375" height="3" viewBox="0 0 375 3" fill="none" xmlns="http://www.w3.org/2000/svg">
<g clip-path="url(#clip0_1091_24965)">
<rect width="375" height="3" fill="#0288D1"/>
<rect x="21.5151" y="-2" width="1" height="9.21373" transform="rotate(45 21.5151 -2)" fill="#FFB300"/>
<rect x="25" y="-2" width="1" height="9.21373" transform="rotate(45 25 -2)" fill="#FFB300"/>
<rect x="28" y="-2" width="1" height="9.21373" transform="rotate(45 28 -2)" fill="#FFB300"/>
<rect x="66.2222" y="-2" width="1" height="9.21373" transform="rotate(45 66.2222 -2)" fill="#FFB300"/>
<rect x="69.707" y="-2" width="1" height="9.21373" transform="rotate(45 69.707 -2)" fill="#FFB300"/>
<rect x="72.707" y="-2" width="1" height="9.21373" transform="rotate(45 72.707 -2)" fill="#FFB300"/>
<rect x="110.929" y="-2" width="1" height="9.21373" transform="rotate(45 110.929 -2)" fill="#FFB300"/>
<rect x="114.414" y="-2" width="1" height="9.21373" transform="rotate(45 114.414 -2)" fill="#FFB300"/>
<rect x="117.414" y="-2" width="1" height="9.21373" transform="rotate(45 117.414 -2)" fill="#FFB300"/>
<rect x="155.636" y="-2" width="1" height="9.21373" transform="rotate(45 155.636 -2)" fill="#FFB300"/>
<rect x="159.121" y="-2" width="1" height="9.21373" transform="rotate(45 159.121 -2)" fill="#FFB300"/>
<rect x="162.121" y="-2" width="1" height="9.21373" transform="rotate(45 162.121 -2)" fill="#FFB300"/>
<rect x="200.343" y="-2" width="1" height="9.21373" transform="rotate(45 200.343 -2)" fill="#FFB300"/>
<rect x="203.828" y="-2" width="1" height="9.21373" transform="rotate(45 203.828 -2)" fill="#FFB300"/>
<rect x="206.828" y="-2" width="1" height="9.21373" transform="rotate(45 206.828 -2)" fill="#FFB300"/>
<rect x="245.051" y="-2" width="1" height="9.21373" transform="rotate(45 245.051 -2)" fill="#FFB300"/>
<rect x="248.535" y="-2" width="1" height="9.21373" transform="rotate(45 248.535 -2)" fill="#FFB300"/>
<rect x="251.535" y="-2" width="1" height="9.21373" transform="rotate(45 251.535 -2)" fill="#FFB300"/>
<rect x="289.758" y="-2" width="1" height="9.21373" transform="rotate(45 289.758 -2)" fill="#FFB300"/>
<rect x="293.242" y="-2" width="1" height="9.21373" transform="rotate(45 293.242 -2)" fill="#FFB300"/>
<rect x="296.242" y="-2" width="1" height="9.21373" transform="rotate(45 296.242 -2)" fill="#FFB300"/>
<rect x="334.465" y="-2" width="1" height="9.21373" transform="rotate(45 334.465 -2)" fill="#FFB300"/>
<rect x="337.949" y="-2" width="1" height="9.21373" transform="rotate(45 337.949 -2)" fill="#FFB300"/>
<rect x="340.949" y="-2" width="1" height="9.21373" transform="rotate(45 340.949 -2)" fill="#FFB300"/>
<rect x="379.172" y="-2" width="1" height="9.21373" transform="rotate(45 379.172 -2)" fill="#FFB300"/>
</g>
<defs>
<clipPath id="clip0_1091_24965">
<rect width="375" height="3" fill="white"/>
</clipPath>
</defs>
</svg>
