<svg width="296" height="69" viewBox="0 0 296 69" fill="none" xmlns="http://www.w3.org/2000/svg">
<g clip-path="url(#clip0_780_40220)">
<path d="M58.2956 30.3928C58.2956 33.9249 56.98 37.1285 54.8422 39.5928L25.5711 68.8356L25.16 68.4249C23.2689 66.0428 22.1178 63.0856 22.1178 59.7999C22.1178 56.0213 23.68 52.4892 26.1467 50.0249L34.04 42.1392L34.78 42.8785L36.4245 42.2213L36.5889 45.0963L38.8911 44.0285L39.5489 40.2499C40.6178 39.5106 41.6867 38.6892 42.6734 37.7035C46.2089 34.1713 48.1 29.9821 47.9356 26.6963C44.5645 26.2856 40.1245 28.2571 36.4245 31.9535C35.52 32.8571 34.6978 33.7606 34.04 34.7463L30.1756 35.4035L29.1067 37.7035L32.1489 38.0321L31.5734 39.5928L32.3134 40.3321L23.9267 48.7106C21.46 50.9285 18.2534 52.2428 14.7178 52.2428C11.4289 52.2428 8.46892 51.0928 6.08447 49.2856L35.6845 19.7142C38.0689 17.7428 41.1111 16.5928 44.4822 16.5928C48.1 16.5928 51.3067 17.9892 53.7734 20.2071C53.8556 20.2892 54.6778 21.1106 54.6778 21.1106C56.98 23.5749 58.2956 26.8606 58.2956 30.3928Z" fill="url(#paint0_linear_780_40220)"/>
<path d="M37.1645 9.11786C37.1645 12.4857 36.0134 15.525 34.04 17.9071L4.35782 47.5607L3.94671 47.15C1.97338 44.7679 0.822266 41.7286 0.822266 38.4429C0.822266 34.9929 2.0556 31.8714 4.11115 29.4071L33.6289 0L34.2867 0.657143C36.0956 2.95714 37.1645 5.91429 37.1645 9.11786Z" fill="url(#paint1_linear_780_40220)"/>
<path d="M70.8755 58.3213H72.3555V61.032L74.9044 58.3213H76.7133L74.1644 60.8677L76.9599 64.8106H75.1511L73.1777 61.9356L72.3555 62.757V64.8927H70.9577V58.3213H70.8755Z" fill="#606060"/>
<path d="M77.4534 58.3213H78.9334V60.7856H81.5645V58.3213H82.9623V64.8927H81.5645V62.0999H78.9334V64.8927H77.5356V58.3213H77.4534Z" fill="#606060"/>
<path d="M89.7867 59.6355C90.1156 60.2105 90.28 60.8676 90.28 61.6069C90.28 62.5926 90.0334 63.3319 89.4578 63.9891C88.8823 64.6462 88.06 64.9748 87.0734 64.9748C86.0867 64.9748 85.3467 64.6462 84.6889 63.9891C84.1134 63.3319 83.8667 62.5926 83.8667 61.6069C83.8667 60.6212 84.1134 59.7998 84.6889 59.1426C85.2645 58.4855 86.0867 58.1569 87.0734 58.1569C88.06 58.1569 88.8 58.4855 89.4578 59.1426C89.54 59.2248 89.54 59.3069 89.6223 59.3069C89.7867 59.2248 89.8689 59.1426 89.9511 59.0605L90.0334 58.8962L89.8689 58.7319V58.3212H90.6089V58.8962C90.6089 59.1426 90.3623 59.3891 90.1156 59.4712C90.0334 59.5533 89.9511 59.6355 89.7867 59.6355ZM85.7578 63.1676C86.0867 63.6605 86.4978 63.8248 87.1556 63.8248C87.7311 63.8248 88.2245 63.5783 88.5534 63.1676C88.8 62.7569 88.9645 62.2641 88.9645 61.6891C88.9645 61.0319 88.8 60.5391 88.5534 60.1283C88.2245 59.6355 87.8134 59.4712 87.1556 59.4712C86.58 59.4712 86.0867 59.7176 85.7578 60.1283C85.5111 60.5391 85.3467 61.0319 85.3467 61.6891C85.3467 62.2641 85.5111 62.7569 85.7578 63.1676ZM87.2378 56.1033C87.1556 56.1033 87.0734 56.1855 86.9911 56.2676C86.9089 56.3498 86.9089 56.5141 86.9089 56.5962H86.4156C86.4156 56.2676 86.4978 56.0212 86.58 55.9391C86.6623 55.7748 86.9089 55.6926 87.1556 55.6926C87.4023 55.6926 87.5667 55.6926 87.7311 55.8569C87.8956 56.0212 87.9778 56.1855 88.06 56.3498C88.06 56.5962 87.9778 56.8426 87.8134 56.9248C87.6489 57.0069 87.4845 57.1712 87.4023 57.3355C87.4023 57.4176 87.32 57.4998 87.32 57.5819H86.8267C86.8267 57.4176 86.9089 57.2533 86.9089 57.1712C86.9089 57.0891 87.0734 57.0069 87.1556 56.9248C87.2378 56.8426 87.32 56.7605 87.4023 56.7605C87.4845 56.6783 87.4845 56.5962 87.4845 56.5141C87.4845 56.2676 87.4023 56.1033 87.2378 56.1033Z" fill="#606060"/>
<path d="M91.3489 58.3213H92.7467V64.8927H91.3489V58.3213Z" fill="#606060"/>
<path d="M96.5288 58.3213H97.9266L100.64 62.6749V58.3213H101.955V64.8927H100.558L97.8444 60.5391V64.8927H96.5288V58.3213Z" fill="#606060"/>
<path d="M107.958 64.1534C107.711 64.482 107.464 64.7284 107.136 64.8106C106.807 64.9748 106.56 64.9748 106.231 64.9748C105.244 64.9748 104.504 64.6463 103.847 63.9891C103.271 63.332 103.024 62.5927 103.024 61.607C103.024 60.6213 103.271 59.7998 103.847 59.1427C104.422 58.4856 105.244 58.157 106.231 58.157C106.971 58.157 107.547 58.3213 108.04 58.732C108.616 59.1427 108.862 59.7177 108.944 60.457H107.547C107.382 59.7177 106.889 59.3891 106.149 59.3891C105.573 59.3891 105.08 59.6356 104.751 60.0463C104.504 60.457 104.34 60.9498 104.34 61.607C104.34 62.182 104.504 62.6748 104.751 63.0856C105.08 63.5784 105.491 63.7427 106.149 63.7427C107.136 63.7427 107.629 63.2498 107.711 62.3463H106.231V61.2784H108.944V64.8927H108.04L107.958 64.1534Z" fill="#606060"/>
<path d="M110.178 58.3213H111.576V60.7856H114.207V58.3213H115.604V64.8927H114.289V62.0999H111.658V64.8927H110.178V58.3213Z" fill="#606060"/>
<path d="M116.92 58.3213H118.318V64.8927H116.92V58.3213Z" fill="#606060"/>
<path d="M119.633 58.3214H124.484V59.5536H121.031V60.95H124.156V62.1H121.031V63.6607H124.567V64.8928H119.633V58.3214ZM123.662 57.7464H122.84L122.1 57.0071L121.36 57.7464H120.538L121.442 56.4321H122.676L123.662 57.7464ZM122.676 66.3714H121.524V65.55H122.676V66.3714Z" fill="#606060"/>
<path d="M125.553 58.3213H128.513C129.253 58.3213 129.829 58.5677 130.24 58.9784C130.569 59.3891 130.733 59.7999 130.733 60.457C130.733 61.1141 130.569 61.5249 130.24 61.8534C129.829 62.2641 129.253 62.5106 128.513 62.5106H127.033V64.8927H125.635V58.3213H125.553ZM126.951 61.4427H128.02C128.431 61.4427 128.678 61.3606 128.924 61.2784C129.171 61.1141 129.335 60.8677 129.335 60.457C129.335 60.0463 129.171 59.7999 128.924 59.6356C128.76 59.5534 128.431 59.4713 128.02 59.4713H126.951V61.4427Z" fill="#606060"/>
<path d="M135.913 58.3213H137.393L139.86 64.8106H138.38L137.887 63.332H135.42L134.927 64.8106H133.447L135.913 58.3213ZM135.749 62.3463H137.475L136.653 59.9641L135.749 62.3463Z" fill="#606060"/>
<path d="M140.353 58.3213H141.751L144.464 62.6749V58.3213H145.78V64.8927H144.382L141.669 60.5391V64.8927H140.353V58.3213Z" fill="#606060"/>
<path d="M152.687 64.8928H151.042L148.904 58.4036H150.384L151.864 63.0036L153.344 58.4036H154.824L152.687 64.8928Z" fill="#606060"/>
<path d="M160.909 62.4284C160.909 64.1534 160.004 65.057 158.113 65.057C156.304 65.057 155.318 64.1534 155.318 62.4284V58.3213H156.715V62.4284C156.715 62.5927 156.715 62.8391 156.798 62.9213C156.798 63.0856 156.88 63.2499 156.962 63.4141C157.209 63.7427 157.538 63.8249 158.031 63.8249C158.524 63.8249 158.853 63.7427 159.1 63.4963C159.264 63.2499 159.429 62.9213 159.429 62.4284V58.3213H160.827V62.4284H160.909Z" fill="#606060"/>
<path d="M162.142 58.3213H163.54V64.8927H162.142V58.3213Z" fill="#606060"/>
<path d="M167.24 61.8535H169.953V63.0035H167.24V61.8535Z" fill="#606060"/>
<path d="M175.051 59.5534H173.078V58.3213H178.422V59.5534H176.449V64.8927H175.051V59.5534Z" fill="#606060"/>
<path d="M179.162 58.3213H180.56V60.7856H183.191V58.3213H184.589V64.8927H183.191V62.0999H180.56V64.8927H179.162V58.3213Z" fill="#606060"/>
<path d="M187.713 58.3214H189.193L191.66 64.8107H190.18L189.687 63.3321H187.22L186.727 64.8107H185.247L187.713 58.3214ZM186.809 56.4321H188.124L188.864 57.7464H188.207L186.809 56.4321ZM187.549 62.3464H189.275L188.453 59.9643L187.549 62.3464Z" fill="#606060"/>
<path d="M192.153 58.3213H193.551L196.264 62.6749V58.3213H197.58V64.8927H196.182L193.469 60.5391V64.8927H192.153V58.3213Z" fill="#606060"/>
<path d="M198.896 58.3213H200.293V60.7856H202.924V58.3213H204.322V64.8927H202.924V62.0999H200.293V64.8927H198.896V58.3213Z" fill="#606060"/>
<path d="M212.544 60.5391C212.462 60.2105 212.38 59.9641 212.051 59.7177C211.804 59.4713 211.475 59.3891 211.147 59.3891C210.571 59.3891 210.078 59.6356 209.749 60.0463C209.502 60.457 209.338 60.9498 209.338 61.607C209.338 62.182 209.502 62.6748 209.749 63.0856C210.078 63.5784 210.489 63.7427 211.147 63.7427C211.969 63.7427 212.462 63.2498 212.627 62.2641H214.024C213.942 63.0856 213.613 63.7427 213.12 64.2356C212.627 64.7284 211.969 64.9748 211.147 64.9748C210.16 64.9748 209.42 64.6463 208.762 63.9891C208.187 63.332 207.94 62.5927 207.94 61.607C207.94 60.6213 208.187 59.7998 208.762 59.1427C209.338 58.4856 210.16 58.157 211.147 58.157C211.887 58.157 212.544 58.3213 213.038 58.732C213.613 59.1427 213.86 59.7177 213.942 60.457H212.544V60.5391Z" fill="#606060"/>
<path d="M215.504 59.225C216.08 58.5678 216.902 58.2393 217.889 58.2393C218.875 58.2393 219.615 58.5678 220.273 59.225C220.849 59.8821 221.095 60.7036 221.095 61.6893C221.095 62.675 220.849 63.4143 220.273 64.0714C219.698 64.7286 218.875 65.0571 217.889 65.0571C216.902 65.0571 216.162 64.7286 215.504 64.0714C214.929 63.4143 214.682 62.675 214.682 61.6893C214.682 60.6214 214.929 59.8 215.504 59.225ZM216.491 63.1678C216.82 63.6607 217.231 63.825 217.889 63.825C218.464 63.825 218.958 63.5786 219.287 63.1678C219.533 62.7571 219.698 62.2643 219.698 61.6893C219.698 61.0321 219.533 60.5393 219.287 60.1286C218.958 59.6357 218.547 59.4714 217.889 59.4714C217.313 59.4714 216.82 59.7178 216.491 60.1286C216.244 60.5393 216.08 61.0321 216.08 61.6893C216.08 62.2643 216.244 62.7571 216.491 63.1678ZM219.369 57.7464H218.547L217.807 57.0071L217.067 57.7464H216.244L217.149 56.4321H218.382L219.369 57.7464Z" fill="#606060"/>
<path d="M222 58.3213H223.398L226.111 62.6749V58.3213H227.427V64.8927H226.111L223.398 60.5391V64.8927H222V58.3213Z" fill="#606060"/>
<path d="M233.511 64.1534C233.264 64.482 233.018 64.7284 232.689 64.8106C232.36 64.9748 232.113 64.9748 231.784 64.9748C230.798 64.9748 230.058 64.6463 229.4 63.9891C228.824 63.332 228.578 62.5927 228.578 61.607C228.578 60.6213 228.824 59.7998 229.4 59.1427C229.975 58.4856 230.798 58.157 231.784 58.157C232.524 58.157 233.1 58.3213 233.593 58.732C234.169 59.1427 234.415 59.7177 234.498 60.457H233.1C232.935 59.7177 232.442 59.3891 231.702 59.3891C231.127 59.3891 230.633 59.6356 230.304 60.0463C230.058 60.457 229.893 60.9498 229.893 61.607C229.893 62.182 230.058 62.6748 230.304 63.0856C230.633 63.5784 231.044 63.7427 231.702 63.7427C232.689 63.7427 233.182 63.2498 233.264 62.3463H231.784V61.2784H234.498V64.8927H233.593L233.511 64.1534Z" fill="#606060"/>
<path d="M238.198 58.3213H241.24C241.898 58.3213 242.391 58.4034 242.72 58.6499C243.131 58.8963 243.296 59.307 243.296 59.882C243.296 60.5391 242.967 60.9499 242.391 61.2784C243.213 61.5249 243.624 62.0177 243.624 62.9213C243.624 63.5784 243.378 63.9891 242.884 64.3177C242.473 64.6463 241.898 64.7284 241.322 64.7284H238.198V58.3213ZM239.678 60.9499H241.158C241.733 60.9499 242.062 60.7034 242.062 60.2106C242.062 59.9641 241.98 59.7177 241.733 59.6356C241.569 59.5534 241.322 59.4713 241.076 59.4713H239.76V60.9499H239.678ZM239.678 63.7427H241.24C241.569 63.7427 241.816 63.6606 241.98 63.5784C242.227 63.4141 242.309 63.2499 242.309 62.9213C242.309 62.2641 241.98 62.0177 241.24 62.0177H239.678V63.7427Z" fill="#606060"/>
<path d="M244.611 58.3213H249.462V59.5535H246.009V60.9499H249.133V62.0999H246.009V63.6606H249.544V64.8927H244.611V58.3213ZM248.64 57.7463H247.818L247.078 57.007L246.338 57.7463H245.516L246.42 56.432H247.653L248.64 57.7463ZM247.16 55.6106H248.476L249.216 56.9249H248.558L247.16 55.6106Z" fill="#606060"/>
<path d="M250.531 58.3213H251.929L254.642 62.6749V58.3213H255.958V64.8927H254.56L251.847 60.5391V64.8927H250.531V58.3213Z" fill="#606060"/>
<path d="M262.864 64.8928H261.22L259.082 58.4036H260.562L262.042 63.0036L263.522 58.4036H265.002L262.864 64.8928Z" fill="#606060"/>
<path d="M271.087 59.7179V62.4286C271.087 64.1536 270.182 65.0571 268.291 65.0571C266.482 65.0571 265.496 64.1536 265.496 62.4286V58.3214H266.893V62.4286C266.893 62.5929 266.893 62.8393 266.976 62.9214C266.976 63.0857 267.058 63.25 267.14 63.4143C267.387 63.7429 267.716 63.825 268.209 63.825C268.702 63.825 269.031 63.7429 269.278 63.4964C269.442 63.25 269.607 62.9214 269.607 62.4286V58.3214H271.005V59.3893C271.251 59.3072 271.333 59.225 271.416 59.0607L271.498 58.8964L271.333 58.7321V58.3214H272.073V58.8964C272.073 59.1429 271.827 59.3893 271.58 59.4714C271.498 59.6357 271.251 59.7179 271.087 59.7179ZM270.1 56.7607L270.018 57.0893C269.936 57.2536 269.936 57.3357 269.853 57.4179C269.689 57.6643 269.442 57.7464 269.196 57.7464C269.113 57.7464 268.949 57.7464 268.867 57.6643L268.702 57.5821L268.373 57.5C268.291 57.5 268.291 57.5 268.209 57.4179C268.127 57.4179 268.044 57.3357 267.88 57.3357C267.716 57.3357 267.551 57.4179 267.551 57.6643H267.058C267.058 57.5 267.14 57.4179 267.14 57.2536C267.222 57.0893 267.222 57.0072 267.305 56.925C267.469 56.6786 267.716 56.5964 268.127 56.5964C268.209 56.5964 268.291 56.5964 268.373 56.6786C268.373 56.6786 268.456 56.6786 268.538 56.7607L268.702 56.8429C268.784 56.925 268.949 56.925 268.949 56.925C269.031 56.925 269.113 57.0071 269.278 57.0071C269.525 57.0071 269.689 56.925 269.607 56.6786H270.1V56.7607Z" fill="#606060"/>
<path d="M272.731 58.3213H274.129L276.842 62.6749V58.3213H278.158V64.8927H276.76L274.046 60.5391V64.8927H272.731V58.3213Z" fill="#606060"/>
<path d="M284.16 64.1534C283.913 64.482 283.667 64.7284 283.338 64.8106C283.009 64.9748 282.762 64.9748 282.433 64.9748C281.447 64.9748 280.707 64.6463 280.049 63.9891C279.473 63.332 279.227 62.5927 279.227 61.607C279.227 60.6213 279.473 59.7998 280.049 59.1427C280.624 58.4856 281.447 58.157 282.433 58.157C283.173 58.157 283.749 58.3213 284.242 58.732C284.818 59.1427 285.064 59.7177 285.147 60.457H283.749C283.584 59.7177 283.091 59.3891 282.351 59.3891C281.775 59.3891 281.282 59.6356 280.953 60.0463C280.707 60.457 280.542 60.9498 280.542 61.607C280.542 62.182 280.707 62.6748 280.953 63.0856C281.282 63.5784 281.693 63.7427 282.351 63.7427C283.338 63.7427 283.831 63.2498 283.913 62.3463H282.433V61.2784H285.147V64.8927H284.242L284.16 64.1534Z" fill="#606060"/>
<path d="M70.8755 21.1927C70.8755 15.3606 73.7533 12.4856 81.3177 12.4856H82.551C88.3888 12.4856 91.6777 15.3606 91.6777 21.6035V22.8356H85.511V22.0142C85.511 19.1392 84.4422 18.6463 81.3177 18.6463C77.7822 18.6463 77.1244 19.7142 77.1244 20.6999C77.1244 25.7106 91.9244 21.932 91.9244 32.7749C91.9244 38.607 89.0466 41.482 81.3177 41.482H80.0844C74.2466 41.482 70.9577 38.607 70.9577 32.3642V31.2142H77.2066V32.0356C77.2066 34.9106 78.2755 35.4035 81.3999 35.4035C85.1822 35.4035 85.7577 34.3356 85.7577 33.3499C85.6755 28.3392 70.8755 32.0356 70.8755 21.1927Z" fill="#007BB7"/>
<path d="M109.027 41.6464H102.367C98.1732 41.6464 96.1177 39.5928 96.1177 35.4035V19.4678L97.351 14.95H102.367V19.1392H109.027V25.3821H102.367V33.3499C102.367 34.9928 103.189 35.4035 104.422 35.4035H109.027V41.6464Z" fill="#007BB7"/>
<path d="M120.949 41.6463C115.933 41.6463 113.22 40.0856 113.22 35.6499C113.22 31.2142 115.933 29.4071 120.949 29.4071C125.224 29.4071 127.527 30.3106 128.267 31.7071V27.3535C128.267 25.4642 127.609 25.2999 124.073 25.2999C120.702 25.2999 119.88 25.7106 119.88 26.7785V27.1892H113.631V26.3678C113.631 21.7678 116.098 19.4678 124.073 19.4678C131.556 19.4678 134.516 22.3428 134.516 26.9428V41.2356H129.089L128.431 37.8678C128.02 40.1678 125.718 41.6463 120.949 41.6463ZM128.184 34.9928C128.184 34.3356 127.116 33.7606 122.347 33.7606C120.291 33.7606 119.469 34.0071 119.469 34.9928C119.469 36.0606 120.291 36.2249 122.347 36.2249C127.198 36.2249 128.184 35.5678 128.184 34.9928Z" fill="#007BB7"/>
<path d="M150.302 19.4678H153.18V25.7106H148.987C145.616 25.7106 144.793 26.3678 144.793 29.4892V41.6463H138.544V19.4678H144.382L144.793 22.8356C145.533 20.4535 146.767 19.4678 150.302 19.4678Z" fill="#007BB7"/>
<path d="M170.364 41.6464H163.704C159.511 41.6464 157.456 39.5928 157.456 35.4036V19.7964L158.689 15.2786H163.704V19.4679H170.364V25.7107H163.704V33.35C163.704 34.9928 164.527 35.4036 165.76 35.4036H170.364V41.6464Z" fill="#007BB7"/>
<path d="M182.451 41.6463C177.024 41.6463 174.558 39.1821 174.558 32.5285V19.4678H180.806V31.2142C180.806 34.0892 182.04 35.4035 185 35.4035C188.124 35.4035 189.193 33.9249 189.193 31.2142V19.4678H195.442V41.6463H189.604L189.193 37.8678C188.7 40.1678 186.398 41.6463 182.451 41.6463Z" fill="#007BB7"/>
<path d="M205.802 49.9428H199.553V19.4678H205.391L205.802 22.8357C206.624 20.5357 208.515 19.0571 212.462 19.0571C217.478 19.0571 220.355 21.9321 220.355 28.175V32.8571C220.355 39.1 217.395 41.5643 212.38 41.5643C208.433 41.5643 206.624 40.4964 205.802 38.1964V49.9428ZM209.995 35.8143C212.462 35.8143 214.189 34.5821 214.189 31.625V30.8036C214.189 27.9286 212.544 25.3 209.995 25.3C206.624 25.3 205.802 27.9286 205.802 30.8036V31.625C205.802 34.5821 206.624 35.8143 209.995 35.8143Z" fill="#007BB7"/>
<path d="M243.789 41.6463V35.4035H228.167V30.3927C232.935 25.382 237.54 20.6177 237.54 14.5392V12.4856H243.789V14.5392C243.789 20.0427 240.993 25.2177 237.046 29.407L240.006 29.0785H243.789V22.4249L248.393 17.8249H250.038V41.5642H243.789V41.6463Z" fill="#007BB7"/>
<path d="M254.231 35.4036H260.48V41.6464H254.231V35.4036Z" fill="#007BB7"/>
<path d="M264.673 31.4606V22.6713C264.673 15.3606 268.044 12.4856 273.8 12.4856H276.267C282.104 12.4856 285.393 15.3606 285.393 22.6713V31.3785C285.393 38.6892 282.022 41.5642 276.267 41.5642H273.8C267.962 41.6463 264.673 38.6892 264.673 31.4606ZM279.227 31.6249V22.507C279.227 19.632 278.404 18.7285 275.033 18.7285C271.662 18.7285 270.84 19.5499 270.84 22.507V31.6249C270.84 34.4999 271.662 35.4035 275.033 35.4035C278.404 35.4035 279.227 34.582 279.227 31.6249Z" fill="#007BB7"/>
<path d="M290.902 16.7571L292.3 15.3607L282.598 5.66779L281.2 7.06422L280.049 2.38208L292.3 5.74994L295.589 17.9892L290.902 16.7571Z" fill="#007BB7"/>
<path d="M295.178 26.9429L294.684 25.5464C294.684 25.4643 294.767 25.4643 294.767 25.3821C294.767 25.3 294.684 25.2179 294.684 25.1357V17.25H294.355V25.1357C294.273 25.2179 294.273 25.3 294.273 25.3821C294.273 25.4643 294.273 25.4643 294.355 25.5464L293.862 26.9429H295.178Z" fill="#007BB7"/>
<path d="M291.642 15.3606L287.038 19.9606C286.544 14.2106 283.584 11.1713 278.075 10.9248L282.598 6.40698L291.642 15.3606Z" fill="#007BB7"/>
<path d="M280.049 2.38208L281.364 7.63922L289.34 16.3464L295.589 17.9892L292.3 5.74994L280.049 2.38208Z" fill="#007BB7"/>
</g>
<defs>
<linearGradient id="paint0_linear_780_40220" x1="10.581" y1="65.3276" x2="53.6069" y2="20.0065" gradientUnits="userSpaceOnUse">
<stop stop-color="#14B0FC"/>
<stop offset="1" stop-color="#007BB7"/>
</linearGradient>
<linearGradient id="paint1_linear_780_40220" x1="41.96" y1="0.955813" x2="-2.06894" y2="44.7769" gradientUnits="userSpaceOnUse">
<stop stop-color="#14B0FC"/>
<stop offset="1" stop-color="#007BB7"/>
</linearGradient>
<clipPath id="clip0_780_40220">
<rect width="296" height="69" fill="white"/>
</clipPath>
</defs>
</svg>
