<svg width="32" height="33" viewBox="0 0 32 33" fill="none" xmlns="http://www.w3.org/2000/svg">
<rect y="0.0869141" width="32" height="32" rx="16" fill="url(#paint0_linear_578_11497)"/>
<path d="M12.2717 25.4201C11.7579 25.4201 11.3179 25.2372 10.9517 24.8713C10.5855 24.5054 10.4027 24.0661 10.4033 23.5534C10.4033 23.0401 10.5864 22.6005 10.9526 22.2346C11.3188 21.8688 11.7585 21.6861 12.2717 21.6868C12.7855 21.6868 13.2255 21.8697 13.5917 22.2356C13.9579 22.6014 14.1407 23.0407 14.1401 23.5534C14.1401 24.0668 13.957 24.5064 13.5908 24.8722C13.2246 25.2381 12.7849 25.4207 12.2717 25.4201ZM21.6136 25.4201C21.0998 25.4201 20.6598 25.2372 20.2936 24.8713C19.9274 24.5054 19.7446 24.0661 19.7453 23.5534C19.7453 23.0401 19.9284 22.6005 20.2946 22.2346C20.6608 21.8688 21.1005 21.6861 21.6136 21.6868C22.1275 21.6868 22.5675 21.8697 22.9337 22.2356C23.2999 22.6014 23.4827 23.0407 23.482 23.5534C23.482 24.0668 23.2989 24.5064 22.9327 24.8722C22.5665 25.2381 22.1268 25.4207 21.6136 25.4201ZM11.4776 10.4868L13.7197 15.1534H20.2591L22.8281 10.4868H11.4776ZM10.5901 8.62008H24.3695C24.7276 8.62008 25.0001 8.77968 25.187 9.09888C25.3738 9.41808 25.3816 9.74071 25.2103 10.0668L21.8939 16.0401C21.7226 16.3512 21.4928 16.5923 21.2045 16.7634C20.9161 16.9345 20.601 17.0201 20.2591 17.0201H13.2993L12.2717 18.8868H23.482V20.7534H12.2717C11.571 20.7534 11.0417 20.446 10.6835 19.8313C10.3254 19.2165 10.3099 18.6061 10.6368 18.0001L11.898 15.7134L8.5349 8.62008H6.6665V6.75342H9.70264L10.5901 8.62008Z" fill="white"/>
<defs>
<linearGradient id="paint0_linear_578_11497" x1="16" y1="0.0869141" x2="16.1647" y2="32.0877" gradientUnits="userSpaceOnUse">
<stop stop-color="#3DA6FC"/>
<stop offset="0.979167" stop-color="#0069C6"/>
</linearGradient>
</defs>
</svg>
