<svg width="16" height="16" viewBox="0 0 16 16" fill="none" xmlns="http://www.w3.org/2000/svg">
<path d="M8 13C7.35446 13 6.74972 12.879 6.18577 12.6371C5.62183 12.3952 5.13122 12.0689 4.71394 11.658C4.29667 11.2465 3.96546 10.763 3.72033 10.2076C3.4752 9.65225 3.35246 9.05632 3.35211 8.41985C3.35211 7.78371 3.47485 7.18779 3.72033 6.63206C3.96581 6.07634 4.29701 5.59288 4.71394 5.18168C5.13157 4.77048 5.62218 4.44411 6.18577 4.20254C6.74937 3.96098 7.35412 3.84003 8 3.83969C8.64554 3.83969 9.25028 3.96064 9.81422 4.20254C10.3782 4.44444 10.8688 4.77099 11.2861 5.18219C11.7033 5.59338 12.0347 6.07684 12.2802 6.63257C12.5257 7.18829 12.6482 7.78405 12.6479 8.41985C12.6479 9.05598 12.5251 9.65191 12.2797 10.2076C12.0342 10.7634 11.703 11.2468 11.2861 11.658C10.8684 12.0692 10.3778 12.3958 9.81422 12.6377C9.25063 12.8796 8.64588 13.0003 8 13ZM9.44601 10.5573L10.169 9.84478L8.51643 8.21628V5.87532H7.48357V8.62341L9.44601 10.5573ZM4.69484 3L5.41784 3.71247L3.223 5.87532L2.5 5.16285L4.69484 3ZM11.3052 3L13.5 5.16285L12.777 5.87532L10.5822 3.71247L11.3052 3Z" fill="#0288D1"/>
</svg>
