<svg width="22" height="22" viewBox="0 0 22 22" fill="none" xmlns="http://www.w3.org/2000/svg">
<path d="M16.1231 9.52043C16.165 9.74347 16.3519 9.91031 16.5783 9.92676C18.2877 10.051 19.6666 11.5354 19.6666 13.4064C19.6666 15.3673 18.1566 16.9168 16.3471 16.9168H6.41658C4.18696 16.9168 2.33325 15.0064 2.33325 12.6043L2.33325 12.6043C2.33313 11.5349 2.70958 10.5069 3.38471 9.71715C4.05932 8.92805 4.98321 8.43342 5.97643 8.32072C6.1451 8.30158 6.29255 8.19817 6.36798 8.0461C7.24623 6.27555 8.99917 5.0835 10.9999 5.0835L11 5.0835C12.2028 5.08321 13.3719 5.52122 14.3071 6.3282C15.2429 7.13565 15.8868 8.26309 16.1231 9.52043ZM7.18047 12.3022H8.97214V15.0106C8.97214 15.2867 9.196 15.5106 9.47214 15.5106H12.5277C12.8038 15.5106 13.0277 15.2867 13.0277 15.0106V12.3022H14.8194C15.0194 12.3022 15.2001 12.183 15.2789 11.9992C15.3577 11.8154 15.3194 11.6023 15.1814 11.4574L11.362 7.447C11.2676 7.34791 11.1368 7.29183 10.9999 7.29183C10.8631 7.29183 10.7322 7.34791 10.6378 7.447L6.8184 11.4574C6.68046 11.6023 6.64211 11.8154 6.7209 11.9992C6.79969 12.183 6.98046 12.3022 7.18047 12.3022Z" stroke="white" stroke-linejoin="round"/>
</svg>
